<svg version="1.2" xmlns="http://www.w3.org/2000/svg" viewBox="0 0 294 352" width="294" height="352"><defs><clipPath clipPathUnits="userSpaceOnUse" id="cp1"><path d="m599.56-71.53v423.53h-599.28v-423.53z"/></clipPath><linearGradient id="P" gradientUnits="userSpaceOnUse"/><linearGradient id="g1" x1="95.3" y1="64" x2="226.1" y2="64" href="#P"><stop stop-color="#3789c8"/><stop offset="1" stop-color="#e86224"/></linearGradient><linearGradient id="g2" x1="95.3" y1="67.2" x2="226.1" y2="67.2" href="#P"><stop stop-color="#3789c8"/><stop offset="1" stop-color="#e86124"/></linearGradient><linearGradient id="g3" x1="95.3" y1="70.4" x2="226.1" y2="70.4" href="#P"><stop stop-color="#3789c8"/><stop offset="1" stop-color="#e86024"/></linearGradient><linearGradient id="g4" x1="95.3" y1="73.5" x2="226.1" y2="73.5" href="#P"><stop stop-color="#3789c8"/><stop offset="1" stop-color="#e75f24"/></linearGradient><linearGradient id="g5" x1="95.3" y1="76.7" x2="226.1" y2="76.7" href="#P"><stop stop-color="#3789c8"/><stop offset="1" stop-color="#e75d24"/></linearGradient><linearGradient id="g6" x1="95.3" y1="79.9" x2="226.1" y2="79.9" href="#P"><stop stop-color="#3789c8"/><stop offset="1" stop-color="#e75c24"/></linearGradient><linearGradient id="g7" x1="95.3" y1="83.1" x2="226.1" y2="83.1" href="#P"><stop stop-color="#3789c8"/><stop offset="1" stop-color="#e85b24"/></linearGradient><linearGradient id="g8" x1="95.3" y1="86.3" x2="226.1" y2="86.3" href="#P"><stop stop-color="#3789c8"/><stop offset="1" stop-color="#e85824"/></linearGradient><linearGradient id="g9" x1="95.3" y1="89.5" x2="226.1" y2="89.5" href="#P"><stop stop-color="#3789c8"/><stop offset="1" stop-color="#e85724"/></linearGradient><linearGradient id="g10" x1="95.3" y1="92.7" x2="226.1" y2="92.7" href="#P"><stop stop-color="#3789c8"/><stop offset="1" stop-color="#e75524"/></linearGradient><linearGradient id="g11" x1="95.3" y1="95.8" x2="226.1" y2="95.8" href="#P"><stop stop-color="#3789c8"/><stop offset="1" stop-color="#e75424"/></linearGradient><linearGradient id="g12" x1="95.3" y1="99" x2="226.1" y2="99" href="#P"><stop stop-color="#3789c8"/><stop offset="1" stop-color="#e75224"/></linearGradient><linearGradient id="g13" x1="95.3" y1="102.2" x2="226.1" y2="102.2" href="#P"><stop stop-color="#3789c8"/><stop offset="1" stop-color="#e75125"/></linearGradient><linearGradient id="g14" x1="95.3" y1="105.4" x2="226.1" y2="105.4" href="#P"><stop stop-color="#3789c8"/><stop offset="1" stop-color="#e75027"/></linearGradient><linearGradient id="g15" x1="95.3" y1="108.6" x2="226.1" y2="108.6" href="#P"><stop stop-color="#3789c8"/><stop offset="1" stop-color="#e74f29"/></linearGradient><linearGradient id="g16" x1="95.3" y1="111.8" x2="226.1" y2="111.8" href="#P"><stop stop-color="#3789c8"/><stop offset="1" stop-color="#e74e2a"/></linearGradient><linearGradient id="g17" x1="95.3" y1="115" x2="226.1" y2="115" href="#P"><stop stop-color="#3789c8"/><stop offset="1" stop-color="#e74b2b"/></linearGradient><linearGradient id="g18" x1="95.3" y1="118.1" x2="226.1" y2="118.1" href="#P"><stop stop-color="#3789c8"/><stop offset="1" stop-color="#e74a2d"/></linearGradient><linearGradient id="g19" x1="95.3" y1="121.3" x2="226.1" y2="121.3" href="#P"><stop stop-color="#3789c8"/><stop offset="1" stop-color="#e7492e"/></linearGradient><linearGradient id="g20" x1="95.3" y1="124.5" x2="226.1" y2="124.5" href="#P"><stop stop-color="#3789c8"/><stop offset="1" stop-color="#e84730"/></linearGradient><linearGradient id="g21" x1="95.3" y1="127.7" x2="226.1" y2="127.7" href="#P"><stop stop-color="#3789c8"/><stop offset="1" stop-color="#e84631"/></linearGradient><linearGradient id="g22" x1="95.3" y1="130.9" x2="226.1" y2="130.9" href="#P"><stop stop-color="#3789c8"/><stop offset="1" stop-color="#e84432"/></linearGradient><linearGradient id="g23" x1="95.3" y1="134.1" x2="226.1" y2="134.1" href="#P"><stop stop-color="#3789c8"/><stop offset="1" stop-color="#e84334"/></linearGradient><linearGradient id="g24" x1="95.3" y1="137.3" x2="226.1" y2="137.3" href="#P"><stop stop-color="#3789c8"/><stop offset="1" stop-color="#e74234"/></linearGradient><linearGradient id="g25" x1="95.3" y1="140.4" x2="226.1" y2="140.4" href="#P"><stop stop-color="#3789c8"/><stop offset="1" stop-color="#e73f36"/></linearGradient><linearGradient id="g26" x1="95.3" y1="143.6" x2="226.1" y2="143.6" href="#P"><stop stop-color="#3789c8"/><stop offset="1" stop-color="#e73e37"/></linearGradient><linearGradient id="g27" x1="95.3" y1="146.8" x2="226.1" y2="146.8" href="#P"><stop stop-color="#3789c8"/><stop offset="1" stop-color="#e63c38"/></linearGradient><linearGradient id="g28" x1="95.3" y1="150" x2="226.1" y2="150" href="#P"><stop stop-color="#3789c8"/><stop offset="1" stop-color="#e63b39"/></linearGradient><linearGradient id="g29" x1="95.3" y1="153.2" x2="226.1" y2="153.2" href="#P"><stop stop-color="#3789c8"/><stop offset="1" stop-color="#e6383b"/></linearGradient><linearGradient id="g30" x1="95.3" y1="156.4" x2="226.1" y2="156.4" href="#P"><stop stop-color="#3789c8"/><stop offset="1" stop-color="#e6363d"/></linearGradient><linearGradient id="g31" x1="95.3" y1="159.5" x2="226.1" y2="159.5" href="#P"><stop stop-color="#3789c8"/><stop offset="1" stop-color="#e6353e"/></linearGradient><linearGradient id="g32" x1="95.3" y1="162.7" x2="226.1" y2="162.7" href="#P"><stop stop-color="#3789c8"/><stop offset="1" stop-color="#e63241"/></linearGradient><linearGradient id="g33" x1="95.3" y1="165.9" x2="226.1" y2="165.9" href="#P"><stop stop-color="#3789c8"/><stop offset="1" stop-color="#e63142"/></linearGradient><linearGradient id="g34" x1="95.3" y1="169.1" x2="226.1" y2="169.1" href="#P"><stop stop-color="#3789c8"/><stop offset="1" stop-color="#e62f43"/></linearGradient><linearGradient id="g35" x1="95.3" y1="172.3" x2="226.1" y2="172.3" href="#P"><stop stop-color="#3789c8"/><stop offset="1" stop-color="#e62f43"/></linearGradient><linearGradient id="g36" x1="95.3" y1="175.5" x2="226.1" y2="175.5" href="#P"><stop stop-color="#3789c8"/><stop offset="1" stop-color="#e62e45"/></linearGradient><linearGradient id="g37" x1="95.3" y1="178.7" x2="226.1" y2="178.7" href="#P"><stop stop-color="#3789c8"/><stop offset="1" stop-color="#e62d46"/></linearGradient><linearGradient id="g38" x1="95.3" y1="181.8" x2="226.1" y2="181.8" href="#P"><stop stop-color="#3789c8"/><stop offset="1" stop-color="#e62b47"/></linearGradient><linearGradient id="g39" x1="95.3" y1="185" x2="226.1" y2="185" href="#P"><stop stop-color="#3789c8"/><stop offset="1" stop-color="#e62948"/></linearGradient><linearGradient id="g40" x1="95.3" y1="188.2" x2="226.1" y2="188.2" href="#P"><stop stop-color="#3789c8"/><stop offset="1" stop-color="#e6284b"/></linearGradient><linearGradient id="g41" x1="95.3" y1="191.4" x2="226.1" y2="191.4" href="#P"><stop stop-color="#3789c8"/><stop offset="1" stop-color="#e6274b"/></linearGradient><linearGradient id="g42" x1="95.3" y1="194.6" x2="226.1" y2="194.6" href="#P"><stop stop-color="#3789c8"/><stop offset="1" stop-color="#e6254d"/></linearGradient><linearGradient id="g43" x1="95.3" y1="197.8" x2="226.1" y2="197.8" href="#P"><stop stop-color="#3789c8"/><stop offset="1" stop-color="#e6244f"/></linearGradient><linearGradient id="g44" x1="95.3" y1="201" x2="226.1" y2="201" href="#P"><stop stop-color="#3789c8"/><stop offset="1" stop-color="#e5224f"/></linearGradient><linearGradient id="g45" x1="95.3" y1="204.1" x2="226.1" y2="204.1" href="#P"><stop stop-color="#3789c8"/><stop offset="1" stop-color="#e42150"/></linearGradient><linearGradient id="g46" x1="95.3" y1="207.3" x2="226.1" y2="207.3" href="#P"><stop stop-color="#3789c8"/><stop offset="1" stop-color="#e42052"/></linearGradient><linearGradient id="g47" x1="95.3" y1="210.5" x2="226.1" y2="210.5" href="#P"><stop stop-color="#3789c8"/><stop offset="1" stop-color="#e41f53"/></linearGradient><linearGradient id="g48" x1="95.3" y1="213.7" x2="226.1" y2="213.7" href="#P"><stop stop-color="#3789c8"/><stop offset="1" stop-color="#e41f54"/></linearGradient><linearGradient id="g49" x1="95.3" y1="216.9" x2="226.1" y2="216.9" href="#P"><stop stop-color="#3789c8"/><stop offset="1" stop-color="#e41d55"/></linearGradient><linearGradient id="g50" x1="95.3" y1="220.1" x2="226.1" y2="220.1" href="#P"><stop stop-color="#3789c8"/><stop offset="1" stop-color="#e41c56"/></linearGradient><linearGradient id="g51" x1="95.3" y1="223.3" x2="226.1" y2="223.3" href="#P"><stop stop-color="#3789c8"/><stop offset="1" stop-color="#e51958"/></linearGradient><linearGradient id="g52" x1="95.3" y1="226.4" x2="226.1" y2="226.4" href="#P"><stop stop-color="#3789c8"/><stop offset="1" stop-color="#e5185a"/></linearGradient><linearGradient id="g53" x1="50" y1="-24.3" x2="327.5" y2="162.1" href="#P"><stop stop-color="#e86224"/><stop offset="1" stop-color="#2588c2"/></linearGradient><clipPath clipPathUnits="userSpaceOnUse" id="cp2"><path d="m-209.87 173.51l191.43-191.43 312 312-191.43 191.43z"/></clipPath></defs><style>.a{fill:#131d38}.b{fill:url(#g1)}.c{fill:url(#g2)}.d{fill:url(#g3)}.e{fill:url(#g4)}.f{fill:url(#g5)}.g{fill:url(#g6)}.h{fill:url(#g7)}.i{fill:url(#g8)}.j{fill:url(#g9)}.k{fill:url(#g10)}.l{fill:url(#g11)}.m{fill:url(#g12)}.n{fill:url(#g13)}.o{fill:url(#g14)}.p{fill:url(#g15)}.q{fill:url(#g16)}.r{fill:url(#g17)}.s{fill:url(#g18)}.t{fill:url(#g19)}.u{fill:url(#g20)}.v{fill:url(#g21)}.w{fill:url(#g22)}.x{fill:url(#g23)}.y{fill:url(#g24)}.z{fill:url(#g25)}.A{fill:url(#g26)}.B{fill:url(#g27)}.C{fill:url(#g28)}.D{fill:url(#g29)}.E{fill:url(#g30)}.F{fill:url(#g31)}.G{fill:url(#g32)}.H{fill:url(#g33)}.I{fill:url(#g34)}.J{fill:url(#g35)}.K{fill:url(#g36)}.L{fill:url(#g37)}.M{fill:url(#g38)}.N{fill:url(#g39)}.O{fill:url(#g40)}.P{fill:url(#g41)}.Q{fill:url(#g42)}.R{fill:url(#g43)}.S{fill:url(#g44)}.T{fill:url(#g45)}.U{fill:url(#g46)}.V{fill:url(#g47)}.W{fill:url(#g48)}.X{fill:url(#g49)}.Y{fill:url(#g50)}.Z{fill:url(#g51)}.a0{fill:url(#g52)}.a1{fill:url(#g53)}.a2{fill:#dce1ea}.a3{mix-blend-mode:multiply;fill:#7c828e}.a4{opacity:1;mix-blend-mode:multiply;fill:#7d838f}.a5{opacity:1;mix-blend-mode:multiply;fill:#7e8490}.a6{opacity:.9;mix-blend-mode:multiply;fill:#7e8490}.a7{opacity:.9;mix-blend-mode:multiply;fill:#7f8591}.a8{opacity:.9;mix-blend-mode:multiply;fill:#808692}.a9{opacity:.9;mix-blend-mode:multiply;fill:#818793}.aa{opacity:.9;mix-blend-mode:multiply;fill:#828894}.ab{opacity:.8;mix-blend-mode:multiply;fill:#838995}.ac{opacity:.8;mix-blend-mode:multiply;fill:#848a96}.ad{opacity:.8;mix-blend-mode:multiply;fill:#858b97}.ae{opacity:.8;mix-blend-mode:multiply;fill:#868c98}.af{opacity:.8;mix-blend-mode:multiply;fill:#878d99}.ag{opacity:.7;mix-blend-mode:multiply;fill:#878d99}.ah{opacity:.7;mix-blend-mode:multiply;fill:#888e9a}.ai{opacity:.7;mix-blend-mode:multiply;fill:#898f9b}.aj{opacity:.7;mix-blend-mode:multiply;fill:#8a909c}.ak{opacity:.7;mix-blend-mode:multiply;fill:#8b919d}.al{opacity:.6;mix-blend-mode:multiply;fill:#8b919d}.am{opacity:.6;mix-blend-mode:multiply;fill:#8c929e}.an{opacity:.6;mix-blend-mode:multiply;fill:#8d939f}.ao{opacity:.6;mix-blend-mode:multiply;fill:#8e94a0}.ap{opacity:.6;mix-blend-mode:multiply;fill:#8f95a1}.aq{opacity:.5;mix-blend-mode:multiply;fill:#9096a2}.ar{opacity:.5;mix-blend-mode:multiply;fill:#9197a3}.as{opacity:.5;mix-blend-mode:multiply;fill:#9298a4}.at{opacity:.5;mix-blend-mode:multiply;fill:#9399a5}.au{opacity:.5;mix-blend-mode:multiply;fill:#949aa6}.av{opacity:.4;mix-blend-mode:multiply;fill:#949aa6}.aw{opacity:.4;mix-blend-mode:multiply;fill:#959ba7}.ax{opacity:.4;mix-blend-mode:multiply;fill:#969ca8}.ay{opacity:.4;mix-blend-mode:multiply;fill:#979da9}.az{opacity:.4;mix-blend-mode:multiply;fill:#989eaa}.aA{opacity:.3;mix-blend-mode:multiply;fill:#989eaa}.aB{opacity:.3;mix-blend-mode:multiply;fill:#999fab}.aC{opacity:.3;mix-blend-mode:multiply;fill:#9aa0ac}.aD{opacity:.3;mix-blend-mode:multiply;fill:#9ba1ad}.aE{opacity:.3;mix-blend-mode:multiply;fill:#9ca2ae}.aF{opacity:.2;mix-blend-mode:multiply;fill:#9da3af}.aG{opacity:.2;mix-blend-mode:multiply;fill:#9ea4b0}.aH{opacity:.2;mix-blend-mode:multiply;fill:#9fa5b1}.aI{opacity:.2;mix-blend-mode:multiply;fill:#a0a6b2}.aJ{opacity:.2;mix-blend-mode:multiply;fill:#a1a7b3}.aK{opacity:.1;mix-blend-mode:multiply;fill:#a1a7b3}.aL{opacity:.1;mix-blend-mode:multiply;fill:#a2a8b4}.aM{opacity:.1;mix-blend-mode:multiply;fill:#a3a9b5}.aN{fill:none}.aO{fill:#2e519e}</style><g clip-path="url(#cp1)"><path class="a" d="m-209.9 173.5l191.5-191.4 312 312-191.5 191.4z"/><path class="b" d="m226.1 100.8c0 20.3-29.3 36.8-65.4 36.8-36.1 0-65.4-16.5-65.4-36.8 0-20.3 29.3-36.8 65.4-36.8 36.1 0 65.4 16.5 65.4 36.8z"/><path class="c" d="m226.1 104c0 20.3-29.3 36.8-65.4 36.8-36.1 0-65.4-16.5-65.4-36.8 0-20.3 29.3-36.8 65.4-36.8 36.1 0 65.4 16.5 65.4 36.8z"/><path class="d" d="m226.1 107.2c0 20.3-29.3 36.8-65.4 36.8-36.1 0-65.4-16.5-65.4-36.8 0-20.4 29.3-36.8 65.4-36.8 36.1 0 65.4 16.4 65.4 36.8z"/><path class="e" d="m226.1 110.3c0 20.4-29.3 36.8-65.4 36.8-36.1 0-65.4-16.4-65.4-36.8 0-20.3 29.3-36.8 65.4-36.8 36.1 0 65.4 16.5 65.4 36.8z"/><path class="f" d="m226.1 113.5c0 20.4-29.3 36.8-65.4 36.8-36.1 0-65.4-16.4-65.4-36.8 0-20.3 29.3-36.8 65.4-36.8 36.1 0 65.4 16.5 65.4 36.8z"/><path class="g" d="m226.1 116.7c0 20.3-29.3 36.8-65.4 36.8-36.1 0-65.4-16.5-65.4-36.8 0-20.3 29.3-36.8 65.4-36.8 36.1 0 65.4 16.5 65.4 36.8z"/><path class="h" d="m226.1 119.9c0 20.3-29.3 36.8-65.4 36.8-36.1 0-65.4-16.5-65.4-36.8 0-20.3 29.3-36.8 65.4-36.8 36.1 0 65.4 16.5 65.4 36.8z"/><path class="i" d="m226.1 123.1c0 20.3-29.3 36.8-65.4 36.8-36.1 0-65.4-16.5-65.4-36.8 0-20.3 29.3-36.8 65.4-36.8 36.1 0 65.4 16.5 65.4 36.8z"/><path class="j" d="m226.1 126.3c0 20.3-29.3 36.8-65.4 36.8-36.1 0-65.4-16.5-65.4-36.8 0-20.4 29.3-36.8 65.4-36.8 36.1 0 65.4 16.4 65.4 36.8z"/><path class="k" d="m226.1 129.5c0 20.3-29.3 36.8-65.4 36.8-36.1 0-65.4-16.5-65.4-36.8 0-20.4 29.3-36.8 65.4-36.8 36.1 0 65.4 16.4 65.4 36.8z"/><path class="l" d="m226.1 132.6c0 20.4-29.3 36.8-65.4 36.8-36.1 0-65.4-16.4-65.4-36.8 0-20.3 29.3-36.8 65.4-36.8 36.1 0 65.4 16.5 65.4 36.8z"/><path class="m" d="m226.1 135.8c0 20.4-29.3 36.8-65.4 36.8-36.1 0-65.4-16.4-65.4-36.8 0-20.3 29.3-36.8 65.4-36.8 36.1 0 65.4 16.5 65.4 36.8z"/><path class="n" d="m226.1 139c0 20.3-29.3 36.8-65.4 36.8-36.1 0-65.4-16.5-65.4-36.8 0-20.3 29.3-36.8 65.4-36.8 36.1 0 65.4 16.5 65.4 36.8z"/><path class="o" d="m226.1 142.2c0 20.3-29.3 36.8-65.4 36.8-36.1 0-65.4-16.5-65.4-36.8 0-20.3 29.3-36.8 65.4-36.8 36.1 0 65.4 16.5 65.4 36.8z"/><path class="p" d="m226.1 145.4c0 20.3-29.3 36.8-65.4 36.8-36.1 0-65.4-16.5-65.4-36.8 0-20.3 29.3-36.8 65.4-36.8 36.1 0 65.4 16.5 65.4 36.8z"/><path class="q" d="m226.1 148.6c0 20.3-29.3 36.8-65.4 36.8-36.1 0-65.4-16.5-65.4-36.8 0-20.4 29.3-36.8 65.4-36.8 36.1 0 65.4 16.4 65.4 36.8z"/><path class="r" d="m226.1 151.8c0 20.3-29.3 36.8-65.4 36.8-36.1 0-65.4-16.5-65.4-36.8 0-20.4 29.3-36.8 65.4-36.8 36.1 0 65.4 16.4 65.4 36.8z"/><path class="s" d="m226.1 154.9c0 20.4-29.3 36.8-65.4 36.8-36.1 0-65.4-16.4-65.4-36.8 0-20.3 29.3-36.8 65.4-36.8 36.1 0 65.4 16.5 65.4 36.8z"/><path class="t" d="m226.1 158.1c0 20.4-29.3 36.8-65.4 36.8-36.1 0-65.4-16.4-65.4-36.8 0-20.3 29.3-36.8 65.4-36.8 36.1 0 65.4 16.5 65.4 36.8z"/><path class="u" d="m226.1 161.3c0 20.3-29.3 36.8-65.4 36.8-36.1 0-65.4-16.5-65.4-36.8 0-20.3 29.3-36.8 65.4-36.8 36.1 0 65.4 16.5 65.4 36.8z"/><path class="v" d="m226.1 164.5c0 20.3-29.3 36.8-65.4 36.8-36.1 0-65.4-16.5-65.4-36.8 0-20.3 29.3-36.8 65.4-36.8 36.1 0 65.4 16.5 65.4 36.8z"/><path class="w" d="m226.1 167.7c0 20.3-29.3 36.8-65.4 36.8-36.1 0-65.4-16.5-65.4-36.8 0-20.3 29.3-36.8 65.4-36.8 36.1 0 65.4 16.5 65.4 36.8z"/><path class="x" d="m226.1 170.9c0 20.3-29.3 36.8-65.4 36.8-36.1 0-65.4-16.5-65.4-36.8 0-20.4 29.3-36.8 65.4-36.8 36.1 0 65.4 16.4 65.4 36.8z"/><path class="y" d="m226.1 174.1c0 20.3-29.3 36.8-65.4 36.8-36.1 0-65.4-16.5-65.4-36.8 0-20.4 29.3-36.8 65.4-36.8 36.1 0 65.4 16.4 65.4 36.8z"/><path class="z" d="m226.1 177.2c0 20.4-29.3 36.8-65.4 36.8-36.1 0-65.4-16.4-65.4-36.8 0-20.3 29.3-36.8 65.4-36.8 36.1 0 65.4 16.5 65.4 36.8z"/><path class="A" d="m226.1 180.4c0 20.3-29.3 36.8-65.4 36.8-36.1 0-65.4-16.5-65.4-36.8 0-20.3 29.3-36.8 65.4-36.8 36.1 0 65.4 16.5 65.4 36.8z"/><path class="B" d="m226.1 183.6c0 20.3-29.3 36.8-65.4 36.8-36.1 0-65.4-16.5-65.4-36.8 0-20.3 29.3-36.8 65.4-36.8 36.1 0 65.4 16.5 65.4 36.8z"/><path class="C" d="m226.1 186.8c0 20.3-29.3 36.8-65.4 36.8-36.1 0-65.4-16.5-65.4-36.8 0-20.3 29.3-36.8 65.4-36.8 36.1 0 65.4 16.5 65.4 36.8z"/><path class="D" d="m226.1 190c0 20.3-29.3 36.8-65.4 36.8-36.1 0-65.4-16.5-65.4-36.8 0-20.3 29.3-36.8 65.4-36.8 36.1 0 65.4 16.5 65.4 36.8z"/><path class="E" d="m226.1 193.2c0 20.3-29.3 36.8-65.4 36.8-36.1 0-65.4-16.5-65.4-36.8 0-20.4 29.3-36.8 65.4-36.8 36.1 0 65.4 16.4 65.4 36.8z"/><path class="F" d="m226.1 196.3c0 20.4-29.3 36.9-65.4 36.9-36.1 0-65.4-16.5-65.4-36.9 0-20.3 29.3-36.8 65.4-36.8 36.1 0 65.4 16.5 65.4 36.8z"/><path class="G" d="m226.1 199.5c0 20.4-29.3 36.8-65.4 36.8-36.1 0-65.4-16.4-65.4-36.8 0-20.3 29.3-36.8 65.4-36.8 36.1 0 65.4 16.5 65.4 36.8z"/><path class="H" d="m226.1 202.7c0 20.3-29.3 36.8-65.4 36.8-36.1 0-65.4-16.5-65.4-36.8 0-20.3 29.3-36.8 65.4-36.8 36.1 0 65.4 16.5 65.4 36.8z"/><path class="I" d="m226.1 205.9c0 20.3-29.3 36.8-65.4 36.8-36.1 0-65.4-16.5-65.4-36.8 0-20.3 29.3-36.8 65.4-36.8 36.1 0 65.4 16.5 65.4 36.8z"/><path class="J" d="m226.1 209.1c0 20.3-29.3 36.8-65.4 36.8-36.1 0-65.4-16.5-65.4-36.8 0-20.3 29.3-36.8 65.4-36.8 36.1 0 65.4 16.5 65.4 36.8z"/><path class="K" d="m226.1 212.3c0 20.3-29.3 36.8-65.4 36.8-36.1 0-65.4-16.5-65.4-36.8 0-20.3 29.3-36.8 65.4-36.8 36.1 0 65.4 16.5 65.4 36.8z"/><path class="L" d="m226.1 215.5c0 20.3-29.3 36.8-65.4 36.8-36.1 0-65.4-16.5-65.4-36.8 0-20.4 29.3-36.8 65.4-36.8 36.1 0 65.4 16.4 65.4 36.8z"/><path class="M" d="m226.1 218.6c0 20.4-29.3 36.8-65.4 36.8-36.1 0-65.4-16.4-65.4-36.8 0-20.3 29.3-36.8 65.4-36.8 36.1 0 65.4 16.5 65.4 36.8z"/><path class="N" d="m226.1 221.8c0 20.4-29.3 36.8-65.4 36.8-36.1 0-65.4-16.4-65.4-36.8 0-20.3 29.3-36.8 65.4-36.8 36.1 0 65.4 16.5 65.4 36.8z"/><path class="O" d="m226.1 225c0 20.3-29.3 36.8-65.4 36.8-36.1 0-65.4-16.5-65.4-36.8 0-20.3 29.3-36.8 65.4-36.8 36.1 0 65.4 16.5 65.4 36.8z"/><path class="P" d="m226.1 228.2c0 20.3-29.3 36.8-65.4 36.8-36.1 0-65.4-16.5-65.4-36.8 0-20.3 29.3-36.8 65.4-36.8 36.1 0 65.4 16.5 65.4 36.8z"/><path class="Q" d="m226.1 231.4c0 20.3-29.3 36.8-65.4 36.8-36.1 0-65.4-16.5-65.4-36.8 0-20.3 29.3-36.8 65.4-36.8 36.1 0 65.4 16.5 65.4 36.8z"/><path class="R" d="m226.1 234.6c0 20.3-29.3 36.8-65.4 36.8-36.1 0-65.4-16.5-65.4-36.8 0-20.4 29.3-36.8 65.4-36.8 36.1 0 65.4 16.4 65.4 36.8z"/><path class="S" d="m226.1 237.8c0 20.3-29.3 36.8-65.4 36.8-36.1 0-65.4-16.5-65.4-36.8 0-20.4 29.3-36.8 65.4-36.8 36.1 0 65.4 16.4 65.4 36.8z"/><path class="T" d="m226.1 240.9c0 20.4-29.3 36.8-65.4 36.8-36.1 0-65.4-16.4-65.4-36.8 0-20.3 29.3-36.8 65.4-36.8 36.1 0 65.4 16.5 65.4 36.8z"/><path class="U" d="m226.1 244.1c0 20.4-29.3 36.8-65.4 36.8-36.1 0-65.4-16.4-65.4-36.8 0-20.3 29.3-36.8 65.4-36.8 36.1 0 65.4 16.5 65.4 36.8z"/><path class="V" d="m226.1 247.3c0 20.3-29.3 36.8-65.4 36.8-36.1 0-65.4-16.5-65.4-36.8 0-20.3 29.3-36.8 65.4-36.8 36.1 0 65.4 16.5 65.4 36.8z"/><path class="W" d="m226.1 250.5c0 20.3-29.3 36.8-65.4 36.8-36.1 0-65.4-16.5-65.4-36.8 0-20.3 29.3-36.8 65.4-36.8 36.1 0 65.4 16.5 65.4 36.8z"/><path class="X" d="m226.1 253.7c0 20.3-29.3 36.8-65.4 36.8-36.1 0-65.4-16.5-65.4-36.8 0-20.3 29.3-36.8 65.4-36.8 36.1 0 65.4 16.5 65.4 36.8z"/><path class="Y" d="m226.1 256.9c0 20.3-29.3 36.8-65.4 36.8-36.1 0-65.4-16.5-65.4-36.8 0-20.4 29.3-36.8 65.4-36.8 36.1 0 65.4 16.4 65.4 36.8z"/><path class="Z" d="m226.1 260.1c0 20.3-29.3 36.8-65.4 36.8-36.1 0-65.4-16.5-65.4-36.8 0-20.4 29.3-36.8 65.4-36.8 36.1 0 65.4 16.4 65.4 36.8z"/><path class="a0" d="m226.1 263.2c0 20.4-29.3 36.8-65.4 36.8-36.1 0-65.4-16.4-65.4-36.8 0-20.3 29.3-36.8 65.4-36.8 36.1 0 65.4 16.5 65.4 36.8z"/><path class="a1" d="m226.1 100.8c0 20.3-29.3 36.8-65.4 36.8-36.1 0-65.4-16.5-65.4-36.8 0-20.3 29.3-36.8 65.4-36.8 36.1 0 65.4 16.5 65.4 36.8z"/><g style="opacity:.5;mix-blend-mode:soft-light"><path fill-rule="evenodd" class="a2" d="m135 79.3l14.7-4.5 54.3 29.9-16.4 5.1-9.5-5.5-21.4 6.7 1.6 7.8-16 5zm32.1 18.4l-14.8-8.5 2.4 12.4z"/></g><path fill-rule="evenodd" class="a2" d="m137 73.6l14.7-4.5 54.3 29.8-16.4 5.1-9.5-5.4-21.4 6.7 1.6 7.8-16 5zm32.1 18.4l-14.8-8.5 2.4 12.4z"/><g clip-path="url(#cp2)"><path class="a3" d="m226.1 263.2c0 20.4-29.3 36.8-65.4 36.8-36.1 0-65.4-16.4-65.4-36.8 0-20.3 29.3-36.8 65.4-36.8 36.1 0 65.4 16.5 65.4 36.8z"/><path class="a4" d="m228 265.2c0 20.3-29.2 36.8-65.4 36.8-36.1 0-65.4-16.5-65.4-36.8 0-20.4 29.3-36.8 65.4-36.8 36.2 0 65.4 16.4 65.4 36.8z"/><path class="a5" d="m230 267.1c0 20.3-29.3 36.8-65.5 36.8-36.1 0-65.4-16.5-65.4-36.8 0-20.3 29.3-36.8 65.4-36.8 36.2 0 65.5 16.5 65.5 36.8z"/><path class="a6" d="m231.9 269c0 20.3-29.3 36.8-65.4 36.8-36.2 0-65.5-16.5-65.5-36.8 0-20.3 29.3-36.8 65.5-36.8 36.1 0 65.4 16.5 65.4 36.8z"/><path class="a7" d="m233.8 270.9c0 20.3-29.3 36.8-65.4 36.8-36.2 0-65.5-16.5-65.5-36.8 0-20.3 29.3-36.8 65.5-36.8 36.1 0 65.4 16.5 65.4 36.8z"/><path class="a8" d="m235.7 272.8c0 20.4-29.3 36.8-65.4 36.8-36.1 0-65.4-16.4-65.4-36.8 0-20.3 29.3-36.8 65.4-36.8 36.1 0 65.4 16.5 65.4 36.8z"/><path class="a9" d="m237.6 274.8c0 20.3-29.3 36.8-65.4 36.8-36.1 0-65.4-16.5-65.4-36.8 0-20.4 29.3-36.8 65.4-36.8 36.1 0 65.4 16.4 65.4 36.8z"/><path class="a9" d="m239.5 276.7c0 20.3-29.2 36.8-65.4 36.8-36.1 0-65.4-16.5-65.4-36.8 0-20.3 29.3-36.8 65.4-36.8 36.2 0 65.4 16.5 65.4 36.8z"/><path class="aa" d="m241.5 278.6c0 20.3-29.3 36.8-65.5 36.8-36.1 0-65.4-16.5-65.4-36.8 0-20.3 29.3-36.8 65.4-36.8 36.2 0 65.5 16.5 65.5 36.8z"/><path class="ab" d="m243.4 280.5c0 20.4-29.3 36.8-65.4 36.8-36.2 0-65.5-16.4-65.5-36.8 0-20.3 29.3-36.8 65.5-36.8 36.1 0 65.4 16.5 65.4 36.8z"/><path class="ac" d="m245.3 282.5c0 20.3-29.3 36.8-65.4 36.8-36.2 0-65.5-16.5-65.5-36.8 0-20.4 29.3-36.9 65.5-36.9 36.1 0 65.4 16.5 65.4 36.9z"/><path class="ac" d="m247.2 284.4c0 20.3-29.3 36.8-65.4 36.8-36.1 0-65.4-16.5-65.4-36.8 0-20.4 29.3-36.8 65.4-36.8 36.1 0 65.4 16.4 65.4 36.8z"/><path class="ad" d="m249.1 286.3c0 20.3-29.3 36.8-65.4 36.8-36.1 0-65.4-16.5-65.4-36.8 0-20.3 29.3-36.8 65.4-36.8 36.1 0 65.4 16.5 65.4 36.8z"/><path class="ae" d="m251 288.2c0 20.3-29.2 36.8-65.4 36.8-36.1 0-65.4-16.5-65.4-36.8 0-20.3 29.3-36.8 65.4-36.8 36.2 0 65.4 16.5 65.4 36.8z"/><path class="af" d="m253 290.1c0 20.4-29.3 36.8-65.5 36.8-36.1 0-65.4-16.4-65.4-36.8 0-20.3 29.3-36.8 65.4-36.8 36.2 0 65.5 16.5 65.5 36.8z"/><path class="ag" d="m254.9 292.1c0 20.3-29.3 36.8-65.4 36.8-36.2 0-65.5-16.5-65.5-36.8 0-20.4 29.3-36.8 65.5-36.8 36.1 0 65.4 16.4 65.4 36.8z"/><path class="ah" d="m256.8 294c0 20.3-29.3 36.8-65.4 36.8-36.2 0-65.5-16.5-65.5-36.8 0-20.3 29.3-36.8 65.5-36.8 36.1 0 65.4 16.5 65.4 36.8z"/><path class="ai" d="m258.7 295.9c0 20.3-29.3 36.8-65.4 36.8-36.1 0-65.4-16.5-65.4-36.8 0-20.3 29.3-36.8 65.4-36.8 36.1 0 65.4 16.5 65.4 36.8z"/><path class="aj" d="m260.6 297.8c0 20.3-29.3 36.8-65.4 36.8-36.1 0-65.4-16.5-65.4-36.8 0-20.3 29.3-36.8 65.4-36.8 36.1 0 65.4 16.5 65.4 36.8z"/><path class="ak" d="m262.5 299.7c0 20.4-29.2 36.8-65.4 36.8-36.1 0-65.4-16.4-65.4-36.8 0-20.3 29.3-36.8 65.4-36.8 36.2 0 65.4 16.5 65.4 36.8z"/><path class="al" d="m264.5 301.7c0 20.3-29.3 36.8-65.5 36.8-36.1 0-65.4-16.5-65.4-36.8 0-20.4 29.3-36.8 65.4-36.8 36.2 0 65.5 16.4 65.5 36.8z"/><path class="am" d="m266.4 303.6c0 20.3-29.3 36.8-65.4 36.8-36.2 0-65.5-16.5-65.5-36.8 0-20.3 29.3-36.8 65.5-36.8 36.1 0 65.4 16.5 65.4 36.8z"/><path class="an" d="m268.3 305.5c0 20.3-29.3 36.8-65.4 36.8-36.2 0-65.4-16.5-65.4-36.8 0-20.3 29.2-36.8 65.4-36.8 36.1 0 65.4 16.5 65.4 36.8z"/><path class="ao" d="m270.2 307.4c0 20.4-29.3 36.8-65.4 36.8-36.1 0-65.4-16.4-65.4-36.8 0-20.3 29.3-36.8 65.4-36.8 36.1 0 65.4 16.5 65.4 36.8z"/><path class="ao" d="m272.1 309.3c0 20.4-29.3 36.8-65.4 36.8-36.1 0-65.4-16.4-65.4-36.8 0-20.3 29.3-36.8 65.4-36.8 36.1 0 65.4 16.5 65.4 36.8z"/><path class="ap" d="m274 311.3c0 20.3-29.2 36.8-65.4 36.8-36.1 0-65.4-16.5-65.4-36.8 0-20.4 29.3-36.8 65.4-36.8 36.2 0 65.4 16.4 65.4 36.8z"/><path class="aq" d="m276 313.2c0 20.3-29.3 36.8-65.5 36.8-36.1 0-65.4-16.5-65.4-36.8 0-20.3 29.3-36.8 65.4-36.8 36.2 0 65.5 16.5 65.5 36.8z"/><path class="ar" d="m277.9 315.1c0 20.3-29.3 36.8-65.4 36.8-36.2 0-65.5-16.5-65.5-36.8 0-20.3 29.3-36.8 65.5-36.8 36.1 0 65.4 16.5 65.4 36.8z"/><path class="ar" d="m279.8 317c0 20.4-29.3 36.8-65.4 36.8-36.2 0-65.4-16.4-65.4-36.8 0-20.3 29.2-36.8 65.4-36.8 36.1 0 65.4 16.5 65.4 36.8z"/><path class="as" d="m281.7 319c0 20.3-29.3 36.8-65.4 36.8-36.1 0-65.4-16.5-65.4-36.8 0-20.4 29.3-36.8 65.4-36.8 36.1 0 65.4 16.4 65.4 36.8z"/><path class="at" d="m283.6 320.9c0 20.3-29.3 36.8-65.4 36.8-36.1 0-65.4-16.5-65.4-36.8 0-20.4 29.3-36.8 65.4-36.8 36.1 0 65.4 16.4 65.4 36.8z"/><path class="au" d="m285.6 322.8c0 20.3-29.3 36.8-65.5 36.8-36.1 0-65.4-16.5-65.4-36.8 0-20.3 29.3-36.8 65.4-36.8 36.2 0 65.5 16.5 65.5 36.8z"/><path class="av" d="m287.5 324.7c0 20.3-29.3 36.8-65.5 36.8-36.1 0-65.4-16.5-65.4-36.8 0-20.3 29.3-36.8 65.4-36.8 36.2 0 65.5 16.5 65.5 36.8z"/><path class="aw" d="m289.4 326.6c0 20.4-29.3 36.8-65.4 36.8-36.2 0-65.5-16.4-65.5-36.8 0-20.3 29.3-36.8 65.5-36.8 36.1 0 65.4 16.5 65.4 36.8z"/><path class="ax" d="m291.3 328.6c0 20.3-29.3 36.8-65.4 36.8-36.2 0-65.4-16.5-65.4-36.8 0-20.4 29.2-36.8 65.4-36.8 36.1 0 65.4 16.4 65.4 36.8z"/><path class="ay" d="m293.2 330.5c0 20.3-29.3 36.8-65.4 36.8-36.1 0-65.4-16.5-65.4-36.8 0-20.3 29.3-36.8 65.4-36.8 36.1 0 65.4 16.5 65.4 36.8z"/><path class="az" d="m295.1 332.4c0 20.3-29.3 36.8-65.4 36.8-36.1 0-65.4-16.5-65.4-36.8 0-20.3 29.3-36.8 65.4-36.8 36.1 0 65.4 16.5 65.4 36.8z"/><path class="aA" d="m297.1 334.3c0 20.3-29.3 36.8-65.5 36.8-36.1 0-65.4-16.5-65.4-36.8 0-20.3 29.3-36.8 65.4-36.8 36.2 0 65.5 16.5 65.5 36.8z"/><path class="aB" d="m299 336.2c0 20.4-29.3 36.8-65.5 36.8-36.1 0-65.4-16.4-65.4-36.8 0-20.3 29.3-36.8 65.4-36.8 36.2 0 65.5 16.5 65.5 36.8z"/><path class="aC" d="m300.9 338.2c0 20.3-29.3 36.8-65.4 36.8-36.2 0-65.5-16.5-65.5-36.8 0-20.4 29.3-36.8 65.5-36.8 36.1 0 65.4 16.4 65.4 36.8z"/><path class="aD" d="m302.8 340.1c0 20.3-29.3 36.8-65.4 36.8-36.2 0-65.4-16.5-65.4-36.8 0-20.3 29.2-36.8 65.4-36.8 36.1 0 65.4 16.5 65.4 36.8z"/><path class="aD" d="m304.7 342c0 20.3-29.3 36.8-65.4 36.8-36.1 0-65.4-16.5-65.4-36.8 0-20.3 29.3-36.8 65.4-36.8 36.1 0 65.4 16.5 65.4 36.8z"/><path class="aE" d="m306.6 343.9c0 20.4-29.3 36.8-65.4 36.8-36.1 0-65.4-16.4-65.4-36.8 0-20.3 29.3-36.8 65.4-36.8 36.1 0 65.4 16.5 65.4 36.8z"/><path class="aF" d="m308.6 345.8c0 20.4-29.3 36.8-65.5 36.8-36.1 0-65.4-16.4-65.4-36.8 0-20.3 29.3-36.8 65.4-36.8 36.2 0 65.5 16.5 65.5 36.8z"/><path class="aG" d="m310.5 347.8c0 20.3-29.3 36.8-65.5 36.8-36.1 0-65.4-16.5-65.4-36.8 0-20.4 29.3-36.8 65.4-36.8 36.2 0 65.5 16.4 65.5 36.8z"/><path class="aG" d="m312.4 349.7c0 20.3-29.3 36.8-65.4 36.8-36.2 0-65.5-16.5-65.5-36.8 0-20.3 29.3-36.8 65.5-36.8 36.1 0 65.4 16.5 65.4 36.8z"/><path class="aH" d="m314.3 351.6c0 20.3-29.3 36.8-65.4 36.8-36.2 0-65.4-16.5-65.4-36.8 0-20.3 29.2-36.8 65.4-36.8 36.1 0 65.4 16.5 65.4 36.8z"/><path class="aI" d="m316.2 353.5c0 20.4-29.3 36.8-65.4 36.8-36.1 0-65.4-16.4-65.4-36.8 0-20.3 29.3-36.8 65.4-36.8 36.1 0 65.4 16.5 65.4 36.8z"/><path class="aJ" d="m318.1 355.5c0 20.3-29.3 36.8-65.4 36.8-36.1 0-65.4-16.5-65.4-36.8 0-20.4 29.3-36.8 65.4-36.8 36.1 0 65.4 16.4 65.4 36.8z"/><path class="aK" d="m320.1 357.4c0 20.3-29.3 36.8-65.5 36.8-36.1 0-65.4-16.5-65.4-36.8 0-20.3 29.3-36.8 65.4-36.8 36.2 0 65.5 16.5 65.5 36.8z"/><path class="aL" d="m322 359.3c0 20.3-29.3 36.8-65.5 36.8-36.1 0-65.4-16.5-65.4-36.8 0-20.3 29.3-36.8 65.4-36.8 36.2 0 65.5 16.5 65.5 36.8z"/><path class="aM" d="m323.9 361.2c0 20.3-29.3 36.8-65.4 36.8-36.2 0-65.5-16.5-65.5-36.8 0-20.3 29.3-36.8 65.5-36.8 36.1 0 65.4 16.5 65.4 36.8z"/></g><path class="aN" d="m597.6-71.5v423.5h-599.3v-423.5z"/><path fill-rule="evenodd" class="aO" d="m-67.5 181q0 0 0 0l8.5 19.7c0.2 0.4 0.1 0.8-0.3 1-22.1 14.4-31.8 42.1-23.6 67.2 0.1 0.4 0 0.8-0.4 1l-18.7 9.8q-0.3 0.2-0.7 0.1c-0.2-0.1-0.3-0.3-0.4-0.5-14-36.9 0.5-78.4 34.5-98.6q0.3-0.2 0.6-0.1 0.3 0.1 0.5 0.4zm6.8 19.7l-7.9-18.2c-32.5 19.8-46.4 59.7-33.3 95.4l17.3-9.1c-8-25.5 1.7-53.3 23.9-68.1z"/><path fill-rule="evenodd" class="aO" d="m45.1 212.6c21 39.7 5.7 89.1-34 110.1-13.1 6.9-27.7 10.1-42.4 9.3q-0.4-0.1-0.6-0.3c-0.1-0.2-0.2-0.5-0.1-0.7l3.7-21c0.1-0.4 0.4-0.7 0.8-0.7 9.6 0.1 19.1-2.3 27.6-6.7 28.6-15.1 39.6-50.6 24.5-79.2-12.5-23.8-39.6-36-65.7-29.6-0.4 0.1-0.8-0.1-0.9-0.5l-8.5-19.7q-0.2-0.3 0-0.7 0.1-0.3 0.5-0.4c37-11 77.1 5.9 95.1 40.1zm-75.4 117.8c14.1 0.6 28.1-2.5 40.7-9.2 38.9-20.5 53.9-68.9 33.3-107.8-17.6-33.3-56.3-49.9-92.4-39.6l7.9 18.3c26.6-6.2 54 6.3 66.8 30.5 15.5 29.4 4.3 65.9-25.1 81.4-8.6 4.5-18.1 6.9-27.8 6.9z"/><path fill-rule="evenodd" class="aO" d="m-46.6 306.2q0.1 0.3 0.1 0.6l-3.7 20.9q-0.1 0.4-0.4 0.6c-0.2 0.1-0.4 0.1-0.7 0-17.1-5.3-32.1-16.4-42.4-31q-0.2-0.3-0.1-0.7 0.1-0.3 0.4-0.5l18.7-9.9c0.4-0.2 0.8-0.1 1.1 0.2 6.8 8.9 16 15.7 26.6 19.5q0.3 0.1 0.4 0.3zm-5.1 20.3l3.5-19.4c-10.4-3.8-19.5-10.4-26.3-19.2l-17.3 9.2c9.8 13.8 24 24.2 40.1 29.4z"/><path class="aO" d="m-6.3 270.2q-0.9 0.9-1.9 1.7c-0.3 0.2-0.7 0.1-0.9-0.1-0.2-0.3-0.2-0.7 0.1-0.9q0.9-0.8 1.8-1.6c0.3-0.3 0.7-0.3 0.9 0 0.3 0.2 0.3 0.6 0 0.9zm4.1-4.8c-0.2 0.2-0.5 0.2-0.7 0-0.3-0.2-0.4-0.6-0.2-0.8q0.7-1.1 1.3-2.2c0.1-0.3 0.5-0.4 0.8-0.2 0.3 0.2 0.5 0.5 0.3 0.8q-0.6 1.2-1.4 2.3 0 0-0.1 0.1zm-11.4 9.7q-0.1 0.1-0.1 0.1-1.2 0.6-2.4 1c-0.4 0.2-0.7 0-0.9-0.3-0.1-0.4 0.1-0.7 0.4-0.8q1.2-0.5 2.3-1c0.3-0.1 0.7 0 0.9 0.3 0.1 0.3 0 0.6-0.2 0.7zm15.2-17.7c-0.2 0.1-0.4 0.2-0.6 0.1-0.4-0.1-0.6-0.4-0.5-0.8q0.4-1.2 0.6-2.4c0.1-0.3 0.4-0.6 0.8-0.5 0.3 0.1 0.5 0.4 0.5 0.7q-0.3 1.3-0.6 2.6-0.1 0.1-0.2 0.3zm-23.7 20.2q-0.1 0.1-0.3 0.2-1.3 0.1-2.6 0.2c-0.4 0-0.7-0.3-0.7-0.7 0-0.3 0.3-0.6 0.6-0.6q1.3 0 2.5-0.2c0.4 0 0.7 0.2 0.7 0.5 0 0.3 0 0.5-0.2 0.6zm24.8-29q-0.2 0.1-0.4 0.2c-0.4 0-0.7-0.3-0.7-0.7q0-1.2-0.2-2.4c0-0.4 0.2-0.7 0.6-0.7 0.3-0.1 0.6 0.2 0.7 0.5q0.1 1.3 0.2 2.6 0 0.3-0.2 0.5zm-33.6 28.7c-0.2 0.1-0.4 0.2-0.6 0.2q-1.2-0.3-2.5-0.6c-0.3-0.1-0.5-0.5-0.4-0.8 0.1-0.4 0.4-0.6 0.8-0.5q1.2 0.4 2.4 0.6c0.3 0.1 0.5 0.4 0.5 0.8q-0.1 0.2-0.2 0.3zm31.9-37.4q-0.1 0.1-0.2 0.1c-0.3 0.2-0.7 0-0.8-0.3q-0.5-1.2-1-2.3c-0.1-0.4 0-0.7 0.3-0.9 0.3-0.1 0.7 0 0.9 0.3q0.5 1.2 1 2.4c0 0.3 0 0.5-0.2 0.7zm-40.2 34.4c-0.2 0.2-0.5 0.2-0.8 0.1q-1.1-0.6-2.2-1.4c-0.3-0.2-0.3-0.5-0.2-0.8 0.2-0.3 0.6-0.4 0.9-0.2q1.1 0.7 2.1 1.3c0.3 0.2 0.5 0.5 0.3 0.8q-0.1 0.1-0.1 0.2zm35.9-42.1q0 0 0 0c-0.3 0.2-0.7 0.2-0.9-0.1q-0.8-1-1.6-1.9c-0.3-0.2-0.3-0.7 0-0.9 0.2-0.3 0.6-0.3 0.8 0h0.1q0.9 1 1.7 2c0.2 0.3 0.2 0.6-0.1 0.9zm-42.9 36.7c-0.3 0.2-0.7 0.2-0.9-0.1q-0.9-0.9-1.7-1.9c-0.2-0.3-0.1-0.7 0.1-0.9 0.3-0.2 0.7-0.2 0.9 0.1q0.8 1 1.6 1.8c0.2 0.3 0.2 0.7 0 1zm36.4-42.8c-0.2 0.2-0.6 0.2-0.8 0q-1-0.7-2.1-1.3c-0.3-0.1-0.5-0.5-0.3-0.8 0.2-0.3 0.6-0.4 0.9-0.3q1.1 0.7 2.2 1.4c0.3 0.2 0.4 0.6 0.2 0.9q-0.1 0-0.1 0.1zm-41.4 35.5q-0.1 0-0.1 0.1c-0.4 0.1-0.7 0-0.9-0.3q-0.5-1.2-1-2.4c-0.1-0.4 0.1-0.7 0.4-0.8 0.3-0.2 0.7 0 0.8 0.3q0.4 1.2 1 2.3c0.1 0.3 0 0.6-0.2 0.8zm33.3-39.3c-0.1 0.2-0.3 0.2-0.6 0.2q-1.1-0.3-2.4-0.6c-0.3 0-0.5-0.4-0.5-0.7 0.1-0.4 0.4-0.6 0.8-0.5q1.2 0.2 2.5 0.6c0.3 0.1 0.5 0.4 0.4 0.8q0 0.1-0.2 0.2zm-35.7 30.8q-0.2 0.1-0.4 0.1c-0.3 0.1-0.7-0.2-0.7-0.5q-0.2-1.3-0.2-2.6c0-0.3 0.3-0.6 0.6-0.6 0.4-0.1 0.6 0.2 0.7 0.6q0 1.2 0.2 2.4c0 0.2-0.1 0.4-0.2 0.6zm27-31.8q-0.2 0.1-0.4 0.2-1.3 0-2.5 0.2c-0.4 0-0.7-0.2-0.7-0.6-0.1-0.3 0.2-0.7 0.5-0.7q1.3-0.2 2.6-0.2c0.4 0 0.7 0.3 0.7 0.6q0 0.3-0.2 0.5zm-26.8 22.9c-0.1 0.2-0.3 0.2-0.5 0.2-0.4-0.1-0.6-0.4-0.5-0.7q0.2-1.3 0.6-2.6c0.1-0.3 0.4-0.5 0.8-0.4 0.3 0.1 0.5 0.4 0.4 0.8q-0.3 1.2-0.6 2.4 0 0.2-0.2 0.3zm18.1-21.2q-0.1 0.1-0.2 0.1-1.2 0.4-2.3 1c-0.3 0.1-0.7 0-0.8-0.3-0.2-0.4-0.1-0.7 0.3-0.9q1.1-0.5 2.3-1c0.4-0.1 0.7 0.1 0.9 0.4 0 0.2 0 0.5-0.2 0.7zm-15.1 12.9c-0.2 0.2-0.5 0.2-0.7 0.1-0.3-0.2-0.4-0.5-0.3-0.8q0.7-1.2 1.4-2.3c0.2-0.2 0.6-0.3 0.9-0.1 0.3 0.2 0.3 0.6 0.1 0.8q-0.7 1.1-1.2 2.2-0.1 0.1-0.2 0.1zm7.4-8.6q0 0-0.1 0-0.9 0.8-1.8 1.6c-0.2 0.2-0.7 0.2-0.9 0-0.2-0.3-0.3-0.6 0-0.9l0.4 0.5-0.4-0.5q0 0 0 0 1-0.9 2-1.7c0.2-0.2 0.6-0.1 0.8 0.1 0.2 0.3 0.2 0.7 0 0.9z"/><path class="aO" d="m-61.5 281c13.8 15.7 36.6 20.1 55.3 10.7 5.7-2.9 10.7-6.9 14.8-11.8l-3 1.5c-0.3 0.2-0.8 0.1-1-0.3q0 0 0 0c-0.2-0.4-0.1-0.9 0.3-1.1l5.1-2.7c0.2-0.1 0.5-0.1 0.8 0q0.2 0.1 0.3 0.3 0.1 0.2 0.1 0.4v5.9c0 0.4-0.3 0.8-0.8 0.8-0.4 0-0.8-0.4-0.8-0.8v-2.8c-4.2 5-9.2 9.1-15.1 12-19.4 9.8-42.9 5.2-57.2-11.1-0.2-0.3-0.2-0.8 0.1-1.1 0.4-0.3 0.9-0.2 1.1 0.1z"/><path class="aO" d="m-11.3 205.8l5.8-1c0.3 0 0.7 0.1 0.8 0.4q0.1 0.1 0.1 0.3c0.1 0.4-0.2 0.8-0.6 0.9l-3 0.5c10.3 4.4 18.7 12.3 23.8 22.3 5.2 10.4 6.5 22.3 3.5 33.5-0.1 0.5-0.6 0.7-1 0.6-0.4-0.1-0.7-0.5-0.6-1 2.9-10.8 1.7-22.3-3.3-32.3-4.9-9.7-13.1-17.4-23-21.6l1.7 2.3c0.3 0.4 0.2 0.9-0.1 1.1-0.4 0.3-0.9 0.2-1.1-0.1l-3.5-4.6c-0.2-0.3-0.2-0.6-0.1-0.8 0.1-0.3 0.3-0.5 0.6-0.5z"/><path class="aO" d="m-48.3 208.1c4.6-2.3 9.4-3.8 14.5-4.6 0.3 0 0.6 0.2 0.8 0.5q0 0.1 0.1 0.2c0 0.5-0.3 0.9-0.7 0.9-4.9 0.7-9.6 2.2-14 4.4-17.8 9-27.9 28.9-24.7 48.5l1.2-2.8c0.2-0.4 0.6-0.6 1-0.4q0.3 0.1 0.4 0.4c0.2 0.2 0.2 0.4 0.1 0.6l-2.3 5.3c-0.1 0.3-0.3 0.5-0.6 0.5-0.3 0.1-0.6-0.1-0.8-0.3l-3.7-4.5c-0.3-0.3-0.2-0.9 0.1-1.1 0.4-0.3 0.9-0.3 1.1 0.1l1.9 2.2c-3.2-20.2 7.2-40.6 25.6-49.9z"/></g></svg>