<svg version="1.2" xmlns="http://www.w3.org/2000/svg" viewBox="0 0 292 350" width="292" height="350"><defs><clipPath clipPathUnits="userSpaceOnUse" id="cp1"><path d="m291.28-73.53v423.53h-599.28v-423.53z"/></clipPath><linearGradient id="P" gradientUnits="userSpaceOnUse"/><linearGradient id="g1" x1="67.4" y1="92" x2="198.2" y2="92" href="#P"><stop stop-color="#e86224"/><stop offset="1" stop-color="#e5185a"/></linearGradient><linearGradient id="g2" x1="67.4" y1="94.6" x2="198.2" y2="94.6" href="#P"><stop stop-color="#e46325"/><stop offset="1" stop-color="#e41958"/></linearGradient><linearGradient id="g3" x1="67.4" y1="97.2" x2="198.2" y2="97.2" href="#P"><stop stop-color="#e06426"/><stop offset="1" stop-color="#e21a56"/></linearGradient><linearGradient id="g4" x1="67.4" y1="99.8" x2="198.2" y2="99.8" href="#P"><stop stop-color="#dc6527"/><stop offset="1" stop-color="#e11b55"/></linearGradient><linearGradient id="g5" x1="67.4" y1="102.4" x2="198.2" y2="102.4" href="#P"><stop stop-color="#d86527"/><stop offset="1" stop-color="#e01b53"/></linearGradient><linearGradient id="g6" x1="67.4" y1="105" x2="198.2" y2="105" href="#P"><stop stop-color="#d5672c"/><stop offset="1" stop-color="#e01c53"/></linearGradient><linearGradient id="g7" x1="67.4" y1="107.6" x2="198.2" y2="107.6" href="#P"><stop stop-color="#d26731"/><stop offset="1" stop-color="#e01c51"/></linearGradient><linearGradient id="g8" x1="67.4" y1="110.2" x2="198.2" y2="110.2" href="#P"><stop stop-color="#ce6834"/><stop offset="1" stop-color="#df1c50"/></linearGradient><linearGradient id="g9" x1="67.4" y1="112.8" x2="198.2" y2="112.8" href="#P"><stop stop-color="#c96a37"/><stop offset="1" stop-color="#de1c4e"/></linearGradient><linearGradient id="g10" x1="67.4" y1="115.4" x2="198.2" y2="115.4" href="#P"><stop stop-color="#c56a3b"/><stop offset="1" stop-color="#dd1c4d"/></linearGradient><linearGradient id="g11" x1="67.4" y1="118" x2="198.2" y2="118" href="#P"><stop stop-color="#c16b3f"/><stop offset="1" stop-color="#dc1e4b"/></linearGradient><linearGradient id="g12" x1="67.4" y1="120.6" x2="198.2" y2="120.6" href="#P"><stop stop-color="#bc6b44"/><stop offset="1" stop-color="#db1e4a"/></linearGradient><linearGradient id="g13" x1="67.4" y1="123.2" x2="198.2" y2="123.2" href="#P"><stop stop-color="#b96c47"/><stop offset="1" stop-color="#da1f48"/></linearGradient><linearGradient id="g14" x1="67.4" y1="125.8" x2="198.2" y2="125.8" href="#P"><stop stop-color="#b36d4c"/><stop offset="1" stop-color="#d91f47"/></linearGradient><linearGradient id="g15" x1="67.4" y1="128.3" x2="198.2" y2="128.3" href="#P"><stop stop-color="#af6e50"/><stop offset="1" stop-color="#d81f44"/></linearGradient><linearGradient id="g16" x1="67.4" y1="130.9" x2="198.2" y2="130.9" href="#P"><stop stop-color="#ab6f54"/><stop offset="1" stop-color="#d81f44"/></linearGradient><linearGradient id="g17" x1="67.4" y1="133.5" x2="198.2" y2="133.5" href="#P"><stop stop-color="#a67058"/><stop offset="1" stop-color="#d81f42"/></linearGradient><linearGradient id="g18" x1="67.4" y1="136.1" x2="198.2" y2="136.1" href="#P"><stop stop-color="#a2715c"/><stop offset="1" stop-color="#d71f41"/></linearGradient><linearGradient id="g19" x1="67.4" y1="138.7" x2="198.2" y2="138.7" href="#P"><stop stop-color="#9e7260"/><stop offset="1" stop-color="#d5203f"/></linearGradient><linearGradient id="g20" x1="67.4" y1="141.3" x2="198.2" y2="141.3" href="#P"><stop stop-color="#9a7264"/><stop offset="1" stop-color="#d5203e"/></linearGradient><linearGradient id="g21" x1="67.4" y1="143.9" x2="198.2" y2="143.9" href="#P"><stop stop-color="#967368"/><stop offset="1" stop-color="#d4203b"/></linearGradient><linearGradient id="g22" x1="67.4" y1="146.5" x2="198.2" y2="146.5" href="#P"><stop stop-color="#93746c"/><stop offset="1" stop-color="#d3223a"/></linearGradient><linearGradient id="g23" x1="67.4" y1="149.1" x2="198.2" y2="149.1" href="#P"><stop stop-color="#8f7570"/><stop offset="1" stop-color="#d12238"/></linearGradient><linearGradient id="g24" x1="67.4" y1="151.7" x2="198.2" y2="151.7" href="#P"><stop stop-color="#8b7674"/><stop offset="1" stop-color="#d12237"/></linearGradient><linearGradient id="g25" x1="67.4" y1="154.3" x2="198.2" y2="154.3" href="#P"><stop stop-color="#877778"/><stop offset="1" stop-color="#d02235"/></linearGradient><linearGradient id="g26" x1="67.4" y1="156.9" x2="198.2" y2="156.9" href="#P"><stop stop-color="#83787c"/><stop offset="1" stop-color="#cf2134"/></linearGradient><linearGradient id="g27" x1="67.4" y1="159.5" x2="198.2" y2="159.5" href="#P"><stop stop-color="#7f7881"/><stop offset="1" stop-color="#cf2232"/></linearGradient><linearGradient id="g28" x1="67.4" y1="162.1" x2="198.2" y2="162.1" href="#P"><stop stop-color="#7b7986"/><stop offset="1" stop-color="#cf2231"/></linearGradient><linearGradient id="g29" x1="67.4" y1="164.7" x2="198.2" y2="164.7" href="#P"><stop stop-color="#777a89"/><stop offset="1" stop-color="#ce2230"/></linearGradient><linearGradient id="g30" x1="67.4" y1="167.3" x2="198.2" y2="167.3" href="#P"><stop stop-color="#737b8e"/><stop offset="1" stop-color="#cc232f"/></linearGradient><linearGradient id="g31" x1="67.4" y1="169.9" x2="198.2" y2="169.9" href="#P"><stop stop-color="#6f7c91"/><stop offset="1" stop-color="#cb232d"/></linearGradient><linearGradient id="g32" x1="67.4" y1="172.5" x2="198.2" y2="172.5" href="#P"><stop stop-color="#6b7e95"/><stop offset="1" stop-color="#ca252c"/></linearGradient><linearGradient id="g33" x1="67.4" y1="175.1" x2="198.2" y2="175.1" href="#P"><stop stop-color="#677f9a"/><stop offset="1" stop-color="#c9252a"/></linearGradient><linearGradient id="g34" x1="67.4" y1="177.7" x2="198.2" y2="177.7" href="#P"><stop stop-color="#637f9d"/><stop offset="1" stop-color="#c72529"/></linearGradient><linearGradient id="g35" x1="67.4" y1="180.3" x2="198.2" y2="180.3" href="#P"><stop stop-color="#5f80a1"/><stop offset="1" stop-color="#c62727"/></linearGradient><linearGradient id="g36" x1="67.4" y1="182.9" x2="198.2" y2="182.9" href="#P"><stop stop-color="#5a81a5"/><stop offset="1" stop-color="#c52727"/></linearGradient><linearGradient id="g37" x1="67.4" y1="185.5" x2="198.2" y2="185.5" href="#P"><stop stop-color="#5581a9"/><stop offset="1" stop-color="#c52827"/></linearGradient><linearGradient id="g38" x1="67.4" y1="188.1" x2="198.2" y2="188.1" href="#P"><stop stop-color="#5183ad"/><stop offset="1" stop-color="#c42827"/></linearGradient><linearGradient id="g39" x1="67.4" y1="190.7" x2="198.2" y2="190.7" href="#P"><stop stop-color="#4d83b1"/><stop offset="1" stop-color="#c32827"/></linearGradient><linearGradient id="g40" x1="67.4" y1="193.3" x2="198.2" y2="193.3" href="#P"><stop stop-color="#4784b5"/><stop offset="1" stop-color="#c22927"/></linearGradient><linearGradient id="g41" x1="67.4" y1="195.9" x2="198.2" y2="195.9" href="#P"><stop stop-color="#4285b9"/><stop offset="1" stop-color="#c12926"/></linearGradient><linearGradient id="g42" x1="67.4" y1="198.5" x2="198.2" y2="198.5" href="#P"><stop stop-color="#3e85be"/><stop offset="1" stop-color="#c02926"/></linearGradient><linearGradient id="g43" x1="67.4" y1="201.1" x2="198.2" y2="201.1" href="#P"><stop stop-color="#3986c2"/><stop offset="1" stop-color="#be2b26"/></linearGradient><linearGradient id="g44" x1="67.4" y1="203.7" x2="198.2" y2="203.7" href="#P"><stop stop-color="#3587c5"/><stop offset="1" stop-color="#bd2b26"/></linearGradient><linearGradient id="g45" x1="67.4" y1="206.3" x2="198.2" y2="206.3" href="#P"><stop stop-color="#3288c8"/><stop offset="1" stop-color="#bc2b26"/></linearGradient><linearGradient id="g46" x1="67.4" y1="208.9" x2="198.2" y2="208.9" href="#P"><stop stop-color="#3088c8"/><stop offset="1" stop-color="#bb2d26"/></linearGradient><linearGradient id="g47" x1="67.4" y1="211.5" x2="198.2" y2="211.5" href="#P"><stop stop-color="#2f89c9"/><stop offset="1" stop-color="#bb2d26"/></linearGradient><linearGradient id="g48" x1="67.4" y1="214.1" x2="198.2" y2="214.1" href="#P"><stop stop-color="#2f89c9"/><stop offset="1" stop-color="#ba2e25"/></linearGradient><linearGradient id="g49" x1="67.4" y1="216.6" x2="198.2" y2="216.6" href="#P"><stop stop-color="#3188c8"/><stop offset="1" stop-color="#b82f25"/></linearGradient><linearGradient id="g50" x1="67.4" y1="219.2" x2="198.2" y2="219.2" href="#P"><stop stop-color="#3288c8"/><stop offset="1" stop-color="#b72f25"/></linearGradient><linearGradient id="g51" x1="67.4" y1="221.8" x2="198.2" y2="221.8" href="#P"><stop stop-color="#3589c8"/><stop offset="1" stop-color="#b63025"/></linearGradient><linearGradient id="g52" x1="67.4" y1="224.4" x2="198.2" y2="224.4" href="#P"><stop stop-color="#3789c8"/><stop offset="1" stop-color="#b53025"/></linearGradient><linearGradient id="g53" x1="-4.6" y1="-14.2" x2="272.9" y2="172.2" href="#P"><stop stop-color="#3789c8"/><stop offset="1" stop-color="#e86224"/></linearGradient><clipPath clipPathUnits="userSpaceOnUse" id="cp2"><path d="m191.44 483.51l-191.43-191.43 312-312 191.43 191.43z"/></clipPath></defs><style>.a{fill:#131d38}.b{fill:url(#g1)}.c{fill:url(#g2)}.d{fill:url(#g3)}.e{fill:url(#g4)}.f{fill:url(#g5)}.g{fill:url(#g6)}.h{fill:url(#g7)}.i{fill:url(#g8)}.j{fill:url(#g9)}.k{fill:url(#g10)}.l{fill:url(#g11)}.m{fill:url(#g12)}.n{fill:url(#g13)}.o{fill:url(#g14)}.p{fill:url(#g15)}.q{fill:url(#g16)}.r{fill:url(#g17)}.s{fill:url(#g18)}.t{fill:url(#g19)}.u{fill:url(#g20)}.v{fill:url(#g21)}.w{fill:url(#g22)}.x{fill:url(#g23)}.y{fill:url(#g24)}.z{fill:url(#g25)}.A{fill:url(#g26)}.B{fill:url(#g27)}.C{fill:url(#g28)}.D{fill:url(#g29)}.E{fill:url(#g30)}.F{fill:url(#g31)}.G{fill:url(#g32)}.H{fill:url(#g33)}.I{fill:url(#g34)}.J{fill:url(#g35)}.K{fill:url(#g36)}.L{fill:url(#g37)}.M{fill:url(#g38)}.N{fill:url(#g39)}.O{fill:url(#g40)}.P{fill:url(#g41)}.Q{fill:url(#g42)}.R{fill:url(#g43)}.S{fill:url(#g44)}.T{fill:url(#g45)}.U{fill:url(#g46)}.V{fill:url(#g47)}.W{fill:url(#g48)}.X{fill:url(#g49)}.Y{fill:url(#g50)}.Z{fill:url(#g51)}.a0{fill:url(#g52)}.a1{fill:url(#g53)}.a2{fill:#dce1ea}.a3{mix-blend-mode:multiply;fill:#7c828e}.a4{opacity:1;mix-blend-mode:multiply;fill:#7d838f}.a5{opacity:1;mix-blend-mode:multiply;fill:#7e8490}.a6{opacity:.9;mix-blend-mode:multiply;fill:#7e8490}.a7{opacity:.9;mix-blend-mode:multiply;fill:#7f8591}.a8{opacity:.9;mix-blend-mode:multiply;fill:#808692}.a9{opacity:.9;mix-blend-mode:multiply;fill:#818793}.aa{opacity:.9;mix-blend-mode:multiply;fill:#828894}.ab{opacity:.8;mix-blend-mode:multiply;fill:#838995}.ac{opacity:.8;mix-blend-mode:multiply;fill:#848a96}.ad{opacity:.8;mix-blend-mode:multiply;fill:#858b97}.ae{opacity:.8;mix-blend-mode:multiply;fill:#868c98}.af{opacity:.8;mix-blend-mode:multiply;fill:#878d99}.ag{opacity:.7;mix-blend-mode:multiply;fill:#878d99}.ah{opacity:.7;mix-blend-mode:multiply;fill:#888e9a}.ai{opacity:.7;mix-blend-mode:multiply;fill:#898f9b}.aj{opacity:.7;mix-blend-mode:multiply;fill:#8a909c}.ak{opacity:.7;mix-blend-mode:multiply;fill:#8b919d}.al{opacity:.6;mix-blend-mode:multiply;fill:#8b919d}.am{opacity:.6;mix-blend-mode:multiply;fill:#8c929e}.an{opacity:.6;mix-blend-mode:multiply;fill:#8d939f}.ao{opacity:.6;mix-blend-mode:multiply;fill:#8e94a0}.ap{opacity:.6;mix-blend-mode:multiply;fill:#8f95a1}.aq{opacity:.5;mix-blend-mode:multiply;fill:#9096a2}.ar{opacity:.5;mix-blend-mode:multiply;fill:#9197a3}.as{opacity:.5;mix-blend-mode:multiply;fill:#9298a4}.at{opacity:.5;mix-blend-mode:multiply;fill:#9399a5}.au{opacity:.5;mix-blend-mode:multiply;fill:#949aa6}.av{opacity:.4;mix-blend-mode:multiply;fill:#949aa6}.aw{opacity:.4;mix-blend-mode:multiply;fill:#959ba7}.ax{opacity:.4;mix-blend-mode:multiply;fill:#969ca8}.ay{opacity:.4;mix-blend-mode:multiply;fill:#979da9}.az{opacity:.4;mix-blend-mode:multiply;fill:#989eaa}.aA{opacity:.3;mix-blend-mode:multiply;fill:#989eaa}.aB{opacity:.3;mix-blend-mode:multiply;fill:#999fab}.aC{opacity:.3;mix-blend-mode:multiply;fill:#9aa0ac}.aD{opacity:.3;mix-blend-mode:multiply;fill:#9ba1ad}.aE{opacity:.3;mix-blend-mode:multiply;fill:#9ca2ae}.aF{opacity:.2;mix-blend-mode:multiply;fill:#9da3af}.aG{opacity:.2;mix-blend-mode:multiply;fill:#9ea4b0}.aH{opacity:.2;mix-blend-mode:multiply;fill:#9fa5b1}.aI{opacity:.2;mix-blend-mode:multiply;fill:#a0a6b2}.aJ{opacity:.2;mix-blend-mode:multiply;fill:#a1a7b3}.aK{opacity:.1;mix-blend-mode:multiply;fill:#a1a7b3}.aL{opacity:.1;mix-blend-mode:multiply;fill:#a2a8b4}.aM{opacity:.1;mix-blend-mode:multiply;fill:#a3a9b5}.aN{fill:none}</style><g clip-path="url(#cp1)"><path class="a" d="m191.4 483.5l-191.4-191.4 312-312 191.4 191.4z"/><path class="b" d="m198.2 128.8c0 20.3-29.3 36.8-65.4 36.8-36.2 0-65.4-16.5-65.4-36.8 0-20.3 29.2-36.8 65.4-36.8 36.1 0 65.4 16.5 65.4 36.8z"/><path class="c" d="m198.2 131.4c0 20.3-29.3 36.8-65.4 36.8-36.2 0-65.4-16.5-65.4-36.8 0-20.3 29.2-36.8 65.4-36.8 36.1 0 65.4 16.5 65.4 36.8z"/><path class="d" d="m198.2 134c0 20.3-29.3 36.8-65.4 36.8-36.2 0-65.4-16.5-65.4-36.8 0-20.3 29.2-36.8 65.4-36.8 36.1 0 65.4 16.5 65.4 36.8z"/><path class="e" d="m198.2 136.6c0 20.3-29.3 36.8-65.4 36.8-36.2 0-65.4-16.5-65.4-36.8 0-20.3 29.2-36.8 65.4-36.8 36.1 0 65.4 16.5 65.4 36.8z"/><path class="f" d="m198.2 139.2c0 20.3-29.3 36.8-65.4 36.8-36.2 0-65.4-16.5-65.4-36.8 0-20.3 29.2-36.8 65.4-36.8 36.1 0 65.4 16.5 65.4 36.8z"/><path class="g" d="m198.2 141.8c0 20.3-29.3 36.8-65.4 36.8-36.2 0-65.4-16.5-65.4-36.8 0-20.3 29.2-36.8 65.4-36.8 36.1 0 65.4 16.5 65.4 36.8z"/><path class="h" d="m198.2 144.4c0 20.3-29.3 36.8-65.4 36.8-36.2 0-65.4-16.5-65.4-36.8 0-20.4 29.2-36.8 65.4-36.8 36.1 0 65.4 16.4 65.4 36.8z"/><path class="i" d="m198.2 147c0 20.3-29.3 36.8-65.4 36.8-36.2 0-65.4-16.5-65.4-36.8 0-20.4 29.2-36.8 65.4-36.8 36.1 0 65.4 16.4 65.4 36.8z"/><path class="j" d="m198.2 149.6c0 20.3-29.3 36.8-65.4 36.8-36.2 0-65.4-16.5-65.4-36.8 0-20.4 29.2-36.8 65.4-36.8 36.1 0 65.4 16.4 65.4 36.8z"/><path class="k" d="m198.2 152.2c0 20.3-29.3 36.8-65.4 36.8-36.2 0-65.4-16.5-65.4-36.8 0-20.4 29.2-36.8 65.4-36.8 36.1 0 65.4 16.4 65.4 36.8z"/><path class="l" d="m198.2 154.8c0 20.3-29.3 36.8-65.4 36.8-36.2 0-65.4-16.5-65.4-36.8 0-20.4 29.2-36.8 65.4-36.8 36.1 0 65.4 16.4 65.4 36.8z"/><path class="m" d="m198.2 157.4c0 20.3-29.3 36.8-65.4 36.8-36.2 0-65.4-16.5-65.4-36.8 0-20.4 29.2-36.8 65.4-36.8 36.1 0 65.4 16.4 65.4 36.8z"/><path class="n" d="m198.2 160c0 20.3-29.3 36.8-65.4 36.8-36.2 0-65.4-16.5-65.4-36.8 0-20.4 29.2-36.8 65.4-36.8 36.1 0 65.4 16.4 65.4 36.8z"/><path class="o" d="m198.2 162.6c0 20.3-29.3 36.8-65.4 36.8-36.2 0-65.4-16.5-65.4-36.8 0-20.4 29.2-36.8 65.4-36.8 36.1 0 65.4 16.4 65.4 36.8z"/><path class="p" d="m198.2 165.2c0 20.3-29.3 36.8-65.4 36.8-36.2 0-65.4-16.5-65.4-36.8 0-20.4 29.2-36.9 65.4-36.9 36.1 0 65.4 16.5 65.4 36.9z"/><path class="q" d="m198.2 167.7c0 20.4-29.3 36.8-65.4 36.8-36.2 0-65.4-16.4-65.4-36.8 0-20.3 29.2-36.8 65.4-36.8 36.1 0 65.4 16.5 65.4 36.8z"/><path class="r" d="m198.2 170.3c0 20.4-29.3 36.8-65.4 36.8-36.2 0-65.4-16.4-65.4-36.8 0-20.3 29.2-36.8 65.4-36.8 36.1 0 65.4 16.5 65.4 36.8z"/><path class="s" d="m198.2 172.9c0 20.4-29.3 36.8-65.4 36.8-36.2 0-65.4-16.4-65.4-36.8 0-20.3 29.2-36.8 65.4-36.8 36.1 0 65.4 16.5 65.4 36.8z"/><path class="t" d="m198.2 175.5c0 20.4-29.3 36.8-65.4 36.8-36.2 0-65.4-16.4-65.4-36.8 0-20.3 29.2-36.8 65.4-36.8 36.1 0 65.4 16.5 65.4 36.8z"/><path class="u" d="m198.2 178.1c0 20.4-29.3 36.8-65.4 36.8-36.2 0-65.4-16.4-65.4-36.8 0-20.3 29.2-36.8 65.4-36.8 36.1 0 65.4 16.5 65.4 36.8z"/><path class="v" d="m198.2 180.7c0 20.4-29.3 36.8-65.4 36.8-36.2 0-65.4-16.4-65.4-36.8 0-20.3 29.2-36.8 65.4-36.8 36.1 0 65.4 16.5 65.4 36.8z"/><path class="w" d="m198.2 183.3c0 20.4-29.3 36.8-65.4 36.8-36.2 0-65.4-16.4-65.4-36.8 0-20.3 29.2-36.8 65.4-36.8 36.1 0 65.4 16.5 65.4 36.8z"/><path class="x" d="m198.2 185.9c0 20.4-29.3 36.8-65.4 36.8-36.2 0-65.4-16.4-65.4-36.8 0-20.3 29.2-36.8 65.4-36.8 36.1 0 65.4 16.5 65.4 36.8z"/><path class="y" d="m198.2 188.5c0 20.3-29.3 36.8-65.4 36.8-36.2 0-65.4-16.5-65.4-36.8 0-20.3 29.2-36.8 65.4-36.8 36.1 0 65.4 16.5 65.4 36.8z"/><path class="z" d="m198.2 191.1c0 20.3-29.3 36.8-65.4 36.8-36.2 0-65.4-16.5-65.4-36.8 0-20.3 29.2-36.8 65.4-36.8 36.1 0 65.4 16.5 65.4 36.8z"/><path class="A" d="m198.2 193.7c0 20.3-29.3 36.8-65.4 36.8-36.2 0-65.4-16.5-65.4-36.8 0-20.3 29.2-36.8 65.4-36.8 36.1 0 65.4 16.5 65.4 36.8z"/><path class="B" d="m198.2 196.3c0 20.3-29.3 36.8-65.4 36.8-36.2 0-65.4-16.5-65.4-36.8 0-20.3 29.2-36.8 65.4-36.8 36.1 0 65.4 16.5 65.4 36.8z"/><path class="C" d="m198.2 198.9c0 20.3-29.3 36.8-65.4 36.8-36.2 0-65.4-16.5-65.4-36.8 0-20.3 29.2-36.8 65.4-36.8 36.1 0 65.4 16.5 65.4 36.8z"/><path class="D" d="m198.2 201.5c0 20.3-29.3 36.8-65.4 36.8-36.2 0-65.4-16.5-65.4-36.8 0-20.3 29.2-36.8 65.4-36.8 36.1 0 65.4 16.5 65.4 36.8z"/><path class="E" d="m198.2 204.1c0 20.3-29.3 36.8-65.4 36.8-36.2 0-65.4-16.5-65.4-36.8 0-20.3 29.2-36.8 65.4-36.8 36.1 0 65.4 16.5 65.4 36.8z"/><path class="F" d="m198.2 206.7c0 20.3-29.3 36.8-65.4 36.8-36.2 0-65.4-16.5-65.4-36.8 0-20.3 29.2-36.8 65.4-36.8 36.1 0 65.4 16.5 65.4 36.8z"/><path class="G" d="m198.2 209.3c0 20.3-29.3 36.8-65.4 36.8-36.2 0-65.4-16.5-65.4-36.8 0-20.3 29.2-36.8 65.4-36.8 36.1 0 65.4 16.5 65.4 36.8z"/><path class="H" d="m198.2 211.9c0 20.3-29.3 36.8-65.4 36.8-36.2 0-65.4-16.5-65.4-36.8 0-20.3 29.2-36.8 65.4-36.8 36.1 0 65.4 16.5 65.4 36.8z"/><path class="I" d="m198.2 214.5c0 20.3-29.3 36.8-65.4 36.8-36.2 0-65.4-16.5-65.4-36.8 0-20.3 29.2-36.8 65.4-36.8 36.1 0 65.4 16.5 65.4 36.8z"/><path class="J" d="m198.2 217.1c0 20.3-29.3 36.8-65.4 36.8-36.2 0-65.4-16.5-65.4-36.8 0-20.3 29.2-36.8 65.4-36.8 36.1 0 65.4 16.5 65.4 36.8z"/><path class="K" d="m198.2 219.7c0 20.3-29.3 36.8-65.4 36.8-36.2 0-65.4-16.5-65.4-36.8 0-20.3 29.2-36.8 65.4-36.8 36.1 0 65.4 16.5 65.4 36.8z"/><path class="L" d="m198.2 222.3c0 20.3-29.3 36.8-65.4 36.8-36.2 0-65.4-16.5-65.4-36.8 0-20.3 29.2-36.8 65.4-36.8 36.1 0 65.4 16.5 65.4 36.8z"/><path class="M" d="m198.2 224.9c0 20.3-29.3 36.8-65.4 36.8-36.2 0-65.4-16.5-65.4-36.8 0-20.3 29.2-36.8 65.4-36.8 36.1 0 65.4 16.5 65.4 36.8z"/><path class="N" d="m198.2 227.5c0 20.3-29.3 36.8-65.4 36.8-36.2 0-65.4-16.5-65.4-36.8 0-20.3 29.2-36.8 65.4-36.8 36.1 0 65.4 16.5 65.4 36.8z"/><path class="O" d="m198.2 230.1c0 20.3-29.3 36.8-65.4 36.8-36.2 0-65.4-16.5-65.4-36.8 0-20.3 29.2-36.8 65.4-36.8 36.1 0 65.4 16.5 65.4 36.8z"/><path class="P" d="m198.2 232.7c0 20.3-29.3 36.8-65.4 36.8-36.2 0-65.4-16.5-65.4-36.8 0-20.4 29.2-36.8 65.4-36.8 36.1 0 65.4 16.4 65.4 36.8z"/><path class="Q" d="m198.2 235.3c0 20.3-29.3 36.8-65.4 36.8-36.2 0-65.4-16.5-65.4-36.8 0-20.4 29.2-36.8 65.4-36.8 36.1 0 65.4 16.4 65.4 36.8z"/><path class="R" d="m198.2 237.9c0 20.3-29.3 36.8-65.4 36.8-36.2 0-65.4-16.5-65.4-36.8 0-20.4 29.2-36.8 65.4-36.8 36.1 0 65.4 16.4 65.4 36.8z"/><path class="S" d="m198.2 240.5c0 20.3-29.3 36.8-65.4 36.8-36.2 0-65.4-16.5-65.4-36.8 0-20.4 29.2-36.8 65.4-36.8 36.1 0 65.4 16.4 65.4 36.8z"/><path class="T" d="m198.2 243.1c0 20.3-29.3 36.8-65.4 36.8-36.2 0-65.4-16.5-65.4-36.8 0-20.4 29.2-36.8 65.4-36.8 36.1 0 65.4 16.4 65.4 36.8z"/><path class="U" d="m198.2 245.7c0 20.3-29.3 36.8-65.4 36.8-36.2 0-65.4-16.5-65.4-36.8 0-20.4 29.2-36.8 65.4-36.8 36.1 0 65.4 16.4 65.4 36.8z"/><path class="V" d="m198.2 248.3c0 20.3-29.3 36.8-65.4 36.8-36.2 0-65.4-16.5-65.4-36.8 0-20.4 29.2-36.8 65.4-36.8 36.1 0 65.4 16.4 65.4 36.8z"/><path class="W" d="m198.2 250.9c0 20.3-29.3 36.8-65.4 36.8-36.2 0-65.4-16.5-65.4-36.8 0-20.4 29.2-36.8 65.4-36.8 36.1 0 65.4 16.4 65.4 36.8z"/><path class="X" d="m198.2 253.4c0 20.4-29.3 36.8-65.4 36.8-36.2 0-65.4-16.4-65.4-36.8 0-20.3 29.2-36.8 65.4-36.8 36.1 0 65.4 16.5 65.4 36.8z"/><path class="Y" d="m198.2 256c0 20.4-29.3 36.8-65.4 36.8-36.2 0-65.4-16.4-65.4-36.8 0-20.3 29.2-36.8 65.4-36.8 36.1 0 65.4 16.5 65.4 36.8z"/><path class="Z" d="m198.2 258.6c0 20.4-29.3 36.8-65.4 36.8-36.2 0-65.4-16.4-65.4-36.8 0-20.3 29.2-36.8 65.4-36.8 36.1 0 65.4 16.5 65.4 36.8z"/><path class="a0" d="m198.2 261.2c0 20.4-29.3 36.8-65.4 36.8-36.2 0-65.4-16.4-65.4-36.8 0-20.3 29.2-36.8 65.4-36.8 36.1 0 65.4 16.5 65.4 36.8z"/><path class="a1" d="m198.2 128.8c0 20.3-29.3 36.8-65.4 36.8-36.2 0-65.4-16.5-65.4-36.8 0-20.3 29.2-36.8 65.4-36.8 36.1 0 65.4 16.5 65.4 36.8z"/><g style="opacity:.5;mix-blend-mode:soft-light"><path fill-rule="evenodd" class="a2" d="m98 111l28.8-6.2c7.1-1.5 13-1.4 18 0.2 3.4 1.2 6.3 3 8.3 5.7l0.1 0.1c3.4 4.6 1.6 8.2-2.2 10.8 8 0.1 14.3 1.9 18.2 7.3l0.1 0.1c5 6.8 0.1 12.7-13.3 15.6l-29 6.3zm41.4 5.2c-1.6-2.2-5-2.8-9.5-1.9l-10.2 2.3 5 7 9.9-2.2c4.7-1 6.6-2.7 4.9-5.1zm2.9 12.5l-11.9 2.6 5.3 7.3 12.1-2.6c4.8-1 6.5-2.9 4.8-5.2l-0.1-0.1c-1.6-2.2-5-3.1-10.2-2z"/></g><path fill-rule="evenodd" class="a2" d="m98 104.7l28.8-6.2c7.1-1.5 13-1.4 18 0.2 3.4 1.2 6.3 3 8.3 5.7l0.1 0.1c3.4 4.6 1.6 8.1-2.2 10.8 8 0.1 14.3 1.9 18.2 7.3l0.1 0.1c5 6.8 0.1 12.7-13.3 15.6l-29 6.3zm41.4 5.2c-1.6-2.2-5-2.9-9.5-1.9l-10.2 2.2 5 7 9.9-2.1c4.7-1 6.6-2.7 4.9-5.1zm2.9 12.5l-11.9 2.6 5.3 7.3 12.1-2.6c4.8-1 6.5-2.9 4.8-5.2l-0.1-0.2c-1.6-2.1-5-3-10.2-1.9z"/><g clip-path="url(#cp2)"><path class="a3" d="m133.1 224.4c36.1 0 65.4 16.5 65.4 36.8 0 20.4-29.3 36.8-65.4 36.8-36.1 0-65.4-16.4-65.4-36.8 0-20.3 29.3-36.8 65.4-36.8z"/><path class="a4" d="m131.2 226.4c36.1 0 65.4 16.4 65.4 36.8 0 20.3-29.3 36.8-65.4 36.8-36.2 0-65.4-16.5-65.4-36.8 0-20.4 29.2-36.8 65.4-36.8z"/><path class="a5" d="m129.3 228.3c36.1 0 65.4 16.5 65.4 36.8 0 20.3-29.3 36.8-65.4 36.8-36.2 0-65.5-16.5-65.5-36.8 0-20.3 29.3-36.8 65.5-36.8z"/><path class="a6" d="m127.3 230.2c36.2 0 65.5 16.5 65.5 36.8 0 20.3-29.3 36.8-65.5 36.8-36.1 0-65.4-16.5-65.4-36.8 0-20.3 29.3-36.8 65.4-36.8z"/><path class="a7" d="m125.4 232.1c36.2 0 65.4 16.5 65.4 36.8 0 20.3-29.2 36.8-65.4 36.8-36.1 0-65.4-16.5-65.4-36.8 0-20.3 29.3-36.8 65.4-36.8z"/><path class="a8" d="m123.5 234c36.1 0 65.4 16.5 65.4 36.8 0 20.4-29.3 36.8-65.4 36.8-36.1 0-65.4-16.4-65.4-36.8 0-20.3 29.3-36.8 65.4-36.8z"/><path class="a9" d="m121.6 236c36.1 0 65.4 16.4 65.4 36.8 0 20.3-29.3 36.8-65.4 36.8-36.1 0-65.4-16.5-65.4-36.8 0-20.4 29.3-36.8 65.4-36.8z"/><path class="a9" d="m119.7 237.9c36.1 0 65.4 16.5 65.4 36.8 0 20.3-29.3 36.8-65.4 36.8-36.2 0-65.4-16.5-65.4-36.8 0-20.3 29.2-36.8 65.4-36.8z"/><path class="aa" d="m117.8 239.8c36.1 0 65.4 16.5 65.4 36.8 0 20.3-29.3 36.8-65.4 36.8-36.2 0-65.5-16.5-65.5-36.8 0-20.3 29.3-36.8 65.5-36.8z"/><path class="ab" d="m115.8 241.7c36.2 0 65.5 16.5 65.5 36.8 0 20.4-29.3 36.8-65.5 36.8-36.1 0-65.4-16.4-65.4-36.8 0-20.3 29.3-36.8 65.4-36.8z"/><path class="ac" d="m113.9 243.6c36.2 0 65.4 16.5 65.4 36.9 0 20.3-29.2 36.8-65.4 36.8-36.1 0-65.4-16.5-65.4-36.8 0-20.4 29.3-36.9 65.4-36.9z"/><path class="ac" d="m112 245.6c36.1 0 65.4 16.4 65.4 36.8 0 20.3-29.3 36.8-65.4 36.8-36.1 0-65.4-16.5-65.4-36.8 0-20.4 29.3-36.8 65.4-36.8z"/><path class="ad" d="m110.1 247.5c36.1 0 65.4 16.5 65.4 36.8 0 20.3-29.3 36.8-65.4 36.8-36.1 0-65.4-16.5-65.4-36.8 0-20.3 29.3-36.8 65.4-36.8z"/><path class="ae" d="m108.2 249.4c36.1 0 65.4 16.5 65.4 36.8 0 20.3-29.3 36.8-65.4 36.8-36.2 0-65.5-16.5-65.5-36.8 0-20.3 29.3-36.8 65.5-36.8z"/><path class="af" d="m106.3 251.3c36.1 0 65.4 16.5 65.4 36.8 0 20.4-29.3 36.8-65.4 36.8-36.2 0-65.5-16.4-65.5-36.8 0-20.3 29.3-36.8 65.5-36.8z"/><path class="ag" d="m104.3 253.3c36.2 0 65.5 16.4 65.5 36.8 0 20.3-29.3 36.8-65.5 36.8-36.1 0-65.4-16.5-65.4-36.8 0-20.4 29.3-36.8 65.4-36.8z"/><path class="ah" d="m102.4 255.2c36.2 0 65.4 16.5 65.4 36.8 0 20.3-29.2 36.8-65.4 36.8-36.1 0-65.4-16.5-65.4-36.8 0-20.3 29.3-36.8 65.4-36.8z"/><path class="ai" d="m100.5 257.1c36.1 0 65.4 16.5 65.4 36.8 0 20.3-29.3 36.8-65.4 36.8-36.1 0-65.4-16.5-65.4-36.8 0-20.3 29.3-36.8 65.4-36.8z"/><path class="aj" d="m98.6 259c36.1 0 65.4 16.5 65.4 36.8 0 20.3-29.3 36.8-65.4 36.8-36.1 0-65.4-16.5-65.4-36.8 0-20.3 29.3-36.8 65.4-36.8z"/><path class="ak" d="m96.7 260.9c36.1 0 65.4 16.5 65.4 36.8 0 20.4-29.3 36.8-65.4 36.8-36.2 0-65.5-16.4-65.5-36.8 0-20.3 29.3-36.8 65.5-36.8z"/><path class="al" d="m94.8 262.9c36.1 0 65.4 16.4 65.4 36.8 0 20.3-29.3 36.8-65.4 36.8-36.2 0-65.5-16.5-65.5-36.8 0-20.4 29.3-36.8 65.5-36.8z"/><path class="am" d="m92.8 264.8c36.2 0 65.5 16.5 65.5 36.8 0 20.3-29.3 36.8-65.5 36.8-36.1 0-65.4-16.5-65.4-36.8 0-20.3 29.3-36.8 65.4-36.8z"/><path class="an" d="m90.9 266.7c36.2 0 65.4 16.5 65.4 36.8 0 20.3-29.2 36.8-65.4 36.8-36.1 0-65.4-16.5-65.4-36.8 0-20.3 29.3-36.8 65.4-36.8z"/><path class="ao" d="m89 268.6c36.1 0 65.4 16.5 65.4 36.8 0 20.4-29.3 36.8-65.4 36.8-36.1 0-65.4-16.4-65.4-36.8 0-20.3 29.3-36.8 65.4-36.8z"/><path class="ao" d="m87.1 270.5c36.1 0 65.4 16.5 65.4 36.8 0 20.4-29.3 36.8-65.4 36.8-36.1 0-65.4-16.4-65.4-36.8 0-20.3 29.3-36.8 65.4-36.8z"/><path class="ap" d="m85.2 272.5c36.1 0 65.4 16.4 65.4 36.8 0 20.3-29.3 36.8-65.4 36.8-36.2 0-65.5-16.5-65.5-36.8 0-20.4 29.3-36.8 65.5-36.8z"/><path class="aq" d="m83.3 274.4c36.1 0 65.4 16.5 65.4 36.8 0 20.3-29.3 36.8-65.4 36.8-36.2 0-65.5-16.5-65.5-36.8 0-20.3 29.3-36.8 65.5-36.8z"/><path class="ar" d="m81.3 276.3c36.2 0 65.5 16.5 65.5 36.8 0 20.3-29.3 36.8-65.5 36.8-36.1 0-65.4-16.5-65.4-36.8 0-20.3 29.3-36.8 65.4-36.8z"/><path class="ar" d="m79.4 278.2c36.2 0 65.4 16.5 65.4 36.8 0 20.4-29.2 36.8-65.4 36.8-36.1 0-65.4-16.4-65.4-36.8 0-20.3 29.3-36.8 65.4-36.8z"/><path class="as" d="m77.5 280.2c36.1 0 65.4 16.4 65.4 36.8 0 20.3-29.3 36.8-65.4 36.8-36.1 0-65.4-16.5-65.4-36.8 0-20.4 29.3-36.8 65.4-36.8z"/><path class="at" d="m75.6 282.1c36.1 0 65.4 16.4 65.4 36.8 0 20.3-29.3 36.8-65.4 36.8-36.1 0-65.4-16.5-65.4-36.8 0-20.4 29.3-36.8 65.4-36.8z"/><path class="au" d="m73.7 284c36.1 0 65.4 16.5 65.4 36.8 0 20.3-29.3 36.8-65.4 36.8-36.2 0-65.5-16.5-65.5-36.8 0-20.3 29.3-36.8 65.5-36.8z"/><path class="av" d="m71.8 285.9c36.1 0 65.4 16.5 65.4 36.8 0 20.3-29.3 36.8-65.4 36.8-36.2 0-65.5-16.5-65.5-36.8 0-20.3 29.3-36.8 65.5-36.8z"/><path class="aw" d="m69.8 287.8c36.2 0 65.5 16.5 65.5 36.8 0 20.4-29.3 36.8-65.5 36.8-36.1 0-65.4-16.4-65.4-36.8 0-20.3 29.3-36.8 65.4-36.8z"/><path class="ax" d="m67.9 289.8c36.2 0 65.4 16.4 65.4 36.8 0 20.3-29.2 36.8-65.4 36.8-36.1 0-65.4-16.5-65.4-36.8 0-20.4 29.3-36.8 65.4-36.8z"/><path class="ay" d="m66 291.7c36.1 0 65.4 16.5 65.4 36.8 0 20.3-29.3 36.8-65.4 36.8-36.1 0-65.4-16.5-65.4-36.8 0-20.3 29.3-36.8 65.4-36.8z"/><path class="az" d="m64.1 293.6c36.1 0 65.4 16.5 65.4 36.8 0 20.3-29.3 36.8-65.4 36.8-36.1 0-65.4-16.5-65.4-36.8 0-20.3 29.3-36.8 65.4-36.8z"/><path class="aA" d="m62.2 295.5c36.1 0 65.4 16.5 65.4 36.8 0 20.3-29.3 36.8-65.4 36.8-36.2 0-65.5-16.5-65.5-36.8 0-20.3 29.3-36.8 65.5-36.8z"/><path class="aB" d="m60.3 297.4c36.1 0 65.4 16.5 65.4 36.8 0 20.4-29.3 36.8-65.4 36.8-36.2 0-65.5-16.4-65.5-36.8 0-20.3 29.3-36.8 65.5-36.8z"/><path class="aC" d="m58.3 299.4c36.2 0 65.5 16.4 65.5 36.8 0 20.3-29.3 36.8-65.5 36.8-36.1 0-65.4-16.5-65.4-36.8 0-20.4 29.3-36.8 65.4-36.8z"/><path class="aD" d="m56.4 301.3c36.2 0 65.4 16.5 65.4 36.8 0 20.3-29.2 36.8-65.4 36.8-36.1 0-65.4-16.5-65.4-36.8 0-20.3 29.3-36.8 65.4-36.8z"/><path class="aD" d="m54.5 303.2c36.1 0 65.4 16.5 65.4 36.8 0 20.3-29.3 36.8-65.4 36.8-36.1 0-65.4-16.5-65.4-36.8 0-20.3 29.3-36.8 65.4-36.8z"/><path class="aE" d="m52.6 305.1c36.1 0 65.4 16.5 65.4 36.8 0 20.4-29.3 36.8-65.4 36.8-36.1 0-65.4-16.4-65.4-36.8 0-20.3 29.3-36.8 65.4-36.8z"/><path class="aF" d="m50.7 307c36.1 0 65.4 16.5 65.4 36.8 0 20.4-29.3 36.8-65.4 36.8-36.2 0-65.5-16.4-65.5-36.8 0-20.3 29.3-36.8 65.5-36.8z"/><path class="aG" d="m48.8 309c36.1 0 65.4 16.4 65.4 36.8 0 20.3-29.3 36.8-65.4 36.8-36.2 0-65.5-16.5-65.5-36.8 0-20.4 29.3-36.8 65.5-36.8z"/><path class="aG" d="m46.8 310.9c36.2 0 65.5 16.5 65.5 36.8 0 20.3-29.3 36.8-65.5 36.8-36.1 0-65.4-16.5-65.4-36.8 0-20.3 29.3-36.8 65.4-36.8z"/><path class="aH" d="m44.9 312.8c36.1 0 65.4 16.5 65.4 36.8 0 20.3-29.3 36.8-65.4 36.8-36.1 0-65.4-16.5-65.4-36.8 0-20.3 29.3-36.8 65.4-36.8z"/><path class="aI" d="m43 314.7c36.1 0 65.4 16.5 65.4 36.8 0 20.4-29.3 36.8-65.4 36.8-36.1 0-65.4-16.4-65.4-36.8 0-20.3 29.3-36.8 65.4-36.8z"/><path class="aJ" d="m41.1 316.7c36.1 0 65.4 16.4 65.4 36.8 0 20.3-29.3 36.8-65.4 36.8-36.1 0-65.4-16.5-65.4-36.8 0-20.4 29.3-36.8 65.4-36.8z"/><path class="aK" d="m39.2 318.6c36.1 0 65.4 16.5 65.4 36.8 0 20.3-29.3 36.8-65.4 36.8-36.2 0-65.5-16.5-65.5-36.8 0-20.3 29.3-36.8 65.5-36.8z"/><path class="aL" d="m37.2 320.5c36.2 0 65.5 16.5 65.5 36.8 0 20.3-29.3 36.8-65.5 36.8-36.1 0-65.4-16.5-65.4-36.8 0-20.3 29.3-36.8 65.4-36.8z"/><path class="aM" d="m35.3 322.4c36.2 0 65.5 16.5 65.5 36.8 0 20.3-29.3 36.8-65.5 36.8-36.1 0-65.4-16.5-65.4-36.8 0-20.3 29.3-36.8 65.4-36.8z"/></g><path class="aN" d="m293.3-73.5v423.5h-599.3v-423.5z"/></g></svg>