<svg version="1.2" xmlns="http://www.w3.org/2000/svg" viewBox="0 0 318 273" width="318" height="273"><defs><clipPath clipPathUnits="userSpaceOnUse" id="cp1"><path d="m551.56-150.53v423.53h-599.28v-423.53z"/></clipPath><linearGradient id="P" gradientUnits="userSpaceOnUse"/><linearGradient id="g1" x1="112.8" y1="33.8" x2="229.7" y2="33.8" href="#P"><stop stop-color="#e86224"/><stop offset="1" stop-color="#e5185a"/></linearGradient><linearGradient id="g2" x1="112.8" y1="36" x2="229.7" y2="36" href="#P"><stop stop-color="#e46325"/><stop offset="1" stop-color="#e41958"/></linearGradient><linearGradient id="g3" x1="112.8" y1="38.1" x2="229.7" y2="38.1" href="#P"><stop stop-color="#e06426"/><stop offset="1" stop-color="#e21a56"/></linearGradient><linearGradient id="g4" x1="112.8" y1="40.3" x2="229.7" y2="40.3" href="#P"><stop stop-color="#dc6527"/><stop offset="1" stop-color="#e11b55"/></linearGradient><linearGradient id="g5" x1="112.8" y1="42.5" x2="229.7" y2="42.5" href="#P"><stop stop-color="#d86527"/><stop offset="1" stop-color="#e01b53"/></linearGradient><linearGradient id="g6" x1="112.8" y1="44.6" x2="229.7" y2="44.6" href="#P"><stop stop-color="#d5672c"/><stop offset="1" stop-color="#e01c53"/></linearGradient><linearGradient id="g7" x1="112.8" y1="46.8" x2="229.7" y2="46.8" href="#P"><stop stop-color="#d26731"/><stop offset="1" stop-color="#e01c51"/></linearGradient><linearGradient id="g8" x1="112.8" y1="49" x2="229.7" y2="49" href="#P"><stop stop-color="#ce6834"/><stop offset="1" stop-color="#df1c50"/></linearGradient><linearGradient id="g9" x1="112.8" y1="51.2" x2="229.7" y2="51.2" href="#P"><stop stop-color="#c96a37"/><stop offset="1" stop-color="#de1c4e"/></linearGradient><linearGradient id="g10" x1="112.8" y1="53.3" x2="229.7" y2="53.3" href="#P"><stop stop-color="#c56a3b"/><stop offset="1" stop-color="#dd1c4d"/></linearGradient><linearGradient id="g11" x1="112.8" y1="55.5" x2="229.7" y2="55.5" href="#P"><stop stop-color="#c16b3f"/><stop offset="1" stop-color="#dc1e4b"/></linearGradient><linearGradient id="g12" x1="112.8" y1="57.7" x2="229.7" y2="57.7" href="#P"><stop stop-color="#bc6b44"/><stop offset="1" stop-color="#db1e4a"/></linearGradient><linearGradient id="g13" x1="112.8" y1="59.9" x2="229.7" y2="59.9" href="#P"><stop stop-color="#b96c47"/><stop offset="1" stop-color="#da1f48"/></linearGradient><linearGradient id="g14" x1="112.8" y1="62" x2="229.7" y2="62" href="#P"><stop stop-color="#b36d4c"/><stop offset="1" stop-color="#d91f47"/></linearGradient><linearGradient id="g15" x1="112.8" y1="64.2" x2="229.7" y2="64.2" href="#P"><stop stop-color="#af6e50"/><stop offset="1" stop-color="#d81f44"/></linearGradient><linearGradient id="g16" x1="112.8" y1="66.4" x2="229.7" y2="66.4" href="#P"><stop stop-color="#ab6f54"/><stop offset="1" stop-color="#d81f44"/></linearGradient><linearGradient id="g17" x1="112.8" y1="68.5" x2="229.7" y2="68.5" href="#P"><stop stop-color="#a67058"/><stop offset="1" stop-color="#d81f42"/></linearGradient><linearGradient id="g18" x1="112.8" y1="70.7" x2="229.7" y2="70.7" href="#P"><stop stop-color="#a2715c"/><stop offset="1" stop-color="#d71f41"/></linearGradient><linearGradient id="g19" x1="112.8" y1="72.9" x2="229.7" y2="72.9" href="#P"><stop stop-color="#9e7260"/><stop offset="1" stop-color="#d5203f"/></linearGradient><linearGradient id="g20" x1="112.8" y1="75.1" x2="229.7" y2="75.1" href="#P"><stop stop-color="#9a7264"/><stop offset="1" stop-color="#d5203e"/></linearGradient><linearGradient id="g21" x1="112.8" y1="77.2" x2="229.7" y2="77.2" href="#P"><stop stop-color="#967368"/><stop offset="1" stop-color="#d4203b"/></linearGradient><linearGradient id="g22" x1="112.8" y1="79.4" x2="229.7" y2="79.4" href="#P"><stop stop-color="#93746c"/><stop offset="1" stop-color="#d3223a"/></linearGradient><linearGradient id="g23" x1="112.8" y1="81.6" x2="229.7" y2="81.6" href="#P"><stop stop-color="#8f7570"/><stop offset="1" stop-color="#d12238"/></linearGradient><linearGradient id="g24" x1="112.8" y1="83.8" x2="229.7" y2="83.8" href="#P"><stop stop-color="#8b7674"/><stop offset="1" stop-color="#d12237"/></linearGradient><linearGradient id="g25" x1="112.8" y1="85.9" x2="229.7" y2="85.9" href="#P"><stop stop-color="#877778"/><stop offset="1" stop-color="#d02235"/></linearGradient><linearGradient id="g26" x1="112.8" y1="88.1" x2="229.7" y2="88.1" href="#P"><stop stop-color="#83787c"/><stop offset="1" stop-color="#cf2134"/></linearGradient><linearGradient id="g27" x1="112.8" y1="90.3" x2="229.7" y2="90.3" href="#P"><stop stop-color="#7f7881"/><stop offset="1" stop-color="#cf2232"/></linearGradient><linearGradient id="g28" x1="112.8" y1="92.5" x2="229.7" y2="92.5" href="#P"><stop stop-color="#7b7986"/><stop offset="1" stop-color="#cf2231"/></linearGradient><linearGradient id="g29" x1="112.8" y1="94.6" x2="229.7" y2="94.6" href="#P"><stop stop-color="#777a89"/><stop offset="1" stop-color="#ce2230"/></linearGradient><linearGradient id="g30" x1="112.8" y1="96.8" x2="229.7" y2="96.8" href="#P"><stop stop-color="#737b8e"/><stop offset="1" stop-color="#cc232f"/></linearGradient><linearGradient id="g31" x1="112.8" y1="99" x2="229.7" y2="99" href="#P"><stop stop-color="#6f7c91"/><stop offset="1" stop-color="#cb232d"/></linearGradient><linearGradient id="g32" x1="112.8" y1="101.1" x2="229.7" y2="101.1" href="#P"><stop stop-color="#6b7e95"/><stop offset="1" stop-color="#ca252c"/></linearGradient><linearGradient id="g33" x1="112.8" y1="103.3" x2="229.7" y2="103.3" href="#P"><stop stop-color="#677f9a"/><stop offset="1" stop-color="#c9252a"/></linearGradient><linearGradient id="g34" x1="112.8" y1="105.5" x2="229.7" y2="105.5" href="#P"><stop stop-color="#637f9d"/><stop offset="1" stop-color="#c72529"/></linearGradient><linearGradient id="g35" x1="112.8" y1="107.7" x2="229.7" y2="107.7" href="#P"><stop stop-color="#5f80a1"/><stop offset="1" stop-color="#c62727"/></linearGradient><linearGradient id="g36" x1="112.8" y1="109.8" x2="229.7" y2="109.8" href="#P"><stop stop-color="#5a81a5"/><stop offset="1" stop-color="#c52727"/></linearGradient><linearGradient id="g37" x1="112.8" y1="112" x2="229.7" y2="112" href="#P"><stop stop-color="#5581a9"/><stop offset="1" stop-color="#c52827"/></linearGradient><linearGradient id="g38" x1="112.8" y1="114.2" x2="229.7" y2="114.2" href="#P"><stop stop-color="#5183ad"/><stop offset="1" stop-color="#c42827"/></linearGradient><linearGradient id="g39" x1="112.8" y1="116.4" x2="229.7" y2="116.4" href="#P"><stop stop-color="#4d83b1"/><stop offset="1" stop-color="#c32827"/></linearGradient><linearGradient id="g40" x1="112.8" y1="118.5" x2="229.7" y2="118.5" href="#P"><stop stop-color="#4784b5"/><stop offset="1" stop-color="#c22927"/></linearGradient><linearGradient id="g41" x1="112.8" y1="120.7" x2="229.7" y2="120.7" href="#P"><stop stop-color="#4285b9"/><stop offset="1" stop-color="#c12926"/></linearGradient><linearGradient id="g42" x1="112.8" y1="122.9" x2="229.7" y2="122.9" href="#P"><stop stop-color="#3e85be"/><stop offset="1" stop-color="#c02926"/></linearGradient><linearGradient id="g43" x1="112.8" y1="125" x2="229.7" y2="125" href="#P"><stop stop-color="#3986c2"/><stop offset="1" stop-color="#be2b26"/></linearGradient><linearGradient id="g44" x1="112.8" y1="127.2" x2="229.7" y2="127.2" href="#P"><stop stop-color="#3587c5"/><stop offset="1" stop-color="#bd2b26"/></linearGradient><linearGradient id="g45" x1="112.8" y1="129.4" x2="229.7" y2="129.4" href="#P"><stop stop-color="#3288c8"/><stop offset="1" stop-color="#bc2b26"/></linearGradient><linearGradient id="g46" x1="112.8" y1="131.6" x2="229.7" y2="131.6" href="#P"><stop stop-color="#3088c8"/><stop offset="1" stop-color="#bb2d26"/></linearGradient><linearGradient id="g47" x1="112.8" y1="133.7" x2="229.7" y2="133.7" href="#P"><stop stop-color="#2f89c9"/><stop offset="1" stop-color="#bb2d26"/></linearGradient><linearGradient id="g48" x1="112.8" y1="135.9" x2="229.7" y2="135.9" href="#P"><stop stop-color="#2f89c9"/><stop offset="1" stop-color="#ba2e25"/></linearGradient><linearGradient id="g49" x1="112.8" y1="138.1" x2="229.7" y2="138.1" href="#P"><stop stop-color="#3188c8"/><stop offset="1" stop-color="#b82f25"/></linearGradient><linearGradient id="g50" x1="112.8" y1="140.3" x2="229.7" y2="140.3" href="#P"><stop stop-color="#3288c8"/><stop offset="1" stop-color="#b72f25"/></linearGradient><linearGradient id="g51" x1="112.8" y1="142.4" x2="229.7" y2="142.4" href="#P"><stop stop-color="#3589c8"/><stop offset="1" stop-color="#b63025"/></linearGradient><linearGradient id="g52" x1="112.8" y1="144.6" x2="229.7" y2="144.6" href="#P"><stop stop-color="#3789c8"/><stop offset="1" stop-color="#b53025"/></linearGradient><linearGradient id="g53" x1="48.5" y1="-61.2" x2="296.5" y2="105.5" href="#P"><stop stop-color="#3789c8"/><stop offset="1" stop-color="#e86224"/></linearGradient><linearGradient id="g54" x1=".6" y1=".3" x2="117.6" y2=".3" href="#P"><stop stop-color="#3789c8"/><stop offset="1" stop-color="#e86224"/></linearGradient><linearGradient id="g55" x1=".6" y1="3.6" x2="117.6" y2="3.6" href="#P"><stop stop-color="#3789c8"/><stop offset="1" stop-color="#e86124"/></linearGradient><linearGradient id="g56" x1=".6" y1="6.9" x2="117.6" y2="6.9" href="#P"><stop stop-color="#3789c8"/><stop offset="1" stop-color="#e86024"/></linearGradient><linearGradient id="g57" x1=".6" y1="10.2" x2="117.6" y2="10.2" href="#P"><stop stop-color="#3789c8"/><stop offset="1" stop-color="#e75f24"/></linearGradient><linearGradient id="g58" x1=".6" y1="13.5" x2="117.6" y2="13.5" href="#P"><stop stop-color="#3789c8"/><stop offset="1" stop-color="#e75d24"/></linearGradient><linearGradient id="g59" x1=".6" y1="16.8" x2="117.6" y2="16.8" href="#P"><stop stop-color="#3789c8"/><stop offset="1" stop-color="#e75c24"/></linearGradient><linearGradient id="g60" x1=".6" y1="20" x2="117.6" y2="20" href="#P"><stop stop-color="#3789c8"/><stop offset="1" stop-color="#e85b24"/></linearGradient><linearGradient id="g61" x1=".6" y1="23.3" x2="117.6" y2="23.3" href="#P"><stop stop-color="#3789c8"/><stop offset="1" stop-color="#e85824"/></linearGradient><linearGradient id="g62" x1=".6" y1="26.6" x2="117.6" y2="26.6" href="#P"><stop stop-color="#3789c8"/><stop offset="1" stop-color="#e85724"/></linearGradient><linearGradient id="g63" x1=".6" y1="29.9" x2="117.6" y2="29.9" href="#P"><stop stop-color="#3789c8"/><stop offset="1" stop-color="#e75524"/></linearGradient><linearGradient id="g64" x1=".6" y1="33.2" x2="117.6" y2="33.2" href="#P"><stop stop-color="#3789c8"/><stop offset="1" stop-color="#e75424"/></linearGradient><linearGradient id="g65" x1=".6" y1="36.5" x2="117.6" y2="36.5" href="#P"><stop stop-color="#3789c8"/><stop offset="1" stop-color="#e75224"/></linearGradient><linearGradient id="g66" x1=".6" y1="39.8" x2="117.6" y2="39.8" href="#P"><stop stop-color="#3789c8"/><stop offset="1" stop-color="#e75125"/></linearGradient><linearGradient id="g67" x1=".6" y1="43.1" x2="117.6" y2="43.1" href="#P"><stop stop-color="#3789c8"/><stop offset="1" stop-color="#e75027"/></linearGradient><linearGradient id="g68" x1=".6" y1="46.3" x2="117.6" y2="46.3" href="#P"><stop stop-color="#3789c8"/><stop offset="1" stop-color="#e74f29"/></linearGradient><linearGradient id="g69" x1=".6" y1="49.6" x2="117.6" y2="49.6" href="#P"><stop stop-color="#3789c8"/><stop offset="1" stop-color="#e74e2a"/></linearGradient><linearGradient id="g70" x1=".6" y1="52.9" x2="117.6" y2="52.9" href="#P"><stop stop-color="#3789c8"/><stop offset="1" stop-color="#e74b2b"/></linearGradient><linearGradient id="g71" x1=".6" y1="56.2" x2="117.6" y2="56.2" href="#P"><stop stop-color="#3789c8"/><stop offset="1" stop-color="#e74a2d"/></linearGradient><linearGradient id="g72" x1=".6" y1="59.5" x2="117.6" y2="59.5" href="#P"><stop stop-color="#3789c8"/><stop offset="1" stop-color="#e7492e"/></linearGradient><linearGradient id="g73" x1=".6" y1="62.8" x2="117.6" y2="62.8" href="#P"><stop stop-color="#3789c8"/><stop offset="1" stop-color="#e84730"/></linearGradient><linearGradient id="g74" x1=".6" y1="66.1" x2="117.6" y2="66.1" href="#P"><stop stop-color="#3789c8"/><stop offset="1" stop-color="#e84631"/></linearGradient><linearGradient id="g75" x1=".6" y1="69.3" x2="117.6" y2="69.3" href="#P"><stop stop-color="#3789c8"/><stop offset="1" stop-color="#e84432"/></linearGradient><linearGradient id="g76" x1=".6" y1="72.6" x2="117.6" y2="72.6" href="#P"><stop stop-color="#3789c8"/><stop offset="1" stop-color="#e84334"/></linearGradient><linearGradient id="g77" x1=".6" y1="75.9" x2="117.6" y2="75.9" href="#P"><stop stop-color="#3789c8"/><stop offset="1" stop-color="#e74234"/></linearGradient><linearGradient id="g78" x1=".6" y1="79.2" x2="117.6" y2="79.2" href="#P"><stop stop-color="#3789c8"/><stop offset="1" stop-color="#e73f36"/></linearGradient><linearGradient id="g79" x1=".6" y1="82.5" x2="117.6" y2="82.5" href="#P"><stop stop-color="#3789c8"/><stop offset="1" stop-color="#e73e37"/></linearGradient><linearGradient id="g80" x1=".6" y1="85.8" x2="117.6" y2="85.8" href="#P"><stop stop-color="#3789c8"/><stop offset="1" stop-color="#e63c38"/></linearGradient><linearGradient id="g81" x1=".6" y1="89.1" x2="117.6" y2="89.1" href="#P"><stop stop-color="#3789c8"/><stop offset="1" stop-color="#e63b39"/></linearGradient><linearGradient id="g82" x1=".6" y1="92.4" x2="117.6" y2="92.4" href="#P"><stop stop-color="#3789c8"/><stop offset="1" stop-color="#e6383b"/></linearGradient><linearGradient id="g83" x1=".6" y1="95.6" x2="117.6" y2="95.6" href="#P"><stop stop-color="#3789c8"/><stop offset="1" stop-color="#e6363d"/></linearGradient><linearGradient id="g84" x1=".6" y1="98.9" x2="117.6" y2="98.9" href="#P"><stop stop-color="#3789c8"/><stop offset="1" stop-color="#e6353e"/></linearGradient><linearGradient id="g85" x1=".6" y1="102.2" x2="117.6" y2="102.2" href="#P"><stop stop-color="#3789c8"/><stop offset="1" stop-color="#e63241"/></linearGradient><linearGradient id="g86" x1=".6" y1="105.5" x2="117.6" y2="105.5" href="#P"><stop stop-color="#3789c8"/><stop offset="1" stop-color="#e63142"/></linearGradient><linearGradient id="g87" x1=".6" y1="108.8" x2="117.6" y2="108.8" href="#P"><stop stop-color="#3789c8"/><stop offset="1" stop-color="#e62f43"/></linearGradient><linearGradient id="g88" x1=".6" y1="112.1" x2="117.6" y2="112.1" href="#P"><stop stop-color="#3789c8"/><stop offset="1" stop-color="#e62f43"/></linearGradient><linearGradient id="g89" x1=".6" y1="115.4" x2="117.6" y2="115.4" href="#P"><stop stop-color="#3789c8"/><stop offset="1" stop-color="#e62e45"/></linearGradient><linearGradient id="g90" x1=".6" y1="118.7" x2="117.6" y2="118.7" href="#P"><stop stop-color="#3789c8"/><stop offset="1" stop-color="#e62d46"/></linearGradient><linearGradient id="g91" x1=".6" y1="121.9" x2="117.6" y2="121.9" href="#P"><stop stop-color="#3789c8"/><stop offset="1" stop-color="#e62b47"/></linearGradient><linearGradient id="g92" x1=".6" y1="125.2" x2="117.6" y2="125.2" href="#P"><stop stop-color="#3789c8"/><stop offset="1" stop-color="#e62948"/></linearGradient><linearGradient id="g93" x1=".6" y1="128.5" x2="117.6" y2="128.5" href="#P"><stop stop-color="#3789c8"/><stop offset="1" stop-color="#e6284b"/></linearGradient><linearGradient id="g94" x1=".6" y1="131.8" x2="117.6" y2="131.8" href="#P"><stop stop-color="#3789c8"/><stop offset="1" stop-color="#e6274b"/></linearGradient><linearGradient id="g95" x1=".6" y1="135.1" x2="117.6" y2="135.1" href="#P"><stop stop-color="#3789c8"/><stop offset="1" stop-color="#e6254d"/></linearGradient><linearGradient id="g96" x1=".6" y1="138.4" x2="117.6" y2="138.4" href="#P"><stop stop-color="#3789c8"/><stop offset="1" stop-color="#e6244f"/></linearGradient><linearGradient id="g97" x1=".6" y1="141.7" x2="117.6" y2="141.7" href="#P"><stop stop-color="#3789c8"/><stop offset="1" stop-color="#e5224f"/></linearGradient><linearGradient id="g98" x1=".6" y1="145" x2="117.6" y2="145" href="#P"><stop stop-color="#3789c8"/><stop offset="1" stop-color="#e42150"/></linearGradient><linearGradient id="g99" x1=".6" y1="148.2" x2="117.6" y2="148.2" href="#P"><stop stop-color="#3789c8"/><stop offset="1" stop-color="#e42052"/></linearGradient><linearGradient id="g100" x1=".6" y1="151.5" x2="117.6" y2="151.5" href="#P"><stop stop-color="#3789c8"/><stop offset="1" stop-color="#e41f53"/></linearGradient><linearGradient id="g101" x1=".6" y1="154.8" x2="117.6" y2="154.8" href="#P"><stop stop-color="#3789c8"/><stop offset="1" stop-color="#e41f54"/></linearGradient><linearGradient id="g102" x1=".6" y1="158.1" x2="117.6" y2="158.1" href="#P"><stop stop-color="#3789c8"/><stop offset="1" stop-color="#e41d55"/></linearGradient><linearGradient id="g103" x1=".6" y1="161.4" x2="117.6" y2="161.4" href="#P"><stop stop-color="#3789c8"/><stop offset="1" stop-color="#e41c56"/></linearGradient><linearGradient id="g104" x1=".6" y1="164.7" x2="117.6" y2="164.7" href="#P"><stop stop-color="#3789c8"/><stop offset="1" stop-color="#e51958"/></linearGradient><linearGradient id="g105" x1=".6" y1="168" x2="117.6" y2="168" href="#P"><stop stop-color="#3789c8"/><stop offset="1" stop-color="#e5185a"/></linearGradient><linearGradient id="g106" x1="-39.8" y1="-78.6" x2="208.2" y2="88" href="#P"><stop stop-color="#e86224"/><stop offset="1" stop-color="#2588c2"/></linearGradient></defs><style>.a{fill:url(#g1)}.b{fill:url(#g2)}.c{fill:url(#g3)}.d{fill:url(#g4)}.e{fill:url(#g5)}.f{fill:url(#g6)}.g{fill:url(#g7)}.h{fill:url(#g8)}.i{fill:url(#g9)}.j{fill:url(#g10)}.k{fill:url(#g11)}.l{fill:url(#g12)}.m{fill:url(#g13)}.n{fill:url(#g14)}.o{fill:url(#g15)}.p{fill:url(#g16)}.q{fill:url(#g17)}.r{fill:url(#g18)}.s{fill:url(#g19)}.t{fill:url(#g20)}.u{fill:url(#g21)}.v{fill:url(#g22)}.w{fill:url(#g23)}.x{fill:url(#g24)}.y{fill:url(#g25)}.z{fill:url(#g26)}.A{fill:url(#g27)}.B{fill:url(#g28)}.C{fill:url(#g29)}.D{fill:url(#g30)}.E{fill:url(#g31)}.F{fill:url(#g32)}.G{fill:url(#g33)}.H{fill:url(#g34)}.I{fill:url(#g35)}.J{fill:url(#g36)}.K{fill:url(#g37)}.L{fill:url(#g38)}.M{fill:url(#g39)}.N{fill:url(#g40)}.O{fill:url(#g41)}.P{fill:url(#g42)}.Q{fill:url(#g43)}.R{fill:url(#g44)}.S{fill:url(#g45)}.T{fill:url(#g46)}.U{fill:url(#g47)}.V{fill:url(#g48)}.W{fill:url(#g49)}.X{fill:url(#g50)}.Y{fill:url(#g51)}.Z{fill:url(#g52)}.a0{fill:url(#g53)}.a1{fill:#dce1ea}.a2{mix-blend-mode:multiply;fill:#7c828e}.a3{opacity:1;mix-blend-mode:multiply;fill:#7d838f}.a4{opacity:1;mix-blend-mode:multiply;fill:#7e8490}.a5{opacity:.9;mix-blend-mode:multiply;fill:#7e8490}.a6{opacity:.9;mix-blend-mode:multiply;fill:#7f8591}.a7{opacity:.9;mix-blend-mode:multiply;fill:#808692}.a8{opacity:.9;mix-blend-mode:multiply;fill:#818793}.a9{opacity:.9;mix-blend-mode:multiply;fill:#828894}.aa{opacity:.8;mix-blend-mode:multiply;fill:#838995}.ab{opacity:.8;mix-blend-mode:multiply;fill:#848a96}.ac{opacity:.8;mix-blend-mode:multiply;fill:#858b97}.ad{opacity:.8;mix-blend-mode:multiply;fill:#868c98}.ae{opacity:.8;mix-blend-mode:multiply;fill:#878d99}.af{opacity:.7;mix-blend-mode:multiply;fill:#878d99}.ag{opacity:.7;mix-blend-mode:multiply;fill:#888e9a}.ah{opacity:.7;mix-blend-mode:multiply;fill:#898f9b}.ai{opacity:.7;mix-blend-mode:multiply;fill:#8a909c}.aj{opacity:.7;mix-blend-mode:multiply;fill:#8b919d}.ak{opacity:.6;mix-blend-mode:multiply;fill:#8b919d}.al{opacity:.6;mix-blend-mode:multiply;fill:#8c929e}.am{opacity:.6;mix-blend-mode:multiply;fill:#8d939f}.an{opacity:.6;mix-blend-mode:multiply;fill:#8e94a0}.ao{opacity:.6;mix-blend-mode:multiply;fill:#8f95a1}.ap{opacity:.5;mix-blend-mode:multiply;fill:#9096a2}.aq{opacity:.5;mix-blend-mode:multiply;fill:#9197a3}.ar{opacity:.5;mix-blend-mode:multiply;fill:#9298a4}.as{opacity:.5;mix-blend-mode:multiply;fill:#9399a5}.at{opacity:.5;mix-blend-mode:multiply;fill:#949aa6}.au{opacity:.4;mix-blend-mode:multiply;fill:#949aa6}.av{opacity:.4;mix-blend-mode:multiply;fill:#959ba7}.aw{opacity:.4;mix-blend-mode:multiply;fill:#969ca8}.ax{opacity:.4;mix-blend-mode:multiply;fill:#979da9}.ay{opacity:.4;mix-blend-mode:multiply;fill:#989eaa}.az{opacity:.3;mix-blend-mode:multiply;fill:#989eaa}.aA{opacity:.3;mix-blend-mode:multiply;fill:#999fab}.aB{opacity:.3;mix-blend-mode:multiply;fill:#9aa0ac}.aC{opacity:.3;mix-blend-mode:multiply;fill:#9ba1ad}.aD{opacity:.3;mix-blend-mode:multiply;fill:#9ca2ae}.aE{opacity:.2;mix-blend-mode:multiply;fill:#9da3af}.aF{opacity:.2;mix-blend-mode:multiply;fill:#9ea4b0}.aG{opacity:.2;mix-blend-mode:multiply;fill:#9fa5b1}.aH{opacity:.2;mix-blend-mode:multiply;fill:#a0a6b2}.aI{opacity:.2;mix-blend-mode:multiply;fill:#a1a7b3}.aJ{opacity:.1;mix-blend-mode:multiply;fill:#a1a7b3}.aK{opacity:.1;mix-blend-mode:multiply;fill:#a2a8b4}.aL{opacity:.1;mix-blend-mode:multiply;fill:#a3a9b5}.aM{fill:url(#g54)}.aN{fill:url(#g55)}.aO{fill:url(#g56)}.aP{fill:url(#g57)}.aQ{fill:url(#g58)}.aR{fill:url(#g59)}.aS{fill:url(#g60)}.aT{fill:url(#g61)}.aU{fill:url(#g62)}.aV{fill:url(#g63)}.aW{fill:url(#g64)}.aX{fill:url(#g65)}.aY{fill:url(#g66)}.aZ{fill:url(#g67)}.b0{fill:url(#g68)}.b1{fill:url(#g69)}.b2{fill:url(#g70)}.b3{fill:url(#g71)}.b4{fill:url(#g72)}.b5{fill:url(#g73)}.b6{fill:url(#g74)}.b7{fill:url(#g75)}.b8{fill:url(#g76)}.b9{fill:url(#g77)}.ba{fill:url(#g78)}.bb{fill:url(#g79)}.bc{fill:url(#g80)}.bd{fill:url(#g81)}.be{fill:url(#g82)}.bf{fill:url(#g83)}.bg{fill:url(#g84)}.bh{fill:url(#g85)}.bi{fill:url(#g86)}.bj{fill:url(#g87)}.bk{fill:url(#g88)}.bl{fill:url(#g89)}.bm{fill:url(#g90)}.bn{fill:url(#g91)}.bo{fill:url(#g92)}.bp{fill:url(#g93)}.bq{fill:url(#g94)}.br{fill:url(#g95)}.bs{fill:url(#g96)}.bt{fill:url(#g97)}.bu{fill:url(#g98)}.bv{fill:url(#g99)}.bw{fill:url(#g100)}.bx{fill:url(#g101)}.by{fill:url(#g102)}.bz{fill:url(#g103)}.bA{fill:url(#g104)}.bB{fill:url(#g105)}.bC{fill:url(#g106)}</style><g clip-path="url(#cp1)"><path class="a" d="m229.7 66.7c0 18.1-26.1 32.9-58.4 32.9-32.3 0-58.5-14.8-58.5-32.9 0-18.2 26.2-32.9 58.5-32.9 32.3 0 58.4 14.7 58.4 32.9z"/><path class="b" d="m229.7 68.8c0 18.2-26.1 32.9-58.4 32.9-32.3 0-58.5-14.7-58.5-32.9 0-18.1 26.2-32.8 58.5-32.8 32.3 0 58.4 14.7 58.4 32.8z"/><path class="c" d="m229.7 71c0 18.2-26.1 32.9-58.4 32.9-32.3 0-58.5-14.7-58.5-32.9 0-18.1 26.2-32.9 58.5-32.9 32.3 0 58.4 14.8 58.4 32.9z"/><path class="d" d="m229.7 73.2c0 18.2-26.1 32.9-58.4 32.9-32.3 0-58.5-14.7-58.5-32.9 0-18.2 26.2-32.9 58.5-32.9 32.3 0 58.4 14.7 58.4 32.9z"/><path class="e" d="m229.7 75.4c0 18.1-26.1 32.9-58.4 32.9-32.3 0-58.5-14.8-58.5-32.9 0-18.2 26.2-32.9 58.5-32.9 32.3 0 58.4 14.7 58.4 32.9z"/><path class="f" d="m229.7 77.5c0 18.2-26.1 32.9-58.4 32.9-32.3 0-58.5-14.7-58.5-32.9 0-18.1 26.2-32.9 58.5-32.9 32.3 0 58.4 14.8 58.4 32.9z"/><path class="g" d="m229.7 79.7c0 18.2-26.1 32.9-58.4 32.9-32.3 0-58.5-14.7-58.5-32.9 0-18.2 26.2-32.9 58.5-32.9 32.3 0 58.4 14.7 58.4 32.9z"/><path class="h" d="m229.7 81.9c0 18.2-26.1 32.9-58.4 32.9-32.3 0-58.5-14.7-58.5-32.9 0-18.2 26.2-32.9 58.5-32.9 32.3 0 58.4 14.7 58.4 32.9z"/><path class="i" d="m229.7 84.1c0 18.1-26.1 32.9-58.4 32.9-32.3 0-58.5-14.8-58.5-32.9 0-18.2 26.2-32.9 58.5-32.9 32.3 0 58.4 14.7 58.4 32.9z"/><path class="j" d="m229.7 86.2c0 18.2-26.1 32.9-58.4 32.9-32.3 0-58.5-14.7-58.5-32.9 0-18.1 26.2-32.9 58.5-32.9 32.3 0 58.4 14.8 58.4 32.9z"/><path class="k" d="m229.7 88.4c0 18.2-26.1 32.9-58.4 32.9-32.3 0-58.5-14.7-58.5-32.9 0-18.2 26.2-32.9 58.5-32.9 32.3 0 58.4 14.7 58.4 32.9z"/><path class="l" d="m229.7 90.6c0 18.1-26.1 32.9-58.4 32.9-32.3 0-58.5-14.8-58.5-32.9 0-18.2 26.2-32.9 58.5-32.9 32.3 0 58.4 14.7 58.4 32.9z"/><path class="m" d="m229.7 92.7c0 18.2-26.1 32.9-58.4 32.9-32.3 0-58.5-14.7-58.5-32.9 0-18.1 26.2-32.8 58.5-32.8 32.3 0 58.4 14.7 58.4 32.8z"/><path class="n" d="m229.7 94.9c0 18.2-26.1 32.9-58.4 32.9-32.3 0-58.5-14.7-58.5-32.9 0-18.1 26.2-32.9 58.5-32.9 32.3 0 58.4 14.8 58.4 32.9z"/><path class="o" d="m229.7 97.1c0 18.2-26.1 32.9-58.4 32.9-32.3 0-58.5-14.7-58.5-32.9 0-18.2 26.2-32.9 58.5-32.9 32.3 0 58.4 14.7 58.4 32.9z"/><path class="p" d="m229.7 99.3c0 18.1-26.1 32.9-58.4 32.9-32.3 0-58.5-14.8-58.5-32.9 0-18.2 26.2-32.9 58.5-32.9 32.3 0 58.4 14.7 58.4 32.9z"/><path class="q" d="m229.7 101.4c0 18.2-26.1 32.9-58.4 32.9-32.3 0-58.5-14.7-58.5-32.9 0-18.1 26.2-32.9 58.5-32.9 32.3 0 58.4 14.8 58.4 32.9z"/><path class="r" d="m229.7 103.6c0 18.2-26.1 32.9-58.4 32.9-32.3 0-58.5-14.7-58.5-32.9 0-18.2 26.2-32.9 58.5-32.9 32.3 0 58.4 14.7 58.4 32.9z"/><path class="s" d="m229.7 105.8c0 18.2-26.1 32.9-58.4 32.9-32.3 0-58.5-14.7-58.5-32.9 0-18.2 26.2-32.9 58.5-32.9 32.3 0 58.4 14.7 58.4 32.9z"/><path class="t" d="m229.7 108c0 18.1-26.1 32.9-58.4 32.9-32.3 0-58.5-14.8-58.5-32.9 0-18.2 26.2-32.9 58.5-32.9 32.3 0 58.4 14.7 58.4 32.9z"/><path class="u" d="m229.7 110.1c0 18.2-26.1 32.9-58.4 32.9-32.3 0-58.5-14.7-58.5-32.9 0-18.1 26.2-32.9 58.5-32.9 32.3 0 58.4 14.8 58.4 32.9z"/><path class="v" d="m229.7 112.3c0 18.2-26.1 32.9-58.4 32.9-32.3 0-58.5-14.7-58.5-32.9 0-18.2 26.2-32.9 58.5-32.9 32.3 0 58.4 14.7 58.4 32.9z"/><path class="w" d="m229.7 114.5c0 18.1-26.1 32.9-58.4 32.9-32.3 0-58.5-14.8-58.5-32.9 0-18.2 26.2-32.9 58.5-32.9 32.3 0 58.4 14.7 58.4 32.9z"/><path class="x" d="m229.7 116.7c0 18.1-26.1 32.8-58.4 32.8-32.3 0-58.5-14.7-58.5-32.8 0-18.2 26.2-32.9 58.5-32.9 32.3 0 58.4 14.7 58.4 32.9z"/><path class="y" d="m229.7 118.8c0 18.2-26.1 32.9-58.4 32.9-32.3 0-58.5-14.7-58.5-32.9 0-18.1 26.2-32.9 58.5-32.9 32.3 0 58.4 14.8 58.4 32.9z"/><path class="z" d="m229.7 121c0 18.2-26.1 32.9-58.4 32.9-32.3 0-58.5-14.7-58.5-32.9 0-18.2 26.2-32.9 58.5-32.9 32.3 0 58.4 14.7 58.4 32.9z"/><path class="A" d="m229.7 123.2c0 18.1-26.1 32.9-58.4 32.9-32.3 0-58.5-14.8-58.5-32.9 0-18.2 26.2-32.9 58.5-32.9 32.3 0 58.4 14.7 58.4 32.9z"/><path class="B" d="m229.7 125.3c0 18.2-26.1 32.9-58.4 32.9-32.3 0-58.5-14.7-58.5-32.9 0-18.1 26.2-32.8 58.5-32.8 32.3 0 58.4 14.7 58.4 32.8z"/><path class="C" d="m229.7 127.5c0 18.2-26.1 32.9-58.4 32.9-32.3 0-58.5-14.7-58.5-32.9 0-18.1 26.2-32.9 58.5-32.9 32.3 0 58.4 14.8 58.4 32.9z"/><path class="D" d="m229.7 129.7c0 18.2-26.1 32.9-58.4 32.9-32.3 0-58.5-14.7-58.5-32.9 0-18.2 26.2-32.9 58.5-32.9 32.3 0 58.4 14.7 58.4 32.9z"/><path class="E" d="m229.7 131.9c0 18.1-26.1 32.9-58.4 32.9-32.3 0-58.5-14.8-58.5-32.9 0-18.2 26.2-32.9 58.5-32.9 32.3 0 58.4 14.7 58.4 32.9z"/><path class="F" d="m229.7 134c0 18.2-26.1 32.9-58.4 32.9-32.3 0-58.5-14.7-58.5-32.9 0-18.1 26.2-32.9 58.5-32.9 32.3 0 58.4 14.8 58.4 32.9z"/><path class="G" d="m229.7 136.2c0 18.2-26.1 32.9-58.4 32.9-32.3 0-58.5-14.7-58.5-32.9 0-18.2 26.2-32.9 58.5-32.9 32.3 0 58.4 14.7 58.4 32.9z"/><path class="H" d="m229.7 138.4c0 18.2-26.1 32.9-58.4 32.9-32.3 0-58.5-14.7-58.5-32.9 0-18.2 26.2-32.9 58.5-32.9 32.3 0 58.4 14.7 58.4 32.9z"/><path class="I" d="m229.7 140.6c0 18.1-26.1 32.9-58.4 32.9-32.3 0-58.5-14.8-58.5-32.9 0-18.2 26.2-32.9 58.5-32.9 32.3 0 58.4 14.7 58.4 32.9z"/><path class="J" d="m229.7 142.7c0 18.2-26.1 32.9-58.4 32.9-32.3 0-58.5-14.7-58.5-32.9 0-18.1 26.2-32.9 58.5-32.9 32.3 0 58.4 14.8 58.4 32.9z"/><path class="K" d="m229.7 144.9c0 18.2-26.1 32.9-58.4 32.9-32.3 0-58.5-14.7-58.5-32.9 0-18.2 26.2-32.9 58.5-32.9 32.3 0 58.4 14.7 58.4 32.9z"/><path class="L" d="m229.7 147.1c0 18.1-26.1 32.9-58.4 32.9-32.3 0-58.5-14.8-58.5-32.9 0-18.2 26.2-32.9 58.5-32.9 32.3 0 58.4 14.7 58.4 32.9z"/><path class="M" d="m229.7 149.2c0 18.2-26.1 32.9-58.4 32.9-32.3 0-58.5-14.7-58.5-32.9 0-18.1 26.2-32.8 58.5-32.8 32.3 0 58.4 14.7 58.4 32.8z"/><path class="N" d="m229.7 151.4c0 18.2-26.1 32.9-58.4 32.9-32.3 0-58.5-14.7-58.5-32.9 0-18.1 26.2-32.9 58.5-32.9 32.3 0 58.4 14.8 58.4 32.9z"/><path class="O" d="m229.7 153.6c0 18.2-26.1 32.9-58.4 32.9-32.3 0-58.5-14.7-58.5-32.9 0-18.2 26.2-32.9 58.5-32.9 32.3 0 58.4 14.7 58.4 32.9z"/><path class="P" d="m229.7 155.8c0 18.1-26.1 32.9-58.4 32.9-32.3 0-58.5-14.8-58.5-32.9 0-18.2 26.2-32.9 58.5-32.9 32.3 0 58.4 14.7 58.4 32.9z"/><path class="Q" d="m229.7 157.9c0 18.2-26.1 32.9-58.4 32.9-32.3 0-58.5-14.7-58.5-32.9 0-18.1 26.2-32.9 58.5-32.9 32.3 0 58.4 14.8 58.4 32.9z"/><path class="R" d="m229.7 160.1c0 18.2-26.1 32.9-58.4 32.9-32.3 0-58.5-14.7-58.5-32.9 0-18.2 26.2-32.9 58.5-32.9 32.3 0 58.4 14.7 58.4 32.9z"/><path class="S" d="m229.7 162.3c0 18.2-26.1 32.9-58.4 32.9-32.3 0-58.5-14.7-58.5-32.9 0-18.2 26.2-32.9 58.5-32.9 32.3 0 58.4 14.7 58.4 32.9z"/><path class="T" d="m229.7 164.5c0 18.1-26.1 32.9-58.4 32.9-32.3 0-58.5-14.8-58.5-32.9 0-18.2 26.2-32.9 58.5-32.9 32.3 0 58.4 14.7 58.4 32.9z"/><path class="U" d="m229.7 166.6c0 18.2-26.1 32.9-58.4 32.9-32.3 0-58.5-14.7-58.5-32.9 0-18.1 26.2-32.9 58.5-32.9 32.3 0 58.4 14.8 58.4 32.9z"/><path class="V" d="m229.7 168.8c0 18.2-26.1 32.9-58.4 32.9-32.3 0-58.5-14.7-58.5-32.9 0-18.2 26.2-32.9 58.5-32.9 32.3 0 58.4 14.7 58.4 32.9z"/><path class="W" d="m229.7 171c0 18.1-26.1 32.9-58.4 32.9-32.3 0-58.5-14.8-58.5-32.9 0-18.2 26.2-32.9 58.5-32.9 32.3 0 58.4 14.7 58.4 32.9z"/><path class="X" d="m229.7 173.2c0 18.1-26.1 32.8-58.4 32.8-32.3 0-58.5-14.7-58.5-32.8 0-18.2 26.2-32.9 58.5-32.9 32.3 0 58.4 14.7 58.4 32.9z"/><path class="Y" d="m229.7 175.3c0 18.2-26.1 32.9-58.4 32.9-32.3 0-58.5-14.7-58.5-32.9 0-18.1 26.2-32.9 58.5-32.9 32.3 0 58.4 14.8 58.4 32.9z"/><path class="Z" d="m229.7 177.5c0 18.2-26.1 32.9-58.4 32.9-32.3 0-58.5-14.7-58.5-32.9 0-18.2 26.2-32.9 58.5-32.9 32.3 0 58.4 14.7 58.4 32.9z"/><path class="a0" d="m229.7 66.7c0 18.1-26.1 32.9-58.4 32.9-32.3 0-58.5-14.8-58.5-32.9 0-18.2 26.2-32.9 58.5-32.9 32.3 0 58.4 14.7 58.4 32.9z"/><g style="opacity:.5;mix-blend-mode:soft-light"><path fill-rule="evenodd" class="a1" d="m140.1 50.8l25.8-5.6c6.4-1.3 11.6-1.2 16.1 0.2 3.1 1.1 5.7 2.7 7.4 5.1l0.1 0.1c3 4.1 1.5 7.3-2 9.6 7.2 0.1 12.8 1.7 16.3 6.6l0.1 0.1c4.5 6.1 0.1 11.3-11.9 13.9l-25.9 5.6zm37 4.7c-1.4-2-4.4-2.6-8.5-1.7l-9.2 2 4.6 6.3 8.8-1.9c4.2-1 5.9-2.5 4.4-4.6zm2.6 11.2l-10.7 2.3 4.8 6.5 10.8-2.3c4.3-0.9 5.8-2.6 4.3-4.7l-0.1-0.1c-1.4-1.9-4.5-2.7-9.1-1.7z"/></g><path fill-rule="evenodd" class="a1" d="m140.1 45.2l25.8-5.6c6.4-1.4 11.6-1.2 16.1 0.2 3.1 1 5.7 2.6 7.4 5.1l0.1 0.1c3 4.1 1.5 7.2-2 9.6 7.2 0.1 12.8 1.7 16.3 6.5l0.1 0.1c4.5 6.1 0.1 11.4-11.9 13.9l-25.9 5.7zm37 4.7c-1.4-2-4.4-2.6-8.5-1.7l-9.2 2 4.6 6.2 8.8-1.9c4.2-0.9 5.9-2.5 4.4-4.5zm2.6 11.1l-10.7 2.3 4.8 6.6 10.8-2.3c4.3-1 5.8-2.7 4.3-4.7l-0.1-0.1c-1.4-2-4.5-2.8-9.1-1.8z"/><path class="a2" d="m229.7 177.5c0 18.2-26.1 32.9-58.4 32.9-32.3 0-58.5-14.7-58.5-32.9 0-18.2 26.2-32.9 58.5-32.9 32.3 0 58.4 14.7 58.4 32.9z"/><path class="a3" d="m231.4 179.2c0 18.2-26.1 32.9-58.4 32.9-32.3 0-58.5-14.7-58.5-32.9 0-18.2 26.2-32.9 58.5-32.9 32.3 0 58.4 14.7 58.4 32.9z"/><path class="a4" d="m233.2 180.9c0 18.2-26.2 32.9-58.5 32.9-32.3 0-58.5-14.7-58.5-32.9 0-18.1 26.2-32.9 58.5-32.9 32.3 0 58.5 14.8 58.5 32.9z"/><path class="a5" d="m234.9 182.7c0 18.1-26.2 32.8-58.5 32.8-32.3 0-58.5-14.7-58.5-32.8 0-18.2 26.2-32.9 58.5-32.9 32.3 0 58.5 14.7 58.5 32.9z"/><path class="a6" d="m236.6 184.4c0 18.1-26.2 32.9-58.5 32.9-32.3 0-58.5-14.8-58.5-32.9 0-18.2 26.2-32.9 58.5-32.9 32.3 0 58.5 14.7 58.5 32.9z"/><path class="a7" d="m238.3 186.1c0 18.2-26.2 32.9-58.5 32.9-32.3 0-58.5-14.7-58.5-32.9 0-18.2 26.2-32.9 58.5-32.9 32.3 0 58.5 14.7 58.5 32.9z"/><path class="a8" d="m240 187.8c0 18.2-26.2 32.9-58.5 32.9-32.3 0-58.4-14.7-58.4-32.9 0-18.2 26.1-32.9 58.4-32.9 32.3 0 58.5 14.7 58.5 32.9z"/><path class="a8" d="m241.7 189.5c0 18.2-26.2 32.9-58.4 32.9-32.3 0-58.5-14.7-58.5-32.9 0-18.1 26.2-32.9 58.5-32.9 32.2 0 58.4 14.8 58.4 32.9z"/><path class="a9" d="m243.4 191.2c0 18.2-26.1 32.9-58.4 32.9-32.3 0-58.5-14.7-58.5-32.9 0-18.1 26.2-32.9 58.5-32.9 32.3 0 58.4 14.8 58.4 32.9z"/><path class="aa" d="m245.2 193c0 18.1-26.2 32.8-58.5 32.8-32.3 0-58.5-14.7-58.5-32.8 0-18.2 26.2-32.9 58.5-32.9 32.3 0 58.5 14.7 58.5 32.9z"/><path class="ab" d="m246.9 194.7c0 18.1-26.2 32.9-58.5 32.9-32.3 0-58.5-14.8-58.5-32.9 0-18.2 26.2-32.9 58.5-32.9 32.3 0 58.5 14.7 58.5 32.9z"/><path class="ab" d="m248.6 196.4c0 18.2-26.2 32.9-58.5 32.9-32.3 0-58.5-14.7-58.5-32.9 0-18.2 26.2-32.9 58.5-32.9 32.3 0 58.5 14.7 58.5 32.9z"/><path class="ac" d="m250.3 198.1c0 18.2-26.2 32.9-58.5 32.9-32.3 0-58.5-14.7-58.5-32.9 0-18.2 26.2-32.9 58.5-32.9 32.3 0 58.5 14.7 58.5 32.9z"/><path class="ad" d="m252 199.8c0 18.2-26.2 32.9-58.5 32.9-32.3 0-58.4-14.7-58.4-32.9 0-18.1 26.1-32.9 58.4-32.9 32.3 0 58.5 14.8 58.5 32.9z"/><path class="ae" d="m253.7 201.5c0 18.2-26.2 32.9-58.5 32.9-32.3 0-58.4-14.7-58.4-32.9 0-18.1 26.1-32.9 58.4-32.9 32.3 0 58.5 14.8 58.5 32.9z"/><path class="af" d="m255.4 203.3c0 18.1-26.1 32.8-58.4 32.8-32.3 0-58.5-14.7-58.5-32.8 0-18.2 26.2-32.9 58.5-32.9 32.3 0 58.4 14.7 58.4 32.9z"/><path class="ag" d="m257.1 205c0 18.1-26.1 32.9-58.4 32.9-32.3 0-58.5-14.8-58.5-32.9 0-18.2 26.2-32.9 58.5-32.9 32.3 0 58.4 14.7 58.4 32.9z"/><path class="ah" d="m258.9 206.7c0 18.2-26.2 32.9-58.5 32.9-32.3 0-58.5-14.7-58.5-32.9 0-18.2 26.2-32.9 58.5-32.9 32.3 0 58.5 14.7 58.5 32.9z"/><path class="ai" d="m260.6 208.4c0 18.2-26.2 32.9-58.5 32.9-32.3 0-58.5-14.7-58.5-32.9 0-18.2 26.2-32.9 58.5-32.9 32.3 0 58.5 14.7 58.5 32.9z"/><path class="aj" d="m262.3 210.1c0 18.2-26.2 32.9-58.5 32.9-32.3 0-58.5-14.7-58.5-32.9 0-18.1 26.2-32.9 58.5-32.9 32.3 0 58.5 14.8 58.5 32.9z"/><path class="ak" d="m264 211.8c0 18.2-26.2 32.9-58.5 32.9-32.3 0-58.5-14.7-58.5-32.9 0-18.1 26.2-32.9 58.5-32.9 32.3 0 58.5 14.8 58.5 32.9z"/><path class="al" d="m265.7 213.6c0 18.1-26.2 32.9-58.5 32.9-32.3 0-58.4-14.8-58.4-32.9 0-18.2 26.1-32.9 58.4-32.9 32.3 0 58.5 14.7 58.5 32.9z"/><path class="am" d="m267.4 215.3c0 18.1-26.2 32.9-58.4 32.9-32.3 0-58.5-14.8-58.5-32.9 0-18.2 26.2-32.9 58.5-32.9 32.2 0 58.4 14.7 58.4 32.9z"/><path class="an" d="m269.1 217c0 18.2-26.1 32.9-58.4 32.9-32.3 0-58.5-14.7-58.5-32.9 0-18.2 26.2-32.9 58.5-32.9 32.3 0 58.4 14.7 58.4 32.9z"/><path class="an" d="m270.9 218.7c0 18.2-26.2 32.9-58.5 32.9-32.3 0-58.5-14.7-58.5-32.9 0-18.2 26.2-32.9 58.5-32.9 32.3 0 58.5 14.7 58.5 32.9z"/><path class="ao" d="m272.6 220.4c0 18.2-26.2 32.9-58.5 32.9-32.3 0-58.5-14.7-58.5-32.9 0-18.1 26.2-32.9 58.5-32.9 32.3 0 58.5 14.8 58.5 32.9z"/><path class="ap" d="m274.3 222.1c0 18.2-26.2 32.9-58.5 32.9-32.3 0-58.5-14.7-58.5-32.9 0-18.1 26.2-32.8 58.5-32.8 32.3 0 58.5 14.7 58.5 32.8z"/><path class="aq" d="m276 223.9c0 18.1-26.2 32.9-58.5 32.9-32.3 0-58.5-14.8-58.5-32.9 0-18.2 26.2-32.9 58.5-32.9 32.3 0 58.5 14.7 58.5 32.9z"/><path class="aq" d="m277.7 225.6c0 18.1-26.2 32.9-58.5 32.9-32.3 0-58.4-14.8-58.4-32.9 0-18.2 26.1-32.9 58.4-32.9 32.3 0 58.5 14.7 58.5 32.9z"/><path class="ar" d="m279.4 227.3c0 18.2-26.2 32.9-58.5 32.9-32.3 0-58.4-14.7-58.4-32.9 0-18.2 26.1-32.9 58.4-32.9 32.3 0 58.5 14.7 58.5 32.9z"/><path class="as" d="m281.1 229c0 18.2-26.1 32.9-58.4 32.9-32.3 0-58.5-14.7-58.5-32.9 0-18.2 26.2-32.9 58.5-32.9 32.3 0 58.4 14.7 58.4 32.9z"/><path class="at" d="m282.8 230.7c0 18.2-26.1 32.9-58.4 32.9-32.3 0-58.5-14.7-58.5-32.9 0-18.1 26.2-32.9 58.5-32.9 32.3 0 58.4 14.8 58.4 32.9z"/><path class="au" d="m284.6 232.4c0 18.2-26.2 32.9-58.5 32.9-32.3 0-58.5-14.7-58.5-32.9 0-18.1 26.2-32.8 58.5-32.8 32.3 0 58.5 14.7 58.5 32.8z"/><path class="av" d="m286.3 234.2c0 18.1-26.2 32.9-58.5 32.9-32.3 0-58.5-14.8-58.5-32.9 0-18.2 26.2-32.9 58.5-32.9 32.3 0 58.5 14.7 58.5 32.9z"/><path class="aw" d="m288 235.9c0 18.1-26.2 32.9-58.5 32.9-32.3 0-58.5-14.8-58.5-32.9 0-18.2 26.2-32.9 58.5-32.9 32.3 0 58.5 14.7 58.5 32.9z"/><path class="ax" d="m289.7 237.6c0 18.2-26.2 32.9-58.5 32.9-32.3 0-58.5-14.7-58.5-32.9 0-18.2 26.2-32.9 58.5-32.9 32.3 0 58.5 14.7 58.5 32.9z"/><path class="ay" d="m291.4 239.3c0 18.2-26.2 32.9-58.5 32.9-32.3 0-58.4-14.7-58.4-32.9 0-18.2 26.1-32.9 58.4-32.9 32.3 0 58.5 14.7 58.5 32.9z"/><path class="az" d="m293.1 241c0 18.2-26.2 32.9-58.4 32.9-32.3 0-58.5-14.7-58.5-32.9 0-18.1 26.2-32.9 58.5-32.9 32.2 0 58.4 14.8 58.4 32.9z"/><path class="aA" d="m294.8 242.8c0 18.1-26.1 32.8-58.4 32.8-32.3 0-58.5-14.7-58.5-32.8 0-18.2 26.2-32.9 58.5-32.9 32.3 0 58.4 14.7 58.4 32.9z"/><path class="aB" d="m296.6 244.5c0 18.1-26.2 32.9-58.5 32.9-32.3 0-58.5-14.8-58.5-32.9 0-18.2 26.2-32.9 58.5-32.9 32.3 0 58.5 14.7 58.5 32.9z"/><path class="aC" d="m298.3 246.2c0 18.2-26.2 32.9-58.5 32.9-32.3 0-58.5-14.7-58.5-32.9 0-18.2 26.2-32.9 58.5-32.9 32.3 0 58.5 14.7 58.5 32.9z"/><path class="aC" d="m300 247.9c0 18.2-26.2 32.9-58.5 32.9-32.3 0-58.5-14.7-58.5-32.9 0-18.2 26.2-32.9 58.5-32.9 32.3 0 58.5 14.7 58.5 32.9z"/><path class="aD" d="m301.7 249.6c0 18.2-26.2 32.9-58.5 32.9-32.3 0-58.5-14.7-58.5-32.9 0-18.1 26.2-32.9 58.5-32.9 32.3 0 58.5 14.8 58.5 32.9z"/><path class="aE" d="m303.4 251.3c0 18.2-26.2 32.9-58.5 32.9-32.3 0-58.4-14.7-58.4-32.9 0-18.1 26.1-32.9 58.4-32.9 32.3 0 58.5 14.8 58.5 32.9z"/><path class="aF" d="m305.1 253.1c0 18.1-26.2 32.8-58.5 32.8-32.3 0-58.4-14.7-58.4-32.8 0-18.2 26.1-32.9 58.4-32.9 32.3 0 58.5 14.7 58.5 32.9z"/><path class="aF" d="m306.8 254.8c0 18.1-26.1 32.9-58.4 32.9-32.3 0-58.5-14.8-58.5-32.9 0-18.2 26.2-32.9 58.5-32.9 32.3 0 58.4 14.7 58.4 32.9z"/><path class="aG" d="m308.5 256.5c0 18.2-26.1 32.9-58.4 32.9-32.3 0-58.5-14.7-58.5-32.9 0-18.2 26.2-32.9 58.5-32.9 32.3 0 58.4 14.7 58.4 32.9z"/><path class="aH" d="m310.3 258.2c0 18.2-26.2 32.9-58.5 32.9-32.3 0-58.5-14.7-58.5-32.9 0-18.2 26.2-32.9 58.5-32.9 32.3 0 58.5 14.7 58.5 32.9z"/><path class="aI" d="m312 259.9c0 18.2-26.2 32.9-58.5 32.9-32.3 0-58.5-14.7-58.5-32.9 0-18.1 26.2-32.9 58.5-32.9 32.3 0 58.5 14.8 58.5 32.9z"/><path class="aJ" d="m313.7 261.6c0 18.2-26.2 32.9-58.5 32.9-32.3 0-58.5-14.7-58.5-32.9 0-18.1 26.2-32.9 58.5-32.9 32.3 0 58.5 14.8 58.5 32.9z"/><path class="aK" d="m315.4 263.4c0 18.1-26.2 32.8-58.5 32.8-32.3 0-58.5-14.7-58.5-32.8 0-18.2 26.2-32.9 58.5-32.9 32.3 0 58.5 14.7 58.5 32.9z"/><path class="aL" d="m317.1 265.1c0 18.1-26.2 32.9-58.5 32.9-32.3 0-58.4-14.8-58.4-32.9 0-18.2 26.1-32.9 58.4-32.9 32.3 0 58.5 14.7 58.5 32.9z"/><path class="aM" d="m117.6 33.2c0 18.2-26.2 32.9-58.5 32.9-32.3 0-58.5-14.7-58.5-32.9 0-18.2 26.2-32.9 58.5-32.9 32.3 0 58.5 14.7 58.5 32.9z"/><path class="aN" d="m117.6 36.5c0 18.2-26.2 32.9-58.5 32.9-32.3 0-58.5-14.7-58.5-32.9 0-18.2 26.2-32.9 58.5-32.9 32.3 0 58.5 14.7 58.5 32.9z"/><path class="aO" d="m117.6 39.8c0 18.2-26.2 32.9-58.5 32.9-32.3 0-58.5-14.7-58.5-32.9 0-18.2 26.2-32.9 58.5-32.9 32.3 0 58.5 14.7 58.5 32.9z"/><path class="aP" d="m117.6 43.1c0 18.1-26.2 32.9-58.5 32.9-32.3 0-58.5-14.8-58.5-32.9 0-18.2 26.2-32.9 58.5-32.9 32.3 0 58.5 14.7 58.5 32.9z"/><path class="aQ" d="m117.6 46.4c0 18.1-26.2 32.9-58.5 32.9-32.3 0-58.5-14.8-58.5-32.9 0-18.2 26.2-32.9 58.5-32.9 32.3 0 58.5 14.7 58.5 32.9z"/><path class="aR" d="m117.6 49.6c0 18.2-26.2 32.9-58.5 32.9-32.3 0-58.5-14.7-58.5-32.9 0-18.1 26.2-32.8 58.5-32.8 32.3 0 58.5 14.7 58.5 32.8z"/><path class="aS" d="m117.6 52.9c0 18.2-26.2 32.9-58.5 32.9-32.3 0-58.5-14.7-58.5-32.9 0-18.1 26.2-32.9 58.5-32.9 32.3 0 58.5 14.8 58.5 32.9z"/><path class="aT" d="m117.6 56.2c0 18.2-26.2 32.9-58.5 32.9-32.3 0-58.5-14.7-58.5-32.9 0-18.1 26.2-32.9 58.5-32.9 32.3 0 58.5 14.8 58.5 32.9z"/><path class="aU" d="m117.6 59.5c0 18.2-26.2 32.9-58.5 32.9-32.3 0-58.5-14.7-58.5-32.9 0-18.2 26.2-32.9 58.5-32.9 32.3 0 58.5 14.7 58.5 32.9z"/><path class="aV" d="m117.6 62.8c0 18.2-26.2 32.9-58.5 32.9-32.3 0-58.5-14.7-58.5-32.9 0-18.2 26.2-32.9 58.5-32.9 32.3 0 58.5 14.7 58.5 32.9z"/><path class="aW" d="m117.6 66.1c0 18.2-26.2 32.9-58.5 32.9-32.3 0-58.5-14.7-58.5-32.9 0-18.2 26.2-32.9 58.5-32.9 32.3 0 58.5 14.7 58.5 32.9z"/><path class="aX" d="m117.6 69.4c0 18.1-26.2 32.9-58.5 32.9-32.3 0-58.5-14.8-58.5-32.9 0-18.2 26.2-32.9 58.5-32.9 32.3 0 58.5 14.7 58.5 32.9z"/><path class="aY" d="m117.6 72.7c0 18.1-26.2 32.9-58.5 32.9-32.3 0-58.5-14.8-58.5-32.9 0-18.2 26.2-32.9 58.5-32.9 32.3 0 58.5 14.7 58.5 32.9z"/><path class="aZ" d="m117.6 75.9c0 18.2-26.2 32.9-58.5 32.9-32.3 0-58.5-14.7-58.5-32.9 0-18.1 26.2-32.8 58.5-32.8 32.3 0 58.5 14.7 58.5 32.8z"/><path class="b0" d="m117.6 79.2c0 18.2-26.2 32.9-58.5 32.9-32.3 0-58.5-14.7-58.5-32.9 0-18.1 26.2-32.9 58.5-32.9 32.3 0 58.5 14.8 58.5 32.9z"/><path class="b1" d="m117.6 82.5c0 18.2-26.2 32.9-58.5 32.9-32.3 0-58.5-14.7-58.5-32.9 0-18.1 26.2-32.9 58.5-32.9 32.3 0 58.5 14.8 58.5 32.9z"/><path class="b2" d="m117.6 85.8c0 18.2-26.2 32.9-58.5 32.9-32.3 0-58.5-14.7-58.5-32.9 0-18.2 26.2-32.9 58.5-32.9 32.3 0 58.5 14.7 58.5 32.9z"/><path class="b3" d="m117.6 89.1c0 18.2-26.2 32.9-58.5 32.9-32.3 0-58.5-14.7-58.5-32.9 0-18.2 26.2-32.9 58.5-32.9 32.3 0 58.5 14.7 58.5 32.9z"/><path class="b4" d="m117.6 92.4c0 18.1-26.2 32.9-58.5 32.9-32.3 0-58.5-14.8-58.5-32.9 0-18.2 26.2-32.9 58.5-32.9 32.3 0 58.5 14.7 58.5 32.9z"/><path class="b5" d="m117.6 95.7c0 18.1-26.2 32.9-58.5 32.9-32.3 0-58.5-14.8-58.5-32.9 0-18.2 26.2-32.9 58.5-32.9 32.3 0 58.5 14.7 58.5 32.9z"/><path class="b6" d="m117.6 99c0 18.1-26.2 32.8-58.5 32.8-32.3 0-58.5-14.7-58.5-32.8 0-18.2 26.2-32.9 58.5-32.9 32.3 0 58.5 14.7 58.5 32.9z"/><path class="b7" d="m117.6 102.2c0 18.2-26.2 32.9-58.5 32.9-32.3 0-58.5-14.7-58.5-32.9 0-18.1 26.2-32.9 58.5-32.9 32.3 0 58.5 14.8 58.5 32.9z"/><path class="b8" d="m117.6 105.5c0 18.2-26.2 32.9-58.5 32.9-32.3 0-58.5-14.7-58.5-32.9 0-18.1 26.2-32.9 58.5-32.9 32.3 0 58.5 14.8 58.5 32.9z"/><path class="b9" d="m117.6 108.8c0 18.2-26.2 32.9-58.5 32.9-32.3 0-58.5-14.7-58.5-32.9 0-18.2 26.2-32.9 58.5-32.9 32.3 0 58.5 14.7 58.5 32.9z"/><path class="ba" d="m117.6 112.1c0 18.2-26.2 32.9-58.5 32.9-32.3 0-58.5-14.7-58.5-32.9 0-18.2 26.2-32.9 58.5-32.9 32.3 0 58.5 14.7 58.5 32.9z"/><path class="bb" d="m117.6 115.4c0 18.2-26.2 32.9-58.5 32.9-32.3 0-58.5-14.7-58.5-32.9 0-18.2 26.2-32.9 58.5-32.9 32.3 0 58.5 14.7 58.5 32.9z"/><path class="bc" d="m117.6 118.7c0 18.1-26.2 32.9-58.5 32.9-32.3 0-58.5-14.8-58.5-32.9 0-18.2 26.2-32.9 58.5-32.9 32.3 0 58.5 14.7 58.5 32.9z"/><path class="bd" d="m117.6 122c0 18.1-26.2 32.9-58.5 32.9-32.3 0-58.5-14.8-58.5-32.9 0-18.2 26.2-32.9 58.5-32.9 32.3 0 58.5 14.7 58.5 32.9z"/><path class="be" d="m117.6 125.3c0 18.1-26.2 32.8-58.5 32.8-32.3 0-58.5-14.7-58.5-32.8 0-18.2 26.2-32.9 58.5-32.9 32.3 0 58.5 14.7 58.5 32.9z"/><path class="bf" d="m117.6 128.5c0 18.2-26.2 32.9-58.5 32.9-32.3 0-58.5-14.7-58.5-32.9 0-18.1 26.2-32.9 58.5-32.9 32.3 0 58.5 14.8 58.5 32.9z"/><path class="bg" d="m117.6 131.8c0 18.2-26.2 32.9-58.5 32.9-32.3 0-58.5-14.7-58.5-32.9 0-18.1 26.2-32.9 58.5-32.9 32.3 0 58.5 14.8 58.5 32.9z"/><path class="bh" d="m117.6 135.1c0 18.2-26.2 32.9-58.5 32.9-32.3 0-58.5-14.7-58.5-32.9 0-18.2 26.2-32.9 58.5-32.9 32.3 0 58.5 14.7 58.5 32.9z"/><path class="bi" d="m117.6 138.4c0 18.2-26.2 32.9-58.5 32.9-32.3 0-58.5-14.7-58.5-32.9 0-18.2 26.2-32.9 58.5-32.9 32.3 0 58.5 14.7 58.5 32.9z"/><path class="bj" d="m117.6 141.7c0 18.2-26.2 32.9-58.5 32.9-32.3 0-58.5-14.7-58.5-32.9 0-18.2 26.2-32.9 58.5-32.9 32.3 0 58.5 14.7 58.5 32.9z"/><path class="bk" d="m117.6 145c0 18.1-26.2 32.9-58.5 32.9-32.3 0-58.5-14.8-58.5-32.9 0-18.2 26.2-32.9 58.5-32.9 32.3 0 58.5 14.7 58.5 32.9z"/><path class="bl" d="m117.6 148.3c0 18.1-26.2 32.9-58.5 32.9-32.3 0-58.5-14.8-58.5-32.9 0-18.2 26.2-32.9 58.5-32.9 32.3 0 58.5 14.7 58.5 32.9z"/><path class="bm" d="m117.6 151.5c0 18.2-26.2 32.9-58.5 32.9-32.3 0-58.5-14.7-58.5-32.9 0-18.1 26.2-32.8 58.5-32.8 32.3 0 58.5 14.7 58.5 32.8z"/><path class="bn" d="m117.6 154.8c0 18.2-26.2 32.9-58.5 32.9-32.3 0-58.5-14.7-58.5-32.9 0-18.1 26.2-32.9 58.5-32.9 32.3 0 58.5 14.8 58.5 32.9z"/><path class="bo" d="m117.6 158.1c0 18.2-26.2 32.9-58.5 32.9-32.3 0-58.5-14.7-58.5-32.9 0-18.1 26.2-32.9 58.5-32.9 32.3 0 58.5 14.8 58.5 32.9z"/><path class="bp" d="m117.6 161.4c0 18.2-26.2 32.9-58.5 32.9-32.3 0-58.5-14.7-58.5-32.9 0-18.2 26.2-32.9 58.5-32.9 32.3 0 58.5 14.7 58.5 32.9z"/><path class="bq" d="m117.6 164.7c0 18.2-26.2 32.9-58.5 32.9-32.3 0-58.5-14.7-58.5-32.9 0-18.2 26.2-32.9 58.5-32.9 32.3 0 58.5 14.7 58.5 32.9z"/><path class="br" d="m117.6 168c0 18.1-26.2 32.9-58.5 32.9-32.3 0-58.5-14.8-58.5-32.9 0-18.2 26.2-32.9 58.5-32.9 32.3 0 58.5 14.7 58.5 32.9z"/><path class="bs" d="m117.6 171.3c0 18.1-26.2 32.9-58.5 32.9-32.3 0-58.5-14.8-58.5-32.9 0-18.2 26.2-32.9 58.5-32.9 32.3 0 58.5 14.7 58.5 32.9z"/><path class="bt" d="m117.6 174.6c0 18.1-26.2 32.9-58.5 32.9-32.3 0-58.5-14.8-58.5-32.9 0-18.2 26.2-32.9 58.5-32.9 32.3 0 58.5 14.7 58.5 32.9z"/><path class="bu" d="m117.6 177.8c0 18.2-26.2 32.9-58.5 32.9-32.3 0-58.5-14.7-58.5-32.9 0-18.1 26.2-32.8 58.5-32.8 32.3 0 58.5 14.7 58.5 32.8z"/><path class="bv" d="m117.6 181.1c0 18.2-26.2 32.9-58.5 32.9-32.3 0-58.5-14.7-58.5-32.9 0-18.1 26.2-32.9 58.5-32.9 32.3 0 58.5 14.8 58.5 32.9z"/><path class="bw" d="m117.6 184.4c0 18.2-26.2 32.9-58.5 32.9-32.3 0-58.5-14.7-58.5-32.9 0-18.1 26.2-32.9 58.5-32.9 32.3 0 58.5 14.8 58.5 32.9z"/><path class="bx" d="m117.6 187.7c0 18.2-26.2 32.9-58.5 32.9-32.3 0-58.5-14.7-58.5-32.9 0-18.2 26.2-32.9 58.5-32.9 32.3 0 58.5 14.7 58.5 32.9z"/><path class="by" d="m117.6 191c0 18.2-26.2 32.9-58.5 32.9-32.3 0-58.5-14.7-58.5-32.9 0-18.2 26.2-32.9 58.5-32.9 32.3 0 58.5 14.7 58.5 32.9z"/><path class="bz" d="m117.6 194.3c0 18.1-26.2 32.9-58.5 32.9-32.3 0-58.5-14.8-58.5-32.9 0-18.2 26.2-32.9 58.5-32.9 32.3 0 58.5 14.7 58.5 32.9z"/><path class="bA" d="m117.6 197.6c0 18.1-26.2 32.9-58.5 32.9-32.3 0-58.5-14.8-58.5-32.9 0-18.2 26.2-32.9 58.5-32.9 32.3 0 58.5 14.7 58.5 32.9z"/><path class="bB" d="m117.6 200.9c0 18.1-26.2 32.8-58.5 32.8-32.3 0-58.5-14.7-58.5-32.8 0-18.2 26.2-32.9 58.5-32.9 32.3 0 58.5 14.7 58.5 32.9z"/><path class="bC" d="m117.6 33.2c0 18.2-26.2 32.9-58.5 32.9-32.3 0-58.5-14.7-58.5-32.9 0-18.2 26.2-32.9 58.5-32.9 32.3 0 58.5 14.7 58.5 32.9z"/><g style="opacity:.5;mix-blend-mode:soft-light"><path fill-rule="evenodd" class="a1" d="m38.1 14l13.2-4 48.5 26.7-14.7 4.5-8.4-4.8-19.1 5.9 1.4 7-14.4 4.5zm28.7 16.5l-13.2-7.7 2.1 11.1z"/></g><path fill-rule="evenodd" class="a1" d="m37.9 8.9l13.2-4.1 48.5 26.8-14.7 4.5-8.4-4.8-19.1 5.9 1.3 7-14.3 4.5zm28.7 16.4l-13.2-7.6 2.1 11.1z"/><path class="a2" d="m117.6 200.9c0 18.1-26.2 32.8-58.5 32.8-32.3 0-58.5-14.7-58.5-32.8 0-18.2 26.2-32.9 58.5-32.9 32.3 0 58.5 14.7 58.5 32.9z"/><path class="a3" d="m119.3 202.6c0 18.1-26.2 32.9-58.5 32.9-32.3 0-58.5-14.8-58.5-32.9 0-18.2 26.2-32.9 58.5-32.9 32.3 0 58.5 14.7 58.5 32.9z"/><path class="a4" d="m121 204.3c0 18.2-26.2 32.9-58.5 32.9-32.3 0-58.4-14.7-58.4-32.9 0-18.2 26.1-32.9 58.4-32.9 32.3 0 58.5 14.7 58.5 32.9z"/><path class="a5" d="m122.7 206c0 18.2-26.2 32.9-58.5 32.9-32.2 0-58.4-14.7-58.4-32.9 0-18.2 26.2-32.9 58.4-32.9 32.3 0 58.5 14.7 58.5 32.9z"/><path class="a6" d="m124.4 207.7c0 18.2-26.1 32.9-58.4 32.9-32.3 0-58.5-14.7-58.5-32.9 0-18.1 26.2-32.9 58.5-32.9 32.3 0 58.4 14.8 58.4 32.9z"/><path class="a7" d="m126.2 209.4c0 18.2-26.2 32.9-58.5 32.9-32.3 0-58.5-14.7-58.5-32.9 0-18.1 26.2-32.9 58.5-32.9 32.3 0 58.5 14.8 58.5 32.9z"/><path class="a8" d="m127.9 211.2c0 18.1-26.2 32.8-58.5 32.8-32.3 0-58.5-14.7-58.5-32.8 0-18.2 26.2-32.9 58.5-32.9 32.3 0 58.5 14.7 58.5 32.9z"/><path class="a8" d="m129.6 212.9c0 18.1-26.2 32.9-58.5 32.9-32.3 0-58.5-14.8-58.5-32.9 0-18.2 26.2-32.9 58.5-32.9 32.3 0 58.5 14.7 58.5 32.9z"/><path class="a9" d="m131.3 214.6c0 18.2-26.2 32.9-58.5 32.9-32.3 0-58.5-14.7-58.5-32.9 0-18.2 26.2-32.9 58.5-32.9 32.3 0 58.5 14.7 58.5 32.9z"/><path class="aa" d="m133 216.3c0 18.2-26.2 32.9-58.5 32.9-32.3 0-58.5-14.7-58.5-32.9 0-18.2 26.2-32.9 58.5-32.9 32.3 0 58.5 14.7 58.5 32.9z"/><path class="ab" d="m134.7 218c0 18.2-26.2 32.9-58.5 32.9-32.3 0-58.4-14.7-58.4-32.9 0-18.1 26.1-32.9 58.4-32.9 32.3 0 58.5 14.8 58.5 32.9z"/><path class="ab" d="m136.4 219.7c0 18.2-26.1 32.9-58.4 32.9-32.3 0-58.5-14.7-58.5-32.9 0-18.1 26.2-32.9 58.5-32.9 32.3 0 58.4 14.8 58.4 32.9z"/><path class="ac" d="m138.1 221.5c0 18.1-26.1 32.9-58.4 32.9-32.3 0-58.5-14.8-58.5-32.9 0-18.2 26.2-32.9 58.5-32.9 32.3 0 58.4 14.7 58.4 32.9z"/><path class="ad" d="m139.9 223.2c0 18.1-26.2 32.9-58.5 32.9-32.3 0-58.5-14.8-58.5-32.9 0-18.2 26.2-32.9 58.5-32.9 32.3 0 58.5 14.7 58.5 32.9z"/><path class="ae" d="m141.6 224.9c0 18.2-26.2 32.9-58.5 32.9-32.3 0-58.5-14.7-58.5-32.9 0-18.2 26.2-32.9 58.5-32.9 32.3 0 58.5 14.7 58.5 32.9z"/><path class="af" d="m143.3 226.6c0 18.2-26.2 32.9-58.5 32.9-32.3 0-58.5-14.7-58.5-32.9 0-18.2 26.2-32.9 58.5-32.9 32.3 0 58.5 14.7 58.5 32.9z"/><path class="ag" d="m145 228.3c0 18.2-26.2 32.9-58.5 32.9-32.3 0-58.5-14.7-58.5-32.9 0-18.1 26.2-32.9 58.5-32.9 32.3 0 58.5 14.8 58.5 32.9z"/><path class="ah" d="m146.7 230c0 18.2-26.2 32.9-58.5 32.9-32.3 0-58.4-14.7-58.4-32.9 0-18.1 26.1-32.8 58.4-32.8 32.3 0 58.5 14.7 58.5 32.8z"/><path class="ai" d="m148.4 231.8c0 18.1-26.2 32.9-58.5 32.9-32.2 0-58.4-14.8-58.4-32.9 0-18.2 26.2-32.9 58.4-32.9 32.3 0 58.5 14.7 58.5 32.9z"/><path class="aj" d="m150.1 233.5c0 18.1-26.1 32.9-58.4 32.9-32.3 0-58.5-14.8-58.5-32.9 0-18.2 26.2-32.9 58.5-32.9 32.3 0 58.4 14.7 58.4 32.9z"/><path class="ak" d="m151.9 235.2c0 18.2-26.2 32.9-58.5 32.9-32.3 0-58.5-14.7-58.5-32.9 0-18.2 26.2-32.9 58.5-32.9 32.3 0 58.5 14.7 58.5 32.9z"/><path class="al" d="m153.6 236.9c0 18.2-26.2 32.9-58.5 32.9-32.3 0-58.5-14.7-58.5-32.9 0-18.2 26.2-32.9 58.5-32.9 32.3 0 58.5 14.7 58.5 32.9z"/><path class="am" d="m155.3 238.6c0 18.2-26.2 32.9-58.5 32.9-32.3 0-58.5-14.7-58.5-32.9 0-18.1 26.2-32.9 58.5-32.9 32.3 0 58.5 14.8 58.5 32.9z"/><path class="an" d="m157 240.3c0 18.2-26.2 32.9-58.5 32.9-32.3 0-58.5-14.7-58.5-32.9 0-18.1 26.2-32.8 58.5-32.8 32.3 0 58.5 14.7 58.5 32.8z"/><path class="an" d="m158.7 242.1c0 18.1-26.2 32.9-58.5 32.9-32.3 0-58.5-14.8-58.5-32.9 0-18.2 26.2-32.9 58.5-32.9 32.3 0 58.5 14.7 58.5 32.9z"/><path class="ao" d="m160.4 243.8c0 18.1-26.2 32.9-58.5 32.9-32.3 0-58.4-14.8-58.4-32.9 0-18.2 26.1-32.9 58.4-32.9 32.3 0 58.5 14.7 58.5 32.9z"/><path class="ap" d="m162.1 245.5c0 18.2-26.2 32.9-58.4 32.9-32.3 0-58.5-14.7-58.5-32.9 0-18.2 26.2-32.9 58.5-32.9 32.2 0 58.4 14.7 58.4 32.9z"/><path class="aq" d="m163.8 247.2c0 18.2-26.1 32.9-58.4 32.9-32.3 0-58.5-14.7-58.5-32.9 0-18.2 26.2-32.9 58.5-32.9 32.3 0 58.4 14.7 58.4 32.9z"/><path class="aq" d="m165.6 248.9c0 18.2-26.2 32.9-58.5 32.9-32.3 0-58.5-14.7-58.5-32.9 0-18.1 26.2-32.9 58.5-32.9 32.3 0 58.5 14.8 58.5 32.9z"/><path class="ar" d="m167.3 250.7c0 18.1-26.2 32.8-58.5 32.8-32.3 0-58.5-14.7-58.5-32.8 0-18.2 26.2-32.9 58.5-32.9 32.3 0 58.5 14.7 58.5 32.9z"/><path class="as" d="m169 252.4c0 18.1-26.2 32.9-58.5 32.9-32.3 0-58.5-14.8-58.5-32.9 0-18.2 26.2-32.9 58.5-32.9 32.3 0 58.5 14.7 58.5 32.9z"/><path class="at" d="m170.7 254.1c0 18.2-26.2 32.9-58.5 32.9-32.3 0-58.5-14.7-58.5-32.9 0-18.2 26.2-32.9 58.5-32.9 32.3 0 58.5 14.7 58.5 32.9z"/><path class="au" d="m172.4 255.8c0 18.2-26.2 32.9-58.5 32.9-32.3 0-58.4-14.7-58.4-32.9 0-18.2 26.1-32.9 58.4-32.9 32.3 0 58.5 14.7 58.5 32.9z"/><path class="av" d="m174.1 257.5c0 18.2-26.2 32.9-58.5 32.9-32.2 0-58.4-14.7-58.4-32.9 0-18.1 26.2-32.9 58.4-32.9 32.3 0 58.5 14.8 58.5 32.9z"/><path class="aw" d="m175.8 259.2c0 18.2-26.1 32.9-58.4 32.9-32.3 0-58.5-14.7-58.5-32.9 0-18.1 26.2-32.9 58.5-32.9 32.3 0 58.4 14.8 58.4 32.9z"/><path class="ax" d="m177.6 261c0 18.1-26.2 32.8-58.5 32.8-32.3 0-58.5-14.7-58.5-32.8 0-18.2 26.2-32.9 58.5-32.9 32.3 0 58.5 14.7 58.5 32.9z"/><path class="ay" d="m179.3 262.7c0 18.1-26.2 32.9-58.5 32.9-32.3 0-58.5-14.8-58.5-32.9 0-18.2 26.2-32.9 58.5-32.9 32.3 0 58.5 14.7 58.5 32.9z"/><path class="az" d="m181 264.4c0 18.2-26.2 32.9-58.5 32.9-32.3 0-58.5-14.7-58.5-32.9 0-18.2 26.2-32.9 58.5-32.9 32.3 0 58.5 14.7 58.5 32.9z"/><path class="aA" d="m182.7 266.1c0 18.2-26.2 32.9-58.5 32.9-32.3 0-58.5-14.7-58.5-32.9 0-18.2 26.2-32.9 58.5-32.9 32.3 0 58.5 14.7 58.5 32.9z"/><path class="aB" d="m184.4 267.8c0 18.2-26.2 32.9-58.5 32.9-32.3 0-58.5-14.7-58.5-32.9 0-18.1 26.2-32.9 58.5-32.9 32.3 0 58.5 14.8 58.5 32.9z"/><path class="aC" d="m186.1 269.5c0 18.2-26.2 32.9-58.5 32.9-32.3 0-58.4-14.7-58.4-32.9 0-18.1 26.1-32.9 58.4-32.9 32.3 0 58.5 14.8 58.5 32.9z"/><path class="aC" d="m187.8 271.3c0 18.1-26.2 32.8-58.4 32.8-32.3 0-58.5-14.7-58.5-32.8 0-18.2 26.2-32.9 58.5-32.9 32.2 0 58.4 14.7 58.4 32.9z"/><path class="aD" d="m189.5 273c0 18.1-26.1 32.9-58.4 32.9-32.3 0-58.5-14.8-58.5-32.9 0-18.2 26.2-32.9 58.5-32.9 32.3 0 58.4 14.7 58.4 32.9z"/><path class="aE" d="m191.3 274.7c0 18.2-26.2 32.9-58.5 32.9-32.3 0-58.5-14.7-58.5-32.9 0-18.2 26.2-32.9 58.5-32.9 32.3 0 58.5 14.7 58.5 32.9z"/><path class="aF" d="m193 276.4c0 18.2-26.2 32.9-58.5 32.9-32.3 0-58.5-14.7-58.5-32.9 0-18.2 26.2-32.9 58.5-32.9 32.3 0 58.5 14.7 58.5 32.9z"/><path class="aF" d="m194.7 278.1c0 18.2-26.2 32.9-58.5 32.9-32.3 0-58.5-14.7-58.5-32.9 0-18.1 26.2-32.9 58.5-32.9 32.3 0 58.5 14.8 58.5 32.9z"/><path class="aG" d="m196.4 279.8c0 18.2-26.2 32.9-58.5 32.9-32.3 0-58.5-14.7-58.5-32.9 0-18.1 26.2-32.9 58.5-32.9 32.3 0 58.5 14.8 58.5 32.9z"/><path class="aH" d="m198.1 281.6c0 18.1-26.2 32.9-58.5 32.9-32.3 0-58.4-14.8-58.4-32.9 0-18.2 26.1-32.9 58.4-32.9 32.3 0 58.5 14.7 58.5 32.9z"/><path class="aI" d="m199.8 283.3c0 18.1-26.2 32.9-58.5 32.9-32.2 0-58.4-14.8-58.4-32.9 0-18.2 26.2-32.9 58.4-32.9 32.3 0 58.5 14.7 58.5 32.9z"/><path class="aJ" d="m201.5 285c0 18.2-26.1 32.9-58.4 32.9-32.3 0-58.5-14.7-58.5-32.9 0-18.2 26.2-32.9 58.5-32.9 32.3 0 58.4 14.7 58.4 32.9z"/><path class="aK" d="m203.3 286.7c0 18.2-26.2 32.9-58.5 32.9-32.3 0-58.5-14.7-58.5-32.9 0-18.2 26.2-32.9 58.5-32.9 32.3 0 58.5 14.7 58.5 32.9z"/><path class="aL" d="m205 288.4c0 18.2-26.2 32.9-58.5 32.9-32.3 0-58.5-14.7-58.5-32.9 0-18.1 26.2-32.9 58.5-32.9 32.3 0 58.5 14.8 58.5 32.9z"/></g></svg>