<svg version="1.2" xmlns="http://www.w3.org/2000/svg" viewBox="0 0 53 53" width="53" height="53"><defs><linearGradient id="P" gradientUnits="userSpaceOnUse"/><linearGradient id="g1" x1="-0.1" y1="25.6" x2="24.7" y2=".9" href="#P"><stop stop-color="#eb9322"/><stop offset="1" stop-color="#eb1e27"/></linearGradient><linearGradient id="g2" x1="-25.7" y1="26.2" x2="26.8" y2="-26.3" href="#P"><stop stop-color="#eb9322"/><stop offset="1" stop-color="#eb1e27"/></linearGradient></defs><style>.a{fill:url(#g1)}.b{fill:url(#g2)}</style><path class="a" d="m14.7 25.5l11.4-11.4c0.1 0 0.2 0 0.3 0.1l11.3 11.3q0.1 0.1 0.1 0.2 0 0.1-0.1 0.2 0 0.1-0.2 0.1-0.1 0-0.2-0.1l-10.8-10.8v24.8c0 0.2-0.1 0.3-0.3 0.3q-0.1 0-0.2 0-0.1-0.1-0.1-0.3v-24.8l-10.8 10.8q-0.1 0.1-0.2 0.1-0.1 0-0.2-0.1-0.1-0.1-0.1-0.2 0-0.1 0.1-0.2z"/><path fill-rule="evenodd" class="b" d="m26.8-0.1c14.4 0 26.2 11.8 26.2 26.3 0 14.4-11.8 26.2-26.2 26.2-14.5 0-26.3-11.8-26.3-26.2 0-14.5 11.8-26.3 26.3-26.3zm0 0.5c-14.2 0-25.8 11.6-25.8 25.8 0 14.2 11.6 25.7 25.8 25.7 14.1 0 25.7-11.5 25.7-25.7 0-14.2-11.6-25.8-25.7-25.8z"/></svg>