<svg version="1.2" xmlns="http://www.w3.org/2000/svg" viewBox="0 0 486 422" width="486" height="422"><defs><clipPath clipPathUnits="userSpaceOnUse" id="cp1"><path d="m485.95 422h-597.28v-421.53h597.28z"/></clipPath><linearGradient id="P" gradientUnits="userSpaceOnUse"/><linearGradient id="g1" x1="32" y1="328.1" x2="7.9" y2="333.5" href="#P"><stop stop-color="#eb9322"/><stop offset="1" stop-color="#eb1e27"/></linearGradient><linearGradient id="g2" x1="245.6" y1="68" x2="221.6" y2="73.3" href="#P"><stop stop-color="#eb9322"/><stop offset="1" stop-color="#eb1e27"/></linearGradient></defs><style>.a{fill:#98a0a8}.b{fill:url(#g1)}.c{fill:#ed1c24}.d{fill:url(#g2)}.e{fill:none;stroke:#98a0a8;stroke-linecap:round;stroke-linejoin:round;stroke-width:.5}.f{fill:none;stroke:#98a0a8;stroke-linecap:round;stroke-linejoin:round}</style><g clip-path="url(#cp1)"><path fill-rule="evenodd" class="a" d="m415.4 19c-0.2 0-0.5-0.1-0.6-0.3l-19.3-40q-0.1-0.2 0-0.5 0.1-0.1 0.3-0.2c10.7-3.3 21.9-3.2 32.6 0.3 11.3 3.6 20.8 10.7 27.6 20.5q0.1 0.2 0.1 0.4-0.1 0.2-0.3 0.3l-40.3 19.4q-0.1 0.1-0.1 0.1zm-18.8-40.2l18.9 39 39.3-18.9c-6.6-9.3-15.8-16.1-26.7-19.7-10.3-3.3-21.1-3.5-31.5-0.4z"/><path class="a" d="m429 80.7c-10.7 3.7-22.6 4-34.1 0.2-0.3 0-0.4-0.3-0.4-0.6 0.1-0.3 0.4-0.4 0.7-0.3 27.8 9.1 57.7-6.2 66.8-34 3.8-11.6 3.4-24.2-1-35.6l-50.8 24.8q-0.2 0-0.4 0-0.2-0.1-0.3-0.3l-24.8-51c-11.1 6.6-19.5 16.9-23.5 29.3-5.8 17.8-1.7 37.6 10.8 51.6 0.2 0.2 0.2 0.5 0 0.7-0.3 0.2-0.6 0.2-0.8 0-12.6-14.3-16.9-34.5-10.9-52.7 4.1-12.7 12.8-23.3 24.4-30q0.1-0.1 0.4 0 0.2 0 0.3 0.2l24.8 51 50.9-24.7q0.2-0.1 0.4 0 0.2 0 0.3 0.2c4.6 11.8 5.1 24.8 1.2 36.8-5.5 16.8-18.5 29.1-34 34.4z"/><path class="a" d="m387.2 77.6q-0.2 0.1-0.4 0c-3.5-1.8-6.8-4-9.8-6.6-0.2-0.1-0.3-0.4-0.1-0.7 0.2-0.2 0.5-0.2 0.7 0 3 2.5 6.2 4.6 9.7 6.4 0.2 0.1 0.3 0.4 0.2 0.7q-0.1 0.1-0.3 0.2z"/><path class="a" d="m395.1 80.8q-0.1 0-0.2 0c-0.2-0.1-0.3-0.3-0.2-0.4l14.9-45.8c0.1-0.2 0.3-0.3 0.4-0.2 0.2 0 0.3 0.2 0.3 0.4l-15 45.8q0 0.1-0.2 0.2z"/><path class="a" d="m464.6 37.5c-0.1 0.1-0.3 0-0.4-0.1l-11.7-23.2c-0.1-0.2 0-0.4 0.1-0.4 0.2-0.1 0.4-0.1 0.5 0.1l11.7 23.2c0.1 0.1 0 0.3-0.1 0.4q0 0-0.1 0z"/><path class="a" d="m460.4 51.7c-0.2 0-0.4 0-0.5-0.2l-16.7-32.9c-0.1-0.2 0-0.4 0.2-0.4 0.1-0.1 0.3-0.1 0.4 0.1l16.7 32.9c0.1 0.2 0.1 0.4-0.1 0.5q0 0 0 0z"/><path class="a" d="m454.3 62.3c-0.2 0-0.4 0-0.4-0.2l-19.8-38.9c-0.1-0.2-0.1-0.4 0.1-0.5 0.2-0.1 0.4 0 0.5 0.2l19.7 38.9c0.1 0.2 0.1 0.4-0.1 0.5q0 0 0 0z"/><path class="a" d="m446.8 70.1c-0.2 0.1-0.4 0-0.4-0.1l-21.6-42.5c-0.1-0.2 0-0.4 0.1-0.4 0.2-0.1 0.4-0.1 0.5 0.1l21.5 42.5c0.1 0.1 0.1 0.3-0.1 0.4q0 0 0 0z"/><path class="a" d="m438.3 76.1c-0.1 0.1-0.3 0-0.4-0.1l-22.2-43.7c-0.1-0.2 0-0.4 0.2-0.5 0.1-0.1 0.3 0 0.4 0.2l22.2 43.7c0.1 0.1 0 0.3-0.1 0.4q0 0-0.1 0z"/><path class="a" d="m429.1 80.5c-0.2 0-0.4 0-0.5-0.2l-20.5-40.4c-0.1-0.2 0-0.4 0.1-0.5 0.2-0.1 0.4 0 0.5 0.2l20.5 40.4c0.1 0.2 0.1 0.4-0.1 0.5q0 0 0 0z"/><path class="a" d="m418.8 82.9c-0.2 0-0.3 0-0.4-0.2l-14.8-29.2c-0.1-0.1-0.1-0.3 0.1-0.4 0.2-0.1 0.4 0 0.5 0.1l14.8 29.2c0.1 0.2 0 0.4-0.2 0.5q0 0 0 0z"/><path class="a" d="m407.4 83.1c-0.2 0-0.3-0.1-0.4-0.2l-7.9-15.6c-0.1-0.1 0-0.3 0.1-0.4 0.2-0.1 0.4 0 0.5 0.1l7.9 15.6c0.1 0.2 0 0.4-0.2 0.4q0 0 0 0.1z"/><path class="b" d="m24.4 297.9q0.2 0 0.5 0.1c0.3 0.2 0.4 0.7 0.2 1l-17.3 27.4c-0.3 0.4-0.7 0.5-1 0.3-0.4-0.3-0.5-0.7-0.3-1l17.4-27.5q0.2-0.2 0.5-0.3z"/><path class="c" d="m3.1 331.7q0.2-0.1 0.5 0.1c0.3 0.2 0.4 0.6 0.2 1l-1.8 2.8c-0.2 0.3-0.6 0.4-1 0.2-0.3-0.2-0.4-0.6-0.2-1l1.8-2.8q0.2-0.2 0.5-0.3z"/><path class="d" d="m238 37.8q0.3-0.1 0.6 0.1c0.3 0.2 0.4 0.6 0.2 1l-17.4 27.4c-0.2 0.3-0.6 0.4-1 0.2-0.3-0.2-0.4-0.6-0.2-1l17.4-27.4q0.2-0.3 0.4-0.3z"/><path class="c" d="m216.7 71.6q0.3-0.1 0.6 0.1c0.3 0.2 0.4 0.6 0.2 0.9l-1.8 2.9c-0.2 0.3-0.7 0.4-1 0.2-0.3-0.2-0.4-0.7-0.2-1l1.8-2.8q0.2-0.3 0.4-0.3z"/><path class="a" d="m177.3 335.3l2.5 9c0.1 0.3-0.1 0.5-0.4 0.6-0.2 0.1-0.5-0.1-0.6-0.3l-2.1-7.8-33 57.9c-0.2 0.2-0.5 0.3-0.7 0.2l-18.1-10.4-44.1 77.4q-0.2 0.2-0.4 0.2-0.1 0.1-0.3 0c-0.3-0.2-0.4-0.5-0.2-0.7l44.3-77.8c0.2-0.2 0.5-0.3 0.7-0.2l18.1 10.3 32.8-57.4-7.8 2.1c-0.2 0.1-0.5-0.1-0.6-0.4-0.1-0.2 0.1-0.5 0.4-0.6l8.9-2.4q0.1 0 0.2 0 0.2 0 0.4 0.2 0 0 0 0.1z"/><path class="e" d="m307.9 78.2h1.4v-0.2c0-2.7 2.3-5 5-5 2.8 0 5 2.3 5 5v0.2h0.1c1.9 0 3.4 1.5 3.4 3.4 0 1.8-1.5 3.4-3.4 3.4h-11.5c-1.9 0-3.5-1.6-3.5-3.4 0-1.9 1.6-3.4 3.5-3.4z"/><path class="f" d="m419.2 375.1h15.6v-1.2c0-29.3 24-53.3 53.3-53.3 29.4 0 53.4 24 53.4 53.3v1.2h0.7c20 0 36.3 16.3 36.3 36.3 0 20-16.3 36.4-36.3 36.4h-123c-20 0-36.4-16.4-36.4-36.4 0-20 16.4-36.3 36.4-36.3z"/></g></svg>