<svg version="1.2" xmlns="http://www.w3.org/2000/svg" viewBox="0 0 47 204" width="47" height="204"><defs><linearGradient id="P" gradientUnits="userSpaceOnUse"/><linearGradient id="g1" x1="3.8" y1="0" x2="13.9" y2="0" href="#P"><stop offset=".3" stop-color="#d71a60"/><stop offset="1" stop-color="#a81d4e"/></linearGradient><linearGradient id="g2" x1="37.6" y1="54.7" x2="47.7" y2="54.7" href="#P"><stop offset=".3" stop-color="#1e7ca9"/><stop offset="1" stop-color="#19536e"/></linearGradient><linearGradient id="g3" x1="37.1" y1="137.6" x2="47.1" y2="137.6" href="#P"><stop offset=".2" stop-color="#5162ac"/><stop offset="1" stop-color="#2b489a"/></linearGradient><linearGradient id="g4" x1="3.8" y1="193.7" x2="13.9" y2="193.7" href="#P"><stop stop-color="#eb1e27"/><stop offset="1" stop-color="#9f1c20"/></linearGradient></defs><style>.a{fill:none;stroke:#fff;stroke-linecap:round;stroke-linejoin:round;stroke-width:.5}.b{fill:none;stroke:#fff;stroke-linecap:round;stroke-linejoin:round;stroke-width:.5;stroke-dasharray:2,3}.c{fill:url(#g1)}.d{fill:url(#g2)}.e{fill:url(#g3)}.f{fill:url(#g4)}</style><path class="a" d="m41.6 69.3q0.2 0.5 0.3 1"/><path class="b" d="m42.6 73.2c2 9.5 3.1 19.3 3.1 29.4 0 9.8-1 19.5-3 28.8"/><path class="a" d="m42.4 132.8q-0.2 0.5-0.3 1"/><path class="a" d="m11.9 12.8q0.3 0.3 0.6 0.7"/><path class="b" d="m14.5 15.8c8.1 9.8 14.9 20.8 20 32.6"/><path class="a" d="m35.1 49.8q0.2 0.4 0.4 0.9"/><path class="a" d="m36.5 151.8q-0.2 0.5-0.3 1"/><path class="b" d="m35 155.6c-5.3 12.4-12.3 23.8-20.7 33.9"/><path class="a" d="m13.3 190.7q-0.3 0.4-0.7 0.8"/><path class="c" d="m10.9 5c0 2.8-2.2 5.1-5 5.1-2.8 0-5.1-2.3-5.1-5.1 0-2.8 2.3-5 5.1-5 2.8 0 5 2.2 5 5z"/><path class="d" d="m44.7 59.8c0 2.7-2.2 5-5 5-2.8 0-5-2.3-5-5 0-2.8 2.2-5.1 5-5.1 2.8 0 5 2.3 5 5.1z"/><path class="e" d="m44.2 142.6c0 2.8-2.3 5-5 5-2.8 0-5.1-2.2-5.1-5 0-2.8 2.3-5 5.1-5 2.7 0 5 2.2 5 5z"/><path class="f" d="m10.9 198.7c0 2.8-2.2 5.1-5 5.1-2.8 0-5.1-2.3-5.1-5.1 0-2.8 2.3-5 5.1-5 2.8 0 5 2.2 5 5z"/></svg>