<svg version="1.2" xmlns="http://www.w3.org/2000/svg" viewBox="0 0 522 97" width="522" height="97"><defs><linearGradient id="P" gradientUnits="userSpaceOnUse"/><linearGradient id="g1" x1="30.8" y1="-30.1" x2="108.8" y2="39.2" href="#P"><stop stop-color="#eb9322"/><stop offset="1" stop-color="#eb1e27"/></linearGradient><linearGradient id="g2" x1="19.4" y1="-5.5" x2="84.5" y2="52.4" href="#P"><stop stop-color="#eb9322"/><stop offset="1" stop-color="#eb1e27"/></linearGradient><linearGradient id="g3" x1="7.2" y1="7.8" x2="77.7" y2="70.4" href="#P"><stop stop-color="#eb9322"/><stop offset="1" stop-color="#eb1e27"/></linearGradient><linearGradient id="g4" x1="22.1" y1="-14.6" x2="116.9" y2="69.6" href="#P"><stop stop-color="#eb9322"/><stop offset="1" stop-color="#eb1e27"/></linearGradient><linearGradient id="g5" x1="12.4" y1="-4.9" x2="101.6" y2="74.4" href="#P"><stop stop-color="#eb9322"/><stop offset="1" stop-color="#eb1e27"/></linearGradient><linearGradient id="g6" x1="24" y1="-37.6" x2="118.7" y2="46.6" href="#P"><stop stop-color="#eb9322"/><stop offset="1" stop-color="#eb1e27"/></linearGradient><linearGradient id="g7" x1="16.1" y1="-25.3" x2="105.3" y2="53.9" href="#P"><stop stop-color="#eb9322"/><stop offset="1" stop-color="#eb1e27"/></linearGradient><linearGradient id="g8" x1="3.6" y1="4.3" x2="82.7" y2="74.7" href="#P"><stop stop-color="#eb9322"/><stop offset="1" stop-color="#eb1e27"/></linearGradient><linearGradient id="g9" x1="5.3" y1="0" x2="84.5" y2="70.3" href="#P"><stop stop-color="#eb9322"/><stop offset="1" stop-color="#eb1e27"/></linearGradient><linearGradient id="g10" x1="7.1" y1="-4.3" x2="86.2" y2="66" href="#P"><stop stop-color="#eb9322"/><stop offset="1" stop-color="#eb1e27"/></linearGradient><linearGradient id="g11" x1="8.8" y1="-8.6" x2="88" y2="61.7" href="#P"><stop stop-color="#eb9322"/><stop offset="1" stop-color="#eb1e27"/></linearGradient><linearGradient id="g12" x1="10.5" y1="-12.9" x2="89.7" y2="57.4" href="#P"><stop stop-color="#eb9322"/><stop offset="1" stop-color="#eb1e27"/></linearGradient><linearGradient id="g13" x1="-1.4" y1="8.6" x2="77.8" y2="78.9" href="#P"><stop stop-color="#eb9322"/><stop offset="1" stop-color="#eb1e27"/></linearGradient><linearGradient id="g14" x1=".3" y1="4.3" x2="79.5" y2="74.6" href="#P"><stop stop-color="#eb9322"/><stop offset="1" stop-color="#eb1e27"/></linearGradient><linearGradient id="g15" x1="2.1" y1="0" x2="81.2" y2="70.3" href="#P"><stop stop-color="#eb9322"/><stop offset="1" stop-color="#eb1e27"/></linearGradient><linearGradient id="g16" x1="3.8" y1="-4.3" x2="83" y2="66" href="#P"><stop stop-color="#eb9322"/><stop offset="1" stop-color="#eb1e27"/></linearGradient><linearGradient id="g17" x1="5.6" y1="-8.7" x2="84.7" y2="61.7" href="#P"><stop stop-color="#eb9322"/><stop offset="1" stop-color="#eb1e27"/></linearGradient><linearGradient id="g18" x1="-6.4" y1="12.9" x2="72.8" y2="83.2" href="#P"><stop stop-color="#eb9322"/><stop offset="1" stop-color="#eb1e27"/></linearGradient><linearGradient id="g19" x1="-4.6" y1="8.6" x2="74.5" y2="78.9" href="#P"><stop stop-color="#eb9322"/><stop offset="1" stop-color="#eb1e27"/></linearGradient><linearGradient id="g20" x1="-2.9" y1="4.3" x2="76.3" y2="74.6" href="#P"><stop stop-color="#eb9322"/><stop offset="1" stop-color="#eb1e27"/></linearGradient><linearGradient id="g21" x1="-1.2" y1="0" x2="78" y2="70.3" href="#P"><stop stop-color="#eb9322"/><stop offset="1" stop-color="#eb1e27"/></linearGradient><linearGradient id="g22" x1=".6" y1="-4.4" x2="79.7" y2="66" href="#P"><stop stop-color="#eb9322"/><stop offset="1" stop-color="#eb1e27"/></linearGradient><linearGradient id="g23" x1="-11.4" y1="17.2" x2="67.8" y2="87.5" href="#P"><stop stop-color="#eb9322"/><stop offset="1" stop-color="#eb1e27"/></linearGradient><linearGradient id="g24" x1="-3.1" y1="12.9" x2="76" y2="83.3" href="#P"><stop stop-color="#eb9322"/><stop offset="1" stop-color="#eb1e27"/></linearGradient><linearGradient id="g25" x1="-8.1" y1="17.2" x2="71" y2="87.6" href="#P"><stop stop-color="#eb9322"/><stop offset="1" stop-color="#eb1e27"/></linearGradient><linearGradient id="g26" x1="-13.1" y1="21.5" x2="66.1" y2="91.9" href="#P"><stop stop-color="#eb9322"/><stop offset="1" stop-color="#eb1e27"/></linearGradient><linearGradient id="g27" x1="-9.6" y1="12.9" x2="69.5" y2="83.2" href="#P"><stop stop-color="#eb9322"/><stop offset="1" stop-color="#eb1e27"/></linearGradient><linearGradient id="g28" x1="-7.9" y1="8.6" x2="71.3" y2="78.9" href="#P"><stop stop-color="#eb9322"/><stop offset="1" stop-color="#eb1e27"/></linearGradient><linearGradient id="g29" x1="-140.5" y1="-118.6" x2="101.3" y2="96.3" href="#P"><stop stop-color="#eb9322"/><stop offset="1" stop-color="#eb1e27"/></linearGradient><linearGradient id="g30" x1="-50.2" y1="-45" x2="93.2" y2="82.5" href="#P"><stop stop-color="#eb9322"/><stop offset="1" stop-color="#eb1e27"/></linearGradient><linearGradient id="g31" x1="483.7" y1="27.6" x2="541.3" y2="44.2" href="#P"><stop stop-color="#eb9322"/><stop offset="1" stop-color="#eb1e27"/></linearGradient><linearGradient id="g32" x1="480.2" y1="40.8" x2="539.3" y2="57.9" href="#P"><stop stop-color="#eb9322"/><stop offset="1" stop-color="#eb1e27"/></linearGradient><linearGradient id="g33" x1="468.3" y1="75.6" x2="527.3" y2="92.7" href="#P"><stop stop-color="#eb9322"/><stop offset="1" stop-color="#eb1e27"/></linearGradient><linearGradient id="g34" x1="467" y1="70.1" x2="527.5" y2="87.6" href="#P"><stop stop-color="#eb9322"/><stop offset="1" stop-color="#eb1e27"/></linearGradient><linearGradient id="g35" x1="463.2" y1="75.4" x2="528.3" y2="94.2" href="#P"><stop stop-color="#eb9322"/><stop offset="1" stop-color="#eb1e27"/></linearGradient><linearGradient id="g36" x1="479.4" y1="41.3" x2="540.8" y2="59" href="#P"><stop stop-color="#eb9322"/><stop offset="1" stop-color="#eb1e27"/></linearGradient><linearGradient id="g37" x1="475.6" y1="49.9" x2="540.7" y2="68.7" href="#P"><stop stop-color="#eb9322"/><stop offset="1" stop-color="#eb1e27"/></linearGradient><linearGradient id="g38" x1="460.3" y1="59.4" x2="545.5" y2="84" href="#P"><stop stop-color="#eb9322"/><stop offset="1" stop-color="#eb1e27"/></linearGradient><linearGradient id="g39" x1="475.6" y1="59.9" x2="531.4" y2="76.1" href="#P"><stop stop-color="#eb9322"/><stop offset="1" stop-color="#eb1e27"/></linearGradient><linearGradient id="g40" x1="473" y1="59" x2="534.9" y2="76.8" href="#P"><stop stop-color="#eb9322"/><stop offset="1" stop-color="#eb1e27"/></linearGradient><linearGradient id="g41" x1="468.2" y1="67.3" x2="533" y2="86.1" href="#P"><stop stop-color="#eb9322"/><stop offset="1" stop-color="#eb1e27"/></linearGradient><linearGradient id="g42" x1="471.9" y1="51.1" x2="546.4" y2="72.6" href="#P"><stop stop-color="#eb9322"/><stop offset="1" stop-color="#eb1e27"/></linearGradient><linearGradient id="g43" x1="467.2" y1="59.6" x2="541.7" y2="81.2" href="#P"><stop stop-color="#eb9322"/><stop offset="1" stop-color="#eb1e27"/></linearGradient><linearGradient id="g44" x1="462.6" y1="68.1" x2="537.1" y2="89.6" href="#P"><stop stop-color="#eb9322"/><stop offset="1" stop-color="#eb1e27"/></linearGradient><linearGradient id="g45" x1="476.9" y1="48.3" x2="537" y2="65.7" href="#P"><stop stop-color="#eb9322"/><stop offset="1" stop-color="#eb1e27"/></linearGradient><linearGradient id="g46" x1="476.9" y1="49.6" x2="535.7" y2="66.6" href="#P"><stop stop-color="#eb9322"/><stop offset="1" stop-color="#eb1e27"/></linearGradient><linearGradient id="g47" x1="473.6" y1="56.9" x2="533.8" y2="74.3" href="#P"><stop stop-color="#eb9322"/><stop offset="1" stop-color="#eb1e27"/></linearGradient><linearGradient id="g48" x1="473.4" y1="54.1" x2="533.9" y2="71.6" href="#P"><stop stop-color="#eb9322"/><stop offset="1" stop-color="#eb1e27"/></linearGradient><linearGradient id="g49" x1="473.7" y1="58.3" x2="532.5" y2="75.3" href="#P"><stop stop-color="#eb9322"/><stop offset="1" stop-color="#eb1e27"/></linearGradient><linearGradient id="g50" x1="470.3" y1="67.4" x2="529.1" y2="84.4" href="#P"><stop stop-color="#eb9322"/><stop offset="1" stop-color="#eb1e27"/></linearGradient><linearGradient id="g51" x1="470.3" y1="66" x2="530.4" y2="83.4" href="#P"><stop stop-color="#eb9322"/><stop offset="1" stop-color="#eb1e27"/></linearGradient><linearGradient id="g52" x1="469.4" y1="63.5" x2="530.6" y2="81.2" href="#P"><stop stop-color="#eb9322"/><stop offset="1" stop-color="#eb1e27"/></linearGradient><linearGradient id="g53" x1="476.5" y1="45.7" x2="537.3" y2="63.3" href="#P"><stop stop-color="#eb9322"/><stop offset="1" stop-color="#eb1e27"/></linearGradient></defs><style>.a{fill:url(#g1)}.b{fill:url(#g2)}.c{fill:url(#g3)}.d{fill:url(#g4)}.e{fill:url(#g5)}.f{fill:url(#g6)}.g{fill:url(#g7)}.h{fill:url(#g8)}.i{fill:url(#g9)}.j{fill:url(#g10)}.k{fill:url(#g11)}.l{fill:url(#g12)}.m{fill:url(#g13)}.n{fill:url(#g14)}.o{fill:url(#g15)}.p{fill:url(#g16)}.q{fill:url(#g17)}.r{fill:url(#g18)}.s{fill:url(#g19)}.t{fill:url(#g20)}.u{fill:url(#g21)}.v{fill:url(#g22)}.w{fill:url(#g23)}.x{fill:url(#g24)}.y{fill:url(#g25)}.z{fill:url(#g26)}.A{fill:url(#g27)}.B{fill:url(#g28)}.C{fill:url(#g29)}.D{fill:url(#g30)}.E{fill:url(#g31)}.F{fill:url(#g32)}.G{fill:url(#g33)}.H{fill:url(#g34)}.I{fill:url(#g35)}.J{fill:url(#g36)}.K{fill:url(#g37)}.L{fill:url(#g38)}.M{fill:url(#g39)}.N{fill:url(#g40)}.O{fill:url(#g41)}.P{fill:url(#g42)}.Q{fill:url(#g43)}.R{fill:url(#g44)}.S{fill:url(#g45)}.T{fill:url(#g46)}.U{fill:url(#g47)}.V{fill:url(#g48)}.W{fill:url(#g49)}.X{fill:url(#g50)}.Y{fill:url(#g51)}.Z{fill:url(#g52)}.a0{fill:url(#g53)}</style><path fill-rule="evenodd" class="a" d="m58.4 68.2l-54.9-9.9c-1.8-0.4-3.1-2.2-2.8-4l9-49.4c0.3-1.9 2.1-3.1 3.9-2.8l54.9 9.9c1.9 0.3 3.1 2.1 2.8 4l-8.9 49.4c-0.4 1.9-2.2 3.1-4 2.8zm-45-64.8c-1.1-0.2-2.2 0.6-2.4 1.7l-9 49.4c-0.2 1.2 0.6 2.3 1.7 2.5l54.9 9.9c1.2 0.2 2.3-0.6 2.5-1.7l8.9-49.4c0.2-1.2-0.6-2.3-1.7-2.5z"/><path class="b" d="m67.6 26.2l-48.1-8.7c-0.2 0-0.3-0.2-0.3-0.3 0.1-0.2 0.2-0.3 0.4-0.3l48.1 8.7c0.2 0 0.3 0.2 0.3 0.4-0.1 0.1-0.2 0.3-0.4 0.2z"/><path class="c" d="m16.3 17l-2.1-0.4c-0.1 0-0.3-0.2-0.2-0.4 0-0.2 0.2-0.3 0.3-0.2l2.1 0.3c0.2 0.1 0.3 0.2 0.3 0.4-0.1 0.2-0.2 0.3-0.4 0.3z"/><path class="d" d="m22.5 9.7c-0.4-0.1-0.6-0.4-0.6-0.8l1.6-8.4c0-0.4 0.4-0.6 0.7-0.6 0.4 0.1 0.6 0.4 0.5 0.8l-1.5 8.5c0 0.3-0.4 0.5-0.7 0.5z"/><path class="e" d="m21.9 13.1c-1.6-0.3-2.8-1.9-2.5-3.6 0.3-1.6 2-2.8 3.6-2.5 0.8 0.2 1.6 0.6 2 1.3 0.1 0.2 0.1 0.4-0.1 0.5-0.1 0.1-0.3 0-0.4-0.1-0.4-0.5-0.9-0.9-1.6-1-1.3-0.3-2.6 0.6-2.8 2-0.3 1.3 0.6 2.6 2 2.8 0.6 0.1 1.2 0 1.8-0.4 0.1-0.1 0.3-0.1 0.4 0.1 0.1 0.1 0.1 0.3-0.1 0.4-0.6 0.5-1.5 0.7-2.3 0.5z"/><path class="f" d="m56.2 15.8c-0.4-0.1-0.6-0.4-0.5-0.8l1.5-8.4c0-0.4 0.4-0.6 0.7-0.6 0.4 0.1 0.6 0.4 0.6 0.8l-1.6 8.4c0 0.4-0.4 0.6-0.7 0.6z"/><path class="g" d="m55.7 19.2c-1.7-0.3-2.8-1.9-2.5-3.6 0.3-1.7 1.9-2.8 3.6-2.5 0.8 0.2 1.5 0.6 2 1.3 0.1 0.2 0 0.4-0.1 0.5-0.2 0.1-0.4 0-0.5-0.1-0.4-0.6-0.9-0.9-1.6-1-1.3-0.3-2.6 0.6-2.8 1.9-0.2 1.4 0.7 2.6 2 2.9 0.6 0.1 1.3 0 1.8-0.4 0.2-0.1 0.4-0.1 0.5 0.1 0.1 0.1 0 0.3-0.1 0.4-0.7 0.5-1.5 0.7-2.3 0.5z"/><path fill-rule="evenodd" class="h" d="m25.1 29.2l-3.5-0.6c-0.2 0-0.3-0.2-0.3-0.4l0.7-3.6c0-0.1 0.2-0.3 0.3-0.2l3.6 0.6c0.2 0.1 0.3 0.2 0.3 0.4l-0.7 3.6c0 0.2-0.2 0.3-0.4 0.2zm-3.1-1.2l2.9 0.5 0.6-2.9-3-0.5z"/><path fill-rule="evenodd" class="i" d="m33.4 30.7l-3.6-0.6c-0.1 0-0.3-0.2-0.2-0.4l0.6-3.6c0-0.1 0.2-0.3 0.4-0.2l3.6 0.6c0.1 0 0.3 0.2 0.2 0.4l-0.6 3.6c0 0.1-0.2 0.3-0.4 0.2zm-3.1-1.2l2.9 0.5 0.5-2.9-2.9-0.5z"/><path fill-rule="evenodd" class="j" d="m41.7 32.2l-3.6-0.6c-0.2-0.1-0.3-0.2-0.3-0.4l0.7-3.6c0-0.2 0.2-0.3 0.4-0.2l3.5 0.6c0.2 0 0.3 0.2 0.3 0.4l-0.6 3.6c-0.1 0.1-0.2 0.3-0.4 0.2zm-3.2-1.2l3 0.5 0.5-2.9-2.9-0.5z"/><path fill-rule="evenodd" class="k" d="m49.9 33.7l-3.5-0.6c-0.2-0.1-0.3-0.2-0.3-0.4l0.7-3.6c0-0.2 0.2-0.3 0.3-0.2l3.6 0.6c0.2 0 0.3 0.2 0.3 0.4l-0.7 3.5c0 0.2-0.2 0.3-0.4 0.3zm-3.1-1.2l2.9 0.5 0.6-2.9-3-0.5z"/><path fill-rule="evenodd" class="l" d="m58.2 35.2l-3.6-0.6c-0.1-0.1-0.3-0.2-0.2-0.4l0.6-3.6c0.1-0.2 0.2-0.3 0.4-0.3l3.6 0.7c0.1 0 0.3 0.2 0.2 0.4l-0.6 3.5c0 0.2-0.2 0.3-0.4 0.3zm-3.1-1.2l2.9 0.5 0.5-2.9-2.9-0.6z"/><path fill-rule="evenodd" class="m" d="m23.8 36.8l-3.6-0.7c-0.2 0-0.3-0.2-0.3-0.4l0.7-3.5c0-0.2 0.2-0.3 0.4-0.3l3.5 0.6c0.2 0.1 0.3 0.2 0.3 0.4l-0.6 3.6c-0.1 0.2-0.2 0.3-0.4 0.3zm-3.1-1.3l2.9 0.5 0.5-2.9-2.9-0.5z"/><path fill-rule="evenodd" class="n" d="m32.1 38.2l-3.6-0.6c-0.2 0-0.3-0.2-0.3-0.4l0.7-3.6c0-0.1 0.2-0.2 0.3-0.2l3.6 0.6c0.2 0.1 0.3 0.2 0.3 0.4l-0.7 3.6c0 0.2-0.2 0.3-0.3 0.2zm-3.2-1.2l2.9 0.5 0.6-2.9-3-0.5z"/><path fill-rule="evenodd" class="o" d="m40.3 39.7l-3.6-0.6c-0.1 0-0.2-0.2-0.2-0.4l0.6-3.6c0.1-0.1 0.2-0.3 0.4-0.2l3.6 0.6c0.2 0.1 0.3 0.2 0.2 0.4l-0.6 3.6c0 0.2-0.2 0.3-0.4 0.2zm-3.1-1.2l2.9 0.5 0.5-2.9-2.9-0.5z"/><path fill-rule="evenodd" class="p" d="m48.6 41.2l-3.6-0.6c-0.2 0-0.3-0.2-0.2-0.4l0.6-3.6c0-0.1 0.2-0.3 0.4-0.2l3.5 0.6c0.2 0 0.3 0.2 0.3 0.4l-0.6 3.6c-0.1 0.1-0.2 0.3-0.4 0.2zm-3.1-1.2l2.9 0.5 0.5-2.9-2.9-0.5z"/><path fill-rule="evenodd" class="q" d="m56.9 42.7l-3.6-0.6c-0.2-0.1-0.3-0.2-0.3-0.4l0.7-3.6c0-0.2 0.2-0.3 0.3-0.2l3.6 0.6c0.2 0 0.3 0.2 0.3 0.4l-0.7 3.6c0 0.1-0.2 0.3-0.3 0.2zm-3.2-1.2l2.9 0.5 0.6-2.9-2.9-0.5z"/><path fill-rule="evenodd" class="r" d="m22.4 44.3l-3.5-0.7c-0.2 0-0.3-0.2-0.3-0.4l0.6-3.5c0.1-0.2 0.2-0.3 0.4-0.3l3.6 0.7c0.2 0 0.3 0.2 0.3 0.3l-0.7 3.6c0 0.2-0.2 0.3-0.4 0.3zm-3.1-1.3l2.9 0.6 0.5-3-2.9-0.5z"/><path fill-rule="evenodd" class="s" d="m30.7 45.8l-3.6-0.7c-0.2 0-0.3-0.2-0.2-0.4l0.6-3.5c0-0.2 0.2-0.3 0.4-0.3l3.6 0.6c0.1 0.1 0.3 0.2 0.2 0.4l-0.6 3.6c-0.1 0.2-0.2 0.3-0.4 0.3zm-3.1-1.3l2.9 0.6 0.5-3-2.9-0.5z"/><path fill-rule="evenodd" class="t" d="m39 47.3l-3.6-0.7c-0.2 0-0.3-0.2-0.3-0.4l0.7-3.5c0-0.2 0.2-0.3 0.4-0.3l3.5 0.6c0.2 0.1 0.3 0.2 0.3 0.4l-0.7 3.6c0 0.2-0.2 0.3-0.3 0.3zm-3.2-1.3l3 0.5 0.5-2.9-2.9-0.5z"/><path fill-rule="evenodd" class="u" d="m47.2 48.7l-3.5-0.6c-0.2 0-0.3-0.2-0.3-0.4l0.6-3.5c0.1-0.2 0.2-0.3 0.4-0.3l3.6 0.6c0.2 0.1 0.3 0.2 0.3 0.4l-0.7 3.6c0 0.2-0.2 0.3-0.4 0.2zm-3.1-1.2l2.9 0.5 0.6-2.9-3-0.5z"/><path fill-rule="evenodd" class="v" d="m55.5 50.2l-3.6-0.6c-0.2 0-0.3-0.2-0.2-0.4l0.6-3.6c0-0.1 0.2-0.3 0.4-0.2l3.6 0.6c0.1 0.1 0.3 0.2 0.2 0.4l-0.6 3.6c-0.1 0.2-0.2 0.3-0.4 0.2zm-3.1-1.2l2.9 0.5 0.5-2.9-2.9-0.5z"/><path fill-rule="evenodd" class="w" d="m21.1 51.8l-3.6-0.7c-0.2 0-0.3-0.2-0.3-0.3l0.7-3.6c0-0.2 0.2-0.3 0.4-0.3l3.5 0.7c0.2 0 0.3 0.2 0.3 0.4l-0.6 3.5c-0.1 0.2-0.3 0.3-0.4 0.3zm-3.2-1.2l3 0.5 0.5-2.9-2.9-0.6z"/><path fill-rule="evenodd" class="x" d="m15.5 35.3l-3.6-0.7c-0.1 0-0.2-0.2-0.2-0.4l0.6-3.5c0.1-0.2 0.2-0.3 0.4-0.3l3.6 0.6c0.2 0.1 0.3 0.2 0.2 0.4l-0.6 3.6c0 0.2-0.2 0.3-0.4 0.3zm-3.1-1.3l2.9 0.6 0.5-3-2.9-0.5z"/><path fill-rule="evenodd" class="y" d="m14.2 42.8l-3.6-0.7c-0.2 0-0.3-0.2-0.3-0.3l0.7-3.6c0-0.2 0.2-0.3 0.4-0.3l3.5 0.7c0.2 0 0.3 0.2 0.3 0.3l-0.7 3.6c0 0.2-0.2 0.3-0.3 0.3zm-3.2-1.3l3 0.6 0.5-3-2.9-0.5z"/><path fill-rule="evenodd" class="z" d="m12.8 50.3l-3.6-0.7c-0.1 0-0.3-0.2-0.2-0.3l0.6-3.6c0-0.2 0.2-0.3 0.4-0.3l3.6 0.7c0.1 0 0.3 0.2 0.2 0.4l-0.6 3.5c0 0.2-0.2 0.3-0.4 0.3zm-3.1-1.2l2.9 0.5 0.5-2.9-2.9-0.6z"/><path fill-rule="evenodd" class="A" d="m29.3 53.3l-3.5-0.7c-0.2 0-0.3-0.2-0.3-0.3l0.6-3.6c0.1-0.2 0.3-0.3 0.4-0.3l3.6 0.7c0.2 0 0.3 0.2 0.3 0.3l-0.7 3.6c0 0.2-0.2 0.3-0.4 0.3zm-3.1-1.3l2.9 0.6 0.6-3-3-0.5z"/><path fill-rule="evenodd" class="B" d="m37.6 54.8l-3.6-0.7c-0.1 0-0.3-0.2-0.2-0.4l0.6-3.5c0-0.2 0.2-0.3 0.4-0.3l3.6 0.7c0.1 0 0.3 0.2 0.2 0.3l-0.6 3.6c0 0.2-0.2 0.3-0.4 0.3zm-3.1-1.3l2.9 0.6 0.5-3-2.9-0.5z"/><path class="C" d="m50 65.9q-0.2 0-0.3-0.1c-0.1-0.2 0-0.4 0.1-0.5l10.6-7.3c0.1-0.1 0.3-0.1 0.4 0.1 0.1 0.1 0.1 0.4-0.1 0.5l-10.5 7.3q-0.1 0-0.2 0z"/><path class="D" d="m49.6 65.9c-0.2-0.1-0.3-0.2-0.3-0.4l2-11.1c0-0.2 0.2-0.3 0.4-0.3l7.1 1.3c0.2 0 0.3 0.2 0.3 0.4 0 0.2-0.2 0.3-0.4 0.3l-6.8-1.3-1.9 10.8c-0.1 0.2-0.2 0.3-0.4 0.3z"/><path fill-rule="evenodd" class="E" d="m518.1 92.4l-17.5 3.7c-2.6 0.5-5.1-1.1-5.6-3.7l-8.2-38.6c-0.5-2.5 1.1-5 3.7-5.6l17.5-3.7c2.6-0.5 5.1 1.1 5.6 3.7l8.1 38.6c0.6 2.5-1.1 5-3.6 5.6zm-27.5-43.6c-2.2 0.5-3.6 2.7-3.2 4.9l8.2 38.6c0.4 2.2 2.6 3.7 4.8 3.2l17.6-3.7c2.2-0.5 3.6-2.7 3.1-4.9l-8.1-38.6c-0.4-2.2-2.6-3.6-4.9-3.2z"/><path class="F" d="m513.2 47.9l-22.6 4.7c-0.1 0.1-0.3 0-0.3-0.2-0.1-0.2 0-0.3 0.2-0.4l22.6-4.7c0.2-0.1 0.3 0 0.4 0.2 0 0.2-0.1 0.3-0.3 0.4z"/><path class="G" d="m514.4 87l-18.7 3.9c-0.2 0-0.3-0.1-0.4-0.2 0-0.2 0.1-0.4 0.3-0.4l18.7-3.9c0.2-0.1 0.3 0 0.4 0.2 0 0.2-0.1 0.3-0.3 0.4z"/><path class="H" d="m520.5 85.6l-3.1 0.6c-0.2 0-0.3-0.1-0.4-0.2 0-0.2 0.1-0.3 0.2-0.4l3.1-0.6c0.2-0.1 0.4 0 0.4 0.2 0 0.2-0.1 0.3-0.2 0.4z"/><path fill-rule="evenodd" class="I" d="m508.9 92.6c-0.9 0.2-1.9-0.4-2.1-1.4-0.2-0.9 0.4-1.9 1.4-2.1 1-0.2 1.9 0.4 2.2 1.4 0.2 1-0.5 1.9-1.5 2.1zm-0.6-2.9c-0.6 0.1-1.1 0.8-0.9 1.4 0.1 0.7 0.8 1.1 1.4 0.9 0.7-0.1 1.1-0.7 1-1.4-0.2-0.6-0.8-1.1-1.5-0.9z"/><path fill-rule="evenodd" class="J" d="m501.9 48.9l-3.5 0.7c-0.4 0.1-0.8-0.2-0.8-0.5-0.1-0.4 0.1-0.8 0.5-0.9l3.5-0.7c0.4-0.1 0.8 0.1 0.9 0.5 0.1 0.4-0.2 0.8-0.6 0.9zm-3.7-0.1q-0.1 0 0 0.1 0 0.1 0.1 0.1l3.5-0.7q0.1-0.1 0.1-0.1 0-0.1-0.1-0.1z"/><path class="K" d="m497.2 63.6c-1.1 0.3-2.4-0.1-3.2-1.1-0.1-0.1-0.1-0.3 0.1-0.4 0.1-0.1 0.3-0.1 0.4 0 0.6 0.8 1.6 1.1 2.6 0.9 1.5-0.3 2.4-1.7 2.1-3.2-0.3-1.5-1.7-2.4-3.2-2.1-1.1 0.2-1.9 1.1-2.1 2.2-0.1 0.2-0.2 0.3-0.4 0.2-0.1 0-0.2-0.2-0.2-0.3 0.2-1.4 1.2-2.4 2.6-2.7 1.8-0.4 3.5 0.8 3.9 2.6 0.4 1.8-0.8 3.5-2.6 3.9z"/><path class="L" d="m501.3 72.6q-0.1 0-0.2 0c-0.1-0.1-0.2-0.3-0.1-0.5q0.2-0.2 0.3-0.5c0-0.1 0.2-0.2 0.4-0.1 0.1 0 0.2 0.2 0.1 0.3q-0.1 0.4-0.3 0.7 0 0.1-0.2 0.1z"/><path class="M" d="m501.8 71.2q0 0-0.1 0c-0.1 0-0.3-0.1-0.3-0.3q0.1-0.4 0-0.8-0.2-0.8-0.8-1.4c-0.1-0.1-0.1-0.3 0-0.4 0.1-0.1 0.3-0.2 0.4 0 0.5 0.4 0.8 1 1 1.7q0.1 0.5 0 1c0 0.1-0.1 0.2-0.2 0.2z"/><path class="N" d="m499.4 73.9c-1.8 0.4-3.5-0.7-3.9-2.5-0.4-1.8 0.8-3.6 2.5-4 0.7-0.1 1.4 0 2.1 0.3 0.1 0 0.2 0.2 0.1 0.4 0 0.1-0.2 0.2-0.4 0.1q-0.8-0.3-1.6-0.2c-1.5 0.3-2.4 1.8-2.1 3.3 0.3 1.4 1.7 2.4 3.2 2.1q0.8-0.2 1.4-0.8c0.1-0.1 0.3-0.1 0.4 0 0.1 0.1 0.1 0.3 0 0.4-0.5 0.5-1 0.8-1.7 0.9z"/><path class="O" d="m501.6 84.3c-1.8 0.3-3.6-0.8-4-2.6-0.2-1 0.1-2.1 0.8-2.8 0.1-0.2 0.3-0.2 0.4-0.1 0.1 0.1 0.1 0.3 0 0.4-0.5 0.7-0.7 1.5-0.6 2.4 0.3 1.4 1.8 2.4 3.3 2.1 1.4-0.3 2.4-1.8 2.1-3.2-0.3-1.2-1.2-2.1-2.4-2.2-0.2 0-0.3-0.2-0.3-0.3 0.1-0.2 0.2-0.3 0.4-0.3 1.4 0.2 2.6 1.2 2.9 2.6 0.3 1.8-0.8 3.6-2.6 4z"/><path class="P" d="m496.7 61.2q-0.2 0.1-0.3 0l-1.1-0.8c-0.1 0-0.2-0.2-0.1-0.4 0.1-0.1 0.3-0.1 0.4-0.1l0.9 0.6 1.2-1.8c0.1-0.2 0.3-0.2 0.4-0.1 0.2 0.1 0.2 0.3 0.1 0.4l-1.3 2.1q-0.1 0.1-0.2 0.1z"/><path class="Q" d="m498.9 71.8q-0.1 0.1-0.2 0l-1.2-0.7c-0.1-0.1-0.1-0.3-0.1-0.5 0.1-0.1 0.3-0.1 0.5 0l0.9 0.5 1.2-1.8c0.1-0.2 0.2-0.2 0.4-0.1 0.1 0.1 0.2 0.3 0.1 0.4l-1.4 2.1q-0.1 0.1-0.2 0.1z"/><path class="R" d="m501.1 82.2q-0.1 0.1-0.2 0l-1.2-0.7c-0.1-0.1-0.2-0.3-0.1-0.5 0.1-0.1 0.3-0.1 0.5-0.1l0.8 0.6 1.3-1.8c0-0.2 0.2-0.2 0.4-0.1 0.1 0.1 0.1 0.3 0.1 0.4l-1.4 2.1q-0.1 0.1-0.2 0.1z"/><path class="S" d="m507 56.9l-5 1.1c-0.1 0-0.3-0.1-0.3-0.3 0-0.1 0.1-0.3 0.2-0.3l5-1c0.1-0.1 0.3 0 0.3 0.2 0 0.1-0.1 0.3-0.2 0.3z"/><path class="T" d="m509.5 58.7l-7 1.5c-0.2 0-0.3-0.1-0.4-0.3 0-0.1 0.1-0.3 0.3-0.3l6.9-1.5c0.2 0 0.4 0.1 0.4 0.2 0 0.2-0.1 0.4-0.2 0.4z"/><path class="U" d="m509.1 67.1l-4.9 1.1c-0.2 0-0.3-0.1-0.4-0.3 0-0.1 0.1-0.3 0.3-0.3l4.9-1.1c0.2 0 0.3 0.1 0.4 0.3 0 0.1-0.1 0.3-0.3 0.3z"/><path class="V" d="m514.2 66.1l-3.1 0.6c-0.2 0-0.3-0.1-0.4-0.2 0-0.2 0.1-0.3 0.3-0.4l3.1-0.6c0.1-0.1 0.3 0 0.3 0.2 0.1 0.2 0 0.3-0.2 0.4z"/><path class="W" d="m511.6 68.9l-7 1.4c-0.1 0.1-0.3 0-0.3-0.2 0-0.2 0.1-0.3 0.2-0.4l7-1.4c0.2-0.1 0.3 0 0.3 0.2 0.1 0.2 0 0.3-0.2 0.4z"/><path class="X" d="m513.9 79.6l-7 1.5c-0.2 0-0.3-0.1-0.3-0.2-0.1-0.2 0-0.4 0.2-0.4l7-1.5c0.1 0 0.3 0.1 0.3 0.3 0 0.1-0.1 0.3-0.2 0.3z"/><path class="Y" d="m511.7 77.8l-5.2 1.1c-0.2 0-0.4-0.1-0.4-0.2 0-0.2 0.1-0.3 0.2-0.4l5.3-1.1c0.1 0 0.3 0.1 0.3 0.3 0 0.1-0.1 0.3-0.2 0.3z"/><path class="Z" d="m515.3 77.1l-1.7 0.3c-0.2 0.1-0.4-0.1-0.4-0.2 0-0.2 0.1-0.3 0.2-0.4l1.8-0.3c0.1-0.1 0.3 0 0.3 0.2 0.1 0.2 0 0.3-0.2 0.4z"/><path class="a0" d="m511.3 56l-2.3 0.5c-0.2 0.1-0.3-0.1-0.3-0.2-0.1-0.2 0-0.3 0.2-0.4l2.3-0.5c0.2 0 0.3 0.1 0.4 0.3 0 0.1-0.1 0.3-0.3 0.3z"/></svg>