<svg version="1.2" xmlns="http://www.w3.org/2000/svg" viewBox="0 0 43 45" width="43" height="45"><defs><linearGradient id="P" gradientUnits="userSpaceOnUse"/><linearGradient id="g1" x1="2.6" y1="-25.5" x2="78.1" y2="39.6" href="#P"><stop stop-color="#eb9322"/><stop offset="1" stop-color="#eb1e27"/></linearGradient><linearGradient id="g2" x1="-9.9" y1="-17" x2="77.5" y2="58.3" href="#P"><stop stop-color="#eb9322"/><stop offset="1" stop-color="#eb1e27"/></linearGradient><linearGradient id="g3" x1="-16.6" y1="-16.9" x2="81.6" y2="67.8" href="#P"><stop stop-color="#eb9322"/><stop offset="1" stop-color="#eb1e27"/></linearGradient><linearGradient id="g4" x1="-12.5" y1="-28.4" x2="85.7" y2="56.4" href="#P"><stop stop-color="#eb9322"/><stop offset="1" stop-color="#eb1e27"/></linearGradient><linearGradient id="g5" x1="-2.3" y1="-21" x2="75.6" y2="46.3" href="#P"><stop stop-color="#eb9322"/><stop offset="1" stop-color="#eb1e27"/></linearGradient></defs><style>.a{fill:url(#g1)}.b{fill:url(#g2)}.c{fill:url(#g3)}.d{fill:url(#g4)}.e{fill:url(#g5)}</style><path fill-rule="evenodd" class="a" d="m43 44.8h-42.8l1.8-38.8h39.2zm-41-1.7h39.2l-1.6-35.4h-35.9z"/><path class="b" d="m22 26.4h-1.5c-4.7 0-8.5-3.8-8.5-8.5v-4.2h0.9v4.2c0 4.2 3.4 7.7 7.6 7.7h1.5c4.2 0 7.6-3.5 7.6-7.7v-4.2h0.9v4.2c0 4.7-3.8 8.5-8.5 8.5z"/><path class="c" d="m12.6 17.1c-1.7 0-3.1-1.4-3.1-3.1 0-1.7 1.4-3 3.1-3v0.8c-1.3 0-2.3 1-2.3 2.2 0 1.2 1 2.2 2.3 2.2 0.6 0 1.3-0.3 1.7-0.8l0.7 0.5c-0.6 0.8-1.5 1.2-2.4 1.2z"/><path class="d" d="m29.9 17.1c-1.7 0-3-1.4-3-3.1 0-1.7 1.3-3 3-3v0.8c-1.2 0-2.2 1-2.2 2.2 0 1.2 1 2.2 2.2 2.2 0.7 0 1.4-0.3 1.8-0.8l0.7 0.5c-0.6 0.8-1.5 1.2-2.5 1.2z"/><path class="e" d="m35.5 7.4h-0.8v-3.5c0-1.3-1.1-2.4-2.5-2.4h-20.7c-1.3 0-2.4 1.1-2.4 2.4v3.5h-0.9v-3.5c0-1.8 1.5-3.3 3.3-3.3h20.7c1.8 0 3.3 1.5 3.3 3.3z"/></svg>