<svg version="1.2" xmlns="http://www.w3.org/2000/svg" viewBox="0 0 512 109" width="512" height="109"><defs><linearGradient id="P" gradientUnits="userSpaceOnUse"/><linearGradient id="g1" x1="0" y1="-12.7" x2="55.3" y2="16.1" href="#P"><stop stop-color="#eb9322"/><stop offset="1" stop-color="#eb1e27"/></linearGradient><linearGradient id="g2" x1="-7.3" y1="-6.3" x2="55.8" y2="26.6" href="#P"><stop stop-color="#eb9322"/><stop offset="1" stop-color="#eb1e27"/></linearGradient><linearGradient id="g3" x1="-11.3" y1="-7.5" x2="56.3" y2="27.7" href="#P"><stop stop-color="#eb9322"/><stop offset="1" stop-color="#eb1e27"/></linearGradient><linearGradient id="g4" x1="469.3" y1="75.5" x2="532.3" y2="84.7" href="#P"><stop stop-color="#eb9322"/><stop offset="1" stop-color="#eb1e27"/></linearGradient><linearGradient id="g5" x1="468.4" y1="77.1" x2="534.9" y2="86.8" href="#P"><stop stop-color="#eb9322"/><stop offset="1" stop-color="#eb1e27"/></linearGradient><linearGradient id="g6" x1="457.9" y1="91.5" x2="548" y2="104.6" href="#P"><stop stop-color="#eb9322"/><stop offset="1" stop-color="#eb1e27"/></linearGradient><linearGradient id="g7" x1="468.5" y1="87.4" x2="529.1" y2="96.2" href="#P"><stop stop-color="#eb9322"/><stop offset="1" stop-color="#eb1e27"/></linearGradient></defs><style>.a{fill:url(#g1)}.b{fill:url(#g2)}.c{fill:url(#g3)}.d{fill:url(#g4)}.e{fill:url(#g5)}.f{fill:url(#g6)}.g{fill:url(#g7)}</style><path class="a" d="m30.4 23.2l-29.2-6.9c-0.4-0.1-0.6-0.4-0.5-0.7l0.9-3.9c0.1-0.4 0.4-0.6 0.8-0.5 0.3 0.1 0.5 0.4 0.4 0.7l-0.8 3.4 28.1 6.6 3.2-13.4-28.1-6.7-1.7 7.4c-0.1 0.4-0.4 0.5-0.8 0.5-0.3-0.1-0.5-0.4-0.4-0.7l1.9-8c0.1-0.4 0.4-0.5 0.7-0.5l29.2 7c0.3 0 0.5 0.4 0.5 0.7l-3.5 14.6c-0.1 0.3-0.4 0.5-0.7 0.4z"/><path fill-rule="evenodd" class="b" d="m14.9 8.3c0-0.2 0.2-0.3 0.4-0.3l2 0.5c0.7 0.2 1.2 0.5 1.4 0.9 0.2 0.4 0.3 0.8 0.2 1.2-0.2 0.9-0.9 1.3-1.8 1.3l0.9 2q0.1 0.2 0.1 0.3c-0.1 0.2-0.3 0.3-0.4 0.2q-0.2 0-0.3-0.2l-1-2.4-1.6-0.3-0.4 1.8c-0.1 0.2-0.3 0.3-0.4 0.2-0.2 0-0.3-0.2-0.3-0.3zm1.7 3c0.9 0.2 1.6-0.1 1.7-0.8 0.2-0.7-0.2-1.2-1.1-1.4l-1.7-0.4-0.5 2.2z"/><path fill-rule="evenodd" class="c" d="m19.3 10.8c0.1-0.2 0.2-0.3 0.4-0.2 0.2 0 0.3 0.2 0.2 0.3l-0.1 0.6c0.4-0.4 1-0.7 1.8-0.5 0.9 0.2 1.7 1.2 1.4 2.5-0.3 1.3-1.5 1.9-2.4 1.7-0.8-0.2-1.2-0.7-1.4-1.3l-0.4 1.8c0 0.2-0.2 0.3-0.4 0.2-0.1 0-0.2-0.2-0.2-0.3zm3 2.5c0.3-0.9-0.2-1.7-1-1.9-0.8-0.2-1.6 0.3-1.8 1.2-0.3 1 0.3 1.8 1.1 2 0.7 0.1 1.5-0.3 1.7-1.3z"/><path fill-rule="evenodd" class="d" d="m482 109c-0.3 0.1-0.6-0.1-0.7-0.4l-5.4-18.9c-0.1-0.3 0.1-0.6 0.4-0.7l28.8-8.3c0.4-0.1 0.7 0.1 0.8 0.5l5.4 18.8c0.1 0.4-0.1 0.7-0.4 0.8zm0.2-1.3l27.7-7.9-5-17.8-27.7 7.9z"/><path class="e" d="m493.7 95.3q-0.1 0-0.2 0l-17.2-5.4c-0.2 0-0.3-0.3-0.2-0.5 0-0.2 0.3-0.3 0.5-0.3l16.8 5.3 11.6-13.4c0.1-0.1 0.4-0.2 0.6 0 0.2 0.2 0.2 0.4 0 0.6l-11.7 13.5q-0.1 0.1-0.2 0.2z"/><path class="f" d="m486.6 102.1q-0.2 0.1-0.3 0c-0.2-0.1-0.3-0.4-0.2-0.6l2.9-4.9c0.1-0.2 0.3-0.3 0.5-0.1 0.2 0.1 0.3 0.3 0.2 0.5l-2.9 4.9q-0.1 0.2-0.2 0.2z"/><path class="g" d="m501.3 96q-0.1 0-0.3-0.1l-5.5-3.2c-0.2-0.1-0.3-0.3-0.1-0.5 0.1-0.2 0.3-0.3 0.5-0.2l5.5 3.2c0.2 0.1 0.3 0.4 0.2 0.6q-0.1 0.1-0.3 0.2z"/></svg>