<svg version="1.2" xmlns="http://www.w3.org/2000/svg" viewBox="0 0 464 392" width="464" height="392"><defs><clipPath clipPathUnits="userSpaceOnUse" id="cp1"><path d="m553.28 392h-597.28v-421.53h597.28z"/></clipPath><linearGradient id="P" gradientUnits="userSpaceOnUse"/><linearGradient id="g1" x1="279.6" y1="325.4" x2="364.4" y2="379.6" href="#P"><stop stop-color="#eb9322"/><stop offset="1" stop-color="#eb1e27"/></linearGradient><linearGradient id="g2" x1="266" y1="346" x2="351.5" y2="400.6" href="#P"><stop stop-color="#eb9322"/><stop offset="1" stop-color="#eb1e27"/></linearGradient><linearGradient id="g3" x1="267.5" y1="336.9" x2="358.6" y2="395.1" href="#P"><stop stop-color="#eb9322"/><stop offset="1" stop-color="#eb1e27"/></linearGradient><linearGradient id="g4" x1="264" y1="349.1" x2="349.5" y2="403.7" href="#P"><stop stop-color="#eb9322"/><stop offset="1" stop-color="#eb1e27"/></linearGradient><linearGradient id="g5" x1="262" y1="352.1" x2="347.5" y2="406.8" href="#P"><stop stop-color="#eb9322"/><stop offset="1" stop-color="#eb1e27"/></linearGradient><linearGradient id="g6" x1="267.5" y1="336.4" x2="363.8" y2="398" href="#P"><stop stop-color="#eb9322"/><stop offset="1" stop-color="#eb1e27"/></linearGradient><linearGradient id="g7" x1="254.5" y1="325" x2="387.3" y2="409.8" href="#P"><stop stop-color="#eb9322"/><stop offset="1" stop-color="#eb1e27"/></linearGradient><linearGradient id="g8" x1="255" y1="312.7" x2="389" y2="398.4" href="#P"><stop stop-color="#eb9322"/><stop offset="1" stop-color="#eb1e27"/></linearGradient><linearGradient id="g9" x1="267.5" y1="326.1" x2="383.9" y2="400.4" href="#P"><stop stop-color="#eb9322"/><stop offset="1" stop-color="#eb1e27"/></linearGradient><linearGradient id="g10" x1="36.8" y1="146.8" x2="753.2" y2="604.6" href="#P"><stop stop-color="#eb9322"/><stop offset="1" stop-color="#eb1e27"/></linearGradient><linearGradient id="g11" x1="448.4" y1="-13.4" x2="478.5" y2="4.1" href="#P"><stop stop-color="#eb9322"/><stop offset="1" stop-color="#eb1e27"/></linearGradient><linearGradient id="g12" x1="446.1" y1="-10.7" x2="477.3" y2="7.4" href="#P"><stop stop-color="#eb9322"/><stop offset="1" stop-color="#eb1e27"/></linearGradient><linearGradient id="g13" x1="441.2" y1="-0.9" x2="471.4" y2="16.6" href="#P"><stop stop-color="#eb9322"/><stop offset="1" stop-color="#eb1e27"/></linearGradient><linearGradient id="g14" x1="440.5" y1=".4" x2="470.6" y2="17.8" href="#P"><stop stop-color="#eb9322"/><stop offset="1" stop-color="#eb1e27"/></linearGradient><linearGradient id="g15" x1="439.7" y1="1.7" x2="469.9" y2="19.1" href="#P"><stop stop-color="#eb9322"/><stop offset="1" stop-color="#eb1e27"/></linearGradient><linearGradient id="g16" x1="439" y1="2.9" x2="469.1" y2="20.4" href="#P"><stop stop-color="#eb9322"/><stop offset="1" stop-color="#eb1e27"/></linearGradient><linearGradient id="g17" x1="438.2" y1="4.2" x2="468.3" y2="21.7" href="#P"><stop stop-color="#eb9322"/><stop offset="1" stop-color="#eb1e27"/></linearGradient><linearGradient id="g18" x1="437.4" y1="5.6" x2="467.6" y2="23" href="#P"><stop stop-color="#eb9322"/><stop offset="1" stop-color="#eb1e27"/></linearGradient><linearGradient id="g19" x1="436" y1="7.9" x2="466.3" y2="25.4" href="#P"><stop stop-color="#eb9322"/><stop offset="1" stop-color="#eb1e27"/></linearGradient><linearGradient id="g20" x1="366.8" y1="10.3" x2="446.5" y2="34.8" href="#P"><stop stop-color="#eb9322"/><stop offset="1" stop-color="#eb1e27"/></linearGradient><linearGradient id="g21" x1="364.1" y1="17.8" x2="443.5" y2="42.2" href="#P"><stop stop-color="#eb9322"/><stop offset="1" stop-color="#eb1e27"/></linearGradient><linearGradient id="g22" x1="364.6" y1="19.1" x2="441.7" y2="42.8" href="#P"><stop stop-color="#eb9322"/><stop offset="1" stop-color="#eb1e27"/></linearGradient><linearGradient id="g23" x1="361.8" y1="26.5" x2="440" y2="50.6" href="#P"><stop stop-color="#eb9322"/><stop offset="1" stop-color="#eb1e27"/></linearGradient><linearGradient id="g24" x1="361.2" y1="23.2" x2="441.6" y2="48" href="#P"><stop stop-color="#eb9322"/><stop offset="1" stop-color="#eb1e27"/></linearGradient><linearGradient id="g25" x1="366.3" y1="13.3" x2="443.5" y2="37.1" href="#P"><stop stop-color="#eb9322"/><stop offset="1" stop-color="#eb1e27"/></linearGradient><linearGradient id="g26" x1="359.6" y1="17.2" x2="455.2" y2="46.7" href="#P"><stop stop-color="#eb9322"/><stop offset="1" stop-color="#eb1e27"/></linearGradient><linearGradient id="g27" x1="348.1" y1="14" x2="486" y2="56.5" href="#P"><stop stop-color="#eb9322"/><stop offset="1" stop-color="#eb1e27"/></linearGradient><linearGradient id="g28" x1="361.6" y1="26.1" x2="441.4" y2="50.6" href="#P"><stop stop-color="#eb9322"/><stop offset="1" stop-color="#eb1e27"/></linearGradient><linearGradient id="g29" x1="333.3" y1="2.3" x2="353.2" y2="2.3" href="#P"><stop stop-color="#eb9322"/><stop offset="1" stop-color="#eb1e27"/></linearGradient><linearGradient id="g30" x1="358.3" y1="361.5" x2="365.6" y2="361.5" href="#P"><stop stop-color="#eb9322"/><stop offset="1" stop-color="#eb1e27"/></linearGradient></defs><style>.a{fill:url(#g1)}.b{fill:url(#g2)}.c{fill:url(#g3)}.d{fill:url(#g4)}.e{fill:url(#g5)}.f{fill:url(#g6)}.g{fill:url(#g7)}.h{fill:url(#g8)}.i{fill:url(#g9)}.j{fill:url(#g10)}.k{fill:#98a0a8}.l{fill:url(#g11)}.m{fill:url(#g12)}.n{fill:url(#g13)}.o{fill:url(#g14)}.p{fill:url(#g15)}.q{fill:url(#g16)}.r{fill:url(#g17)}.s{fill:url(#g18)}.t{fill:url(#g19)}.u{fill:url(#g20)}.v{fill:url(#g21)}.w{fill:url(#g22)}.x{fill:url(#g23)}.y{fill:url(#g24)}.z{fill:url(#g25)}.A{fill:url(#g26)}.B{fill:url(#g27)}.C{fill:url(#g28)}.D{fill:url(#g29)}.E{fill:url(#g30)}.F{fill:#ed1c24}</style><g clip-path="url(#cp1)"><path fill-rule="evenodd" class="a" d="m319.9 362.9h-33.4c-0.2 0-0.4-0.1-0.4-0.3v-18.4c0-0.2 0.2-0.3 0.4-0.3h33.4c0.2 0 0.3 0.1 0.3 0.3v18.4c0 0.2-0.1 0.3-0.3 0.3zm-33.1-0.6h32.7v-17.7h-32.7z"/><path class="b" d="m309.4 368.1h-19.8c-0.1 0-0.3-0.2-0.3-0.4 0-0.1 0.2-0.3 0.3-0.3h19.8c0.2 0 0.3 0.2 0.3 0.3 0 0.2-0.1 0.4-0.3 0.4z"/><path class="c" d="m316.7 368.1h-3c-0.1 0-0.3-0.2-0.3-0.4 0-0.1 0.2-0.3 0.3-0.3h3c0.2 0 0.3 0.2 0.3 0.3 0 0.2-0.1 0.4-0.3 0.4z"/><path class="d" d="m309.4 372.4h-19.8c-0.1 0-0.3-0.1-0.3-0.3 0-0.2 0.2-0.4 0.3-0.4h19.8c0.2 0 0.3 0.2 0.3 0.4 0 0.2-0.1 0.3-0.3 0.3z"/><path class="e" d="m309.4 376.8h-19.8c-0.1 0-0.3-0.2-0.3-0.4 0-0.2 0.2-0.3 0.3-0.3h19.8c0.2 0 0.3 0.1 0.3 0.3 0 0.2-0.1 0.4-0.3 0.4z"/><path class="f" d="m296 360.2q-0.2 0-0.3-0.1l-6.3-6.1-2.5 2.1c-0.1 0.2-0.4 0.1-0.5 0-0.1-0.1-0.1-0.3 0.1-0.5l2.7-2.3c0.2-0.2 0.4-0.1 0.5 0l6.5 6.3c0.1 0.1 0.1 0.3 0 0.5q-0.1 0.1-0.2 0.1z"/><path class="g" d="m294.4 361.8q-0.2 0-0.3-0.1c-0.1-0.2-0.1-0.4 0.1-0.5l6.5-6.2q0.1-0.1 0.2 0 0.2 0 0.3 0.1l3.5 4.1c0.1 0.2 0.1 0.4 0 0.5-0.2 0.1-0.4 0.1-0.5 0l-3.3-3.9-6.3 5.9q-0.1 0.1-0.2 0.1z"/><path class="h" d="m303.2 360.8q-0.2 0-0.3-0.1c-0.1-0.2-0.1-0.4 0-0.5l9.8-9.5c0.1-0.1 0.4-0.1 0.5 0l6.3 5.9c0.1 0.2 0.2 0.4 0 0.5-0.1 0.1-0.3 0.1-0.5 0l-6-5.7-9.6 9.3q-0.1 0.1-0.2 0.1z"/><path fill-rule="evenodd" class="i" d="m295.7 353.1c-1.9 0-3.4-1.6-3.4-3.4 0-1.9 1.5-3.4 3.4-3.4 1.8 0 3.4 1.5 3.4 3.4 0 1.8-1.6 3.4-3.4 3.4zm0-6.2c-1.5 0-2.8 1.3-2.8 2.8 0 1.5 1.3 2.7 2.8 2.7 1.5 0 2.7-1.2 2.7-2.7 0-1.5-1.2-2.8-2.7-2.8z"/><path fill-rule="evenodd" class="j" d="m273.6 402.9q0 0-0.1-0.1-0.1 0-0.2-0.1c0 0 0-0.1 0-0.1v-0.1-35.2q0 0 0 0 0-0.1 0-0.2h0.1q0-0.1 0-0.1h0.1l9.2-5.3v-22.4c0-0.2 0.2-0.4 0.4-0.4h40.1c0.2 0 0.4 0.2 0.4 0.4v21.8l8.3 5.9 0.1 0.1q0 0 0 0 0 0 0 0c0.1 0.1 0.1 0.2 0.1 0.2v0.1 35.1q0 0.1 0 0.1 0 0 0 0.1h-0.1q0 0.1-0.1 0.1-0.1 0.1-0.2 0.1zm58.4-35.8q0 0 0 0zm-41.2 24q0.2 0 0.3 0.1c0.1 0.2 0.1 0.5-0.1 0.6l-16.1 10.3h55.5l-28.5-17.9-6.1 4.2q-0.1 0.1-0.2 0.1-0.2 0-0.4-0.2c-0.1-0.2 0-0.4 0.1-0.5l2.6-1.8-23.9-17.9v33.7l16.6-10.7q0.1 0 0.2 0zm16.8-4.2l23.7 14.9v-33.7zm-5.7-3.5q0.1 0 0.2 0.1l4.9 3 24.1-19.1-7.5-5.4v5.2c0 0.2-0.1 0.4-0.4 0.4-0.2 0-0.3-0.2-0.3-0.4v-27.5h-39.4v34.6l14.7 11q0 0 0.1 0.1l0.1 0.3 3.3-2.2q0.1-0.1 0.2-0.1zm-27.6-16l8.5 6.3v-11.1z"/><path class="k" d="m17.2 366c-4.2 0-7.7-3.5-7.7-7.7 0-4.3 3.5-7.8 7.7-7.8 2.1 0 4 0.8 5.5 2.3 0.2 0.2 0.2 0.5 0 0.7-0.2 0.2-0.5 0.2-0.7 0-1.3-1.3-3-2-4.8-2-3.7 0-6.7 3-6.7 6.8 0 3.7 3 6.7 6.7 6.7 2.3 0 4.4-1.1 5.6-3 0.2-0.2 0.5-0.3 0.7-0.1 0.2 0.1 0.3 0.4 0.1 0.6-1.4 2.2-3.8 3.5-6.4 3.5z"/><path class="k" d="m55.7 355.7h-23.7c-0.3 0-0.5-0.2-0.5-0.5 0-0.3 0.2-0.5 0.5-0.5h23.7c0.2 0 0.4 0.2 0.4 0.5 0 0.3-0.2 0.5-0.4 0.5z"/><path class="k" d="m50.1 359.6h-18.1c-0.3 0-0.5-0.2-0.5-0.5 0-0.3 0.2-0.5 0.5-0.5h18.1c0.2 0 0.5 0.2 0.5 0.5 0 0.3-0.3 0.5-0.5 0.5z"/><path class="k" d="m17.2 388c-4.2 0-7.7-3.5-7.7-7.7 0-4.3 3.5-7.8 7.7-7.8 2.1 0 4 0.8 5.5 2.3 0.2 0.2 0.2 0.5 0 0.7-0.2 0.2-0.5 0.2-0.7 0-1.3-1.3-3-2-4.8-2-3.7 0-6.7 3-6.7 6.8 0 3.7 3 6.7 6.7 6.7q1.3 0 2.5-0.4c0.2-0.1 0.5 0 0.6 0.2 0.1 0.3 0 0.6-0.2 0.6q-1.4 0.6-2.9 0.6z"/><path class="k" d="m55.7 377.7h-23.7c-0.3 0-0.5-0.2-0.5-0.5 0-0.3 0.2-0.5 0.5-0.5h23.7c0.2 0 0.4 0.2 0.4 0.5 0 0.3-0.2 0.5-0.4 0.5z"/><path class="k" d="m50.1 381.6h-18.1c-0.3 0-0.5-0.2-0.5-0.5 0-0.3 0.2-0.5 0.5-0.5h18.1c0.2 0 0.5 0.2 0.5 0.5 0 0.3-0.3 0.5-0.5 0.5z"/><path class="k" d="m17 409.5c-1.8 0-3.5-0.6-5-1.8-3.2-2.8-3.6-7.7-0.9-10.9 1.4-1.6 3.2-2.5 5.3-2.7 0.3 0 0.5 0.2 0.5 0.4 0 0.3-0.2 0.5-0.4 0.6-1.8 0.1-3.5 0.9-4.6 2.3-1.2 1.4-1.8 3.2-1.6 5 0.1 1.8 0.9 3.4 2.3 4.6 1.4 1.1 3.1 1.7 5 1.5 1.8-0.1 3.4-0.9 4.6-2.3 1.4-1.7 1.9-4.1 1.3-6.3-0.1-0.2 0.1-0.5 0.3-0.5 0.3-0.1 0.6 0 0.6 0.3 0.7 2.5 0.2 5.1-1.5 7.1-1.5 1.8-3.7 2.7-5.9 2.7z"/><path class="k" d="m55.7 399.7h-23.7c-0.3 0-0.5-0.2-0.5-0.5 0-0.3 0.2-0.5 0.5-0.5h23.7c0.2 0 0.4 0.2 0.4 0.5 0 0.3-0.2 0.5-0.4 0.5z"/><path class="k" d="m50.1 403.6h-18.1c-0.3 0-0.5-0.2-0.5-0.5 0-0.3 0.2-0.5 0.5-0.5h18.1c0.2 0 0.5 0.2 0.5 0.5 0 0.3-0.3 0.5-0.5 0.5z"/><path fill-rule="evenodd" class="k" d="m0.7 420.7c-0.3 0-0.5-0.3-0.5-0.6v-79.4c0-0.3 0.2-0.5 0.5-0.5h55.8q0.1 0 0.2 0l0.1 0.1 7.8 6.9v0.1q0.1 0 0.1 0.1l0.1 0.1q0 0.1 0 0.2v72.4c0 0.3-0.2 0.6-0.5 0.6zm0.5-1.2h62.4v-71.3h-7.2c-0.4 0-0.6-0.2-0.6-0.5v-6.4h-54.6zm55.7-72.4h5.8l-5.8-5.2z"/><path fill-rule="evenodd" class="l" d="m463.5 25.4h-18c-0.1 0-0.3-0.2-0.3-0.3v-24.7c0-0.2 0.2-0.3 0.3-0.3h14q0.2 0 0.2 0.1l4.1 4.5q0 0.1 0 0.2v20.2c0 0.1-0.1 0.3-0.3 0.3zm-17.6-0.6h17.3v-19.7l-3.8-4.4h-13.5z"/><path class="m" d="m461.8 5.1h-2.4c-0.1 0-0.3-0.2-0.3-0.3v-4.4c0-0.2 0.2-0.3 0.3-0.3 0.2 0 0.3 0.1 0.3 0.3v4.1h2.1c0.2 0 0.3 0.1 0.3 0.3 0 0.1-0.1 0.3-0.3 0.3z"/><path class="n" d="m461 7.2h-12.7c-0.1 0-0.1 0-0.1-0.1 0-0.1 0-0.2 0.1-0.2h12.7c0.1 0 0.2 0.1 0.2 0.2 0 0.1-0.1 0.1-0.2 0.1z"/><path class="o" d="m461 8.9h-12.7c-0.1 0-0.1 0-0.1-0.1 0-0.1 0-0.2 0.1-0.2h12.7c0.1 0 0.2 0.1 0.2 0.2 0 0.1-0.1 0.1-0.2 0.1z"/><path class="p" d="m461 10.6h-12.7c-0.1 0-0.1-0.1-0.1-0.1 0-0.1 0-0.2 0.1-0.2h12.7c0.1 0 0.2 0.1 0.2 0.2 0 0-0.1 0.1-0.2 0.1z"/><path class="q" d="m461 12.3h-12.7c-0.1 0-0.1-0.1-0.1-0.1 0-0.1 0-0.2 0.1-0.2h12.7c0.1 0 0.2 0.1 0.2 0.2 0 0-0.1 0.1-0.2 0.1z"/><path class="r" d="m461 14.1h-12.7c-0.1 0-0.1-0.1-0.1-0.2 0 0 0-0.1 0.1-0.1h12.7c0.1 0 0.2 0.1 0.2 0.1 0 0.1-0.1 0.2-0.2 0.2z"/><path class="s" d="m461 15.9h-12.7c-0.1 0-0.1-0.1-0.1-0.2 0-0.1 0-0.1 0.1-0.1h12.7c0.1 0 0.2 0 0.2 0.1 0 0.1-0.1 0.2-0.2 0.2z"/><path class="t" d="m456.3 17.6h-8c-0.1 0-0.1 0-0.1-0.1 0-0.1 0-0.2 0.1-0.2h8c0.1 0 0.2 0.1 0.2 0.2 0 0.1-0.1 0.1-0.2 0.1z"/><path class="u" d="m421.5 49q-0.1 0-0.2-0.1l-5.1-5-40.2-0.1c-1.8 0-3.3-1.4-3.3-3.2v-4.4c0-0.2 0.2-0.4 0.4-0.4 0.2 0 0.4 0.2 0.4 0.4v4.4c0 1.4 1.1 2.5 2.5 2.5h40.3q0.2 0 0.3 0.1l4.5 4.6v-4.3c0-0.2 0.2-0.4 0.4-0.4h4.8c1.4 0 2.5-1.1 2.5-2.5v-14.6c0-1.4-1.1-2.5-2.5-2.5h-50.3c-1.4 0-2.5 1.1-2.5 2.5v5.6c0 0.2-0.2 0.4-0.4 0.4-0.2 0-0.4-0.2-0.4-0.4v-5.6c0-1.8 1.5-3.3 3.3-3.3h50.3c1.8 0 3.3 1.5 3.3 3.3v14.6c0 1.8-1.5 3.2-3.3 3.2h-4.4v4.9c0 0.1-0.1 0.2-0.2 0.3q-0.1 0-0.2 0z"/><path class="v" d="m398.5 28.4h-4.2c-0.2 0-0.4-0.1-0.4-0.3 0-0.2 0.2-0.4 0.4-0.4h4.2c0.2 0 0.3 0.2 0.3 0.4 0 0.2-0.1 0.3-0.3 0.3z"/><path class="w" d="m423.4 33.4h-29.1c-0.2 0-0.4-0.1-0.4-0.3 0-0.2 0.2-0.4 0.4-0.4h29.1c0.2 0 0.3 0.2 0.3 0.4 0 0.2-0.1 0.3-0.3 0.3z"/><path class="x" d="m402.2 38.4h-7.9c-0.2 0-0.4-0.1-0.4-0.3 0-0.2 0.2-0.4 0.4-0.4h7.9c0.2 0 0.4 0.2 0.4 0.4 0 0.2-0.2 0.3-0.4 0.3z"/><path class="y" d="m409.7 38.4h-2.9c-0.2 0-0.4-0.1-0.4-0.3 0-0.2 0.2-0.4 0.4-0.4h2.9c0.2 0 0.3 0.2 0.3 0.4 0 0.2-0.1 0.3-0.3 0.3z"/><path class="z" d="m423.4 28.4h-20.4c-0.2 0-0.3-0.1-0.3-0.3 0-0.2 0.1-0.4 0.3-0.4h20.4c0.2 0 0.3 0.2 0.3 0.4 0 0.2-0.1 0.3-0.3 0.3z"/><path fill-rule="evenodd" class="A" d="m384.3 40.1c-3.6 0-6.6-3-6.6-6.6 0-3.6 3-6.6 6.6-6.6 3.7 0 6.6 3 6.6 6.6 0 3.6-2.9 6.6-6.6 6.6zm0-12.5c-3.2 0-5.9 2.6-5.9 5.9 0 3.2 2.7 5.9 5.9 5.9 3.3 0 5.9-2.7 5.9-5.9 0-3.3-2.6-5.9-5.9-5.9z"/><path class="B" d="m379.3 36.8q-0.2 0-0.3-0.2c-0.1-0.2 0-0.4 0.2-0.5l4.8-2.8v-6c0-0.2 0.1-0.4 0.3-0.4 0.2 0 0.4 0.2 0.4 0.4v6.2q0 0.2-0.2 0.3l-5 2.9q-0.1 0.1-0.2 0.1z"/><path class="C" d="m389.1 37.2q-0.1 0-0.2-0.1l-2.9-2.1c-0.2-0.1-0.2-0.3-0.1-0.5 0.1-0.1 0.3-0.2 0.5-0.1l2.9 2.1c0.2 0.1 0.2 0.4 0.1 0.5q-0.1 0.2-0.3 0.2z"/><path class="D" d="m353.2 2.8v6.2c0 0.3-0.2 0.5-0.5 0.5-0.3 0-0.5-0.2-0.5-0.5v-5l-18 18.1q-0.2 0.1-0.4 0.1-0.2 0-0.3-0.1c-0.2-0.2-0.2-0.6 0-0.7l18-18.1h-5c-0.2 0-0.5-0.2-0.5-0.5 0-0.2 0.3-0.5 0.5-0.5h6.2q0.1 0 0.2 0.1 0.2 0.1 0.2 0.2 0.1 0.1 0.1 0.2z"/><path class="k" d="m14.2 134.3q-0.4 0-0.6-0.2-0.2-0.3-0.2-0.6 0-0.3 0.2-0.6l12.6-12.6q0.3-0.2 0.6-0.2 0.3 0 0.6 0.2c0.3 0.3 0.3 0.8 0 1.1l-12.7 12.7q-0.2 0.2-0.5 0.2z"/><path class="k" d="m123.7 29.6q-0.1 0-0.1 0-0.1-0.1-0.2-0.1l-16.9-13.6c-0.2-0.1-0.2-0.3-0.2-0.5 0.1-0.2 0.3-0.3 0.5-0.3l28.3 1.4c0.3 0 0.5 0.2 0.5 0.5 0 0.2-0.2 0.4-0.5 0.4l-27-1.3 15.6 12.4 5.6-6-10.5-3.2q-0.2 0-0.3-0.2-0.1-0.2 0-0.4c0-0.1 0.2-0.3 0.4-0.3q0.1 0 0.1 0l11.3 3.4q0 0.1 0.1 0.1c0.1 0.1 0.1 0.2 0.1 0.2 0 0.1 0.1 0.2 0.1 0.2l0.2 5c0.1 0.3-0.1 0.5-0.4 0.5q0 0 0 0-0.1 0-0.2 0c-0.1-0.1-0.3-0.2-0.3-0.4l-0.2-4-5.6 6.1q-0.2 0.1-0.4 0.1z"/><path class="k" d="m117.4 323.9q-0.3 0-0.6-0.2-0.2-0.3-0.2-0.6 0-0.3 0.2-0.6l5.8-5.7q0.2-0.3 0.5-0.3 0.4 0 0.6 0.3 0.2 0.2 0.2 0.5 0 0.4-0.2 0.6l-5.7 5.8q-0.3 0.2-0.6 0.2z"/><path class="E" d="m358.8 368.8q-0.2 0-0.4-0.2c-0.2-0.2-0.2-0.5 0-0.7l6.3-6.3c0.2-0.2 0.5-0.2 0.7 0 0.2 0.2 0.2 0.5 0 0.7l-6.3 6.3q-0.1 0.2-0.3 0.2z"/><path class="F" d="m368.7 358.7q-0.2 0-0.3-0.1c-0.2-0.2-0.2-0.5 0-0.7l1.6-1.7c0.2-0.2 0.5-0.2 0.7 0 0.2 0.2 0.2 0.5 0 0.7l-1.6 1.7q-0.2 0.1-0.4 0.1z"/></g></svg>