<svg version="1.2" xmlns="http://www.w3.org/2000/svg" viewBox="0 0 19 28" width="19" height="28"><style>.a{fill:#ea9315}</style><path class="a" d="m8.3 0c0 0 1.6 1.1 1.6 2.7 0 1.4-1.9 2.1-1.9 2.1 0 0-1.5-1-1.6-2.3 0-1.2 1.9-2.5 1.9-2.5z"/><path class="a" d="m9 8.3c0 0 0.2-1.8 1.6-3.1 1.1-1.1 2.9-1 2.9-1 0 0-0.1 1.7-1.5 2.9-1.3 1.2-3 1.2-3 1.2z"/><path class="a" d="m9.2 12.9c0 0 0.2-2 1.5-3.2 1.3-1.3 3.4-1.4 3.4-1.4 0 0-0.2 1.7-1.7 3.1-1.2 1.2-3.2 1.5-3.2 1.5z"/><path class="a" d="m9 18.1c0 0 0.3-2.2 2.1-3.8 1.6-1.4 3.9-1.5 3.9-1.5 0 0-0.1 2.6-1.8 3.9-1.7 1.4-4.2 1.4-4.2 1.4z"/><path class="a" d="m4.4 7.1c-1.4-1.2-1.5-2.9-1.5-2.9 0 0 1.8-0.1 2.9 1 1.4 1.3 1.6 3.1 1.6 3.1 0 0-1.7 0-3-1.2z"/><path class="a" d="m4 11.4c-1.5-1.4-1.7-3.1-1.7-3.1 0 0 2.1 0.1 3.4 1.4 1.3 1.2 1.5 3.2 1.5 3.2 0 0-2-0.3-3.2-1.5z"/><path class="a" d="m3.2 16.7c-1.7-1.3-1.8-3.9-1.8-3.9 0 0 2.3 0.1 4 1.5 1.7 1.6 2 3.8 2 3.8 0 0-2.5 0-4.2-1.4z"/><path class="a" d="m7.6 28c0 0 0-1.2 0-2.5-0.5-0.9-1.4-2.1-3-3.2-2-1.4-4.9-1.5-4.9-1.5 0 0 2.3-0.4 4.6 0.4 2.1 0.8 2.7 2.1 3.3 2.7 0-1.2 0-3.2 0-3.4 0-0.6 0.1-1.3 0.6-1.3 0.3 0 0.6 0.4 0.6 1.2 0 0.3 0 2.5 0 3.8 0.5-0.9 2.1-3.1 4-4.2 2.9-1.7 6.9-1 6.9-1 0 0-3.8-0.5-7.2 2.5-2.2 1.8-3.2 3.6-3.7 4.7 0 1 0 1.8 0 1.8"/></svg>