<svg version="1.2" xmlns="http://www.w3.org/2000/svg" viewBox="0 0 32 31" width="32" height="31"><style>.a{fill:none;stroke:#ea9315;stroke-linecap:round;stroke-linejoin:round;stroke-width:.8}</style><path class="a" d="m1.3 7.1l14.8-6 15 6v3h-29.8z"/><path class="a" d="m1.3 29.7v-3h29.8v3z"/><path class="a" d="m10.1 10.2v2l-1.2 1.2h-3.6l-1.3-1.2v-2"/><path class="a" d="m4 26.6v-1.7l1.3-1.2h3.6l1.2 1.2v1.7"/><path class="a" d="m5.3 13.4v10.3"/><path class="a" d="m8.9 13.4v10.3"/><path class="a" d="m19.2 10.3v1.9l-1.1 1.2h-3.6l-1.3-1.2v-1.9"/><path class="a" d="m13.2 26.6v-1.7l1.3-1.2h3.6l1.1 1.2v1.7"/><path class="a" d="m14.5 13.4v10.3"/><path class="a" d="m18.1 13.4v10.3"/><path class="a" d="m28.2 10.2v2l-1.2 1.2h-3.6l-1.2-1.2v-2"/><path class="a" d="m22.2 26.6v-1.7l1.2-1.2h3.6l1.2 1.2v1.7"/><path class="a" d="m23.4 13.4v10.3"/><path class="a" d="m27 13.4v10.3"/></svg>