<svg version="1.2" xmlns="http://www.w3.org/2000/svg" viewBox="0 0 29 16" width="29" height="16"><style>.a{fill:none;stroke:#ea9315;stroke-linecap:round;stroke-linejoin:round;stroke-width:.8}.b{fill:none;stroke:#ea9315;stroke-linecap:round;stroke-linejoin:round;stroke-width:.4}.c{fill:#ea9315}</style><path class="a" d="m0.9 8.1c0-1.4 2.2-6.8 9.2-6.8 7 0 12.4 4.7 14.4 6.5 1.9 1.9 4 4.2 4 4.2v-7.7c0 0-4.8 5.3-8.6 7.8-3.8 2.5-7.6 3.2-10.5 3.2-2.9 0-8.5-2.2-8.5-7.2z"/><path class="b" d="m9.8 2.9v10.5"/><path class="b" d="m11.4 8.3h11.3"/><path class="c" d="m5.9 6.4c0 0.2-0.2 0.4-0.4 0.4-0.3 0-0.4-0.2-0.4-0.4 0-0.2 0.1-0.4 0.4-0.4 0.2 0 0.4 0.2 0.4 0.4z"/><path class="a" d="m7.5 10.7c0 0-0.3 0.5-1.2 1.4-1 0.9-2.1 1.4-2.1 1.4"/></svg>