<svg version="1.2" xmlns="http://www.w3.org/2000/svg" viewBox="0 0 28 25" width="28" height="25"><style>.a{fill:none;stroke:#ea9315;stroke-linecap:round;stroke-linejoin:round;stroke-width:.8}.b{fill:none;stroke:#ea9315;stroke-linecap:round;stroke-linejoin:round;stroke-width:.5}</style><path class="a" d="m2.8 23.8h24.2"/><path class="a" d="m0.6 23.8h0.9"/><path class="a" d="m4.4 23.7v-5.5c0 0 0.7-0.7 1.5-0.9 0.9-0.2 1.7-0.2 1.7-0.2"/><path class="a" d="m7.8 23.7c0 0 0-8.6 0-8.9 0-0.4 1.2-1 4.7-1 3.5 0 4.5 0.7 4.5 0.9 0 0.2 0 3.2 0 3.2"/><path class="b" d="m9.7 15.3v5.6"/><path class="b" d="m9.7 22.2v0.6"/><path class="a" d="m17.7 23.7l2-10.5"/><path class="a" d="m24.7 23.7l-2-10.5"/><path class="a" d="m16.4 2.4c0 0 2.5-0.8 4.1 0.2 1.6 1 1.7 2.8 1.7 2.8 0 0 0.6 0.3 1.2 0.6 0.6 0.3 2.1 1.6 1.6 4.1-0.5 2.4-2.3 3.5-4.8 3.1-2.6-0.3-3.1-3-3.1-3"/><path class="a" d="m18.3 9.1c0 0-1.5 1.5-3.7 1.2-2.2-0.3-2.6-1.7-2.6-1.7 0 0-0.9 2.5-3.7 2.7-2.8 0.2-4.3-1.7-4.8-2.9-0.7-1.6-0.4-4.6 2.1-5.8 3.3-1.6 5.6 0.9 5.6 0.9"/><path class="a" d="m9.5 2.3c0 0 1.4-1.8 3.5-1.7 2.1 0.1 2.7 1.1 3.2 1.7 0.4 0.6 0.6 1.6 0.6 1.6"/><path class="b" d="m15.2 8.3c0 0-0.8 0-1.6-0.7-0.9-0.8-0.7-1.7-0.7-1.7"/><path class="b" d="m20.6 11.7c0 0-0.6-0.2-1.1-0.6-0.5-0.4-0.6-0.9-0.6-0.9"/><path class="b" d="m7.8 9.5c0 0-1.3 0-2.1-0.9-0.9-0.8-0.8-1.9-0.8-1.9"/></svg>