<svg version="1.2" xmlns="http://www.w3.org/2000/svg" viewBox="0 0 26 24" width="26" height="24"><style>.a{fill:#ea9315}.b{fill:none;stroke:#ea9315;stroke-linecap:round;stroke-linejoin:round;stroke-width:.8}.c{fill:none;stroke:#ea9315;stroke-linecap:round;stroke-linejoin:round;stroke-width:.4}</style><path class="a" d="m9 4.5v-2.6c0-0.6 0.5-1.1 1.1-1.1h5.7c0.6 0 1.2 0.5 1.2 1.1v2.6h-0.9v-2.6c0-0.2-0.1-0.3-0.3-0.3h-5.7c-0.2 0-0.3 0.1-0.3 0.3v2.6z"/><path class="b" d="m1.4 6.2v-0.8c0-0.5 0.5-0.9 1-0.9h21.2c0.5 0 0.9 0.4 0.9 0.9v0.8 14.9 1.1c0 0.5-0.4 1-0.9 1h-21.2c-0.5 0-1-0.5-1-1v-1.1z"/><path class="c" d="m22.6 7.9h-19.2"/><path class="c" d="m3.4 19.4h19.2"/></svg>