<svg version="1.2" xmlns="http://www.w3.org/2000/svg" viewBox="0 0 22 27" width="22" height="27"><style>.a{fill:none;stroke:#ea9315;stroke-linecap:round;stroke-linejoin:round;stroke-width:.8}.b{fill:none;stroke:#ea9315;stroke-linecap:round;stroke-linejoin:round;stroke-width:.5}.c{fill:none;stroke:#ea9315;stroke-linecap:round;stroke-linejoin:round;stroke-width:.5;stroke-dasharray:1,2}</style><path class="a" d="m2.2 1.3l19 0.1-10.3 16.1-1.3-6.4-4.3-1.2 1.5-4z"/><path class="b" d="m7.3 5.7l13.6-4.2"/><path class="b" d="m10.1 10.8l10.9-9.2"/><path class="b" d="m6 9.6l2.1-1.2"/><path class="b" d="m9.5 7.7l8.8-4.8"/><path class="b" d="m16.5 17.7c0 0 0.1 0.1 0.1 0.5"/><path class="c" d="m16.4 20.1c-0.3 1.5-1.2 3.3-3.4 4.7-4 2.5-8.8 1.3-11-3.5-1.9-4.2 0-7.7 1.3-9.4"/><path class="b" d="m4 11.1q0.3-0.3 0.3-0.3"/></svg>