<svg version="1.2" xmlns="http://www.w3.org/2000/svg" viewBox="0 0 598 422" width="598" height="422"><defs><clipPath clipPathUnits="userSpaceOnUse" id="cp1"><path d="m597.28 422h-597.28v-421.53h597.28z"/></clipPath><linearGradient id="P" gradientUnits="userSpaceOnUse"/><linearGradient id="g1" x1="215.3" y1="430.4" x2="191.3" y2="435.8" href="#P"><stop stop-color="#eb9322"/><stop offset="1" stop-color="#eb1e27"/></linearGradient><linearGradient id="g2" x1="114.9" y1="263.8" x2="116.3" y2="263.8" href="#P"><stop stop-color="#eb9322"/><stop offset="1" stop-color="#eb1e27"/></linearGradient><linearGradient id="g3" x1="114.4" y1="266.3" x2="115.4" y2="266.3" href="#P"><stop stop-color="#eb9322"/><stop offset="1" stop-color="#eb1e27"/></linearGradient></defs><style>.a{fill:url(#g1)}.b{fill:#ed1c24}.c{fill:#2e519e}.d{fill:none;stroke:#000;stroke-width:.5}.e{fill:url(#g2)}.f{fill:url(#g3)}.g{fill:#142947}.h{fill:none;stroke:#2e519e;stroke-linecap:round;stroke-linejoin:round;stroke-width:.5}.i{fill:none;stroke:#2e519e;stroke-width:.5}.j{fill:none;stroke:#2e519e;stroke-linecap:round;stroke-linejoin:round;stroke-width:.4}</style><g clip-path="url(#cp1)"><path class="a" d="m207.7 400.2q0.3 0 0.6 0.1c0.3 0.2 0.4 0.7 0.2 1l-17.4 27.5c-0.2 0.3-0.6 0.4-1 0.2-0.3-0.2-0.4-0.7-0.2-1l17.4-27.4q0.1-0.3 0.4-0.4z"/><path class="b" d="m186.4 434q0.3 0 0.5 0.1c0.4 0.2 0.5 0.7 0.3 1l-1.8 2.8c-0.2 0.4-0.7 0.5-1 0.3-0.3-0.3-0.4-0.7-0.2-1l1.8-2.9q0.1-0.2 0.4-0.3z"/><path fill-rule="evenodd" class="c" d="m327.7 0.6c-0.2 0.1-0.4 0-0.5-0.2l-15.3-31.8q-0.1-0.2 0-0.4 0.1-0.1 0.2-0.2c8.5-2.6 17.5-2.5 25.9 0.2 9 3 16.6 8.6 22 16.4q0.1 0.1 0.1 0.3-0.1 0.2-0.3 0.3l-32 15.4q-0.1 0-0.1 0zm-14.9-32l15 31.1 31.3-15c-5.3-7.5-12.6-12.9-21.3-15.7-8.2-2.7-16.8-2.8-25-0.4z"/><path class="c" d="m338.5 49.7c-8.5 2.9-17.9 3.2-27.1 0.2-0.2-0.1-0.3-0.3-0.3-0.5 0.1-0.2 0.3-0.3 0.5-0.3 22.1 7.2 46-4.9 53.2-27 3-9.2 2.7-19.2-0.8-28.3l-40.4 19.7q-0.2 0.1-0.3 0-0.2-0.1-0.3-0.2l-19.7-40.5c-8.8 5.2-15.5 13.4-18.6 23.2-4.7 14.2-1.4 29.9 8.5 41.1 0.2 0.1 0.1 0.4 0 0.5-0.2 0.2-0.4 0.2-0.6 0-10.1-11.4-13.4-27.4-8.7-41.9 3.3-10.1 10.2-18.5 19.4-23.8q0.1-0.1 0.3-0.1 0.2 0.1 0.2 0.2l19.8 40.6 40.4-19.7q0.2-0.1 0.4 0 0.1 0.1 0.2 0.2c3.7 9.3 4.1 19.7 0.9 29.3-4.3 13.3-14.6 23.1-27 27.3z"/><path class="c" d="m305.3 47.2q-0.2 0.1-0.3 0c-2.8-1.4-5.4-3.2-7.8-5.2-0.2-0.1-0.2-0.4-0.1-0.5 0.2-0.2 0.4-0.2 0.6-0.1 2.3 2 4.9 3.7 7.6 5.1 0.2 0.1 0.3 0.3 0.2 0.5q-0.1 0.2-0.2 0.2z"/><path class="c" d="m311.6 49.8q-0.1 0-0.2 0c-0.1-0.1-0.2-0.2-0.1-0.4l11.8-36.4c0.1-0.1 0.2-0.2 0.4-0.1 0.1 0 0.2 0.2 0.1 0.3l-11.8 36.4q-0.1 0.1-0.2 0.2z"/><path class="c" d="m366.9 15.4c-0.1 0-0.3 0-0.3-0.2l-9.4-18.4c-0.1-0.1 0-0.3 0.1-0.3 0.2-0.1 0.3 0 0.4 0.1l9.3 18.4c0.1 0.1 0 0.3-0.1 0.4q0 0 0 0z"/><path class="c" d="m363.5 26.6c-0.2 0.1-0.3 0-0.4-0.1l-13.2-26.2c-0.1-0.1-0.1-0.3 0.1-0.3 0.1-0.1 0.3 0 0.3 0.1l13.3 26.2c0.1 0.1 0 0.2-0.1 0.3q0 0 0 0z"/><path class="c" d="m358.6 35.1c-0.1 0-0.2-0.1-0.3-0.2l-15.7-30.9c-0.1-0.2 0-0.3 0.1-0.4 0.1-0.1 0.3 0 0.3 0.1l15.8 31c0 0.1 0 0.3-0.1 0.3q-0.1 0.1-0.1 0.1z"/><path class="c" d="m352.7 41.3c-0.2 0-0.3 0-0.4-0.1l-17.1-33.8c-0.1-0.1 0-0.3 0.1-0.3 0.1-0.1 0.3-0.1 0.4 0.1l17.1 33.7c0.1 0.1 0 0.3-0.1 0.4q0 0 0 0z"/><path class="c" d="m346 46.1c-0.2 0-0.3 0-0.4-0.2l-17.6-34.7c-0.1-0.1 0-0.3 0.1-0.4 0.1 0 0.3 0 0.4 0.1l17.6 34.8c0.1 0.1 0 0.3-0.1 0.4q0 0 0 0z"/><path class="c" d="m338.6 49.5c-0.1 0.1-0.3 0-0.3-0.1l-16.4-32.2c0-0.1 0-0.3 0.1-0.3 0.2-0.1 0.3 0 0.4 0.1l16.3 32.1c0.1 0.2 0 0.3-0.1 0.4q0 0 0 0z"/><path class="c" d="m330.4 51.4c-0.1 0.1-0.2 0-0.3-0.1l-11.8-23.2c0-0.1 0-0.3 0.1-0.4 0.2 0 0.3 0 0.4 0.2l11.8 23.2c0 0.1 0 0.2-0.1 0.3q-0.1 0-0.1 0z"/><path class="c" d="m321.4 51.6c-0.2 0-0.3 0-0.4-0.2l-6.2-12.3c-0.1-0.2 0-0.3 0.1-0.4 0.1 0 0.3 0 0.3 0.1l6.3 12.4c0.1 0.1 0 0.3-0.1 0.4q0 0 0 0z"/><path class="d" d="m541.2 299.9h9.3v-0.6c0-17.4 14.2-31.6 31.6-31.6 17.3 0 31.5 14.2 31.5 31.6v0.6h0.5c11.8 0 21.5 9.7 21.5 21.6 0 11.8-9.7 21.5-21.5 21.5h-72.9c-11.8 0-21.5-9.7-21.5-21.5 0-11.9 9.7-21.6 21.5-21.6z"/><path class="e" d="m116.3 264.4c0 0.4-0.3 0.7-0.7 0.7-0.4 0-0.7-0.3-0.7-0.7 0-0.3 0.3-0.6 0.7-0.6 0.4 0 0.7 0.3 0.7 0.6z"/><path class="f" d="m115.4 266.8c0 0.3-0.2 0.5-0.5 0.5-0.2 0-0.5-0.2-0.5-0.5 0-0.2 0.3-0.5 0.5-0.5 0.3 0 0.5 0.3 0.5 0.5z"/><path class="g" d="m52.4 201.6c2.1 0.1 3.6-0.3 3.6-0.3l0.3 3.7c0 0-1.8 0-3.7-0.7-2-0.8-4.1-3-4.1-3 0 0 1.9 0.2 3.9 0.3z"/><path class="g" d="m52.8 179.7c0 0.4-0.4 0.8-0.8 0.8-0.4 0-0.8-0.4-0.8-0.8 0-0.4 0.4-0.8 0.8-0.8 0.4 0 0.8 0.4 0.8 0.8z"/><path class="g" d="m60 178.8c0 0.3-0.2 0.6-0.5 0.6-0.3 0-0.6-0.3-0.6-0.6 0-0.3 0.3-0.5 0.6-0.5 0.3 0 0.5 0.2 0.5 0.5z"/><path class="g" d="m47.2 174.1c0.3-0.7 1.5-1.6 2.4-1.6 0.9 0 1.8 0.6 1.2 0.9-0.5 0.2-3.6 0.7-3.6 0.7z"/><path class="g" d="m57.2 172.7c0.4-0.6 1.6-0.5 2.5-0.3 0.9 0.2 1.1 0.9 0.3 0.9-0.8 0-3.2-0.2-2.8-0.6z"/><path class="h" d="m57.9 170.2c0 0 3.6 7.6 4.6 14.4 0.9 6.5 0.4 11.5-2 14.3-2.5 2.9-6.4 2.6-8.1 2.7-1.7 0.1-4.6-0.5-4.6-0.5"/><path class="h" d="m60.7 302.8c0 0-0.7 1.5-3 3.3-2.3 1.7-6.4 1.7-12.1 1.1-5.6-0.7-25.8-5.3-32.8-6.5-7-1.2-13.4-1.9-18.7-2.5-5.4-0.6-9.5-3.8-12.6-7.7-3-3.9-4-9.9-2.6-16.2 1.5-6.3 6.7-14.9 12.8-25.8 6-10.8 8.6-16.4 14.5-22.3 5.8-5.9 14.6-8.1 19.3-9 4.8-1 11.3-3 11.4-4 0.1-1 0.1-25.2-0.2-25.3-0.3-0.1-4.8 0.1-6.4-2.2-1.5-2.3-0.7-5.2 1.9-6 2.6-0.8 4.3 2.3 4.3 2.3"/><path class="h" d="m59.8 284.2c0 0 1.5-0.2 4.5 0.2 3 0.4 4.6 4.7 3.9 11-0.6 6.4-3.8 10.3-4.2 10.5-0.4 0.2-3.9 0.3-3.9 0.3"/><path class="h" d="m3 273.1c0 0 6 1.8 17 3 8.7 1.1 25.4 2 32.4 4.3 6.9 2.2 8.1 5.2 8.1 5.2"/><path class="h" d="m28.7 231.7c0 0 1.4 1.9 0.9 5.8-0.5 3.9-3.7 11.3-7 17.8-3.3 6.6-10.4 19.3-10.4 19.3"/><path class="h" d="m17.5 265.5c0 0-0.1 3.2-0.3 5.7-0.2 2.5-0.4 4.3-0.4 4.3"/><path class="h" d="m56.2 201.5c0 0 0 9.7 2.1 11.2 2.1 1.5 11.3 2.7 15.5 3 4.2 0.3 9.3 2 15.8 9.2 6.6 7.2 14.8 18.3 17.9 21.7 3 3.4 6.8 8.2 6.8 8.2"/><path class="h" d="m111.8 258.6c0 0 13.3-18.7 18.2-26.2 4.9-7.5 8.1-13.4 10.8-15.2 2.6-1.9 4.9-1.7 4.9-1.7"/><path class="h" d="m144.7 215.2c0 0 4.2-5.2 4.8-5.3 0.7-0.2 4.7 1.9 8.4 4.7 3.6 2.9 6.7 6.1 7 7.3 0.3 1.3-0.8 2.4-1.4 3.4-0.5 1.1-1.3 2.3-1.3 2.3"/><path class="h" d="m160.5 223.4c0 0 2.7 4.7 1.6 8.3-1.2 3.5-7.1 12.1-11.5 17.8-4.5 5.7-14 21.4-18.5 27.9-4.5 6.6-7.7 9.9-11.9 11.7-4.2 1.9-7.1 1.1-7.1 1.1"/><path class="h" d="m68.3 289.4c0 0 6.3 1.3 9.7 0.4 3.4-0.8 7.9-4.8 9.7-7.6 1.8-2.7 4-2.7 3.6-1-0.4 1.7-5.7 9.2-5.1 9.8 0.7 0.5 16.9-0.3 17.8 0.4 0.9 0.6-0.3 1.8-1.7 2.3-1.5 0.5-11 0.7-11 0.7 0 0 11.8 0.7 12.2 1.7 0.4 1-3.7 1.5-5.9 1.8-2.2 0.2-7.2 0-7.2 0 0 0 11 1 11.5 2 0.5 1-1.4 1.5-3.3 1.7-1.8 0.2-7.7-0.1-7.7-0.1 0 0 8.1 1.1 8.5 2.1 0.3 1.1-2.7 1.2-6.4 1.5-3.8 0.3-8.5 0.8-14.2-0.1-5.8-0.9-12.6-2.1-12.6-2.1"/><path class="i" d="m73.8 289.8c0 0 6.4-29.4 7.5-32.8 1.1-3.4 5.4-2.8 6.8-2.6 2.4 0.4 26.9 4.7 29.4 5.5 2.5 0.7 3.6 2.2 2.4 6.4-1.1 4.3-11.9 41.5-12.7 44-0.8 2.4-2.6 3.6-6.6 3.7-4.1 0.1-26.7-3.1-28.5-3.6-1.9-0.5-2.2-2.6-2-4 0.2-1.4 0.6-2.8 0.6-2.8"/><path class="j" d="m72.6 290.3l-0.1 2.9"/><path class="j" d="m69 293.8c0 0 2.6-1.1 4.4 0.5 1.9 1.6 0.8 5.3-1.6 6-2.4 0.7-4-0.5-4-0.5"/><path class="j" d="m69.8 303.1l0.7-2.4"/><path class="h" d="m78.9 311.8c0 0 11.1 56.2 13.2 67 2.1 10.9 7.2 37.9 9.6 50.9 2.5 13 10.2 50 12.3 61.5 2.1 11.5 3.1 17.4 3.1 17.4l-26.3 0.9c0 0-7.5-9.4-9.4-15.3-2-5.9-1.9-15.2-1.1-20.9 0.7-5.7 0.4-17.4-1.9-27.7-2.3-10.3-7.7-28.9-9.7-37.6-2.1-8.6-8-36.7-10.2-47.7-2.2-11.1-9-41.3-9-41.3"/><path class="h" d="m56.5 318.6l-8.2 0.1c0 0-5.4 57.8-6.8 74.7-1.4 17-11.4 116.1-11.4 116.1l-28.4 0.4c0 0 0.1-4.4 0.6-8.5 0.4-4.2 1.4-8.5 1.7-16.8 0.4-8.3-3.1-17.9-1.8-30.6 1.3-12.7 5.3-26.7 7.1-34.9 1.7-8.2 1.5-12.9 2-21.2 0.4-8.2 3.8-49.5 4.8-60.8 1-11.2 2.7-35.1 2.7-35.1"/><path class="j" d="m57.1 306.7c0 0-0.2 3.8-0.5 5.1-0.3 1.3-3.1 1.3-3.5 0.3-0.4-1.1 0-4.3 0-4.3"/><path class="j" d="m24.6 303.4c0 0 0.9 23.1-0.2 28.8-1.1 5.7-1.7 22.6-2.7 28.9-1 6.4-2.1 34.1-2.8 42.1-0.6 8-1.1 17.1-3 22.3-2 5.3-8.4 22.6-9 32.7-0.7 10.1 1 17.4 2.2 22.9 1.2 5.5 1.4 11.9 1.1 18-0.4 6-2.8 10.5-2.8 10.5"/><path class="j" d="m55 320.6c0 0 12 47.5 14.8 59.6 2.7 12 9.3 31.3 11 41.5 1.8 10.2 5.8 19.4 6.3 27.8 0.7 13.9-1.8 24.4-0.7 33.2 1.1 8.9 4.1 16.1 5.7 18.9 1.6 2.7 3.3 6.3 3.3 6.3"/><path class="h" d="m111.8 509c0 0 0.9 8.9 6.2 12.3 5.2 3.4 10.6 3.3 13 4.4 2.4 1.1 3.3 3.2 3.2 4.5-0.1 1.3-0.4 3-0.4 3l-39.1-0.4 1-23.4"/><path class="j" d="m95.5 528.5l38.2 0.8"/><path class="j" d="m106.2 516.3c0 0 5.6 0 6.5 0.3 0.9 0.3 1 0.9-0.7 1.1-1.6 0.2-5.4 0.9-4.9 1.6 0.6 0.8 7.4 0.5 8.2 0.8 0.9 0.3 1.9 1.4 0.7 2-1.2 0.5-6.3-0.2-6.3-0.2"/><path class="h" d="m25.7 509.6l-2.2 23-25.5 0.3c0 0-1-2.5-0.4-5.4 0.5-2.8 4.3-5.3 8-7.9 3.6-2.5 3.7-9.7 3.7-9.7"/><path class="j" d="m-1.7 529.3l24.7-0.3"/><path class="j" d="m14.9 522.8c0 0-1.9 0-3.4-0.3-1.6-0.3-3.4-0.6-3.1-1.6 0.3-1.1 3.1-0.4 5.2-0.2 2 0.3 5.1 0.3 5.2-1.1 0.1-1.3-5.9-1.2-7.9-1.5-1.9-0.3-1.8-1.8-0.4-2.3 1.4-0.4 8.2 0 8.2 0"/><path class="j" d="m65.2 291.6l2.8 0.1"/><path class="j" d="m64.7 296.1l2.6 0.5"/><path class="j" d="m63.6 299.6l2.9 0.6"/><path class="j" d="m63.3 302.3l2.1 0.7"/><path class="j" d="m65.6 288.3l2.2 0.3"/><path class="j" d="m70 296.3l0.9 0.5-1 1.2"/><path class="j" d="m78.9 266.7c0 0 0.2-11.5 0.6-17.5 0.4-6.1 1.2-12.1 1.2-12.1"/><path class="j" d="m57.5 212c0 0 0.3 2.4 0 4.9-0.3 2.4-1.2 4.7-4.3 7-3.1 2.3-9.4 2.5-13.2-1-3.9-3.5-3.1-9.7-3.1-9.7"/><path class="j" d="m151 215.1l2.8-3"/><path class="j" d="m154.4 217.1l2.6-2.8"/><path class="j" d="m158.3 219.5l2.1-2.3"/><path class="j" d="m161.1 221.1l1.8-1.8"/><path class="h" d="m151.6 210.4c0 0 3.6-5.2 5.9-9 2.3-3.8 4.3-6.6 6.8-7.7 2.5-1.1 7.3-5.8 8.5-6.2 1.3-0.4 2.2 1.3 1.6 2.6-0.7 1.3-6.5 6.8-6.5 6.8 0 0-0.5 3.1-1.1 4.3-0.5 1.2-1.5 2.2-1.5 2.2"/><path class="h" d="m167.9 196.9c0 0 2.2-0.3 3.7-0.6 1.6-0.4 3.1-0.9 6.2-2 3-1.1 7.1-2.4 7.3-1.2 0.2 1.2-3.7 3-3.7 3 0 0 2-0.4 2.9-0.6 1-0.2 4.5 0.3 3.7 2-0.9 1.6-6.9 2.8-6.9 2.8 0 0 7.8-1 7.6 0.3-0.2 1.4-4.4 2.7-4.4 2.7 0 0 2.9-0.3 3.7 0.5 0.7 0.8 0.1 1.5-1.4 2.2-1.4 0.7-8.2 1.8-11.6 3.1-3.4 1.3-6.1 2.5-8.2 4.9-2.1 2.4-3.3 5.3-3.6 5.3"/><path class="j" d="m174.6 198.4l1.8 6.7"/><path class="j" d="m170 211.2c0 0-1.6 0.6-3.3 0.5-1.6-0.1-2.5-2.1-2.5-2.1"/><path class="j" d="m181.4 196.1l-5.5 2.3"/><path class="j" d="m181.1 200.3l-4.1 1"/><path class="j" d="m184.3 203.3l-6 0.8"/><path class="h" d="m30.6 180.4c0 0-1.5-3.4-2.4-5.7-0.8-2.3-1.3-5.9 0-8.2 1.4-2.3 5.2-2 5.2-2 0 0 0.5-5.9 6.3-7.8 5.8-1.9 14 2.7 14 2.7 0 0 4.2-3.2 6.6-2.4 2.4 0.9 3.1 5.2 2.3 8-0.7 2.9-5.5 6.4-8.9 5.8-3.4-0.5-11-2.9-11-2.9 0 0 0.1 2.8-1.8 4.5-1.8 1.6-4 1.4-4 1.4 0 0 1.7 6.1 2 6.7 0.2 0.5-2.7 1-2.7 1"/><path class="h" d="m37 193.8c0 0-0.8-0.3-1.4-1.4-0.7-1.1-2-4.6-2-4.6"/><path class="h" d="m61.1 167.9c0 0 1.2 1.7 1.2 4 0 2.3-0.2 3.2-0.5 4.1-0.4 0.9-1.2 1.1-1.2 1.1"/><path class="j" d="m32.2 182.6c0 0 1.4 0.7 2.3 1.2 0.9 0.4 1.3 0.7 1.3 0.7l-1.5 1.1"/><path class="j" d="m55.7 175.3c0 0 0.5 2.1 1 4.1 0.6 2 0.9 3.5 0.9 3.5l-1.4 0.4"/><path class="j" d="m53.3 186.4h6.6c0 0-0.1 3.8-3.2 3.8-3 0-3.4-3.8-3.4-3.8z"/><path class="j" d="m48.9 175.7c2.3-0.5 4.3 0.3 5.5 2.3 1.2 1.9 0.6 5.7-2.6 6.6-3.2 1-6.9-0.6-7-3.2-0.1-2.7 1.1-5.1 4.1-5.7z"/><path class="j" d="m60 174.6c1.4-1.2 4.5-1.2 5.9 1.4 1.4 2.6 0.7 5.7-1.2 7.1-1.8 1.4-5.1 0.2-6-2.1-0.9-2.3-0.3-5 1.3-6.4z"/><path class="j" d="m61 178.1l5.1-1"/><path class="j" d="m35.9 180.6l8.8-0.6"/><path class="j" d="m27.1 184.1c0 0 0-0.8 0.6-1.5 0.5-0.8 1.9-1 1.9-1"/><path class="j" d="m53.7 159.4l-2.6 2.1"/><path class="j" d="m25 226.5l2.5-3"/><path class="j" d="m35.8 242.5l2.3 2.2"/><path class="j" d="m63.1 232.4l2.9-3"/><path class="j" d="m62.2 248.4l2.5-1.4"/><path class="j" d="m28.4 261.3l1.3 0.9"/><path class="j" d="m58.6 268.7l1.6 1.8"/><path class="j" d="m22.9 237.1l0.9 1.5"/><path class="j" d="m6.9 239.6l-2.2 3.4"/><path class="j" d="m3.9 256.2l2.6 2"/><path class="j" d="m-10.1 267.9l-0.1 1.8"/><path class="j" d="m4.7 281.8l1.7 0.7"/><path class="j" d="m-5.1 287.6l0.1 3.3"/><path class="j" d="m25.7 285.4l1.3 0.4"/><path class="j" d="m40.8 290.8l2.4-1.4"/><path class="j" d="m48.3 286.8l1.5-2.1"/><path class="j" d="m45.8 299.4l1.8 2.7"/><path class="j" d="m90.1 240.3l1.4 2.1"/><path class="j" d="m84.5 224.9l-0.6 0.9"/><path class="j" d="m120.3 277.8l2.3 0.5"/><path class="j" d="m123.4 253.7l2.3 1.6"/><path class="j" d="m142.7 246.3l1.8 1"/><path class="j" d="m141.4 230.4l2.6-0.6"/><path class="j" d="m156.1 223.4l1.6 0.7"/></g><path class="h" d="m178 27.6l6.5 4.2 0.3 28.8-45.3 0.6-0.3-28.8 6.8-4.7"/><path class="h" d="m156.4 20.5l5.2-3.6 5.2 3.4"/><path class="i" d="m184.5 31.8l-22.5 14.7-22.8-14.1"/><path class="h" d="m146.2 35.4l-0.2-14.7 31.8-0.5 0.2 14.6"/><path class="c" d="m170.6 28.9l-17.6 0.3c-0.3 0-0.5-0.2-0.5-0.5 0-0.2 0.2-0.4 0.5-0.5l17.6-0.2c0.3 0 0.5 0.2 0.5 0.5 0 0.2-0.2 0.4-0.5 0.4z"/><path class="c" d="m170.7 32.4l-17.7 0.2c-0.2 0-0.4-0.2-0.4-0.4 0-0.3 0.2-0.5 0.4-0.5l17.7-0.2c0.2 0 0.4 0.2 0.4 0.4 0 0.3-0.2 0.5-0.4 0.5z"/><path class="c" d="m170.7 35.8l-17.6 0.3c-0.3 0-0.5-0.2-0.5-0.5 0-0.2 0.2-0.4 0.5-0.4l17.6-0.3c0.3 0 0.5 0.2 0.5 0.5 0 0.2-0.2 0.4-0.5 0.4z"/><path class="h" d="m160.5 47.6l-1.7 1.3"/></svg>