<svg version="1.2" xmlns="http://www.w3.org/2000/svg" viewBox="0 0 57 9" width="57" height="9"><defs><linearGradient id="P" gradientUnits="userSpaceOnUse"/><linearGradient id="g1" x1=".6" y1=".4" x2="40.8" y2=".4" href="#P"><stop stop-color="#eb9322"/><stop offset="1" stop-color="#eb1e27"/></linearGradient></defs><style>.a{fill:url(#g1)}.b{fill:#ed1c24}</style><path class="a" d="m37 8.2h-32.5c-2.2 0-3.9-1.8-3.9-3.9 0-2.1 1.7-3.9 3.9-3.9h32.5c2.1 0 3.8 1.8 3.8 3.9 0 2.1-1.7 3.9-3.8 3.9z"/><path class="b" d="m53.1 8.2h-4.5c-2.2 0-3.9-1.8-3.9-3.9 0-2.1 1.7-3.9 3.9-3.9h4.5c2.1 0 3.9 1.8 3.9 3.9 0 2.1-1.8 3.9-3.9 3.9z"/></svg>