<svg version="1.2" xmlns="http://www.w3.org/2000/svg" viewBox="0 0 325 350" width="325" height="350"><defs><clipPath clipPathUnits="userSpaceOnUse" id="cp1"><path d="m434.28 350h-597.28v-421.53h597.28z"/></clipPath><linearGradient id="P" gradientUnits="userSpaceOnUse"/><linearGradient id="g1" x1="291.6" y1="138.6" x2="324.5" y2="138.6" href="#P"><stop stop-color="#eb9322"/><stop offset="1" stop-color="#eb1e27"/></linearGradient><linearGradient id="g2" x1="-28.9" y1="304.5" x2="55.9" y2="304.5" href="#P"><stop stop-color="#eb9322"/><stop offset="1" stop-color="#eb1e27"/></linearGradient><linearGradient id="g3" x1="186.4" y1=".8" x2="202.2" y2=".8" href="#P"><stop stop-color="#eb9322"/><stop offset="1" stop-color="#eb1e27"/></linearGradient></defs><style>.a{fill:url(#g1)}.b{fill:url(#g2)}.c{fill:url(#g3)}</style><g clip-path="url(#cp1)"><path class="a" d="m292.3 171.5c-0.1 0-0.3 0-0.5-0.2-0.2-0.2-0.2-0.4-0.2-0.5 0-0.1 0-0.3 0.2-0.5l30.1-30.2h-18.2c-0.4 0-0.7-0.3-0.7-0.7 0-0.4 0.3-0.8 0.7-0.8h20q0.2 0 0.3 0.1 0.3 0.1 0.4 0.4 0.1 0.1 0.1 0.3v20c0 0.4-0.3 0.8-0.8 0.8-0.4 0-0.7-0.4-0.7-0.8v-18.2l-30.1 30.1c-0.2 0.2-0.5 0.2-0.6 0.2z"/><path class="b" d="m-27 389.4c-0.3 0-0.9-0.1-1.4-0.6-0.5-0.5-0.5-1.1-0.5-1.4 0-0.3 0-0.8 0.5-1.3l77.7-77.7h-47c-1 0-1.9-0.9-1.9-2 0-1 0.9-1.9 1.9-1.9h51.7q0.3 0 0.7 0.2c0.5 0.2 0.9 0.5 1 1q0.2 0.4 0.2 0.7v51.7c0 1.1-0.9 1.9-1.9 1.9-1.1 0-1.9-0.8-1.9-1.9v-47l-77.8 77.7c-0.4 0.5-1 0.6-1.3 0.6z"/><path class="c" d="m186.7 16.7c0 0-0.1 0-0.2-0.1-0.1-0.1-0.1-0.2-0.1-0.3 0 0 0-0.1 0.1-0.2l14.5-14.6h-8.8c-0.2 0-0.4-0.1-0.4-0.3 0-0.2 0.2-0.4 0.4-0.4h9.7q0 0 0.1 0 0.1 0.1 0.2 0.2 0 0.1 0 0.2v9.6c0 0.2-0.1 0.4-0.3 0.4-0.2 0-0.4-0.2-0.4-0.4v-8.8l-14.5 14.6c-0.1 0.1-0.2 0.1-0.3 0.1z"/></g></svg>