<svg version="1.2" xmlns="http://www.w3.org/2000/svg" viewBox="0 0 514 424" width="514" height="424"><defs><clipPath clipPathUnits="userSpaceOnUse" id="cp1"><path d="m526.28 424h-599.28v-423.53h599.28z"/></clipPath><linearGradient id="P" gradientUnits="userSpaceOnUse"/><linearGradient id="g1" x1="464.9" y1="152.9" x2="472.2" y2="152.9" href="#P"><stop stop-color="#eb9322"/><stop offset="1" stop-color="#eb1e27"/></linearGradient><linearGradient id="g2" x1="-7.3" y1="391.5" x2="33.5" y2="391.5" href="#P"><stop stop-color="#eb9322"/><stop offset="1" stop-color="#eb1e27"/></linearGradient></defs><style>.a{fill:none;stroke:#e55c45;stroke-linecap:round;stroke-linejoin:round}.b{fill:url(#g1)}.c{fill:#ed1c24}.d{fill:url(#g2)}</style><g clip-path="url(#cp1)"><path class="a" d="m479 27.4l-9.6-9.6 30.3-30.3 9.6 9.6z"/><path class="a" d="m465.7 31.1l3.7-13.3 9.6 9.6z"/><path class="a" d="m497.8-10.2l9.4 9.4"/><path class="a" d="m471 16.6l9.4 9.4"/><path class="a" d="m466.9 27.7l2.4 2.4"/><path class="a" d="m509.3-2.9l-9.6-9.6 4-3.9c1.6-1.6 4.2-1.6 5.9 0l3.6 3.7c1.7 1.6 1.7 4.2 0 5.9z"/><path class="a" d="m512.3-5.9l1.6 1.7c1.1 1.1 1.1 2.9 0 4.1l-15 14.9c-0.2 0.2-0.6 0.2-0.9 0-0.3-0.3-0.3-0.7 0-1l14.9-14.9c0.6-0.6 0.6-1.6 0-2.2l-1.6-1.6"/><path class="a" d="m504.3 2v5.3"/><path class="a" d="m504.3 9.5v43.7h-63.1v-83.3h63.1v13.3"/><path class="a" d="m457.9-11.5h-8.2v-8.1h8.2z"/><path class="a" d="m457.9 2.1h-8.2v-8.2h8.2z"/><path class="a" d="m457.9 15.6h-8.2v-8.1h8.2z"/><path class="a" d="m457.9 29.2h-8.2v-8.2h8.2z"/><path class="a" d="m457.9 42.7h-8.2v-8.1h8.2z"/><path class="a" d="m493.9-14h-28.9c-0.8 0-1.5-0.7-1.5-1.6 0-0.8 0.7-1.5 1.5-1.5h28.9c0.8 0 1.5 0.7 1.5 1.5 0 0.9-0.7 1.6-1.5 1.6z"/><path class="a" d="m488-0.8h-23c-0.8 0-1.5-0.7-1.5-1.6 0-0.8 0.7-1.5 1.5-1.5h26"/><path class="a" d="m473.8 13.3h-8.8c-0.8 0-1.5-0.7-1.5-1.5 0-0.9 0.7-1.6 1.5-1.6h12"/><path class="a" d="m495.3 11.1q0.1 0.3 0.1 0.7c0 0.8-0.7 1.5-1.5 1.5h-0.5"/><path class="a" d="m467 26.6h-2c-0.8 0-1.5-0.7-1.5-1.5 0-0.9 0.7-1.6 1.5-1.6h2.8"/><path class="a" d="m483 23.5h10.9c0.8 0 1.5 0.7 1.5 1.6 0 0.8-0.7 1.5-1.5 1.5h-14"/><path class="a" d="m493.9 40.6h-28.9c-0.8 0-1.5-0.7-1.5-1.6 0-0.8 0.7-1.5 1.5-1.5h28.9c0.8 0 1.5 0.7 1.5 1.5 0 0.9-0.7 1.6-1.5 1.6z"/><path class="a" d="m436.8-24.3v29.7"/><path class="a" d="m436.8 9.7v2.6"/><path class="b" d="m465.4 160.2q-0.2 0-0.4-0.1c-0.1-0.2-0.1-0.5 0-0.7l6.4-6.3c0.1-0.2 0.5-0.2 0.7 0 0.2 0.2 0.2 0.5 0 0.7l-6.3 6.3q-0.2 0.1-0.4 0.1z"/><path class="c" d="m475.4 150.2q-0.2 0-0.4-0.1c-0.2-0.2-0.2-0.5 0-0.7l1.7-1.7c0.2-0.2 0.5-0.2 0.7 0 0.2 0.2 0.2 0.5 0 0.7l-1.7 1.7q-0.1 0.1-0.3 0.1z"/><path class="d" d="m33.5 392.1v7.6c0 0.4-0.3 0.7-0.6 0.7-0.4 0-0.6-0.3-0.6-0.7v-6.1l-38.5 38.4q-0.2 0.2-0.4 0.2-0.3 0-0.5-0.2c-0.2-0.2-0.2-0.6 0-0.8l38.5-38.5h-6.2c-0.3 0-0.6-0.3-0.6-0.6 0-0.4 0.3-0.6 0.6-0.6h7.7q0.1 0 0.2 0 0.3 0.1 0.4 0.3 0 0.2 0 0.3z"/></g></svg>