<svg version="1.2" xmlns="http://www.w3.org/2000/svg" viewBox="0 0 599 322" width="599" height="322"><defs><clipPath clipPathUnits="userSpaceOnUse" id="cp1"><path d="m598.02 422h-597.28v-421.53h597.28z"/></clipPath><linearGradient id="P" gradientUnits="userSpaceOnUse"/><linearGradient id="g1" x1="543.7" y1="-21.6" x2="652.9" y2="-21.6" href="#P"><stop stop-color="#eb1e27"/><stop offset="1" stop-color="#eb9322"/></linearGradient><linearGradient id="g2" x1="537.6" y1="50.7" x2="658.9" y2="50.7" href="#P"><stop stop-color="#eb1e27"/><stop offset="1" stop-color="#eb9322"/></linearGradient><linearGradient id="g3" x1="567" y1="-5.4" x2="633" y2="-5.4" href="#P"><stop stop-color="#eb9322"/><stop offset="1" stop-color="#eb1e27"/></linearGradient><linearGradient id="g4" x1="83" y1="43.8" x2="69.5" y2="43.8" href="#P"><stop stop-color="#eb9322"/><stop offset="1" stop-color="#eb1e27"/></linearGradient><linearGradient id="g5" x1="13.4" y1="131.3" x2="158.6" y2="235.3" href="#P"><stop stop-color="#eb9322"/><stop offset="1" stop-color="#eb1e27"/></linearGradient><linearGradient id="g6" x1="-38" y1="201.8" x2="108.7" y2="307" href="#P"><stop stop-color="#eb9322"/><stop offset="1" stop-color="#eb1e27"/></linearGradient><linearGradient id="g7" x1="-4.5" y1="155.1" x2="141.8" y2="259.9" href="#P"><stop stop-color="#eb9322"/><stop offset="1" stop-color="#eb1e27"/></linearGradient><linearGradient id="g8" x1="35.8" y1="98.9" x2="181.7" y2="203.5" href="#P"><stop stop-color="#eb9322"/><stop offset="1" stop-color="#eb1e27"/></linearGradient><linearGradient id="g9" x1="111.2" y1="311.8" x2="120.7" y2="311.8" href="#P"><stop stop-color="#eb9322"/><stop offset="1" stop-color="#eb1e27"/></linearGradient><linearGradient id="g10" x1="497.7" y1="186.1" x2="502.1" y2="186.1" href="#P"><stop stop-color="#eb9322"/><stop offset="1" stop-color="#eb1e27"/></linearGradient></defs><style>.a{fill:url(#g1)}.b{fill:url(#g2)}.c{fill:url(#g3)}.d{fill:url(#g4)}.e{fill:#ed1c24}.f{fill:url(#g5)}.g{fill:url(#g6)}.h{fill:url(#g7)}.i{fill:url(#g8)}.j{fill:url(#g9)}.k{fill:url(#g10)}</style><g clip-path="url(#cp1)"><path fill-rule="evenodd" class="a" d="m544.5 52.3c-0.5 0-0.8-0.3-0.8-0.8v-72.3c0-0.5 0.3-0.8 0.8-0.8h107.6c0.4 0 0.8 0.3 0.8 0.8v72.3c0 0.5-0.4 0.8-0.8 0.8zm0.8-1.6h105.9v-70.7h-105.9z"/><path fill-rule="evenodd" class="b" d="m544.5 63.7c-0.3 0-0.5-0.1-0.7-0.3l-6-8.1q-0.2-0.2-0.2-0.5v-3.3c0-0.4 0.4-0.8 0.8-0.8h119.7c0.4 0 0.8 0.4 0.8 0.8v3.3q0 0.3-0.2 0.5l-6 8.1c-0.1 0.2-0.4 0.3-0.6 0.3zm-5.3-9.2l5.6 7.6h106.8l5.7-7.5v-2.3h-118.1z"/><path class="c" d="m633-5v6.8c0 0.2-0.2 0.3-0.4 0.3-0.2 0-0.4-0.1-0.4-0.3v-5.9l-34.4 34.4c-0.1 0.1-0.3 0.1-0.5 0l-10.7-10.8-19 19q-0.1 0.1-0.3 0.1-0.1 0-0.2-0.1c-0.2-0.2-0.2-0.4 0-0.5l19.2-19.2c0.1-0.2 0.4-0.2 0.5 0l10.8 10.7 34.1-34.1h-5.9c-0.2 0-0.4-0.2-0.4-0.4 0-0.2 0.2-0.4 0.4-0.4h6.8q0.1 0 0.1 0.1 0.2 0 0.2 0.2 0.1 0 0.1 0.1z"/><path class="d" d="m70 43.8q-0.2 0-0.4-0.2c-0.2-0.2-0.2-0.6 0-0.8l12.4-12.4q0.2-0.2 0.5-0.2 0.2 0 0.4 0.2c0.2 0.2 0.2 0.5 0 0.8l-12.4 12.4q-0.2 0.2-0.5 0.2z"/><path class="e" d="m59.6 54.3q-0.2 0-0.4-0.1c-0.2-0.3-0.2-0.6 0-0.9l3.2-3.2q0.2-0.2 0.5-0.2 0.2 0 0.4 0.2 0.1 0.1 0.1 0.4 0 0.2-0.1 0.4l-3.3 3.3q-0.2 0.1-0.4 0.1z"/><path class="f" d="m-23.3 289.6c-0.3 0-0.6-0.2-0.6-0.6v-106.6c0-0.3 0.3-0.6 0.6-0.6 0.3 0 0.6 0.3 0.6 0.6v106.1h106.1c0.3 0 0.5 0.2 0.5 0.5 0 0.4-0.2 0.6-0.5 0.6z"/><path fill-rule="evenodd" class="g" d="m-6.5 280.5c-0.3 0-0.6-0.3-0.6-0.6v-30.2c0-0.3 0.3-0.6 0.6-0.6h18.3c0.3 0 0.5 0.3 0.5 0.6v30.2c0 0.3-0.2 0.6-0.5 0.6zm0.5-1.2h17.2v-29h-17.2z"/><path fill-rule="evenodd" class="h" d="m23.1 280.5c-0.4 0-0.6-0.3-0.6-0.6v-49.9c0-0.3 0.2-0.6 0.6-0.6h18.2c0.4 0 0.6 0.3 0.6 0.6v49.9c0 0.3-0.2 0.6-0.6 0.6zm0.6-1.2h17.1v-48.7h-17.1z"/><path fill-rule="evenodd" class="i" d="m52.6 280.5c-0.3 0-0.5-0.3-0.5-0.6v-69.6c0-0.3 0.2-0.5 0.5-0.5h18.3c0.3 0 0.6 0.2 0.6 0.5v69.6c0 0.3-0.3 0.6-0.6 0.6zm0.6-1.2h17.1v-68.4h-17.1z"/><path fill-rule="evenodd" class="j" d="m115.9 321.3c-2.6 0-4.7-2.2-4.7-4.8 0-2.6 2.1-4.7 4.7-4.7 2.7 0 4.8 2.1 4.8 4.7 0 2.6-2.1 4.8-4.8 4.8zm0-8.5c-2 0-3.7 1.6-3.7 3.7 0 2.1 1.7 3.8 3.7 3.8 2.1 0 3.8-1.7 3.8-3.8 0-2.1-1.7-3.7-3.8-3.7z"/><path fill-rule="evenodd" class="k" d="m499.9 190.4c-1.2 0-2.2-0.9-2.2-2.1 0-1.3 1-2.2 2.2-2.2 1.2 0 2.2 0.9 2.2 2.2 0 1.2-1 2.1-2.2 2.1zm0-3.8c-0.9 0-1.7 0.7-1.7 1.7 0 0.9 0.8 1.6 1.7 1.6 0.9 0 1.7-0.7 1.7-1.6 0-1-0.8-1.7-1.7-1.7z"/></g></svg>