<svg version="1.2" xmlns="http://www.w3.org/2000/svg" viewBox="0 0 559 378" width="559" height="378"><defs><clipPath clipPathUnits="userSpaceOnUse" id="cp1"><path d="m558.95 378h-599.28v-423.53h599.28z"/></clipPath><linearGradient id="P" gradientUnits="userSpaceOnUse"/><linearGradient id="g1" x1="-9.8" y1="255.2" x2="121.4" y2="285.7" href="#P"><stop stop-color="#eb9322"/><stop offset="1" stop-color="#eb1e27"/></linearGradient><linearGradient id="g2" x1="-21.4" y1="271.6" x2="153.3" y2="312.2" href="#P"><stop stop-color="#eb9322"/><stop offset="1" stop-color="#eb1e27"/></linearGradient><linearGradient id="g3" x1="-23.9" y1="283.6" x2="112.5" y2="353.3" href="#P"><stop stop-color="#eb9322"/><stop offset="1" stop-color="#eb1e27"/></linearGradient><linearGradient id="g4" x1="-31.9" y1="276.4" x2="156.2" y2="320.1" href="#P"><stop stop-color="#eb9322"/><stop offset="1" stop-color="#eb1e27"/></linearGradient><linearGradient id="g5" x1="-35" y1="278.3" x2="153.2" y2="322" href="#P"><stop stop-color="#eb9322"/><stop offset="1" stop-color="#eb1e27"/></linearGradient><linearGradient id="g6" x1="-38" y1="280.2" x2="150.2" y2="323.9" href="#P"><stop stop-color="#eb9322"/><stop offset="1" stop-color="#eb1e27"/></linearGradient><linearGradient id="g7" x1="-31" y1="293.9" x2="103.3" y2="362.6" href="#P"><stop stop-color="#eb9322"/><stop offset="1" stop-color="#eb1e27"/></linearGradient><linearGradient id="g8" x1="-24.3" y1="285.2" x2="105.9" y2="351.8" href="#P"><stop stop-color="#eb9322"/><stop offset="1" stop-color="#eb1e27"/></linearGradient><linearGradient id="g9" x1="-27.2" y1="283.9" x2="107.1" y2="352.5" href="#P"><stop stop-color="#eb9322"/><stop offset="1" stop-color="#eb1e27"/></linearGradient><linearGradient id="g10" x1="-14.9" y1="269.6" x2="112.2" y2="334.6" href="#P"><stop stop-color="#eb9322"/><stop offset="1" stop-color="#eb1e27"/></linearGradient><linearGradient id="g11" x1="-9.8" y1="260.9" x2="116.1" y2="325.3" href="#P"><stop stop-color="#eb9322"/><stop offset="1" stop-color="#eb1e27"/></linearGradient><linearGradient id="g12" x1="416.2" y1="270" x2="681.3" y2="309.7" href="#P"><stop stop-color="#eb9322"/><stop offset="1" stop-color="#eb1e27"/></linearGradient><linearGradient id="g13" x1="431.9" y1="246.4" x2="631.9" y2="276.3" href="#P"><stop stop-color="#eb9322"/><stop offset="1" stop-color="#eb1e27"/></linearGradient><linearGradient id="g14" x1="415.7" y1="359.7" x2="617.4" y2="389.9" href="#P"><stop stop-color="#eb9322"/><stop offset="1" stop-color="#eb1e27"/></linearGradient><linearGradient id="g15" x1="468.5" y1="339.9" x2="516.8" y2="294.8" href="#P"><stop stop-color="#eb9322"/><stop offset="1" stop-color="#eb1e27"/></linearGradient><linearGradient id="g16" x1="419.2" y1="349.4" x2="611.1" y2="378.2" href="#P"><stop stop-color="#eb9322"/><stop offset="1" stop-color="#eb1e27"/></linearGradient><linearGradient id="g17" x1="429.3" y1="282.9" x2="618.6" y2="311.2" href="#P"><stop stop-color="#eb9322"/><stop offset="1" stop-color="#eb1e27"/></linearGradient><linearGradient id="g18" x1="402.8" y1="286.7" x2="668.9" y2="326.5" href="#P"><stop stop-color="#eb9322"/><stop offset="1" stop-color="#eb1e27"/></linearGradient><linearGradient id="g19" x1="19.1" y1="175.9" x2=".3" y2="175.9" href="#P"><stop stop-color="#eb9322"/><stop offset="1" stop-color="#eb1e27"/></linearGradient><linearGradient id="g20" x1="492.8" y1="44.8" x2="485.5" y2="44.8" href="#P"><stop stop-color="#eb9322"/><stop offset="1" stop-color="#eb1e27"/></linearGradient><linearGradient id="g21" x1="517.1" y1="35.1" x2="482.8" y2="35.1" href="#P"><stop stop-color="#eb9322"/><stop offset="1" stop-color="#eb1e27"/></linearGradient></defs><style>.a{fill:url(#g1)}.b{fill:url(#g2)}.c{fill:url(#g3)}.d{fill:url(#g4)}.e{fill:url(#g5)}.f{fill:url(#g6)}.g{fill:url(#g7)}.h{fill:url(#g8)}.i{fill:url(#g9)}.j{fill:url(#g10)}.k{fill:url(#g11)}.l{fill:url(#g12)}.m{fill:url(#g13)}.n{fill:url(#g14)}.o{fill:url(#g15)}.p{fill:url(#g16)}.q{fill:url(#g17)}.r{fill:url(#g18)}.s{fill:url(#g19)}.t{fill:url(#g20)}.u{fill:url(#g21)}.v{fill:#ed1c24}</style><g clip-path="url(#cp1)"><path fill-rule="evenodd" class="a" d="m25 350.2c-0.2 0.1-0.5 0-0.6-0.3l-22.9-54.7c-0.1-0.2 0-0.4 0.3-0.5l46.2-19.4c0.2-0.1 0.4 0 0.5 0.2l23 54.7c0.1 0.3-0.1 0.5-0.3 0.6zm0.1-1l45.4-19-22.6-53.9-45.4 19.1z"/><path fill-rule="evenodd" class="b" d="m12.7 304.6c0 0.1-0.1 0-0.2 0l-2.1-5.1c0 0 0-0.1 0.1-0.2l35.1-14.7c0.1 0 0.2 0 0.2 0.1l2.1 5.1c0.1 0 0 0.1-0.1 0.1zm0.1-0.3l34.8-14.5-2-4.9-34.8 14.6z"/><path class="c" d="m27.9 340.9c-0.1 0-0.1 0-0.2-0.1l-8.8-21.2c-0.1 0 0-0.1 0-0.2 0.1 0 0.2 0 0.3 0.1l8.8 21 34.9-14.6c0.1-0.1 0.2 0 0.2 0.1 0 0.1 0 0.1-0.1 0.2z"/><path fill-rule="evenodd" class="d" d="m14.4 308.5c-0.1 0-0.2 0-0.2-0.1l-0.7-1.5c0 0 0-0.1 0.1-0.1l35.1-14.7c0.1-0.1 0.2-0.1 0.2 0l0.7 1.5c0 0.1-0.1 0.2-0.1 0.2zm0-0.3l34.8-14.6-0.5-1.3-34.8 14.6z"/><path fill-rule="evenodd" class="e" d="m15.6 311.3c-0.1 0.1-0.2 0-0.2 0l-0.7-1.5c0-0.1 0-0.2 0.1-0.2l35.1-14.7c0.1 0 0.2 0 0.2 0.1l0.7 1.5c0 0-0.1 0.1-0.1 0.1zm0-0.3l34.8-14.5-0.5-1.3-34.8 14.6z"/><path fill-rule="evenodd" class="f" d="m16.7 314.2c0 0-0.1 0-0.2-0.1l-0.6-1.5c0 0 0-0.1 0.1-0.1l35.1-14.7c0.1-0.1 0.2-0.1 0.2 0l0.6 1.5c0.1 0.1 0 0.2-0.1 0.2zm0.1-0.3l34.8-14.6-0.5-1.3-34.8 14.6z"/><path class="g" d="m34.9 337.7c-0.1 0-0.2-0.1-0.2-0.1l-3.4-8.2-3.9 1.7 3.4 8.1c0 0.1 0 0.2-0.1 0.2-0.1 0-0.2 0-0.2-0.1l-3.5-8.3c0 0 0-0.1 0.1-0.2l4.2-1.7c0.1-0.1 0.2 0 0.2 0.1l3.5 8.2c0 0.1 0 0.2-0.1 0.3z"/><path class="h" d="m41.3 335c0 0-0.1-0.1-0.2-0.1l-5.2-12.6-3.9 1.7 5.2 12.5c0.1 0.1 0 0.2-0.1 0.2 0 0-0.1 0-0.2-0.1l-5.3-12.7c0 0 0-0.1 0.1-0.2l4.2-1.7c0.1-0.1 0.2 0 0.2 0.1l5.3 12.6c0.1 0.1 0 0.2-0.1 0.3z"/><path class="i" d="m47.8 332.3c-0.1 0-0.2-0.1-0.2-0.1l-3.4-8.2-3.9 1.7 3.4 8.1c0 0.1 0 0.2-0.1 0.2-0.1 0-0.2 0-0.2-0.1l-3.5-8.3c0 0 0-0.1 0.1-0.2l4.2-1.7c0.1-0.1 0.2 0 0.2 0.1l3.5 8.2c0 0.1 0 0.2-0.1 0.3z"/><path class="j" d="m54.2 329.6c-0.1 0-0.2-0.1-0.2-0.1l-7.7-18.4-3.9 1.6 7.7 18.4c0 0.1 0 0.2-0.1 0.2-0.1 0-0.1 0-0.2-0.1l-7.7-18.5c-0.1-0.1 0-0.2 0-0.2l4.2-1.8c0.1 0 0.2 0 0.2 0.1l7.8 18.5c0 0.1 0 0.2-0.1 0.3z"/><path class="k" d="m60.7 326.9c-0.1 0-0.2-0.1-0.2-0.1l-9.3-22.1-3.9 1.6 9.3 22.1c0 0.1 0 0.2-0.1 0.2-0.1 0-0.2 0-0.2-0.1l-9.3-22.2c-0.1-0.1 0-0.2 0-0.2l4.2-1.7c0.1-0.1 0.2 0 0.3 0l9.3 22.2c0 0.1-0.1 0.2-0.1 0.3z"/><path fill-rule="evenodd" class="l" d="m481.6 286.3q0 0.1 0 0.1l6.9 15.9c0.2 0.3 0.1 0.6-0.2 0.8-17.9 11.7-25.8 34.1-19.1 54.5 0.1 0.3-0.1 0.6-0.4 0.7l-15.1 8q-0.3 0.2-0.6 0.1-0.2-0.1-0.3-0.4c-11.3-29.9 0.4-63.5 27.9-79.9q0.3-0.2 0.5-0.1 0.3 0.1 0.4 0.3zm5.5 16l-6.4-14.7c-26.3 16-37.5 48.3-27 77.3l14.1-7.5c-6.5-20.6 1.4-43.1 19.3-55.1z"/><path fill-rule="evenodd" class="m" d="m572.9 312c16.9 32.1 4.6 72.1-27.6 89.1-10.6 5.6-22.5 8.2-34.4 7.5q-0.2 0-0.4-0.2-0.2-0.2-0.2-0.5l3.1-17.1c0-0.3 0.3-0.5 0.6-0.5 7.8 0.1 15.5-1.8 22.4-5.5 23.2-12.2 32.1-41 19.8-64.1-10.1-19.3-32-29.2-53.2-24-0.3 0.1-0.6-0.1-0.7-0.4l-6.9-15.9q-0.2-0.3 0-0.6 0.1-0.2 0.4-0.3c30-8.9 62.4 4.7 77.1 32.5zm-61.2 95.4c11.5 0.5 22.8-2.1 33-7.4 31.5-16.7 43.6-55.9 27-87.4-14.2-27-45.6-40.4-74.9-32.1l6.5 14.8c21.5-5 43.7 5.1 54.1 24.8 12.5 23.8 3.4 53.3-20.4 65.9-6.9 3.6-14.7 5.6-22.5 5.6z"/><path fill-rule="evenodd" class="n" d="m498.6 387.8q0.1 0.2 0 0.4l-3 17q0 0.3-0.3 0.4-0.2 0.2-0.5 0.1c-13.9-4.3-26.1-13.3-34.4-25.2q-0.1-0.2-0.1-0.5 0.1-0.3 0.4-0.4l15.1-8c0.3-0.2 0.7-0.1 0.8 0.2 5.6 7.2 13 12.6 21.6 15.7q0.2 0.1 0.4 0.3zm-4.1 16.4l2.7-15.7c-8.4-3.1-15.7-8.5-21.2-15.5l-14.1 7.4c8 11.2 19.5 19.6 32.6 23.8z"/><path class="o" d="m531.2 358.6q-0.8 0.7-1.6 1.4c-0.2 0.1-0.5 0.1-0.7-0.1-0.2-0.3-0.1-0.6 0.1-0.7q0.8-0.7 1.5-1.3c0.2-0.2 0.5-0.2 0.7 0 0.2 0.2 0.2 0.5 0 0.7zm3.3-3.9c-0.1 0.2-0.4 0.2-0.6 0-0.2-0.1-0.3-0.4-0.1-0.7q0.5-0.8 1-1.7c0.2-0.2 0.5-0.3 0.7-0.2 0.3 0.2 0.4 0.5 0.2 0.7q-0.5 0.9-1.1 1.8 0 0.1-0.1 0.1zm-9.2 7.9q-0.1 0.1-0.1 0.1-1 0.5-2 0.8c-0.2 0.1-0.5 0-0.6-0.3-0.1-0.3 0-0.6 0.3-0.7q0.9-0.3 1.8-0.7c0.3-0.1 0.6 0 0.7 0.2 0.1 0.2 0.1 0.5-0.1 0.6zm12.3-14.4c-0.1 0.1-0.3 0.2-0.5 0.1-0.3-0.1-0.4-0.3-0.4-0.6q0.3-1 0.5-2c0.1-0.2 0.3-0.4 0.6-0.4 0.3 0.1 0.5 0.4 0.4 0.6q-0.2 1.1-0.5 2.1 0 0.1-0.1 0.2zm-19.2 16.4q-0.1 0.1-0.3 0.1-1 0.2-2.1 0.2c-0.2 0-0.5-0.2-0.5-0.5 0-0.3 0.2-0.5 0.5-0.5q1-0.1 2-0.2c0.3 0 0.5 0.2 0.6 0.5q0 0.2-0.2 0.4zm20.1-23.5q-0.2 0.1-0.4 0.1c-0.3 0-0.5-0.2-0.5-0.5q0-1-0.2-2c0-0.2 0.2-0.5 0.5-0.5 0.3-0.1 0.5 0.1 0.6 0.4q0.1 1.1 0.1 2.1 0 0.2-0.1 0.4zm-27.2 23.3q-0.2 0.1-0.5 0.1-1-0.2-2-0.5c-0.3-0.1-0.5-0.4-0.4-0.6 0.1-0.3 0.4-0.5 0.6-0.4q1 0.3 2 0.5c0.3 0 0.5 0.3 0.4 0.6q0 0.2-0.1 0.3zm25.8-30.3q-0.1 0-0.2 0.1c-0.2 0.1-0.5-0.1-0.6-0.3q-0.4-1-0.8-1.9c-0.1-0.2 0-0.5 0.3-0.7 0.2-0.1 0.5 0 0.6 0.3q0.5 0.9 0.8 1.9c0.1 0.2 0.1 0.4-0.1 0.6zm-32.6 27.8c-0.1 0.2-0.4 0.2-0.6 0.1q-0.9-0.5-1.8-1.1c-0.2-0.1-0.3-0.5-0.1-0.7 0.1-0.2 0.5-0.3 0.7-0.1q0.8 0.5 1.7 1c0.3 0.2 0.4 0.5 0.2 0.7q0 0.1-0.1 0.1zm29.1-34.1q0 0 0 0c-0.2 0.2-0.5 0.2-0.7-0.1q-0.6-0.7-1.3-1.5c-0.2-0.2-0.2-0.5 0-0.7 0.2-0.2 0.5-0.3 0.7 0q0.7 0.8 1.4 1.6c0.2 0.2 0.1 0.5-0.1 0.7zm-34.7 29.7c-0.3 0.2-0.6 0.2-0.8 0q-0.7-0.8-1.3-1.6c-0.2-0.2-0.1-0.5 0.1-0.7 0.2-0.2 0.5-0.1 0.7 0.1q0.6 0.8 1.3 1.5c0.2 0.2 0.2 0.5 0 0.7zm29.4-34.6c-0.1 0.1-0.4 0.1-0.6 0q-0.8-0.6-1.7-1c-0.3-0.2-0.4-0.5-0.2-0.7 0.1-0.3 0.4-0.4 0.7-0.2q0.9 0.5 1.8 1.1c0.2 0.1 0.3 0.4 0.1 0.7q0 0-0.1 0.1zm-33.5 28.7q0 0.1-0.1 0.1c-0.2 0.1-0.5 0-0.7-0.2q-0.4-1-0.8-2c-0.1-0.2 0.1-0.5 0.3-0.6 0.3-0.1 0.6 0 0.7 0.3q0.3 0.9 0.8 1.8c0.1 0.2 0 0.5-0.2 0.6zm27-31.8c-0.1 0.2-0.3 0.2-0.4 0.2q-1-0.3-2-0.5c-0.3 0-0.5-0.3-0.4-0.6 0-0.3 0.3-0.5 0.6-0.4q1 0.2 2 0.5c0.3 0.1 0.5 0.3 0.4 0.6q-0.1 0.2-0.2 0.2zm-28.9 24.9q-0.2 0.1-0.3 0.2c-0.3 0-0.6-0.2-0.6-0.5q-0.1-1-0.2-2.1c0-0.2 0.2-0.5 0.5-0.5 0.3 0 0.5 0.2 0.5 0.5q0.1 1 0.2 2 0 0.3-0.1 0.4zm21.8-25.7q-0.1 0.1-0.3 0.1-1 0.1-2 0.2c-0.3 0-0.5-0.2-0.6-0.5 0-0.2 0.2-0.5 0.5-0.5q1-0.2 2.1-0.2c0.2 0 0.5 0.2 0.5 0.5q0 0.2-0.2 0.4zm-21.6 18.6q-0.2 0.2-0.5 0.1c-0.2 0-0.4-0.3-0.4-0.6q0.2-1 0.5-2c0.1-0.3 0.4-0.5 0.6-0.4 0.3 0.1 0.5 0.4 0.4 0.6q-0.3 1-0.5 2 0 0.2-0.1 0.3zm14.6-17.2q-0.1 0-0.2 0.1-0.9 0.3-1.8 0.7c-0.3 0.2-0.6 0.1-0.7-0.2-0.1-0.3 0-0.6 0.2-0.7q1-0.4 2-0.8c0.2-0.1 0.5 0 0.6 0.3 0.1 0.2 0 0.4-0.1 0.6zm-12.2 10.4c-0.2 0.2-0.4 0.2-0.6 0.1-0.2-0.1-0.3-0.4-0.2-0.7q0.5-0.9 1.1-1.8c0.2-0.2 0.5-0.3 0.7-0.1 0.2 0.1 0.3 0.5 0.1 0.7q-0.5 0.8-1 1.7 0 0.1-0.1 0.1zm5.9-7q0 0.1 0 0.1-0.8 0.6-1.5 1.2c-0.2 0.2-0.5 0.2-0.7 0-0.2-0.2-0.2-0.5 0-0.7l0.3 0.4-0.3-0.4q0 0 0 0 0.8-0.7 1.6-1.3c0.2-0.2 0.5-0.2 0.7 0.1 0.2 0.2 0.1 0.5-0.1 0.6z"/><path class="p" d="m486.5 367.3c11.2 12.8 29.6 16.4 44.7 8.7 4.7-2.3 8.8-5.6 12.1-9.6l-2.4 1.3c-0.3 0.2-0.7 0-0.9-0.3q0 0 0 0c-0.2-0.3 0-0.7 0.3-0.8l4.1-2.2c0.2-0.1 0.4-0.1 0.6 0q0.2 0.1 0.3 0.2 0 0.2 0 0.3l0.1 4.8c0 0.3-0.3 0.6-0.6 0.6-0.4 0-0.7-0.3-0.7-0.6v-2.2c-3.4 4-7.5 7.3-12.3 9.7-15.7 7.9-34.7 4.2-46.3-9-0.2-0.3-0.2-0.7 0.1-0.9 0.3-0.2 0.7-0.2 0.9 0z"/><path class="q" d="m527.1 306.4l4.7-0.7c0.3-0.1 0.6 0.1 0.7 0.3q0.1 0.1 0.1 0.2c0 0.3-0.2 0.7-0.6 0.7l-2.4 0.4c8.4 3.6 15.2 10 19.3 18.1 4.3 8.4 5.3 18.1 2.9 27.2-0.1 0.3-0.5 0.5-0.8 0.4-0.4-0.1-0.6-0.4-0.5-0.8 2.3-8.8 1.4-18.1-2.7-26.2-4-7.8-10.6-14-18.7-17.5l1.5 1.9c0.2 0.3 0.1 0.7-0.2 0.9-0.2 0.2-0.6 0.2-0.9-0.1l-2.8-3.7c-0.1-0.2-0.1-0.5-0.1-0.7 0.1-0.2 0.3-0.3 0.5-0.4z"/><path class="r" d="m497.2 308.3c3.7-1.8 7.6-3.1 11.7-3.7 0.3 0 0.5 0.1 0.7 0.4q0 0.1 0 0.2c0.1 0.3-0.2 0.6-0.5 0.7-4 0.6-7.8 1.8-11.3 3.6-14.5 7.2-22.6 23.3-20.1 39.2l1-2.2c0.1-0.4 0.5-0.5 0.9-0.4q0.2 0.1 0.3 0.3 0.1 0.3 0 0.6l-1.8 4.3c-0.1 0.2-0.3 0.3-0.5 0.4-0.3 0-0.5-0.1-0.6-0.3l-3.1-3.6c-0.2-0.3-0.2-0.7 0.1-1 0.3-0.2 0.7-0.1 0.9 0.1l1.5 1.9c-2.5-16.4 5.9-33 20.8-40.5z"/><path class="s" d="m0.3 175.5v-4.7c0-0.2 0.1-0.4 0.4-0.4 0.2 0 0.3 0.2 0.3 0.4v3.8l17.4-17.4q0.1-0.1 0.3-0.1 0.1 0 0.3 0.1c0.1 0.2 0.1 0.4 0 0.6l-17.4 17.3h3.8c0.2 0 0.4 0.2 0.4 0.4 0 0.2-0.2 0.4-0.4 0.4h-4.7q-0.1 0-0.2 0-0.1-0.1-0.2-0.2 0-0.1 0-0.2z"/><path class="t" d="m492.3 37.5q0.2 0 0.4 0.2c0.2 0.1 0.2 0.5 0 0.7l-6.3 6.3c-0.2 0.2-0.5 0.2-0.7 0-0.2-0.2-0.2-0.5 0-0.7l6.3-6.3q0.1-0.2 0.3-0.2z"/><path class="u" d="m516.6 0.8q0.2 0 0.3 0.2c0.2 0.2 0.2 0.5 0 0.7l-33.2 33.2c-0.2 0.2-0.5 0.2-0.7 0-0.2-0.2-0.2-0.5 0-0.7l33.2-33.2q0.2-0.2 0.4-0.2z"/><path class="v" d="m482.4 47.5q0.2 0 0.3 0.2c0.2 0.2 0.2 0.5 0 0.7l-1.6 1.6c-0.2 0.2-0.5 0.2-0.7 0-0.2-0.2-0.2-0.5 0-0.7l1.6-1.6q0.2-0.2 0.4-0.2z"/></g></svg>