<svg version="1.2" xmlns="http://www.w3.org/2000/svg" viewBox="0 0 602 271" width="602" height="271"><defs><linearGradient id="P" gradientUnits="userSpaceOnUse"/><linearGradient id="g1" x1="238.8" y1="240.8" x2="248.7" y2="240.8" href="#P"><stop stop-color="#eb9322"/><stop offset="1" stop-color="#eb1e27"/></linearGradient><linearGradient id="g2" x1="172.5" y1="179.8" x2="221" y2="179.8" href="#P"><stop stop-color="#eb9322"/><stop offset="1" stop-color="#eb1e27"/></linearGradient></defs><style>.a{fill:none;stroke:#2e519e;stroke-linecap:round;stroke-linejoin:round;stroke-width:2}.b{fill:none;stroke:#2e519e;stroke-linecap:round;stroke-linejoin:round}.c{fill:#142947}.d{fill:#2e519e}.e{fill:none;stroke:#2e519e}.f{fill:none;stroke:#2e519e;stroke-linecap:round;stroke-linejoin:round;stroke-width:.5}.g{fill:none;stroke:#485eeb;stroke-linecap:round;stroke-linejoin:round;stroke-width:2}.h{fill:url(#g1)}.i{fill:url(#g2)}</style><path class="a" d="m519 142.2l2.7-7c0 0-0.5-7.3 3.1-10.1 3.5-2.8 19.7-14.3 19.7-14.3 0 0 1.7 2.3 0.9 4.1-0.9 1.8-7.3 9-7.3 9 0 0 4 0 7.9-0.9 3.9-0.8 6.4-2.4 6.4-2.4 0 0 0.3-2.7 1.5-4.4 1.2-1.7 3.4-1.7 3.4-1.7 0 0 0.2-2 1.3-3.5 1.1-1.5 3.8-2 3.8-2l-0.1 4.8c0 0 4.2-3.9 5.5-4.3 1.4-0.3 3.5 1.1 3.5 1.1l-9 11.6c0 0-0.1 3-0.3 3.7-0.3 0.7-12.4 13.7-13.1 14-0.7 0.2-14.4 2.1-14.4 2.1l-2.6 8.4"/><path class="b" d="m534.7 132.4c0 0 2.7-0.8 6.2 0.1 3.5 0.8 4.6 1.8 4.6 1.8l2.9-3.5c0 0-0.5-4.1 0.5-5.7 1-1.6 3.8-2 3.8-2 0 0 0.3 8.4 0.2 8.9-0.1 0.5-4 7.9-4 7.9"/><path class="b" d="m557.1 131.1l0.5-16.8"/><path class="b" d="m561.9 122.8v-8.6"/><path class="b" d="m552.7 123.1l0.1-2.9"/><path class="c" d="m461.7 120.3c3.1 1.1 6.1 1.9 6.1 1.9l-0.5 5.5-10.5-8.9c0 0 2 0.5 4.9 1.5z"/><path class="c" d="m406.5 46.5c1.5 0.2 6.3 4.4 10.3 9.2 2.8 3.4 6.7 8.9 6.7 8.9 0 0-2.1 0.6-4.8 4.1-2.6 3.5-3.3 5-3.8 6.6-0.5 1.5-0.9 4.2-0.9 4.2 0 0-1.5 1.7-1.8 5.5-0.2 3.8 1.2 11.3-2.1 17.3-3.4 6-11.4 12.4-11.8 11.3-0.3-1.1 5.1-12.1 1.6-19.8-3.5-7.7-9-11.7-12.3-15.4-3.2-3.7-5.4-7.7-6.9-10.4-1.6-2.8-1.7-9.6 6.2-13.9 7.9-4.2 16-8.1 19.6-7.6z"/><path class="c" d="m472 59.9c0 0-1.5 13.9-6.9 22.7-5.4 8.8-9.8 12.1-9.8 12.1 0 0-4.4-5.6-6-5.5-1.5 0.1-7.6 3.4-8.5 5.4-0.8 2.1 0.6 7.3 3.1 9.7 2.6 2.4 5.1 3 5.1 3 0 0 0.2 3.9 0.1 6.3-0.1 2.6-0.4 4.7-0.4 4.7 0 0-9.7-1.2-13.4-4.4-3.7-3.1-10.5-9.8-12.4-17.7-1.9-8-2.5-17.8 1.1-21.9 3.6-4.1 14.8-10.3 24.7-12.8 10-2.5 15-3 17.4-3.1 2.5-0.2 5.9 1.5 5.9 1.5z"/><path class="a" d="m445.4 127.4c0 0 0.8-2 1.5-4.3 0.7-2.9 0.9-5.4 0.9-5.4 0 0-8.5 0.3-14.1-4.8-5.5-5.2-11.3-14.3-12.1-22.5-0.8-8.2-0.8-14.9 5.7-19.2 6.4-4.3 19.2-9.8 30.2-11.8 11.1-1.9 15.1-1.3 18.3 4.1 3.1 5.4 4.4 11.1 5 14.4 0.6 3.4 0.1 5.8 0.7 6.5 0.6 0.7 8.7 9.1 8.7 10 0 0.8-1.1 2.5-1.8 3.7-0.8 1.2-1.5 2.2-1.5 2.2 0 0 1.7 5.4 2.2 11.5 0.4 4.8 0.7 10.7-5.8 11.3-6.5 0.6-15.5-0.8-19.7-2.3-4.2-1.6-6.3-2.7-6.3-2.7"/><path class="a" d="m467.9 122.1l-1.6 13.3"/><path class="a" d="m421 81.9c0 0-2.2 1.2-4.2 0.6-2-0.6-3-2.8-2.5-5.7 0.5-2.8 3.6-7.3 5.4-9.3 1.8-2.1 4.3-3.5 6.7-2.1 2.4 1.5 2.7 4.7 2.7 4.7"/><path class="b" d="m454.8 105.3c0 0-0.6 0.9-2.3 1.7-1.6 0.7-3.6 0.6-3.6 0.6"/><path class="b" d="m447.8 94c0 0 1.7 1.3 2.7 3.2 1.1 1.9 1.6 4.2 1.6 4.2"/><path class="b" d="m447 99.4c0 0 0.6-1.1 1.3-1.7 0.6-0.7 1.4-1.4 1.4-1.4"/><path class="b" d="m468.2 82.2c0 0 2.1-2.6 5.2-4.5 3.1-1.9 5-2.1 5-2.1"/><path class="b" d="m473.6 86.3c0 0 1.2-1.5 2.7-2.5 1.5-1 2.8-1.3 2.8-1.3"/><path class="b" d="m485.1 106.1c0 0-1.6 0.2-3.9 0.1-2.4-0.2-4.2-1.3-4.2-1.3"/><path class="d" d="m479.2 85.9c0.3 1.6-0.1 3-0.7 3.1-0.7 0.1-1.5-1.1-1.8-2.7-0.3-1.6 0-3.1 0.7-3.2 0.7-0.1 1.5 1.1 1.8 2.8z"/><path class="c" d="m423 168.9c0 0 3.3-8.1 9.4-18.2 7.1-11.8 13-23.4 13-23.4 0 0 5.4 2.2 10.6 3.9 5.2 1.8 10.5 3.6 10.5 3.6l-1.2 11.5c0 0 11.2 9.5 18.6 19.9 7.4 10.3 13.7 19.7 13.7 19.7 0 0 12-32 12.7-32.4 0.7-0.5 2.6 0.6 2.6 0.6l5.4-12.6c0 0 5.8 3.4 9.3 5.6 3.6 2.1 4.6 2.8 4.6 2.8l-2.7 12.6c0 0 4.3 4 5.5 5.2 1.2 1.2 0.5 3.1-0.1 5.3-0.6 2.1-14.4 48.5-14.4 48.5l1.7 2.9 13 10.8h-45.8c0 0-4.9-4.7-9.8-8.8-4.8-4-7.6-6.4-7.6-6.4l-4.4 3.7c0 0-3.5-8.3-8.9-15.6-5.3-7.2-13.4-16-20.4-23.3-7-7.2-15.3-15.9-15.3-15.9z"/><path class="a" d="m414 79.5c0 0-1.5 2-1.8 5.5-0.2 3.8 1.2 11.3-2.1 17.3-3.4 6-11.4 12.4-11.8 11.3-0.3-1.1 5.1-12.1 1.6-19.8-3.5-7.7-9-11.7-12.3-15.4-3.2-3.7-5.4-7.7-6.9-10.4-1.6-2.8-1.7-9.6 6.2-13.9 7.9-4.2 16-8.1 19.6-7.6 1.5 0.2 6.3 4.4 10.3 9.2 2.8 3.4 6.7 8.9 6.7 8.9"/><path class="a" d="m48.7 234.4c0 0-1.2-1.7-1.8-3.4-0.5-1.7-0.9-4.5 0.8-10 1.7-5.6 8.3-15.9 8.3-15.9"/><path class="e" d="m54.9 202.1h-54v-40.1h85.2"/><path class="e" d="m43.7 177.5h30.8"/><path class="e" d="m43.7 186.6h24.9"/><path class="c" d="m93 137c0 0 1.3-2 3.5-4.4 2.1-2.5 4.7-5.7 4.7-5.7 0 0-1 3.9-2.5 7.5-1.5 3.6-3.7 7.2-3.7 7.2z"/><path class="c" d="m60.1 83.5c0.3-1.2 0.7-3.2 5.9-5.9 5.2-2.7 11.2-4.3 18.3-5.7 7-1.4 13.1-1.4 19.5 0.2 6.5 1.6 9.8 9.3 11.1 13.3 1.4 3.9 0.4 15 0 19.5-0.5 4.5 0.3 13.7 0.3 13.7 0 0-2.5 0.5-6.2-0.4-3.7-0.9-5.7-4.3-5.7-4.3 0 0 0.5-0.4 1.5-1.4 1-1.1 2.1-2.5 2.3-6.2 0.3-3.8-0.6-7.1-2.2-8.5-1.6-1.3-7.4-1.7-9.7-0.9-2.3 0.9-3 8.1-3 8.1 0 0-1.9-0.4-3.7-2-1.8-1.7-1.4-5-0.7-9.4 0.6-4.4-3.7-7.8-3.7-7.8 0 0-2.9 5.5-8.5 5.4-5.5-0.1-5.3-7.1-5.3-7.1 0 0-2.6 2-5.7 2.9-3 0.9-4.8 0.5-4.8 0.5 0 0 0-2.9 0.3-4z"/><path class="a" d="m101.4 126.4c0 0-5.5 7-9.2 10.2-3.8 3.2-10.7 7.2-14 7.3-3.2 0.1-5.5-3.1-7.2-6.9-1.7-3.9-4-11.9-4.2-12.3-0.1-0.5-1.2-0.9-2.8-1.6-1.6-0.8-2.4-1.6-2.8-2.2-0.5-0.6 2.8-12.3 2.8-13.2 0-0.9-1.5-3.8-2.8-7-1.4-3.1-2-10.5-1.3-16.3 0.8-5.9 7.8-8.5 15.7-10.6 8-2.2 15.6-4 24.3-2.9 8.7 1.2 13.7 7.4 15 14.5 1.4 7.1 0.4 16.5 0 21.5-0.3 5 0.3 13.1 1.7 17.8 1.3 4.6 4.1 9 4.1 9"/><path class="b" d="m98.4 109.5c0 0-0.7-2.4-0.5-4.5 0.2-2 0.7-4.2 0.7-4.2"/><path class="b" d="m98.2 103.9c0 0 0.9 0.2 1.9 0.7 1.1 0.4 1.6 1 1.6 1"/><path class="b" d="m63 99.4c0 0 2.2-1.1 5.7-0.9 3.5 0.1 6.3 1.6 6.3 1.6"/><path class="b" d="m65.1 105.5c0 0 1.2-0.6 3.2-0.3 2 0.3 3.8 1 3.8 1"/><path class="b" d="m78 124.5c0 0-1.2 1.6-2.9 2.8-1.7 1.1-3.9 1.9-3.9 1.9"/><path class="d" d="m69.5 108.1c0.3 1.7 0 3.1-0.7 3.2-0.7 0.1-1.4-1.2-1.7-2.8-0.2-1.6 0.1-3 0.8-3.1 0.6-0.1 1.4 1.1 1.6 2.7z"/><path class="c" d="m93.9 158.4c0.3 0.5 34.2 33 34.2 33l-5.9 11.5 38.3 27.9 1 3.6-55.4 0.3c0 0-2.5-5.3-4-6.8-1.5-1.6-5.6-3.4-13.3-6.9-7.6-3.5-33.6-15.2-33.6-15.2 0 0-1.5-3 0-5.9 1.4-3 4.7-1.2 4.7-1.2 0 0 14.2-21.9 20.5-30.8 6.3-8.9 13.3-11.7 13.3-11.7 0 0 0 1.7 0.2 2.2z"/><path class="a" d="m107.1 235c0 0 4.3 10.8 4.4 11.4 0.2 0.7 1.8 18.1 1.8 18.1 0 0-2 0.6-3.2 0.1-1.2-0.6-2.7-1.9-2.7-1.9 0 0-0.3 3.7-1.5 5.2-1.3 1.4-5.9 1.4-5.9 1.4 0 0-3.8 0-5.2-0.4-1.3-0.5-1.8-2.2-1.8-2.2 0 0-2.8-0.3-4.3-1.1-1.4-0.9-1.8-2.7-1.8-2.7 0 0-5.3-1.2-5.3-7.7 0-6.4 0.7-25 0.7-25"/><path class="b" d="m86.9 249.7v13.2"/><path class="b" d="m93.1 251.3l-0.3 15.4"/><path class="b" d="m99.8 253.4v15.6"/><path class="a" d="m108.3 251l-0.9 11.7"/><path class="e" d="m31.4 182.1c0 5.8-4.7 10.6-10.6 10.6-5.8 0-10.6-4.8-10.6-10.6 0-5.8 4.8-10.6 10.6-10.6 5.9 0 10.6 4.8 10.6 10.6z"/><path class="e" d="m26.5 181.9h-5.9v-8.1"/><path class="f" d="m66.4 209.3c0 0 30.1 8.9 36.9 13.1 6.8 4.1 9.7 9.7 9.7 9.7"/><path class="b" d="m92 105.7c0 0 0.9-7.7 3.2-8.8 2.3-1.1 8.3-0.2 9.7 0.9 1.4 1.2 2.4 3.1 2.2 8.5-0.2 5.3-1.9 6.4-2.9 7.2-1.1 0.7-1.7 1-3.6 1.1-1.5 0.1-3.2-0.3-3.2-0.3"/><path class="c" d="m251.5 20.2c11.4-1.1 16.8 0.4 24.1 2.8 7.4 2.4 12.2 5.9 13.5 13.8 1.3 7.8-0.3 22.5-0.3 22.5 0 0 5.6 0.2 10.8 2.7 5.2 2.4 7.1 3.1 12.9 9.4 5.8 6.3 7.6 18.2 4.5 25.5-3 7.4-8.5 11.1-8.5 11.1l-28.6-7.4-4.9-35.6c0 0 2.3-0.6 4.8-3.7 2.5-3.1 3-7.2 3.2-9.3 0.1-2.2-1.2-3.7-3.3-5.1-2.1-1.5-5.9-3-7.1-3.1-1.2-0.1-2.7 1.2-3.8 2.6-1.6 1.9-2.2 4.3-2.2 4.3 0 0-5.3 1.3-17.2-5.9-10-6-18.2-16.5-18.2-16.5 0 0 5.6-6.6 20.3-8.1z"/><path class="c" d="m264.2 96.2c9.3 0.1 14.3-5.6 14.3-5.6l1.4 10c0 0 27.9 5.8 33.4 8.7 5.6 2.8 10.9 8.3 12.6 17.8 1.7 9.6 3.2 24.2 3.2 24.2 0 0-21.2 6.6-25 9.8-3.8 3.2-7.4 7.7-8.7 11.9-1.3 4.3-1.2 8.1-1.2 8.1l-25.7-1.9c0 0-0.3-25.6-0.8-37-0.6-11.4-3.2-22.1-5.6-25.7-2.4-3.6-13.2-6.4-24.3-7.2-11.1-0.9-20.9-0.7-20.9-0.7 0 0 4.3-0.9 16.5-3.3 9.1-1.8 16.4-2.9 16.4-2.9l1.1-10.2c0 0 3.9 3.9 13.3 4z"/><path class="c" d="m251.2 87.8c0 0 2.6-0.9 5.7-2.1 3.2-1.3 9.3-3.4 9.3-3.4 0 0-2.8 3.1-7 6-4.3 3-8.3 4.4-8.3 4.4z"/><path class="a" d="m265.5 81.7c0 0-9.8 4.5-14.1 5.8-4.4 1.3-12.2 2.5-16.6 1.7-4.3-0.9-6.4-3.9-7.6-11.2-1.2-7.3-0.7-20.2-0.4-29.2 0.2-9 1.5-15.9 5.1-19.9"/><path class="b" d="m266.4 50.5c0 0 4.4-6.9 5.7-6.7 1.3 0.2 9.8 2.9 10.7 6 0.8 3.2-0.5 8.3-3 11.5-2.5 3.2-4.8 3.7-4.8 3.7l4.8 35.9"/><path class="b" d="m275 65.1c0 0-0.8 0.3-4.4-0.4-2.1-0.4-3.9-1.9-3.9-1.9"/><path class="b" d="m270.2 56.5c0 0 0.3-2.4 1.6-4.5 1.2-2 2.5-2.7 2.5-2.7"/><path class="b" d="m272.1 51.5c0 0 0.9 0.2 1.8 1.1 1 1.1 1.3 1.9 1.3 1.9"/><path class="b" d="m241.4 45.6c0 0 2.2-0.7 5-0.6 2.8 0.1 4.9 0.4 4.9 0.4"/><path class="b" d="m226.8 46.8c0 0 0.8-0.7 1.9-1 1.1-0.2 1.8-0.3 1.8-0.3"/><path class="b" d="m227.1 50.6c0 0 0.9-0.5 2-0.8 1.1-0.3 2.1-0.2 2.1-0.2"/><path class="b" d="m243.4 49.4c0 0 1.2-0.2 3.2-0.1 1.9 0.1 3.2 0.6 3.2 0.6"/><path class="b" d="m233.8 65.3c0 0-3.5-3.8-3.7-4.7-0.2-1 4-4.1 4.3-4.6 0.2-0.4-0.6-7.8-0.6-7.8"/><path class="b" d="m244.4 66.9c0 0-1.9 1.3-3.8 1.9-2 0.6-4.6 0.6-4.6 0.6"/><path class="d" d="m247.6 52.1c0 1.6-0.6 2.8-1.3 2.8-0.7 0-1.2-1.2-1.2-2.8 0-1.5 0.5-2.7 1.2-2.7 0.7 0 1.3 1.2 1.3 2.7z"/><path class="d" d="m230.9 52.8c0 1.5-0.5 2.8-1.2 2.8-0.7 0-1.3-1.3-1.3-2.8 0-1.5 0.6-2.8 1.3-2.8 0.7 0 1.2 1.3 1.2 2.8z"/><path class="a" d="m204.5 178.4c0 0-0.9 0.3-2.1 0-1.2-0.4-2-1.5-2-1.5l4.3-3.5"/><path class="b" d="m140.5 151.4l1.5 9.8"/><path class="b" d="m149.8 97.6c0 0 1.7 9.9 1 12.7-0.8 2.7-4.2 2.7-4.2 2.7 0 0-0.6 1.5-1.6 2.1-1 0.5-2.9 0.1-2.9 0.1"/><path class="a" d="m142.1 115.2c0 0-0.1 1.2-1.1 1.7-0.9 0.6-2.1 0.5-2.1 0.5 0 0-4.3-14.7-4.2-17.3 0.1-2.6 8.5-10.9 8.5-10.9 0 0-9.2-11.5-10.7-15-1.5-3.5 0.7-5.7 0.7-5.7 0 0 33 27.1 33.4 27.5 0.5 0.3 6.8 19 6.8 19"/><path class="b" d="m155.3 109.8c0 0-0.9-2.7-0.3-5.5 0.7-2.9 1.3-4.7 1.3-4.7 0 0-7.8-6.1-8.6-8.7-0.8-2.6 0.7-4.4 0.7-4.4l17.5 9.1"/><path class="b" d="m144.2 99.6l2.4 13.4"/><path class="b" d="m139.5 101.4l2.6 13.8"/><path class="f" d="m279.8 100.8c0 0-5.6 6.1-15 5.9-9.4-0.3-14.2-3.8-14.2-3.8"/><path class="f" d="m296.1 148l3 18.1"/><path class="a" d="m232 28.8c0 0 5.3-6.7 20-8.2 11.4-1.2 18.1 0.1 23.8 2.3 6.1 2.3 12 6 13.3 13.9 1.3 7.8-0.3 22.5-0.3 22.5 0 0 5.6 0.2 10.8 2.7 5.2 2.4 7.1 3.1 12.9 9.4 5.8 6.3 7.6 18.2 4.5 25.5-3 7.4-8.1 10.8-8.1 10.8"/><path class="c" d="m364.9 195.3l0.4-25.7-2.3-1.2 2.9-11.1 5.5 10.4-1.4 1.3 13.6 34.1-11.4 1.4c0 0-1.5-1.8-3.7-4.7-2-2.4-3.6-4.5-3.6-4.5z"/><path class="c" d="m379.9 76.2c-1.7-3.5-5-8.9-5-8.9 0 0-7.6 4.4-15.3 7.5-7.7 3.2-18.2 3.2-18.2 3.2l-0.6 17.8c0 0-5.5-5.1-6.8-5.5-1.3-0.4-4.6 1.2-7.9 3.5-3.2 2.2-2.4 6.1-2.4 6.1 0 0-2.8-4.6-4.2-7.1-1.4-2.4-4-7.4-2.3-12.4 1.7-5 9.9-15.5 13.3-17.8 3.3-2.4 11.6-4.7 22.2-5.6 10.5-0.9 19.5-1.8 23.9-1.1 4.3 0.7 6.1 4 6.7 10.1 0.7 6.1 0 20.4 0 20.4 0 0-1.7-6.6-3.4-10.2z"/><path class="c" d="m360.6 130.6c5 1.3 10.3 1.3 10.3 1.3l0.8 8.3c0 0-3.3-0.3-9.9-3.7-6.6-3.3-11.5-9.9-11.5-9.9 0 0 5.2 2.8 10.3 4z"/><path class="a" d="m340.4 108.7c0 0-0.4 0.8-1.9 1.6-1.6 0.8-6.1 2.1-10.1-0.8-3.9-3-5.6-10.7-4.3-13.5 1.3-2.8 8.6-5.9 9.9-5.7 1.3 0.2 7 6.4 7 6.4"/><path class="a" d="m383.4 86.6q0.9 3.1 1.6 6.7c2.7 14 3 22.8 2.3 28.4-0.7 5.6-1 7.5-6.2 8.8-5.1 1.4-13.7 1.6-19.5 0.3-5.9-1.2-10.9-4.7-10.9-4.7"/><path class="a" d="m301.8 202.4c0 0-7.7-13.6-7.7-21.6 0-8 5.6-18.1 12.5-21.1 6.8-3 25.9-9.6 25.9-9.6l5.4-8.8-0.9-30.4"/><path class="a" d="m371.3 131.9l1.8 12.5 5.8 5.7c0 0 14.3 0.3 20.2 2 6 1.7 11.7 3.9 21.6 14.3 10 10.4 26.6 27.4 34.5 37.4 7.9 9.9 11.9 16.4 12.6 21.5 0.7 5-4.4 10.5-12 12.3-7.6 1.8-17.2 0.9-25.2-2.6-8-3.6-15.3-7.4-21.7-11.9-6.4-4.4-12.8-9.7-12.8-9.7l-19.6-3.2c0 0-18.2-25.2-32.1-36.8-13.8-11.7-24.5-14-28.1-14.4-3.7-0.4-7.4-0.3-7.4-0.3"/><path class="a" d="m372.6 204.7c0 0 16.3-2.4 35.2-4 18.8-1.5 26.2-2.7 36.1 0.1 10.4 3 15.7 8.9 15.7 8.9"/><path class="b" d="m373.1 144.4l-7.4 12-27.8-15.1"/><path class="b" d="m378.9 150.1l-5.4 20.8-7.8-14.5-3.6 16-29.6-22.3"/><path class="b" d="m407.3 176.8l12 22.4"/><path class="b" d="m390 202.2l-4.2-12.6 19.9-2.9 4.8 13.3"/><path class="b" d="m397.9 201.7l-2.2 11.5"/><path class="b" d="m405 201.1l-2.8 16.9"/><path class="b" d="m376.5 210.2l-13.6 1.7"/><path class="a" d="m429.3 234.6c0 0-17.7 5.1-37.2 8.2-19.6 3-30.8 4.7-34.1 3.2-3.2-1.5-6.9-4.1-9.9-6.4-3.5-2.6-6.7-5.1-6.7-5.1"/><path class="b" d="m373.9 82.7l0.2 6.6c0 0 7.4 9.5 7.1 10-0.3 0.5-5.6 5.4-5.6 5.4"/><path class="b" d="m367.4 109.6l7.9 1.4"/><path class="b" d="m332.5 95.4c0 0 1.7 1.8 2.7 3.7 1 2 1.2 3.5 1.2 3.5"/><path class="b" d="m331.8 100.9c0 0 0.3-0.9 0.9-1.6 0.6-0.7 1.5-1.5 1.5-1.5"/><path class="b" d="m359.1 81.8c4.8-1.5 8.9 1.6 10.6 4.3 1.6 2.6 1.7 6.8-0.8 9.8-2.6 2.9-6.6 4.4-11.8 2.6-5.2-1.8-5.9-6.6-5.2-9.7 0.8-3.1 2.9-5.6 7.2-7z"/><path class="b" d="m349.9 83.6c0 0 2.3-2.3 6.4-3.6 4-1.3 7.5-1.2 7.5-1.2"/><path class="b" d="m375 78.2c0 0 1.3-0.2 2.4-0.3 1.1-0.1 2.5 0.2 2.5 0.2"/><path class="b" d="m374.1 84.3c0 0 2.2-3.4 6.8-4.4 4.7-1 9.9 2.3 10.9 6.2 0.9 3.8-0.1 8-3.6 10-3.4 2-8 1.4-8 1.4"/><path class="b" d="m376.8 84.3c0 0 1.3-0.3 2.5-0.3 1.6 0 2.6 0.1 2.6 0.1"/><path class="b" d="m358.2 87.1c0 0 1.8-1.1 3.4-1.3 1.5-0.2 2.5-0.2 2.5-0.2"/><path class="b" d="m351.5 90.6l-10.3 5.2"/><path class="b" d="m370.9 89l3.1-0.1"/><path class="d" d="m363.8 88.9c0.1 1.7-0.4 3.1-1 3.1-0.7 0.1-1.3-1.3-1.4-3-0.1-1.7 0.3-3.1 1-3.1 0.7-0.1 1.3 1.3 1.4 3z"/><path class="d" d="m380.8 87.4c0.1 1.7-0.3 3.1-1 3.2-0.7 0-1.3-1.3-1.4-3-0.1-1.8 0.3-3.2 1-3.2 0.7 0 1.3 1.3 1.4 3z"/><path class="a" d="m323.7 99.9c0 0-2.8-4.6-4.2-7.1-1.4-2.4-4-7.4-2.3-12.4 1.7-5 9.9-15.5 13.3-17.8 3.3-2.4 11.6-4.7 22.2-5.6 10.5-0.9 19.5-1.8 23.9-1.1 4.3 0.7 6.1 4 6.7 10.1 0.7 6.1 0 20.4 0 20.4"/><path class="a" d="m17.6 234.9h64.3"/><path class="a" d="m264.4 234.9h77.3"/><path class="a" d="m462.4 234.9h137"/><path class="a" d="m107 234.9h107.4"/><path class="d" d="m224.3 137.3c-0.7 1.4-1.8 2.2-2.4 1.9-0.6-0.3-0.5-1.7 0.2-3.1 0.7-1.4 1.8-2.2 2.4-1.9 0.6 0.3 0.5 1.7-0.2 3.1z"/><path class="d" d="m210.4 130.3c-0.7 1.4-1.8 2.3-2.4 1.9-0.6-0.3-0.5-1.7 0.2-3 0.7-1.4 1.8-2.3 2.4-1.9 0.6 0.3 0.5 1.7-0.2 3z"/><path class="c" d="m208.9 115.5l0.7-1.5c1.2-1.7 3.2-4.4 7.8-5.5 4.5-1.1 15.1-0.8 24.6 0.2 9.4 1 17 2.4 20.2 6.1 3.3 3.6 6.1 16.7 6.3 29.3 0.3 12.6 0.8 54.9 0.8 54.9l-28.9-4c0 0-5.2-21-5-22.9 0.3-1.8 5.1-8.6 5.1-8.6 0 0 2.6 3.3 7.4 2.2 4.9-1.1 8.3-4.1 9.5-5.7 1.2-1.6 1.7-3.5 1.3-5.2-0.4-1.7-1.9-3.9-3.5-5.9-1.6-2.1-3-3-4.9-2.6-1.8 0.4-6.1 2.1-6.1 2.1 0 0-7-7.1-9.3-12.3-2.3-5.2-5.5-17.2-5.5-17.2 0 0 0.9-0.4 1.9-1.1 1-0.7 0.7-2.3 0.7-2.3l-4.1 0.1 0.2-3.5c0 0-2.4 0.5-4.2 1.5-1.8 0.9-3.9 1.9-3.9 1.9z"/><path class="c" d="m205.2 170.4c0 0 3.8 1 9.5 1.9 5.7 0.8 11.4 1 11.4 1 0 0-3.2 2.5-10.7 4.8-5.3 1.6-10.6 1.8-10.6 1.8z"/><path class="c" d="m209.7 119.9c1.9-0.4 4.1-0.4 4.1-0.4l-11 11.4-1.1-0.5 2.3-5 2.3-4.9c0 0 1.5-0.3 3.4-0.6z"/><path class="a" d="m225.7 172.6c0 0-4.2 0.2-13.8-1.1-9.6-1.2-17-3-20.5-6.4-3.5-3.4-3.1-8.1-1-14.2 2.2-6.2 5.3-10.4 10.1-16.7 4.8-6.3 13.8-14.7 13.8-14.7"/><path class="a" d="m205.1 170.8l-1.2 25.1c0 0-23.2-12.9-33.7-18.8-10.6-5.9-36.4-20.5-36.4-20.5"/><path class="a" d="m126.1 162.5c0 0 27.8-21.4 33.9-25.6 6.1-4.2 8.9-5.9 14.4-5.1 5.5 0.9 9.6 2.6 11 2.8 1.4 0.2 14.1 0 14.1 0"/><path class="a" d="m202.5 131.4l-7.2-5"/><path class="a" d="m128 191.4c0 0-33.4-31.8-33.9-33.2-0.4-1.3 0-4.8 2.9-9.9 2.9-5 7.1-7.3 20.7-13.2 13.5-5.9 48.8-19.6 50.1-19.8 1.3-0.3 58 0.2 58 0.2 0 0-1.8 3.3-4.7 3.7-2.8 0.4-10.1-0.3-15.5 1.3-5.4 1.6-15.2 9.5-15.2 9.5"/><path class="a" d="m161.3 231.6l-39.1-28.7 20.9-40.8"/><path class="a" d="m160.5 223.2c0 0.2 0.5 4.2 0.8 6.8 0.3 2.7 0.4 4.8 0.4 4.8"/><path class="a" d="m240.8 195.9c0 0 72.4 8.2 77.1 8.7 4.8 0.6 12.5 1.3 17.2 10.2 4.6 8.9 6.2 19.7 6.2 19.7"/><path class="b" d="m240.5 196c0 0-4.7-20.6-5-23-0.3-2.5 5.1-8.8 5.1-8.8"/><path class="b" d="m231.3 248.3c0 0-0.2-2.1 0.4-5.1 0.7-3 4.4-11.5 4.4-11.5"/><path class="b" d="m225.5 244.8c0 0 0.1-2.3 1.1-7.2 1-4.9 4.5-11.6 4.5-11.6"/><path class="b" d="m219.8 240.9c0 0 0.2-2.3 1.4-6.9 1.2-4.6 4.4-11.4 4.4-11.4"/><path class="b" d="m211.7 234.5l-7.8-38.6c0 0 6.8 7.5 19.1 7.1 12.2-0.4 17.8-7.1 17.8-7.1l-4.8 20.3"/><path class="b" d="m253.3 197.5l-2.6 12.5-5.9 4.4 0.8 3.2"/><path class="b" d="m202.5 234.5l-7.2-17.6 2.3-7.9-4.7-4.7-2-15.3"/><path class="b" d="m149.6 165.8l-20.4 41.7"/><path class="g" d=""/><path class="b" d="m244.2 148.4c0 0 5.7-1.8 7.3-2 1.7-0.3 2.2 0.4 4.1 2.7 1.8 2.3 3.4 5.9 3.5 7.1 0.1 1.1-0.8 3.1-2.7 4.9-1.9 1.8-8 5.9-12.7 4.4-4.6-1.4-5.3-6.4-5.3-6.4"/><path class="a" d="m225.8 115.5h6.8c0 0-0.8 3.4-4.2 3.6-3.9 0.3-6.8 0.1-6.8 0.1"/><path class="b" d="m244.6 156.2c0 0 1.5-1.6 3.7-2.8 2.2-1.2 3.8-1.3 3.8-1.3"/><path class="b" d="m249.5 152.8c0 0 0.4 0.8 0.5 2.3 0 0.8-0.2 2-0.2 2"/><path class="b" d="m222.3 127.5c0 0 3.3 0.9 6.3 3.5 3 2.6 5 5.7 5 5.7"/><path class="b" d="m222.3 132.9c0 0 1.5 0.3 2.8 1.5 1.3 1.2 2.2 2.1 2.2 2.1"/><path class="b" d="m205 142c0 0-0.5-5.3-0.2-5.8 0.3-0.6 5.4-0.6 5.9-1 0.4-0.3 3.9-6.7 3.9-6.7"/><path class="b" d="m211.3 123.2c0 0 0.9 0 1.9 0.4 1 0.4 2 1.1 2 1.1"/><path class="b" d="m208.8 126.6c0 0 0.8 0 2 0.4 1.2 0.5 1.5 0.8 1.5 0.8"/><path class="b" d="m201.8 146.2c0 0 1.5 0.2 2.8 0.7 1.2 0.5 2.1 0.8 2.1 0.8"/><path class="b" d="m296.2 202.5v6.9"/><path class="b" d="m289.3 201.5v9.8"/><path class="h" d="m247.9 250.3c-0.6 0.7-1.4 1-2.3 1-0.7 0-1.5-0.2-2.1-0.8l-4.7-4.2 3.2-5.5 5.7 5.1c1.3 1.1 1.4 3.1 0.2 4.4z"/><path fill-rule="evenodd" class="i" d="m216.5 218l3.3 2.9c-0.5 0.9-1.1 2.1-1.8 3.5q-0.6 1.3-0.9 2.4l-4.8-4.2c-4.2 3.5-9.6 5.7-15.5 5.7-13.4 0-24.3-10.9-24.3-24.3 0-13.3 10.9-24.2 24.3-24.2 13.3 0 24.2 10.9 24.2 24.2 0 5.2-1.7 10-4.5 14zm-1.7-14c0-9.9-8.1-18-18-18-10 0-18.1 8.1-18.1 18 0 10 8.1 18.1 18.1 18.1 9.9 0 18-8.1 18-18.1z"/><path class="a" d="m153.3 120.4l-10.7-4.9"/><path class="a" d="m209.1 115l0.8-1.3c1.2-1.7 2.9-4.1 7.5-5.2 4.5-1.1 15.1-0.8 24.6 0.2 9.4 1 17 2.4 20.2 6.1 3.3 3.6 6.1 16.7 6.3 29.3 0.3 12.6 0.8 54.9 0.8 54.9"/><path class="a" d="m206.3 120.5l-2.3 4.9-2.3 5"/><path class="a" d="m242.1 249.8c0 0-3.3 0.8-6.4 0.4-3.2-0.3-4.4-1.7-4.4-1.7 0 0-1.4 0.2-3.2-0.8-1.8-1-2.6-2.9-2.6-2.9 0 0-1.2-0.2-2.9-1.3-1.6-1-2.8-2.3-2.8-2.6 0-0.2-3.8-2.2-4.2-3.3-0.4-1.1-0.2-4.2 0.7-8.1 1-4 3.4-8.9 5.4-11.4 2.1-2.5 9.6-1.9 16.1-1.2 6.6 0.6 18.6 3.4 19.5 3.2 0.9-0.2 57.1-15.1 57.1-15.1"/><path class="a" d="m238.3 246.4l4.2-6.3c0 0 8.3-0.7 13.4-2.2 5-1.5 9-3.3 9-3.3"/><path class="e" d="m195 6.5c3.3 3.2 5.2 9 5.2 14.5 0 8.9 0 16.8 0 16.8 0 0-9.4 0-19.6 0-4.8 0-9.1-2.5-11.6-5-7.1-7.1-7.1-18.7 0-25.9 7.2-7.2 18.8-7.4 26-0.4z"/><path class="e" d="m178.3 19.8c0 0.4-0.4 0.8-0.9 0.8-0.4 0-0.8-0.4-0.8-0.8 0-0.5 0.4-0.9 0.8-0.9 0.5 0 0.9 0.4 0.9 0.9z"/><path class="e" d="m182.9 19.8c0 0.4-0.4 0.8-0.9 0.8-0.5 0-0.9-0.4-0.9-0.8 0-0.5 0.4-0.9 0.9-0.9 0.5 0 0.9 0.4 0.9 0.9z"/><path class="e" d="m187.4 19.8c0 0.4-0.4 0.8-0.8 0.8-0.5 0-0.9-0.4-0.9-0.8 0-0.5 0.4-0.9 0.9-0.9 0.4 0 0.8 0.4 0.8 0.9z"/><path class="a" d="m97.6 146.7l-5-9.9"/><path class="e" d="m509 65c0-10.2 8.3-18.5 18.5-18.5h29.3c10.2 0 18.5 8.3 18.5 18.5 0 10.2-8.3 18.6-18.5 18.6h-47.8z"/><path class="e" d="m523.5 60.5h36.7"/><path class="e" d="m523.5 69.3h25.4"/><path class="e" d="m579.3 220.7h-37.1v-37.2h37.1z"/><path class="e" d="m572.1 193.3l-13.1 18.2-9.5-9"/><path class="e" d="m585.9 177.5l14.8-14.8"/><path class="e" d="m588.6 183.1h13.1"/><path class="e" d="m580.1 175.1v-13.1"/><path class="a" d="m251.6 87.5l-1.7 14.8-28 5.6"/><path class="a" d="m308.9 106.9c0 0 14.1 2.3 17.1 19.5 2 11.3 3.4 24.8 3.4 24.8"/><path class="b" d="m308.8 106.5l-28.8-6.4"/><path class="a" d="m55.2 206.1c0 0-2-2.5-0.9-5.2 1.5-3.6 5.4-2.2 5.4-2.2 0 0 17.8-28.1 23.4-35 5.6-6.9 10.6-7.9 10.6-7.9"/><path class="a" d="m445.5 127.1c0 0-1.5 4.1-4.8 9.7-2.9 5-5.9 10-10.8 18.6-4.9 8.6-6.9 13.3-6.9 13.3"/><path class="a" d="m519.4 141.3l-6 12.4c0 0-2.8-0.8-3.4 0.5-0.5 1.3-12.9 32.6-12.9 32.6 0 0-13.1-19.3-19.5-26.4-6.4-7.1-12.9-12.8-12.9-12.8l1.6-12.8"/><path class="a" d="m467.8 224.3l3.7-3.8 16.1 14"/><path class="a" d="m533.9 234.7l-12.3-9.8-1.6-2.9c0 0 14.6-48 15-50 0.5-1.9-0.5-4-2.3-5.9-1.3-1.3-3.7-3.6-3.7-3.6l3.3-13.4"/><path class="f" d="m445.4 127.5l20.3 7.3"/></svg>