<svg version="1.2" xmlns="http://www.w3.org/2000/svg" viewBox="0 0 173 120" width="173" height="120"><style>.a{fill:#142947}.b{fill:#ea9315}.c{fill:none;stroke:#2e519e;stroke-linecap:round;stroke-linejoin:round;stroke-width:2}.d{fill:none;stroke:#2e519e;stroke-linecap:round;stroke-linejoin:round}.e{fill:none;stroke:#485eeb;stroke-linecap:round;stroke-linejoin:round}.f{fill:none;stroke:#2e519e;stroke-width:2}.g{fill:none;stroke:#2e519e}</style><path class="a" d="m160.9 50.8l-6.2 55.6v-55.6z"/><path class="a" d="m79.9 36.5l-14.7 11.2h-5.1l9.8-11.4z"/><path class="b" d="m10.8 14l-1 11-8.6 4.5z"/><path class="c" d="m70.5 36.5h84.2v69.9h-119.4v-53.1"/><path class="c" d="m154.9 50.8h17v67.5h-126.6v-11.9"/><path class="d" d="m60.5 47.7h94.4"/><path class="d" d="m141.8 42.2h8.4"/><path class="d" d="m168.8 54l-4.3 4.3"/><path class="d" d="m168.8 58.3l-4.3-4.3"/><path class="d" d="m116.7 97.6h-72v-31.9h72z"/><path class="d" d="m145.9 97.6h-18.2v-41.5h18.2z"/><path class="d" d="m127.9 66.5h17.6"/><path class="d" d="m127.9 77h17.6"/><path class="d" d="m127.9 87.6h17.6"/><path class="e" d="m78.9 65.9v31.3"/><path class="d" d="m44.7 89.6l14.7-11.2 11.1 11 15.1-9 7.8 7.8 15.5-15.1 3.9 6.3 3.9-3.3"/><path class="f" d="m36.7 1.9c0 0 3.9 11 19.1 16 15.3 5.1 29.4 1.2 29.4 1.2l-26.6 30.3c0 0-18 7.7-36.2 0.6-18.2-7-21.2-20.5-21.2-20.5l9.6-15.5z"/><path class="g" d="m49.2 27.5l-14.9 13.3"/><path class="g" d="m35.9 19.1l-14.9 13.3"/></svg>