<svg version="1.2" xmlns="http://www.w3.org/2000/svg" viewBox="0 0 568 105" width="568" height="105"><style>.a{fill:none;stroke:#2e519e;stroke-width:2}.b{fill:none;stroke:#485eeb;stroke-linecap:round}.c{fill:none;stroke:#2e519e;stroke-linecap:round}.d{fill:none;stroke:#2e519e;stroke-linecap:round;stroke-linejoin:round;stroke-width:2}</style><path class="a" d="m548.4 91.2c0 7.1-5.8 12.8-12.8 12.8h-43.1c-7 0-12.7-5.7-12.7-12.8 0-7 5.7-12.7 12.7-12.7h0.2v-0.4c0-10.3 8.5-18.7 18.7-18.7 10.3 0 18.8 8.4 18.8 18.7v0.4h5.4c7 0 12.8 5.7 12.8 12.7z"/><path class="b" d="m528.3 69.6h1c6.2 0 11.4 4.5 12.5 10.3"/><path class="c" d="m479.6 93.2c-3.9-2.1-6.2-5.8-6.2-10.5 0-7 5.8-12.8 12.8-12.8h0.2v-0.4c0-10.3 8.4-18.7 18.7-18.7 7.9 0 14.6 4.9 17.4 11.8"/><path class="a" d="m8.7 11.3h3v-0.2c0-5.5 4.5-10 10-10 5.5 0 10 4.5 10 10v0.2h0.1c3.7 0 6.8 3.1 6.8 6.8 0 3.8-3.1 6.8-6.8 6.8h-23.1c-3.7 0-6.8-3-6.8-6.8 0-3.7 3.1-6.8 6.8-6.8z"/><path class="d" d="m560.4 36.4l3.4-3.7 3.3 3.4"/><path class="d" d="m563.8 47.7v-14.5"/><path class="d" d="m549.5 38.7l-3.3 3.4-3.4-3.7"/><path class="d" d="m546.2 27.1v14.5"/></svg>