<svg version="1.2" xmlns="http://www.w3.org/2000/svg" viewBox="0 0 579 396" width="579" height="396"><style>.a{fill:#142947}.b{fill:#485eeb}.c{fill:none;stroke:#2e519e;stroke-linecap:round;stroke-linejoin:round;stroke-width:2}.d{fill:none;stroke:#2e519e;stroke-linecap:round;stroke-linejoin:round}.e{fill:none;stroke:#2e519e;stroke-linecap:round;stroke-linejoin:round;stroke-width:1.5}.f{fill:none;stroke:#485eeb;stroke-linecap:round;stroke-linejoin:round}.g{fill:none;stroke:#2e519e;stroke-width:2}.h{fill:none;stroke:#2e519e}</style><path class="a" d="m175.8 310.7h48.1l2.7 12.6c0 0 56.3 0.4 76.6 2.2 20.2 1.8 39.7 7.5 50.1 15.4 10.3 7.9 15.5 19.4 16.5 28.1 1 8.8 1.9 16 1.9 19.1 0 3-0.7 6.5-0.7 6.5h-265.8c0 0 1.6-9.8 3.6-17.9 2-8.1 3.9-14.5 3.9-14.5 0 0 12.2-1.1 23.5-9.2 11.3-8.1 20.7-18.2 26.4-25.7 5.8-7.5 13.2-16.6 13.2-16.6z"/><path class="a" d="m201.4 65.9c0 0-1.6-1.8-2.8-4.3-1.2-2.4-4.1-4.3-4.1-4.3 0 0 3.7 0.6 5.8 1.6 2.2 1 7.1 3.8 10.8 9 3.6 5.2 7 12.1 8.7 19.2 1.7 7.1 1.3 15.2 0.8 21-0.5 5.7 0.1 12 3.4 18 3.2 6.1 17 15.8 17 15.8l-48.3 0.3-0.2-5.1c0 0 7.7-0.8 12-2.2 4.3-1.4 8.6-4.7 11.3-11 2.7-6.3 2.4-13.5 0.9-24.9-1.5-11.3-4-16.5-7-23.1-3.5-7.7-8.3-10-8.3-10z"/><path class="a" d="m112.7 145.2c0 0-1.3-7.6 2.6-13.7 3.9-6.2 12.6-13.6 15.2-20.8 2.5-7.3 1.2-18.1 2.9-25.2 1.8-7.2 2.7-11 10.1-18.9 7.4-8 12.6-12.1 19.7-14 7.2-1.9 18.3-0.6 23.4 1.1 5.1 1.6 14 6.4 14 14.5 0 8.1-3.6 16.4-13.6 18.9-9.9 2.5-16.4 1.9-18.7 2.6-2.2 0.7-5.5 2.9-5.5 2.9 0 0-3.5-4.3-9-2.6-5.5 1.6-7.5 4.2-6.8 9.4 0.7 5.2 2.6 8 5.5 9.2 2.8 1.2 5.1 2.2 5.1 2.2 0 0 5.5 5.1 5.1 12.3-0.4 7.3-3.2 13-5.1 16.6-1.9 3.6-4.3 5.3-4.3 5.3 0 0-14.9-1.6-22.2-1.2-7.2 0.4-18.4 1.4-18.4 1.4z"/><path class="a" d="m182.4 133.1c4.9 1.9 9.7 2.6 9.7 2.6 0 0-0.4 2.2-0.4 4.3 0 2.1 0.4 5 0.4 5 0 0-5.4-1.9-10.9-5.9-5.4-3.9-6.4-10-6.4-10 0 0 2.4 2 7.6 4z"/><path class="b" d="m194.6 96c0 0.7-0.5 1.2-1.2 1.2-0.6 0-1.2-0.5-1.2-1.2 0-0.7 0.6-1.2 1.2-1.2 0.7 0 1.2 0.5 1.2 1.2z"/><path class="b" d="m210.9 96c0 0.7-0.5 1.2-1.2 1.2-0.6 0-1.2-0.5-1.2-1.2 0-0.7 0.6-1.2 1.2-1.2 0.7 0 1.2 0.5 1.2 1.2z"/><path class="c" d="m224.6 311.5c0 0 1 10.7 1.5 16.2 0.5 5.6 1 11.3 1 11.3"/><path class="c" d="m185.8 338.6c0 0 96.7 0.8 118 3.5 20.8 2.5 35.7 7.2 46.9 23.6 9.1 13.3 8 28.1 8 28.1"/><path class="c" d="m225.8 323.6c0 0 58.9-0.2 82.3 2.2 23.3 2.5 49.7 10.2 57.5 29.9 7.8 19.7 6.3 38.1 6.3 38.1"/><path class="c" d="m246.9 235.2l6.8 15.4"/><path class="c" d="m192.2 136.5c0 0-0.6 3.9-0.1 7.6 0.5 3.8 1.7 4.7 2.7 5.2 1 0.5 11.6 2.7 22.7 3.1 11 0.4 22.4-0.4 30.5 7.7 8.1 8 14.3 17.2 18.3 23.6 4.1 6.4 8.3 12.9 8.3 12.9"/><path class="c" d="m237.1 193.5c0 0 13.4 13.1 13.1 22.8-0.4 9.6-4.8 23.6-8.9 37.1-4 13.4-14.5 48.5-14.5 48.5"/><path class="c" d="m181.4 302.2h57.9"/><path class="c" d="m354.3 315.5c-2.6 3.3-11.5 6-22.5 5.3-11-0.7-18-9.5-18-9.5"/><path class="c" d="m237.1 311c0 0 25.8-91.1 28.8-101.8 3-10.7 6.8-11.9 11.5-11.9 4.8 0 115 0 122.6 0 7.6 0 10.8 1.9 9.6 6.4-1.1 4.5-24.1 87.2-27 96.4-2.9 9.2-5.6 11.6-8.5 11.6-3.6 0-17.1 0-17.1 0"/><path class="d" d="m349.4 279.1c0 0-1 4.6-4.1 12.6-3 7.9-6.9 18.3-6.9 18.3"/><path class="d" d="m354.3 278.4c0 0-0.4 2.6-2.2 9-1.9 6.3-5.3 17.7-5.3 17.7"/><path class="d" d="m358.2 280.8c0 0-0.5 2.6-1.4 7.4-0.8 4.9-3.4 14.7-3.4 14.7"/><path class="c" d="m200.4 65c0 0 8.6 5.3 12.6 18.6 4.1 13.3 5.7 28.1 3.6 37.6-2.1 9.5-7.9 13.9-16.9 14.8-14.4 1.5-25.2-7.4-25.2-7.4"/><path class="d" d="m218.1 152.7c0 0 5 9.5 3.9 20.4-1.1 10.9-8.6 23.2-23.7 23.6-15.2 0.4-28.7-6.4-40.4-16.4-9-7.7-14.8-17.6-17.2-23.9-2.2-5.3-3.7-11.5-3.7-11.5"/><path class="c" d="m68 245.7c2.2-8.5 5.1-17.1 10.4-36.4 6.9-25.5 14.6-39.1 20.8-48.5 6.1-9.4 21.8-15.7 21.8-15.7"/><path class="c" d="m135 215.2c0 0.7-10.9 48.4-13.1 61"/><path class="c" d="m128.6 245.9c0 0 3.7 7.1 5.2 10.7 1.6 3.7 2.1 5 2.1 5l-2.2 11.1"/><path class="c" d="m174.8 311.2h154.8"/><path class="c" d="m105 393.8c0 0 0.4-3.2 2.1-11.2 1.7-7.9 6.1-21.2 6.1-21.2"/><path class="c" d="m1.9 394.7h396.7"/><path class="c" d="m164.8 260.3c0 0 18.6-15.2 20.2-18.3 1.5-3.1 5.2-29.2 8.6-30.7 3.4-1.6 4.6 2 4.6 8.2 0 6.3-0.9 9.2 0.6 9.2 1.6 0 13.3-11.1 19.5-16.8 6.3-5.6 10.9-9.3 15.4-7.2 4.6 2.1 6.3 7.8 5.8 13.5-0.5 5.7-5.4 12.7-10.7 18.6-5.2 5.9-22.5 25-30.6 33.8-8.2 8.8-16.8 18-16.8 18"/><path class="d" d="m211 226.8c0 0 23.1-21.8 23.1-21.1"/><path class="d" d="m215.4 229.9l21.9-19.8"/><path class="d" d="m220.4 234.4l18.4-16.2"/><path class="d" d="m205.6 232.3l7.3 10.7"/><path class="d" d="m330.2 232.8c5.2-0.7 7.7 4.3 6.8 7.8-0.8 3.4-3.7 5.7-7.9 5.2-4.3-0.5-5.6-5.2-5-7.1 0.7-1.9 2.4-5.4 6.1-5.9z"/><path class="d" d="m202.2 92.8c0 0 1.2 3.6 2.7 6.5 1.6 3 2.3 4.3 1.4 6.1-0.9 1.8-2.7 2.7-2.7 2.7"/><path class="d" d="m202.7 113.4c0 0-1.7 0.4-4.4-0.5-2.7-0.8-4-3.8-4-3.8"/><path class="d" d="m151.6 99.2c0 0 1.4-2.3 3.9-1.7 3.3 0.7 4.6 4.2 4.6 4.2 0 0-3.1-0.9-4.3 0.3-0.8 0.8-1 1.5-1 1.5"/><path class="d" d="m190 88.8c0 0 1.6-0.4 2.8-0.6 1.3-0.3 2.8-0.3 2.8-0.3"/><path class="d" d="m206.8 87.2c0 0 1-0.1 1.7-0.1 0.8 0 1.5 0.1 1.5 0.1"/><path class="c" d="m192.1 56.1c0 0 13.2 1.8 21.3 14.9 8.1 13.1 8.1 24.1 7.6 33.6-0.5 9.5-0.6 18 7 25.7 7.6 7.8 14.7 11.8 14.7 11.8 0 0-14.1 0.5-27.4 0.3-10.5-0.1-23.1 0.2-23.1 0.2"/><path class="d" d="m81.3 249.7l1.7-2.4"/><path class="d" d="m109.1 258.7l2-2.4"/><path class="d" d="m114 226.1l2.2 2.1"/><path class="d" d="m95.9 202.5l1.5 1.3"/><path class="d" d="m128.6 183.8l2-2"/><path class="d" d="m141.1 197.1l0.7-2.1"/><path class="d" d="m156.2 206.8l3.5-2.3"/><path class="d" d="m142.6 228.3l3.6 3.8"/><path class="d" d="m165.3 231.3l2.1-2.6"/><path class="d" d="m140.8 247.7l1.3 1.5"/><path class="d" d="m154.7 300l3.2-1.8"/><path class="d" d="m155.5 319.1l3.4-1.4"/><path class="d" d="m193.9 281.7l3.3-2.3"/><path class="d" d="m223.4 265.4l2.9-2.7"/><path class="d" d="m215.6 288.9l2.6 2.1"/><path class="d" d="m218.7 193.7l2.2 2.5"/><path class="d" d="m184.6 210.9l1.4 1.7"/><path class="d" d="m246.8 198.3l3.7 0.9"/><path class="d" d="m259.6 183.5l0.7-1.7"/><path class="d" d="m234.4 162.9l2.4-3.9"/><path class="d" d="m127.4 157.6l2.2-2.9"/><path class="c" d="m105.2 165.9l2.7 2.7"/><path class="c" d="m23.8 393.8c0 0-1-7.7-1.2-12.9-0.2-5.2 1-11.6 1-11.6h75.5c0 0 1.6 5.9 1.4 13.3-0.2 7.4-0.8 11.6-0.8 11.6"/><path class="c" d="m100.5 382.6h-77.7"/><path class="e" d="m53.1 369.2c0 0 7.4-22.3 10.2-29.7 2.7-7.4 4.7-13.1 4.7-13.1"/><path class="c" d="m53.9 332.1c-6.2-1.6-15.4-5.6-26.4-13.2-11-7.6-21.3-21.9-23.2-33.3-1.8-11.4 7.6-16.7 16.5-13.8 8.8 3 22.3 17.8 29.9 29.5 7.6 11.8 13.9 33.3 13.9 33.3 0 0-4.4-1-10.7-2.5z"/><path class="c" d="m156.7 277c2.3 4.1 1 13.6-8.3 21.6-9.3 7.9-24.7 15.2-42.5 20.5-17.8 5.4-38.2 9.2-38.2 9.2 0 0 3.5-12.3 17.4-26.3 13.9-14 31.5-24.1 44.2-27.9 12.7-3.8 23.3-4.2 27.4 2.9z"/><path class="c" d="m54.8 292.7c-7.8-12.6-15.3-26.4-18.3-42.1-3-15.7 2.5-33 14.7-30.4 12.2 2.6 14.9 14.7 18.8 39.4 3.9 24.7-0.1 54.5-0.1 54.5 0 0-7.3-8.8-15.1-21.4z"/><path class="e" d="m69.9 314.1c0 0 0.3 3.5 0 5.9-0.4 2.4-0.7 4.1-0.7 4.1"/><path class="d" d="m69.5 311.5c0 0-5.4-17.1-10.8-33.5-5.4-16.4-16.6-54.8-16.6-54.8"/><path class="d" d="m61.2 285.8c0 0 0.7-4.3 2.1-8.8 1.3-4.5 6.7-17.4 6.7-17.4"/><path class="d" d="m39.5 261.8c0 0 6.3 5.5 11.2 10.4 4.9 4.8 9.3 9.8 9.3 9.8"/><path class="d" d="m63.6 332.7c0 0-9.3-9.6-20.3-21.4-11-11.7-35.2-37.4-35.2-37.4"/><path class="d" d="m48.2 316.7c0 0-3.7-7.1-8-16.1-4.9-10.1-8.8-21.5-8.8-21.5"/><path class="d" d="m14.3 306.5c0.5 0 6.5 0 14.9 1.2 8.5 1.2 12.5 2.3 12.5 2.3"/><path class="d" d="m70 327c0 0 13.9-8.4 26.4-15.5 12.6-7.1 35.4-19 44.9-24.5 9.5-5.5 15.1-8.1 15.1-8.1"/><path class="d" d="m100.7 289.4c0 0-4.8 10.4-10 18.1-5.3 7.8-9.5 12.6-9.5 12.6"/><path class="d" d="m62.5 229.4c0 0.5-2.9 10.8-5.2 16.7-2.4 5.9-4.8 11.6-4.8 11.6"/><path class="d" d="m133.6 273c0 0.6-10.3 14-15.4 19.9-5.1 5.8-13 13.4-13 13.4"/><path class="d" d="m149.7 296.8c0 0-8 1.4-15.8 1.4-7.7 0-14.2 0.7-14.2 0.7"/><path class="c" d="m163.7 94.2c0 0-3.2-4.1-7.5-4.4-4.3-0.2-8.8 1.7-9.1 8.1-0.4 6.4 2.5 9.2 5.4 10.7 2.8 1.5 4.5 1.5 4.5 1.5 0 0 4.9 4.7 5.4 11 0.8 7.9-1.2 12.9-3.6 17.5-2.5 4.7-5 6.4-5 6.4 0 0-19.8-1.1-27.5-0.5-7.8 0.6-14.2 0.9-14.2 0.9 0 0-1.2-10.4 5.8-18.7 7-8.3 12.2-11.7 13.4-20.7 1.2-9-1-21.4 7.6-33.7 8.7-12.3 13.9-15.7 21.3-18.4 3.8-1.3 9.3-2.3 18.7-1.6 9.5 0.8 19.9 5.3 21.3 13.6 1.5 8.2-0.2 14.8-9.2 19.5-9 4.8-18.1 3.9-22 4.4-4 0.5-6.3 3.3-6.3 3.3"/><path class="c" d="m137.2 271.7l20.5-22.5 27.4 46.3c-3.7 5.9-10.7 16.2-16.7 23.8-8.2 10.3-10 12.9-22 25.2-12.1 12.2-32 21.4-49.3 14.8-17.3-6.5-23.1-16.9-25.3-20.2-1.1-1.7-2.8-4.7-4.8-9.8-1.8-4.8-3.6-11.7-4.8-21.8q-0.2-1.5-0.3-3.1"/><path class="c" d="m329.1 312.9c0 0 4.5-8.6 8.6-18.1 4.1-9.5 8.8-16.6 14.4-16.8 5.6-0.1 9.1 2.8 8.6 13-0.5 10.2-3.9 21.2-6.4 24.5"/><path class="c" d="m577.6 318h-136.1"/><path class="c" d="m451.9 317.8v-49.6h13.7v49.6"/><path class="c" d="m474.7 317.8v-74.4h13.7v74.4"/><path class="c" d="m497.5 317.8v-36.1h13.7v36.1"/><path class="c" d="m520.3 317.8v-26.7h13.7v26.7"/><path class="c" d="m543.1 317.8v-56.6h13.7v56.6"/><path class="c" d="m341.3 19.4v-17.5h62.9l16.3 14v13"/><path class="c" d="m421.7 61c0 0 0 4.6-2.1 10.6-1.9 5.4-3.9 8.6-3.9 8.6"/><path class="c" d="m413.7 82.7c0 0-3.1 4.9-6.2 8.2-3.1 3.3-7.6 7-7.6 7h-79.6c0 0 6.4-4.1 12.2-12.7 3.1-4.4 5.7-10.7 5.7-10.7"/><path class="c" d="m420.5 15.9h-16.3v-14"/><path class="f" d="m378 39.2h19.6"/><path class="f" d="m375.5 48.5h22.1"/><path class="f" d="m380.7 58.8h-8.7"/><path class="c" d="m438.8 44.9c0 8.9-7.2 16.1-16 16.1-8.9 0-16.1-7.2-16.1-16.1 0-8.8 7.2-16 16.1-16 8.8 0 16 7.2 16 16z"/><path class="c" d="m433.9 56.3l15.6 15.1"/><path class="a" d="m366.7 74.2l-34.2 11c0 0 1.8-1.9 3.5-5.2 1.8-3.3 2.2-5.5 2.2-5.5z"/><path class="d" d="m426.7 29.7c0 0 1.2 9.7 0.8 16.1-0.5 8.9-1.7 14.8-1.7 14.8"/><path class="g" d="m287.5 73.4v-59.3c0 0 14.2 0 15.9 0 1.8 0 2.5 1.8 3.1 2.8 0.6 0.9 1.8 2.5 3.7 2.5 2 0 57.9 0 59.4 0 1.6 0 2.2 1.2 2.2 2.3 0 1.2 0 3.3 0 3.3"/><path class="g" d="m287.5 74.2l15.5-49h79.3l-15.6 49z"/><path class="h" d="m327.3 49.4c0 1.2-1 2.2-2.2 2.2-1.3 0-2.3-1-2.3-2.2 0-1.2 1-2.2 2.3-2.2 1.2 0 2.2 1 2.2 2.2z"/><path class="h" d="m339.2 49.4c0 1.2-1 2.2-2.3 2.2-1.2 0-2.2-1-2.2-2.2 0-1.2 1-2.2 2.2-2.2 1.3 0 2.3 1 2.3 2.2z"/><path class="h" d="m351 49.4c0 1.2-1 2.2-2.2 2.2-1.3 0-2.3-1-2.3-2.2 0-1.2 1-2.2 2.3-2.2 1.2 0 2.2 1 2.2 2.2z"/></svg>