<svg version="1.2" xmlns="http://www.w3.org/2000/svg" viewBox="0 0 581 121" width="581" height="121"><defs><linearGradient id="P" gradientUnits="userSpaceOnUse"/><linearGradient id="g1" x1="481.3" y1="147.3" x2="142.1" y2="-191.8" href="#P"><stop stop-color="#0aa9be"/><stop offset="1" stop-color="#fcba10"/></linearGradient><linearGradient id="g2" x1="461.2" y1="322.8" x2="94.3" y2="-44" href="#P"><stop stop-color="#0aa9be"/><stop offset="1" stop-color="#fcba10"/></linearGradient></defs><style>.a{fill:url(#g1)}.b{fill:url(#g2)}.c{fill:#fff}</style><path class="a" d="m428.3 103.5c15-19.6 27.7-40.9 36.5-63.9 8.7-22.5 30.5-38.5 56-38.5 33.4 0 60.5 27.3 60 60.8-0.4 33-27.9 59.2-60.8 59.2h-105.3z"/><path class="b" d="m48 0.6h439.5c-13.7 7.6-24.6 19.9-30.4 35-4.2 10.8-9.4 21.6-15.6 32.3-9.6 16.5-26.7 27.5-45.8 28.2q-1.1 0-2.2 0h-345.5c-26.4 0-47.8-21.4-47.8-47.8 0-26.3 21.4-47.7 47.8-47.7z"/><path class="c" d="m521.5 17.6c23.4 0 42.5 19 42.5 42.5 0 23.5-19.1 42.5-42.5 42.5-23.5 0-42.5-19-42.5-42.5 0-23.5 19-42.5 42.5-42.5z"/></svg>