<svg version="1.2" xmlns="http://www.w3.org/2000/svg" viewBox="0 0 553 406" width="553" height="406"><defs><clipPath clipPathUnits="userSpaceOnUse" id="cp1"><path d="m0 406v-427.53h603.28v427.53zm355.79-355.38c-15.79 0-28.59 12.8-28.59 28.59v102.18c0 15.79 12.8 28.59 28.59 28.59h96.75c15.79 0 28.59-12.8 28.59-28.59v-102.18c0-15.79-12.8-28.59-28.59-28.59z"/></clipPath><linearGradient id="P" gradientUnits="userSpaceOnUse"/><linearGradient id="g1" x1="227.3" y1="380.7" x2="104.9" y2="447.4" href="#P"><stop stop-color="#e5185a"/><stop offset="1" stop-color="#eb1e27"/></linearGradient><linearGradient id="g2" x1="223.1" y1="373.4" x2="100.9" y2="440" href="#P"><stop stop-color="#e5185a"/><stop offset="1" stop-color="#eb1e27"/></linearGradient><linearGradient id="g3" x1="206.5" y1="285.9" x2="57.6" y2="367.1" href="#P"><stop stop-color="#e5185a"/><stop offset="1" stop-color="#eb1e27"/></linearGradient><linearGradient id="g4" x1="193" y1="308.8" x2="68" y2="376.9" href="#P"><stop stop-color="#e5185a"/><stop offset="1" stop-color="#eb1e27"/></linearGradient><linearGradient id="g5" x1="196.2" y1="309.1" x2="69.6" y2="378.1" href="#P"><stop stop-color="#e5185a"/><stop offset="1" stop-color="#eb1e27"/></linearGradient><linearGradient id="g6" x1="208.6" y1="303.5" x2="68.9" y2="379.7" href="#P"><stop stop-color="#e5185a"/><stop offset="1" stop-color="#eb1e27"/></linearGradient><linearGradient id="g7" x1="227.6" y1="311.1" x2="81.3" y2="390.9" href="#P"><stop stop-color="#e5185a"/><stop offset="1" stop-color="#eb1e27"/></linearGradient><linearGradient id="g8" x1="189.1" y1="285.7" x2="53.9" y2="359.4" href="#P"><stop stop-color="#e5185a"/><stop offset="1" stop-color="#eb1e27"/></linearGradient><linearGradient id="g9" x1="200.3" y1="299.9" x2="65.2" y2="373.6" href="#P"><stop stop-color="#e5185a"/><stop offset="1" stop-color="#eb1e27"/></linearGradient><linearGradient id="g10" x1="211.4" y1="313.7" x2="76.2" y2="387.4" href="#P"><stop stop-color="#e5185a"/><stop offset="1" stop-color="#eb1e27"/></linearGradient><linearGradient id="g11" x1="189.5" y1="295.2" x2="56.5" y2="367.8" href="#P"><stop stop-color="#e5185a"/><stop offset="1" stop-color="#eb1e27"/></linearGradient><linearGradient id="g12" x1="192.6" y1="300.4" x2="59.5" y2="373" href="#P"><stop stop-color="#e5185a"/><stop offset="1" stop-color="#eb1e27"/></linearGradient><linearGradient id="g13" x1="200.3" y1="308.9" x2="67.3" y2="381.4" href="#P"><stop stop-color="#e5185a"/><stop offset="1" stop-color="#eb1e27"/></linearGradient><linearGradient id="g14" x1="202.6" y1="317.5" x2="69.4" y2="390.1" href="#P"><stop stop-color="#e5185a"/><stop offset="1" stop-color="#eb1e27"/></linearGradient><linearGradient id="g15" x1="203.3" y1="314" x2="70.3" y2="386.6" href="#P"><stop stop-color="#e5185a"/><stop offset="1" stop-color="#eb1e27"/></linearGradient><linearGradient id="g16" x1="214.8" y1="328.6" x2="81.7" y2="401.1" href="#P"><stop stop-color="#e5185a"/><stop offset="1" stop-color="#eb1e27"/></linearGradient><linearGradient id="g17" x1="211.9" y1="323.7" x2="78.9" y2="396.2" href="#P"><stop stop-color="#e5185a"/><stop offset="1" stop-color="#eb1e27"/></linearGradient><linearGradient id="g18" x1="214.9" y1="330.7" x2="81" y2="403.7" href="#P"><stop stop-color="#e5185a"/><stop offset="1" stop-color="#eb1e27"/></linearGradient><linearGradient id="g19" x1="191.8" y1="303.1" x2="58.3" y2="375.9" href="#P"><stop stop-color="#e5185a"/><stop offset="1" stop-color="#eb1e27"/></linearGradient><linearGradient id="g20" x1="185.3" y1="285.6" x2="49.6" y2="359.6" href="#P"><stop stop-color="#e5185a"/><stop offset="1" stop-color="#eb1e27"/></linearGradient><linearGradient id="g21" x1="179.3" y1="274" x2="41" y2="349.5" href="#P"><stop stop-color="#e5185a"/><stop offset="1" stop-color="#eb1e27"/></linearGradient><linearGradient id="g22" x1="-26.8" y1="248.3" x2="68.1" y2="248.3" href="#P"><stop stop-color="#e5185a"/><stop offset="1" stop-color="#eb1e27"/></linearGradient><linearGradient id="g23" x1="457.3" y1="10.3" x2="506.6" y2="-17.9" href="#P"><stop stop-color="#e5185a"/><stop offset="1" stop-color="#eb9322"/></linearGradient><linearGradient id="g24" x1="502.7" y1="35.7" x2="587.4" y2="96.7" href="#P"><stop stop-color="#e5185a"/><stop offset="1" stop-color="#eb1e27"/></linearGradient><linearGradient id="g25" x1="502.3" y1="47.4" x2="579.1" y2="102.8" href="#P"><stop stop-color="#e5185a"/><stop offset="1" stop-color="#eb1e27"/></linearGradient><linearGradient id="g26" x1="467.8" y1="34.2" x2="603.5" y2="132.1" href="#P"><stop stop-color="#e5185a"/><stop offset="1" stop-color="#eb1e27"/></linearGradient><linearGradient id="g27" x1="465.3" y1="33.9" x2="601.1" y2="131.7" href="#P"><stop stop-color="#e5185a"/><stop offset="1" stop-color="#eb1e27"/></linearGradient><linearGradient id="g28" x1="462.9" y1="33.5" x2="598.7" y2="131.4" href="#P"><stop stop-color="#e5185a"/><stop offset="1" stop-color="#eb1e27"/></linearGradient><linearGradient id="g29" x1="460.5" y1="33.2" x2="596.3" y2="131" href="#P"><stop stop-color="#e5185a"/><stop offset="1" stop-color="#eb1e27"/></linearGradient><linearGradient id="g30" x1="458" y1="32.8" x2="593.7" y2="130.7" href="#P"><stop stop-color="#e5185a"/><stop offset="1" stop-color="#eb1e27"/></linearGradient><linearGradient id="g31" x1="455.4" y1="32.4" x2="591.2" y2="130.3" href="#P"><stop stop-color="#e5185a"/><stop offset="1" stop-color="#eb1e27"/></linearGradient><linearGradient id="g32" x1="452.4" y1="37.2" x2="586.8" y2="134.1" href="#P"><stop stop-color="#e5185a"/><stop offset="1" stop-color="#eb1e27"/></linearGradient></defs><style>.a{fill:url(#g1)}.b{fill:url(#g2)}.c{fill:url(#g3)}.d{fill:url(#g4)}.e{fill:url(#g5)}.f{fill:url(#g6)}.g{fill:url(#g7)}.h{fill:url(#g8)}.i{fill:url(#g9)}.j{fill:url(#g10)}.k{fill:url(#g11)}.l{fill:url(#g12)}.m{fill:url(#g13)}.n{fill:url(#g14)}.o{fill:url(#g15)}.p{fill:url(#g16)}.q{fill:url(#g17)}.r{fill:url(#g18)}.s{fill:url(#g19)}.t{fill:url(#g20)}.u{fill:url(#g21)}.v{fill:url(#g22)}.w{fill:none}.x{fill:url(#g23)}.y{fill:url(#g24)}.z{fill:url(#g25)}.A{fill:url(#g26)}.B{fill:url(#g27)}.C{fill:url(#g28)}.D{fill:url(#g29)}.E{fill:url(#g30)}.F{fill:url(#g31)}.G{fill:url(#g32)}</style><g clip-path="url(#cp1)"><path class="a" d="m105 428.1l-73.4-12.7c-0.3 0-0.4-0.2-0.4-0.5l16.2-93.9c0.1-0.2 0.3-0.4 0.6-0.4l14.7 2.6c0.2 0 0.4 0.3 0.3 0.5 0 0.3-0.2 0.4-0.5 0.4l-14.2-2.5-16.1 93 72.5 12.5 16.1-93-15.1-2.6c-0.2 0-0.4-0.2-0.4-0.5 0.1-0.2 0.3-0.4 0.6-0.3l15.5 2.6c0.2 0.1 0.4 0.3 0.3 0.6l-16.2 93.8c0 0.3-0.3 0.5-0.5 0.4z"/><path class="b" d="m100.6 421.8l-62.7-10.8c-0.3 0-0.4-0.3-0.4-0.5l14.4-83.2c0-0.3 0.3-0.4 0.5-0.4l10.4 1.8c0.2 0.1 0.4 0.3 0.4 0.5-0.1 0.3-0.3 0.5-0.6 0.4l-9.9-1.7-14.2 82.3 61.8 10.7 14.2-82.3-10.8-1.9c-0.2 0-0.4-0.3-0.3-0.5 0-0.3 0.3-0.4 0.5-0.4l11.2 2c0.2 0 0.4 0.2 0.4 0.5l-14.4 83.2c-0.1 0.2-0.3 0.4-0.5 0.3z"/><path class="c" d="m64.7 357.2c-2.7-0.5-5-2.4-5.9-5 0-0.2 0.1-0.5 0.3-0.6 0.2-0.1 0.5 0.1 0.6 0.3 0.8 2.3 2.8 4 5.2 4.4 3.6 0.6 7.1-1.8 7.7-5.4 0.6-3.7-1.8-7.1-5.4-7.8-2.7-0.4-5.4 0.8-6.9 3.1-0.1 0.2-0.4 0.3-0.6 0.1-0.2-0.1-0.3-0.4-0.1-0.6 1.6-2.6 4.6-4 7.7-3.5 4.1 0.7 6.9 4.7 6.2 8.8-0.7 4.1-4.6 6.9-8.8 6.2z"/><path class="d" d="m66.4 377.7q-0.2 0-0.3-0.2c-0.2-0.2-0.1-0.4 0.1-0.6q0.6-0.4 1-0.9c0.2-0.2 0.5-0.2 0.7-0.1 0.2 0.2 0.2 0.5 0 0.7q-0.5 0.6-1.2 1-0.1 0.2-0.3 0.1z"/><path class="e" d="m68.6 375.1q-0.1 0-0.1 0c-0.3-0.2-0.3-0.4-0.2-0.7q0.4-0.8 0.6-1.8c0.2-1.3 0-2.7-0.6-4-0.1-0.2 0-0.5 0.2-0.6 0.2-0.1 0.5 0 0.6 0.2 0.7 1.5 0.9 3 0.6 4.6q-0.1 1.1-0.6 2c-0.1 0.2-0.3 0.3-0.5 0.3z"/><path class="f" d="m61 379c-4.2-0.7-6.9-4.7-6.2-8.8 0.7-4.1 4.6-6.9 8.8-6.2 1.5 0.3 3 1 4.1 2.2 0.2 0.2 0.2 0.4 0 0.6-0.2 0.2-0.5 0.2-0.7 0-0.9-1-2.2-1.7-3.6-1.9-3.6-0.6-7.1 1.8-7.7 5.4-0.7 3.7 1.8 7.2 5.4 7.8 1.3 0.2 2.7 0 3.9-0.5 0.2-0.1 0.5 0 0.6 0.2 0.1 0.3 0 0.5-0.3 0.6-1.3 0.6-2.8 0.8-4.3 0.6z"/><path class="g" d="m57.2 400.7c-4.1-0.7-6.9-4.6-6.2-8.7 0.4-2.4 1.9-4.4 4-5.5 0.2-0.1 0.5 0 0.6 0.2 0.1 0.2 0 0.5-0.2 0.6-1.9 1-3.1 2.7-3.5 4.8-0.6 3.6 1.8 7.1 5.5 7.7 3.6 0.7 7.1-1.8 7.7-5.4 0.5-2.9-0.9-5.7-3.4-7-0.3-0.2-0.3-0.4-0.2-0.7 0.1-0.2 0.4-0.3 0.6-0.1 2.9 1.5 4.4 4.7 3.9 7.9-0.7 4.2-4.7 7-8.8 6.2z"/><path class="h" d="m65.6 351.5q-0.2-0.1-0.3-0.2l-1.9-2.7c-0.1-0.2-0.1-0.4 0.1-0.6 0.2-0.1 0.5-0.1 0.6 0.1l1.6 2.3 4.5-3.2c0.2-0.1 0.5-0.1 0.7 0.1 0.1 0.2 0.1 0.5-0.1 0.7l-4.9 3.4q-0.2 0.1-0.3 0.1z"/><path class="i" d="m61.7 373.9q-0.2 0-0.3-0.2l-1.9-2.6c-0.1-0.2-0.1-0.5 0.1-0.6 0.2-0.2 0.5-0.1 0.7 0.1l1.6 2.2 4.5-3.1c0.2-0.2 0.4-0.1 0.6 0.1 0.1 0.2 0.1 0.5-0.1 0.6l-4.9 3.4q-0.1 0.2-0.3 0.1z"/><path class="j" d="m57.9 395.9q-0.2-0.1-0.3-0.2l-1.9-2.7c-0.1-0.2-0.1-0.4 0.1-0.6 0.3-0.1 0.5-0.1 0.7 0.1l1.6 2.3 4.5-3.2c0.2-0.1 0.5-0.1 0.6 0.1 0.1 0.2 0.1 0.5-0.1 0.7l-4.9 3.4q-0.1 0.1-0.3 0.1z"/><path class="k" d="m92 351l-11.8-2c-0.2 0-0.4-0.3-0.4-0.5 0.1-0.3 0.3-0.4 0.6-0.4l11.7 2.1c0.3 0 0.4 0.2 0.4 0.5-0.1 0.2-0.3 0.4-0.5 0.3z"/><path class="l" d="m95.9 357.1l-16.6-2.9c-0.2 0-0.4-0.3-0.4-0.5 0.1-0.3 0.3-0.4 0.6-0.4l16.6 2.9c0.2 0 0.4 0.3 0.3 0.5 0 0.2-0.3 0.4-0.5 0.4z"/><path class="m" d="m88.3 372.5l-11.8-2.1c-0.2 0-0.4-0.2-0.4-0.5 0.1-0.2 0.3-0.4 0.6-0.4l11.7 2.1c0.3 0 0.4 0.3 0.4 0.5-0.1 0.2-0.3 0.4-0.5 0.4z"/><path class="n" d="m100.3 374.6l-7.4-1.3c-0.2-0.1-0.4-0.3-0.3-0.5 0-0.3 0.2-0.5 0.5-0.4l7.4 1.3c0.3 0 0.4 0.2 0.4 0.5-0.1 0.2-0.3 0.4-0.6 0.4z"/><path class="o" d="m92.2 378.5l-16.6-2.9c-0.2 0-0.4-0.3-0.4-0.5 0.1-0.2 0.3-0.4 0.6-0.4l16.6 2.9c0.2 0 0.4 0.3 0.3 0.5 0 0.3-0.3 0.4-0.5 0.4z"/><path class="p" d="m88.3 401.3l-16.6-2.9c-0.3 0-0.4-0.3-0.4-0.5 0.1-0.2 0.3-0.4 0.5-0.4l16.6 2.9c0.3 0 0.4 0.3 0.4 0.5-0.1 0.3-0.3 0.4-0.5 0.4z"/><path class="q" d="m85 395.4l-12.4-2.2c-0.3 0-0.4-0.2-0.4-0.5 0-0.2 0.3-0.4 0.5-0.4l12.5 2.2c0.2 0 0.4 0.3 0.3 0.5 0 0.3-0.2 0.4-0.5 0.4z"/><path class="r" d="m93.6 396.9l-4.1-0.7c-0.2-0.1-0.4-0.3-0.4-0.6 0.1-0.2 0.3-0.4 0.6-0.3l4.1 0.7c0.2 0 0.4 0.3 0.4 0.5-0.1 0.3-0.3 0.4-0.6 0.4z"/><path class="s" d="m102.3 352.8l-5.5-0.9c-0.2-0.1-0.4-0.3-0.4-0.5 0.1-0.3 0.3-0.5 0.6-0.4l5.5 0.9c0.2 0.1 0.4 0.3 0.3 0.6 0 0.2-0.2 0.4-0.5 0.3z"/><path fill-rule="evenodd" class="t" d="m98.7 338.2l-31.8-5.5c-3.4-0.6-5.7-3.9-5.1-7.3 0.6-3.5 3.9-5.8 7.3-5.2l31.8 5.5c3.4 0.6 5.7 3.9 5.1 7.3-0.6 3.4-3.8 5.8-7.3 5.2zm-29.8-17.1c-2.9-0.5-5.7 1.5-6.2 4.4-0.5 3 1.5 5.8 4.4 6.3l31.8 5.5c2.9 0.5 5.7-1.5 6.2-4.4 0.5-3-1.4-5.8-4.4-6.3z"/><path class="u" d="m89.3 324.5c-0.3-0.1-0.5-0.3-0.4-0.5l0.2-1.4c0.2-1-0.5-2-1.5-2.2l-4.9-0.8c-1-0.2-2 0.5-2.2 1.5l-0.2 1.3c-0.1 0.3-0.3 0.4-0.5 0.4-0.3-0.1-0.4-0.3-0.4-0.5l0.2-1.3c0.3-1.6 1.7-2.6 3.3-2.3l4.8 0.8c1.5 0.3 2.6 1.7 2.3 3.3l-0.2 1.3c-0.1 0.3-0.3 0.4-0.5 0.4z"/><path class="v" d="m68.1 248.9v10.7c0 0.3-0.2 0.5-0.6 0.5-0.3 0-0.5-0.2-0.5-0.5v-9.3l-54.2 54.1c-0.2 0.3-0.6 0.3-0.8 0l-17-16.9-20.9 20.9q-0.1 0.2-0.4 0.2-0.2 0-0.4-0.2c-0.2-0.2-0.2-0.6 0-0.8l21.3-21.3c0.3-0.2 0.6-0.2 0.9 0l16.9 16.9 53.7-53.7h-9.2c-0.4 0-0.6-0.3-0.6-0.6 0-0.3 0.2-0.6 0.6-0.6h10.6q0.1 0 0.3 0.1 0.2 0.1 0.3 0.3 0 0.1 0 0.2z"/><path fill-rule="evenodd" class="w" d="m-1 406v-427.5h603.3v427.5zm355.8-355.4c-15.8 0-28.6 12.8-28.6 28.6v102.2c0 15.8 12.8 28.6 28.6 28.6h96.7c15.8 0 28.6-12.8 28.6-28.6v-102.2c0-15.8-12.8-28.6-28.6-28.6z"/></g><path class="x" d="m494.4 1.5l-19.2 19.3h4.1c0.2 0 0.4 0.1 0.4 0.4 0 0.2-0.2 0.4-0.4 0.4h-5.1q-0.1 0-0.1-0.1-0.2 0-0.3-0.2 0-0.1 0-0.1v-5.1c0-0.2 0.2-0.4 0.4-0.4 0.3 0 0.4 0.2 0.4 0.4v4.1l19.3-19.2c0.1-0.2 0.4-0.2 0.5 0 0.2 0.1 0.2 0.4 0 0.5z"/><path fill-rule="evenodd" class="y" d="m552.9 102.7l-22.6 10.9c-0.2 0.1-0.4 0-0.5-0.2l-15.1-30.9c-0.1-0.2 0-0.5 0.2-0.6l17.6-8.5q0.1-0.1 0.3 0l7.8 3.3q0.2 0 0.2 0.2l12.3 25.2c0.1 0.2 0 0.5-0.2 0.6zm-22.6 10l21.8-10.6-12-24.7-7.4-3.1-17 8.2z"/><path class="z" d="m538.4 78.2l-3 1.5c-0.2 0.1-0.5 0-0.6-0.2l-2.6-5.5c-0.1-0.2-0.1-0.4 0.2-0.5 0.2-0.1 0.4 0 0.5 0.2l2.5 5.1 2.6-1.3c0.2-0.1 0.5 0 0.6 0.2 0.1 0.2 0 0.4-0.2 0.5z"/><path class="A" d="m538.7 81.4l-16 7.8c-0.1 0-0.2 0-0.2-0.1-0.1-0.1 0-0.2 0.1-0.3l15.9-7.7c0.1-0.1 0.3 0 0.3 0.1 0.1 0.1 0 0.2-0.1 0.2z"/><path class="B" d="m539.7 83.6l-15.9 7.7c-0.1 0.1-0.3 0-0.3-0.1-0.1-0.1 0-0.2 0.1-0.3l16-7.7c0.1-0.1 0.2 0 0.2 0.1 0.1 0.1 0 0.2-0.1 0.3z"/><path class="C" d="m540.8 85.7l-16 7.7c-0.1 0.1-0.2 0-0.3-0.1 0-0.1 0-0.2 0.1-0.2l16-7.8c0.1-0.1 0.2 0 0.3 0.1 0 0.1 0 0.2-0.1 0.3z"/><path class="D" d="m541.8 87.8l-16 7.8c-0.1 0-0.2 0-0.2-0.1-0.1-0.1-0.1-0.3 0.1-0.3l15.9-7.8c0.1 0 0.2 0 0.3 0.1 0 0.1 0 0.3-0.1 0.3z"/><path class="E" d="m542.9 90l-16 7.8c-0.1 0-0.2 0-0.3-0.1 0-0.1 0-0.2 0.1-0.3l16-7.7c0.1-0.1 0.2-0.1 0.3 0.1 0 0.1 0 0.2-0.1 0.2z"/><path class="F" d="m544 92.3l-16 7.7c-0.1 0.1-0.2 0-0.3-0.1 0-0.1 0-0.2 0.1-0.3l16-7.7c0.1-0.1 0.2 0 0.3 0.1 0 0.1 0 0.2-0.1 0.3z"/><path class="G" d="m539.1 97.4l-10 4.9c-0.1 0-0.2 0-0.3-0.1 0-0.2 0-0.3 0.1-0.3l10-4.9c0.2-0.1 0.3 0 0.3 0.1 0.1 0.1 0 0.2-0.1 0.3z"/></svg>