<svg version="1.2" xmlns="http://www.w3.org/2000/svg" viewBox="0 0 1124 422" width="1124" height="422"><defs><clipPath clipPathUnits="userSpaceOnUse" id="cp1"><path d="m1153.95 0.47v421.53h-597.28v-421.53z"/></clipPath><linearGradient id="P" gradientUnits="userSpaceOnUse"/><linearGradient id="g1" x1="888.1" y1="-102.6" x2="1245" y2="66.2" href="#P"><stop stop-color="#eb1e27"/><stop offset="1" stop-color="#eb9322"/></linearGradient><linearGradient id="g2" x1="939.4" y1="-143.7" x2="1142.9" y2="-47.5" href="#P"><stop stop-color="#eb1e27"/><stop offset="1" stop-color="#eb9322"/></linearGradient><linearGradient id="g3" x1="875.7" y1="-14" x2="1074.1" y2="79.9" href="#P"><stop stop-color="#eb1e27"/><stop offset="1" stop-color="#eb9322"/></linearGradient><linearGradient id="g4" x1="888.8" y1="-81.9" x2="1117.9" y2="26.5" href="#P"><stop stop-color="#eb1e27"/><stop offset="1" stop-color="#eb9322"/></linearGradient><linearGradient id="g5" x1="901" y1="-20.3" x2="1061.9" y2="55.8" href="#P"><stop stop-color="#eb1e27"/><stop offset="1" stop-color="#eb9322"/></linearGradient><linearGradient id="g6" x1="925" y1="-96.9" x2="1101.3" y2="-13.6" href="#P"><stop stop-color="#eb1e27"/><stop offset="1" stop-color="#eb9322"/></linearGradient><linearGradient id="g7" x1="819.7" y1="-120.3" x2="1317.9" y2="115.3" href="#P"><stop stop-color="#eb1e27"/><stop offset="1" stop-color="#eb9322"/></linearGradient><linearGradient id="g8" x1="721.3" y1="428.8" x2="690.8" y2="428.8" href="#P"><stop stop-color="#eb1e27"/><stop offset="1" stop-color="#eb9322"/></linearGradient><linearGradient id="g9" x1="1044.9" y1="274.5" x2="1075.5" y2="274.2" href="#P"><stop stop-color="#eb9322"/><stop offset="1" stop-color="#eb1e27"/></linearGradient><linearGradient id="g10" x1="1044.9" y1="279.6" x2="1075.7" y2="279.3" href="#P"><stop stop-color="#eb9322"/><stop offset="1" stop-color="#eb1e27"/></linearGradient><linearGradient id="g11" x1="1044.8" y1="279.7" x2="1075.6" y2="279.4" href="#P"><stop stop-color="#eb9322"/><stop offset="1" stop-color="#eb1e27"/></linearGradient><linearGradient id="g12" x1="940" y1="296.5" x2="958.6" y2="330.8" href="#P"><stop stop-color="#eb9322"/><stop offset="1" stop-color="#eb1e27"/></linearGradient><linearGradient id="g13" x1="931.7" y1="301.4" x2="950.6" y2="336.4" href="#P"><stop stop-color="#eb9322"/><stop offset="1" stop-color="#eb1e27"/></linearGradient><linearGradient id="g14" x1="929.9" y1="297.8" x2="950.9" y2="336.5" href="#P"><stop stop-color="#eb9322"/><stop offset="1" stop-color="#eb1e27"/></linearGradient><linearGradient id="g15" x1="1034.2" y1="352.2" x2="1093.4" y2="391.4" href="#P"><stop stop-color="#eb9322"/><stop offset="1" stop-color="#eb1e27"/></linearGradient><linearGradient id="g16" x1="1051.3" y1="368.5" x2="1074.8" y2="384.1" href="#P"><stop stop-color="#eb9322"/><stop offset="1" stop-color="#eb1e27"/></linearGradient><linearGradient id="g17" x1="1049.4" y1="365.6" x2="1072.9" y2="381.2" href="#P"><stop stop-color="#eb9322"/><stop offset="1" stop-color="#eb1e27"/></linearGradient><linearGradient id="g18" x1="-4" y1="275.2" x2="100.7" y2="327.1" href="#P"><stop stop-color="#eb1e27"/><stop offset="1" stop-color="#eb9322"/></linearGradient><linearGradient id="g19" x1="-17.3" y1="294.9" x2="98.7" y2="352.4" href="#P"><stop stop-color="#eb1e27"/><stop offset="1" stop-color="#eb9322"/></linearGradient><linearGradient id="g20" x1="-20.2" y1="316.6" x2="79.9" y2="366.3" href="#P"><stop stop-color="#eb1e27"/><stop offset="1" stop-color="#eb9322"/></linearGradient><linearGradient id="g21" x1="-21.8" y1="299.4" x2="96.3" y2="358" href="#P"><stop stop-color="#eb1e27"/><stop offset="1" stop-color="#eb9322"/></linearGradient><linearGradient id="g22" x1="-23.3" y1="301" x2="94.9" y2="359.6" href="#P"><stop stop-color="#eb1e27"/><stop offset="1" stop-color="#eb9322"/></linearGradient><linearGradient id="g23" x1="-24.7" y1="302.6" x2="93.5" y2="361.2" href="#P"><stop stop-color="#eb1e27"/><stop offset="1" stop-color="#eb9322"/></linearGradient><linearGradient id="g24" x1="-28" y1="327.1" x2="73.6" y2="377.5" href="#P"><stop stop-color="#eb1e27"/><stop offset="1" stop-color="#eb9322"/></linearGradient><linearGradient id="g25" x1="-22.4" y1="318.8" x2="76.4" y2="367.8" href="#P"><stop stop-color="#eb1e27"/><stop offset="1" stop-color="#eb9322"/></linearGradient><linearGradient id="g26" x1="-25.3" y1="319.1" x2="76.3" y2="369.5" href="#P"><stop stop-color="#eb1e27"/><stop offset="1" stop-color="#eb9322"/></linearGradient><linearGradient id="g27" x1="-14.5" y1="304.5" x2="82.3" y2="352.4" href="#P"><stop stop-color="#eb1e27"/><stop offset="1" stop-color="#eb9322"/></linearGradient><linearGradient id="g28" x1="-10" y1="296.3" x2="86" y2="343.8" href="#P"><stop stop-color="#eb1e27"/><stop offset="1" stop-color="#eb9322"/></linearGradient></defs><style>tspan{white-space:pre}.a{fill:url(#g1)}.b{fill:url(#g2)}.c{fill:url(#g3)}.d{fill:url(#g4)}.e{fill:url(#g5)}.f{fill:url(#g6)}.g{fill:url(#g7)}.h{fill:none}.i{fill:url(#g8)}.j{fill:#576782}.k{fill:none;stroke:#576782;stroke-linecap:round;stroke-linejoin:round;stroke-width:1.7}.l{fill:none;stroke:#576782;stroke-linecap:round;stroke-linejoin:round}.m{fill:url(#g9)}.n{fill:url(#g10)}.o{fill:url(#g11)}.p{fill:url(#g12)}.q{fill:url(#g13)}.r{fill:url(#g14)}.s{fill:url(#g15)}.t{fill:url(#g16)}.u{fill:url(#g17)}.v{fill:url(#g18)}.w{fill:url(#g19)}.x{fill:url(#g20)}.y{fill:url(#g21)}.z{fill:url(#g22)}.A{fill:url(#g23)}.B{fill:url(#g24)}.C{fill:url(#g25)}.D{fill:url(#g26)}.E{fill:url(#g27)}.F{fill:url(#g28)}</style><g clip-path="url(#cp1)"><path fill-rule="evenodd" class="a" d="m947.8-58.8q0 0 0 0l6.9 16c0.1 0.3 0 0.6-0.3 0.8-17.9 11.7-25.8 34.1-19.1 54.4 0.1 0.3 0 0.7-0.3 0.8l-15.2 8q-0.2 0.1-0.5 0-0.3-0.1-0.4-0.3c-11.3-30 0.4-63.6 28-80q0.2-0.1 0.5 0 0.2 0.1 0.4 0.3zm5.5 16l-6.4-14.8c-26.3 16.1-37.6 48.4-27 77.3l14-7.4c-6.5-20.6 1.4-43.1 19.4-55.1z"/><path fill-rule="evenodd" class="b" d="m1039-33.2c17 32.2 4.6 72.2-27.6 89.2-10.5 5.5-22.4 8.2-34.3 7.5q-0.3 0-0.5-0.2-0.2-0.3-0.1-0.6l3-17c0.1-0.3 0.3-0.5 0.6-0.5 7.8 0 15.6-1.9 22.5-5.5 23.1-12.2 32-41 19.8-64.2-10.2-19.2-32.1-29.1-53.2-23.9-0.3 0.1-0.7-0.1-0.8-0.4l-6.9-16q-0.1-0.2 0-0.5 0.1-0.3 0.4-0.3c30-9 62.5 4.7 77.1 32.4zm-61.1 95.4c11.4 0.5 22.8-2 32.9-7.4 31.6-16.6 43.7-55.8 27-87.4-14.2-26.9-45.6-40.3-74.8-32l6.4 14.8c21.6-5 43.8 5.1 54.1 24.7 12.6 23.8 3.4 53.4-20.3 65.9-7 3.7-14.7 5.6-22.5 5.7z"/><path fill-rule="evenodd" class="c" d="m964.7 42.7q0.1 0.2 0.1 0.4l-3.1 17q0 0.2-0.3 0.4-0.2 0.1-0.5 0.1c-13.9-4.4-26-13.3-34.3-25.2q-0.2-0.2-0.1-0.5 0-0.3 0.3-0.4l15.2-8.1c0.2-0.1 0.6 0 0.8 0.2 5.5 7.2 13 12.7 21.5 15.8q0.3 0 0.4 0.3zm-4.1 16.4l2.8-15.7c-8.4-3.1-15.8-8.5-21.3-15.6l-14 7.5c7.9 11.1 19.4 19.5 32.5 23.8z"/><path class="d" d="m997.4 13.5h-0.1q-0.7 0.7-1.5 1.3c-0.3 0.2-0.6 0.2-0.8-0.1-0.1-0.2-0.1-0.5 0.1-0.7q0.8-0.6 1.5-1.3c0.2-0.2 0.6-0.2 0.8 0 0.2 0.2 0.2 0.6 0 0.8zm3.3-3.9c-0.2 0.1-0.4 0.1-0.6 0-0.3-0.2-0.3-0.5-0.2-0.7q0.6-0.8 1.1-1.7c0.1-0.3 0.4-0.4 0.7-0.2 0.2 0.1 0.3 0.4 0.2 0.7q-0.5 0.9-1.1 1.8-0.1 0-0.1 0.1zm-9.3 7.9q0 0-0.1 0.1-1 0.4-1.9 0.8c-0.3 0.1-0.6-0.1-0.7-0.3-0.1-0.3 0-0.6 0.3-0.7q1-0.3 1.9-0.8c0.2-0.1 0.5 0 0.6 0.3 0.1 0.2 0.1 0.4-0.1 0.6zm12.3-14.4c-0.1 0.1-0.3 0.1-0.5 0.1-0.2-0.1-0.4-0.4-0.3-0.6q0.3-1 0.4-2c0.1-0.3 0.4-0.5 0.6-0.4 0.3 0 0.5 0.3 0.4 0.6q-0.2 1-0.4 2-0.1 0.2-0.2 0.3zm-19.1 16.4q-0.2 0.1-0.3 0.1-1.1 0.1-2.1 0.2c-0.3 0-0.5-0.3-0.6-0.5 0-0.3 0.3-0.6 0.5-0.6q1 0 2-0.1c0.3-0.1 0.6 0.1 0.6 0.4q0 0.3-0.1 0.5zm20-23.5q-0.1 0.1-0.3 0.1c-0.3 0-0.6-0.2-0.6-0.5q0-1-0.1-2c-0.1-0.3 0.1-0.5 0.4-0.6 0.3 0 0.6 0.2 0.6 0.5q0.1 1 0.2 2.1 0 0.2-0.2 0.4zm-27.2 23.2q-0.2 0.2-0.5 0.2-1-0.2-2-0.5c-0.3-0.1-0.4-0.4-0.3-0.7 0-0.2 0.3-0.4 0.6-0.3q1 0.3 1.9 0.4c0.3 0.1 0.5 0.4 0.4 0.6q0 0.2-0.1 0.3zm25.8-30.3q0 0.1-0.1 0.1c-0.3 0.1-0.6 0-0.7-0.3q-0.3-0.9-0.8-1.8c-0.1-0.3 0-0.6 0.3-0.7 0.2-0.1 0.6 0 0.7 0.2q0.4 1 0.8 2c0 0.2 0 0.4-0.2 0.5zm-32.5 27.9c-0.2 0.1-0.4 0.2-0.6 0.1q-1-0.5-1.8-1.1c-0.3-0.2-0.3-0.5-0.2-0.7 0.2-0.3 0.5-0.3 0.7-0.2q0.9 0.6 1.8 1.1c0.2 0.1 0.3 0.4 0.2 0.7q-0.1 0-0.1 0.1zm29.1-34.1q0 0-0.1 0c-0.2 0.2-0.5 0.1-0.7-0.1q-0.6-0.8-1.3-1.5c-0.2-0.2-0.2-0.6 0-0.8 0.2-0.2 0.5-0.2 0.7 0l0.1 0.1q0.7 0.8 1.3 1.6c0.2 0.2 0.2 0.5 0 0.7zm-34.8 29.7c-0.2 0.2-0.5 0.2-0.7 0v-0.1q-0.7-0.7-1.4-1.5c-0.2-0.2-0.1-0.6 0.1-0.7 0.2-0.2 0.6-0.2 0.7 0.1q0.6 0.7 1.3 1.4c0.2 0.2 0.2 0.6 0 0.8zm29.5-34.7c-0.2 0.2-0.5 0.2-0.7 0.1q-0.8-0.6-1.7-1.1c-0.2-0.1-0.3-0.4-0.2-0.7 0.2-0.2 0.5-0.3 0.7-0.2q0.9 0.5 1.8 1.1c0.2 0.2 0.3 0.5 0.1 0.7q0 0.1 0 0.1zm-33.5 28.8q-0.1 0-0.2 0.1c-0.2 0.1-0.5 0-0.6-0.3q-0.5-0.9-0.8-1.9c-0.1-0.3 0-0.6 0.3-0.7 0.2-0.1 0.5 0.1 0.6 0.3q0.4 1 0.8 1.9c0.1 0.2 0 0.4-0.1 0.6zm27-31.8c-0.1 0.1-0.3 0.2-0.5 0.1q-1-0.2-2-0.4c-0.2-0.1-0.4-0.4-0.4-0.6 0.1-0.3 0.3-0.5 0.6-0.4q1.1 0.2 2.1 0.4c0.2 0.1 0.4 0.4 0.3 0.7q0 0.1-0.1 0.2zm-29 24.9q-0.1 0.1-0.3 0.1c-0.3 0.1-0.5-0.1-0.6-0.4q-0.1-1.1-0.1-2.1c0-0.3 0.2-0.5 0.5-0.5 0.2 0 0.5 0.2 0.5 0.5q0 1 0.1 2 0.1 0.2-0.1 0.4zm21.9-25.7q-0.2 0.1-0.4 0.1-1 0-2 0.2c-0.2 0-0.5-0.2-0.5-0.5-0.1-0.3 0.1-0.5 0.4-0.6q1-0.1 2.1-0.1c0.3 0 0.5 0.2 0.5 0.5q0 0.2-0.1 0.4zm-21.7 18.5q-0.2 0.2-0.4 0.2c-0.3-0.1-0.5-0.4-0.4-0.6q0.2-1.1 0.4-2.1c0.1-0.2 0.4-0.4 0.7-0.3 0.2 0.1 0.4 0.3 0.3 0.6q-0.2 1-0.4 2-0.1 0.1-0.2 0.2zm14.6-17.2q0 0.1-0.1 0.1-1 0.4-1.9 0.8c-0.2 0.1-0.5 0-0.7-0.2-0.1-0.3 0-0.6 0.3-0.7q0.9-0.5 1.9-0.8c0.3-0.1 0.6 0 0.7 0.3 0 0.2 0 0.4-0.2 0.5zm-12.2 10.5c-0.1 0.2-0.4 0.2-0.6 0.1-0.2-0.2-0.3-0.5-0.2-0.7q0.5-0.9 1.1-1.8c0.2-0.2 0.5-0.3 0.7-0.1 0.3 0.1 0.3 0.4 0.2 0.7q-0.6 0.8-1.1 1.7 0 0-0.1 0.1zm6-7q0 0 0 0-0.8 0.6-1.5 1.3c-0.2 0.2-0.6 0.2-0.8 0-0.2-0.2-0.2-0.5 0-0.7l0.4 0.4-0.3-0.4q0 0 0 0 0.7-0.7 1.5-1.4c0.2-0.1 0.6-0.1 0.7 0.1 0.2 0.2 0.2 0.5 0 0.7z"/><path class="e" d="m952.7 22.2c11.1 12.7 29.5 16.3 44.7 8.7 4.7-2.4 8.7-5.6 12-9.6l-2.4 1.3c-0.3 0.1-0.7 0-0.9-0.3q0 0 0 0c-0.1-0.3 0-0.7 0.3-0.9l4.1-2.2c0.2-0.1 0.5-0.1 0.7 0q0.1 0.1 0.2 0.3 0.1 0.1 0.1 0.3v4.7c0 0.4-0.3 0.7-0.6 0.7-0.4 0-0.7-0.3-0.7-0.6v-2.3c-3.4 4.1-7.5 7.4-12.2 9.7-15.7 7.9-34.7 4.2-46.3-8.9-0.3-0.3-0.2-0.7 0-1 0.3-0.2 0.7-0.2 1 0.1z"/><path class="f" d="m993.3-38.7l4.7-0.8c0.3 0 0.5 0.1 0.7 0.4q0 0 0 0.1c0.1 0.4-0.2 0.7-0.5 0.8l-2.4 0.4c8.3 3.6 15.2 10 19.3 18.1 4.2 8.4 5.2 18 2.8 27.1-0.1 0.4-0.4 0.6-0.8 0.5-0.3-0.1-0.5-0.5-0.4-0.8 2.3-8.8 1.3-18.1-2.8-26.2-3.9-7.9-10.5-14.1-18.6-17.5l1.4 1.9c0.2 0.3 0.2 0.7-0.1 0.9-0.3 0.2-0.7 0.2-0.9-0.1l-2.8-3.8c-0.2-0.2-0.2-0.4-0.1-0.6 0.1-0.2 0.3-0.4 0.5-0.4z"/><path class="g" d="m963.3-36.8c3.7-1.9 7.7-3.1 11.7-3.7 0.3-0.1 0.6 0.1 0.7 0.3q0 0.1 0.1 0.2c0 0.4-0.2 0.7-0.6 0.8-3.9 0.5-7.7 1.7-11.3 3.5-14.4 7.3-22.6 23.4-20 39.3l0.9-2.3c0.2-0.3 0.6-0.5 0.9-0.3q0.2 0.1 0.3 0.3 0.1 0.2 0 0.5l-1.8 4.3c-0.1 0.2-0.3 0.4-0.5 0.4-0.2 0.1-0.5 0-0.6-0.2l-3-3.7c-0.3-0.3-0.2-0.7 0.1-0.9 0.2-0.2 0.6-0.2 0.9 0.1l1.5 1.8c-2.6-16.4 5.8-32.9 20.7-40.4z"/><path class="h" d="m1152.9 0.5v421.5h-597.2v-421.5z"/><path class="i" d="m691 427.8l28.2-28.2h-5.9c-0.4 0-0.6-0.3-0.6-0.6 0-0.4 0.2-0.6 0.6-0.6h7.4q0.1 0 0.2 0 0.2 0.1 0.3 0.4 0.1 0.1 0.1 0.2v7.4c0 0.3-0.3 0.6-0.6 0.6-0.4 0-0.6-0.3-0.6-0.6v-6l-28.2 28.2c-0.3 0.2-0.6 0.2-0.9 0-0.2-0.2-0.2-0.6 0-0.8z"/></g><path class="j" d="m1000.3 331.7c-2.9-0.5-5.2-2.5-6.1-5.2-0.1-0.2 0-0.5 0.3-0.6 0.2-0.1 0.5 0.1 0.6 0.3 0.8 2.4 2.8 4.2 5.3 4.6 3.8 0.6 7.4-1.9 8.1-5.7 0.6-3.7-1.9-7.3-5.7-8-2.8-0.5-5.6 0.8-7.1 3.2-0.1 0.2-0.4 0.3-0.6 0.2-0.2-0.2-0.3-0.5-0.2-0.7 1.7-2.7 4.9-4.2 8.1-3.6 4.2 0.7 7.1 4.8 6.4 9.1-0.8 4.3-4.8 7.2-9.1 6.4z"/><path class="j" d="m1002 353q-0.2 0-0.3-0.2c-0.2-0.2-0.1-0.5 0.1-0.7q0.6-0.4 1.1-0.9c0.1-0.2 0.4-0.2 0.6-0.1 0.2 0.2 0.2 0.5 0.1 0.7q-0.6 0.6-1.3 1.1-0.1 0.1-0.3 0.1z"/><path class="j" d="m1004.3 350.3q-0.1-0.1-0.1-0.1c-0.3-0.1-0.4-0.4-0.3-0.6q0.5-0.9 0.7-1.9c0.2-1.4 0-2.9-0.6-4.2-0.1-0.2 0-0.5 0.2-0.6 0.2-0.1 0.5 0 0.6 0.2 0.7 1.5 1 3.1 0.7 4.8q-0.2 1.1-0.7 2.1c-0.1 0.2-0.3 0.3-0.5 0.3z"/><path class="j" d="m996.4 354.3c-4.3-0.8-7.2-4.8-6.4-9.1 0.7-4.3 4.8-7.2 9.1-6.4 1.6 0.2 3.1 1 4.3 2.2 0.1 0.2 0.1 0.5-0.1 0.7-0.1 0.2-0.4 0.2-0.6 0-1-1.1-2.3-1.8-3.8-2-3.8-0.7-7.4 1.9-8 5.6-0.7 3.8 1.9 7.4 5.6 8.1 1.4 0.2 2.8 0 4-0.5 0.3-0.1 0.5 0 0.6 0.2 0.2 0.2 0 0.5-0.2 0.6-1.4 0.7-3 0.8-4.5 0.6z"/><path class="j" d="m992.5 376.8c-4.3-0.7-7.2-4.8-6.4-9.1 0.4-2.4 1.9-4.4 4.1-5.6 0.2-0.1 0.5 0 0.6 0.2 0.1 0.2 0 0.5-0.2 0.6-1.9 1.1-3.2 2.9-3.6 5-0.7 3.8 1.9 7.4 5.6 8 3.8 0.7 7.4-1.9 8.1-5.6 0.5-3-1-5.9-3.6-7.3-0.2-0.2-0.3-0.4-0.2-0.7 0.1-0.2 0.4-0.3 0.6-0.2 3 1.6 4.7 5 4.1 8.3-0.8 4.3-4.8 7.2-9.1 6.4z"/><path class="j" d="m1001.1 325.8q-0.1-0.1-0.3-0.2l-1.9-2.8c-0.1-0.2-0.1-0.5 0.1-0.6 0.2-0.2 0.5-0.1 0.7 0.1l1.6 2.4 4.7-3.3c0.2-0.2 0.5-0.1 0.6 0.1 0.2 0.2 0.1 0.5-0.1 0.6l-5 3.6q-0.2 0.1-0.4 0.1z"/><path class="j" d="m997.1 349q-0.2 0-0.3-0.1l-1.9-2.8c-0.2-0.2-0.1-0.5 0.1-0.6 0.2-0.2 0.5-0.1 0.7 0.1l1.6 2.3 4.7-3.3c0.2-0.1 0.5-0.1 0.6 0.2 0.2 0.2 0.1 0.5-0.1 0.6l-5 3.6q-0.2 0.1-0.4 0z"/><path class="j" d="m993.2 371.8q-0.2-0.1-0.3-0.2l-1.9-2.7c-0.2-0.3-0.1-0.5 0.1-0.7 0.2-0.1 0.5-0.1 0.6 0.1l1.7 2.4 4.6-3.3c0.2-0.2 0.5-0.1 0.7 0.1 0.1 0.2 0.1 0.5-0.1 0.6l-5.1 3.6q-0.1 0.1-0.3 0.1z"/><path class="j" d="m1028.5 325.3l-12.2-2.1c-0.2 0-0.4-0.3-0.4-0.5 0.1-0.3 0.3-0.4 0.6-0.4l12.2 2.1c0.2 0.1 0.4 0.3 0.3 0.6 0 0.2-0.2 0.4-0.5 0.3z"/><path class="j" d="m1032.6 331.6l-17.2-3c-0.3 0-0.4-0.3-0.4-0.5 0.1-0.3 0.3-0.5 0.6-0.4l17.1 2.9c0.3 0.1 0.5 0.3 0.4 0.6 0 0.2-0.3 0.4-0.5 0.4z"/><path class="j" d="m1024.7 347.5l-12.2-2.1c-0.3 0-0.4-0.3-0.4-0.5 0.1-0.3 0.3-0.4 0.6-0.4l12.1 2.1c0.3 0.1 0.5 0.3 0.4 0.6 0 0.2-0.3 0.4-0.5 0.3z"/><path class="j" d="m1024.8 353.2l-13.2-2.4c-0.3 0-0.5-0.3-0.4-0.5 0-0.3 0.3-0.5 0.5-0.4l13.3 2.4c0.2 0.1 0.4 0.3 0.4 0.6-0.1 0.2-0.3 0.4-0.6 0.3z"/><path class="j" d="m1024.7 377.4l-17.2-3c-0.3 0-0.4-0.3-0.4-0.5 0-0.3 0.3-0.4 0.5-0.4l17.2 3c0.3 0 0.5 0.3 0.4 0.5 0 0.3-0.3 0.4-0.5 0.4z"/><path class="j" d="m1021.3 371.3l-12.9-2.2c-0.2-0.1-0.4-0.3-0.4-0.6 0.1-0.2 0.3-0.4 0.6-0.4l12.9 2.3c0.2 0 0.4 0.3 0.3 0.5 0 0.3-0.2 0.4-0.5 0.4z"/><path class="j" d="m1030.2 372.8l-4.2-0.7c-0.3 0-0.5-0.3-0.4-0.5 0-0.3 0.3-0.5 0.5-0.4l4.3 0.7c0.3 0.1 0.4 0.3 0.4 0.6-0.1 0.2-0.3 0.4-0.6 0.3z"/><path class="j" d="m1039.2 327.2l-5.7-1c-0.2 0-0.4-0.3-0.4-0.5 0.1-0.3 0.3-0.5 0.6-0.4l5.7 1c0.3 0 0.4 0.3 0.4 0.5-0.1 0.3-0.3 0.4-0.6 0.4z"/><path fill-rule="evenodd" class="j" d="m1035.5 312l-32.9-5.7c-3.6-0.6-6-4-5.4-7.6 0.6-3.5 4-5.9 7.6-5.3l32.9 5.7c3.6 0.6 6 4 5.4 7.5-0.6 3.6-4 6-7.6 5.4zm-30.9-17.7c-3-0.5-5.9 1.5-6.4 4.6-0.6 3 1.5 5.9 4.5 6.5l33 5.7c3 0.5 5.9-1.6 6.5-4.6 0.5-3.1-1.6-6-4.6-6.5z"/><path class="j" d="m1025.7 297.8c-0.3 0-0.4-0.3-0.4-0.5l0.3-1.4c0.1-1.1-0.6-2.1-1.7-2.3l-5-0.9c-1-0.2-2.1 0.5-2.3 1.6l-0.2 1.4c0 0.2-0.3 0.4-0.5 0.3-0.3 0-0.5-0.2-0.4-0.5l0.2-1.3c0.3-1.6 1.8-2.7 3.4-2.4l5 0.9c1.6 0.2 2.7 1.7 2.4 3.3l-0.3 1.4c0 0.3-0.2 0.5-0.5 0.4z"/><path class="j" d="m1042.4 304.6c0-0.3 0.3-0.4 0.5-0.4l16.1 2.8c0.2 0 0.4 0.3 0.4 0.5l-4.2 24.4-1.1 0.6 4.3-24.7-15.6-2.7c-0.3 0-0.5-0.3-0.4-0.5z"/><path class="j" d="m1040.3 309.9c0.1-0.2 0.3-0.4 0.6-0.3l11.6 2c0.2 0 0.4 0.3 0.4 0.5l-4.1 23.4-1 0.6 4.1-23.7-11.2-1.9c-0.2-0.1-0.4-0.3-0.4-0.6z"/><path class="j" d="m1045.7 353.4l-7.7 44.9c-0.1 0.3-0.3 0.5-0.6 0.4l-65-11.2c-0.2-0.1-0.4-0.3-0.3-0.6l14.9-86.2c0-0.2 0.2-0.4 0.5-0.4l10.8 1.9c0.2 0 0.4 0.3 0.4 0.5-0.1 0.3-0.3 0.5-0.6 0.4l-10.3-1.8-14.7 85.3 64 11.1 7.6-43.7z"/><path class="j" d="m1047.8 368.8l3.2-18.4 1.1-0.6-3.1 17.9z"/><path class="j" d="m1046 384.9l-3.4 19.9c-0.1 0.3-0.3 0.5-0.6 0.4l-76.1-13.1c-0.2-0.1-0.4-0.3-0.4-0.6l16.9-97.3c0-0.2 0.3-0.4 0.5-0.4l15.3 2.7c0.2 0 0.4 0.2 0.3 0.5 0 0.3-0.3 0.4-0.5 0.4l-14.8-2.6-16.6 96.4 75.1 13 3.6-20.7z"/><path class="k" d="m1035.2 359.3l-6.9-12 38.2-21.9 6.9 12.1z"/><path class="k" d="m1021.1 359.4l7.2-12.1 6.9 12z"/><path class="l" d="m1064 327.1l6.7 11.9"/><path class="l" d="m1030.2 346.4l6.8 11.9"/><path class="l" d="m1023.1 356.3l1.7 3.1"/><path class="k" d="m1073.4 337.5l-6.9-12.1 4.9-2.8c2.1-1.2 4.7-0.5 5.9 1.6l2.6 4.6c1.2 2 0.5 4.7-1.6 5.8z"/><path class="l" d="m1077.1 335.3l1.1 2.1c0.9 1.4 0.4 3.2-1.1 4l-18.7 10.8c-0.4 0.2-0.8 0.1-1-0.3-0.2-0.3-0.1-0.7 0.3-0.9l18.8-10.8c0.7-0.4 1-1.4 0.5-2.1l-1.1-2.1"/><path class="m" d="m1067.8 283.5l-16.8 4.4c-0.2 0.1-0.4 0-0.4-0.2l-0.6-2.3c-0.1-0.1 0-0.3 0.2-0.4 0.2 0 0.4 0.1 0.5 0.3l0.5 1.9 16.1-4.3-2-7.7-16.2 4.2 1.1 4.3c0.1 0.2 0 0.4-0.2 0.4-0.2 0.1-0.4 0-0.4-0.2l-1.2-4.6c-0.1-0.2 0-0.4 0.2-0.5l16.8-4.4c0.2 0 0.4 0.1 0.5 0.3l2.2 8.4c0 0.2-0.1 0.4-0.3 0.4z"/><path fill-rule="evenodd" class="n" d="m1055.8 280.1c0-0.1 0.1-0.2 0.2-0.2l1.1-0.3q0.6-0.2 1 0 0.3 0.2 0.4 0.6c0.2 0.5-0.1 0.9-0.6 1.1l1.1 0.8q0 0.1 0.1 0.2c0 0-0.1 0.2-0.2 0.2q-0.1 0-0.2-0.1l-1.1-0.9-0.9 0.2 0.2 1.1c0.1 0.1 0 0.2-0.1 0.2-0.1 0.1-0.2 0-0.2-0.1zm1.7 1.1c0.4-0.1 0.7-0.5 0.6-0.9-0.1-0.4-0.4-0.5-1-0.4l-0.9 0.3 0.3 1.2z"/><path fill-rule="evenodd" class="o" d="m1058.8 280.2c0-0.1 0-0.2 0.1-0.3 0.1 0 0.2 0.1 0.2 0.2l0.1 0.3c0.1-0.3 0.3-0.6 0.8-0.8 0.5-0.1 1.2 0.2 1.4 1 0.2 0.7-0.2 1.3-0.8 1.5-0.4 0.1-0.8-0.1-1-0.3l0.3 1c0 0.1-0.1 0.2-0.2 0.2-0.1 0.1-0.2 0-0.2-0.1zm2.3 0.5c-0.2-0.6-0.6-0.8-1.1-0.7-0.4 0.1-0.7 0.6-0.6 1.1 0.2 0.6 0.7 0.8 1.1 0.7 0.4-0.1 0.7-0.5 0.6-1.1z"/><path class="l" d="m922.5 312.2q0.4-1.1 1-2.2c3.2-5.3 9.5-7.7 15.2-6.1"/><path class="l" d="m921.7 316.1q0-0.6 0.1-1.2"/><path class="l" d="m934.8 330.3c-2.2 0-4.5-0.6-6.5-1.8-4.1-2.4-6.4-6.6-6.6-11"/><path class="l" d="m948.4 314.5c0.5 3.1 0 6.3-1.7 9.2-2 3.4-5.3 5.6-9 6.4"/><path fill-rule="evenodd" class="p" d="m929.9 325.7c-4.9-2.8-6.6-9.2-3.7-14.1 2.9-4.9 9.3-6.5 14.2-3.6 4.9 2.9 6.5 9.2 3.6 14.1-2.9 4.9-9.2 6.5-14.1 3.6zm10.2-17.2c-4.7-2.8-10.6-1.2-13.4 3.4-2.7 4.6-1.2 10.6 3.5 13.3 4.6 2.8 10.6 1.2 13.3-3.4 2.7-4.6 1.2-10.6-3.4-13.3z"/><path fill-rule="evenodd" class="q" d="m932.5 311.9c0.3-0.5 0.6-0.5 1.1-0.3l1.9 1.2c1.5 0.8 1.4 1.8 1 2.5-0.4 0.6-1 0.9-1.7 0.7 0.6 0.5 0.4 1 0.1 1.5-0.3 0.6-0.3 0.9-0.5 1.2-0.1 0.3-0.5 0.3-0.8 0.1-0.6-0.4-0.3-1-0.2-1.2 0.5-0.9 0.6-1.4-0.1-1.8l-1.1-0.7-0.9 1.5c-0.2 0.4-0.6 0.5-1 0.3-0.3-0.2-0.4-0.6-0.2-1zm0.2 2.4l1.2 0.7c0.4 0.2 1 0.4 1.3-0.2 0.3-0.6 0.1-0.9-0.4-1.2l-1.3-0.7z"/><path fill-rule="evenodd" class="r" d="m937 316.1q0.3-0.4 0.8-0.2 0.5 0.3 0.2 0.8l-0.1 0.2c0.4-0.4 1-0.3 1.5 0 0.9 0.5 1.3 1.6 0.5 3-0.6 1-1.7 1.6-2.8 1-0.5-0.3-0.8-0.7-0.7-1.2h-0.1l-0.8 1.4c-0.2 0.4-0.5 0.4-0.8 0.2-0.4-0.1-0.5-0.4-0.3-0.8zm1.7 1.4c-0.6-0.3-1.2 0.1-1.5 0.7-0.3 0.5-0.5 1.3 0.1 1.7 0.7 0.3 1.3-0.2 1.6-0.7 0.3-0.6 0.4-1.3-0.2-1.7z"/><path class="l" d="m947.3 316.2l1-2.4 1.7 2"/><path class="s" d="m1064.4 372.4v2.3c0 0.1-0.2 0.2-0.3 0.2-0.1 0-0.2-0.1-0.2-0.2v-1.7l-11.5 11.4q-0.1 0.1-0.2 0.1-0.1 0-0.1-0.1c-0.1-0.1-0.1-0.2 0-0.3l11.4-11.5h-1.7c-0.1 0-0.2-0.1-0.2-0.2 0-0.1 0.1-0.3 0.2-0.3h2.3q0.1 0 0.1 0.1 0.1 0 0.1 0.1 0.1 0 0.1 0.1z"/><path class="j" d="m1058.2 389.5q-0.5 0-1 0c-0.2 0-0.3-0.1-0.3-0.3 0.1-0.1 0.2-0.2 0.3-0.2q0.5 0 1 0c0.1 0 0.2 0.2 0.2 0.3 0 0.1-0.1 0.2-0.2 0.2zm2.5-0.2c-0.2 0-0.3-0.1-0.3-0.2 0-0.2 0.1-0.3 0.2-0.3q0.5-0.1 0.9-0.3c0.2 0 0.3 0 0.4 0.2 0 0.1-0.1 0.2-0.2 0.3q-0.5 0.1-1 0.3 0 0 0 0zm-5.9-0.3q-0.1 0-0.1 0-0.5-0.2-1-0.4c-0.1 0-0.2-0.2-0.1-0.3 0-0.1 0.2-0.2 0.3-0.1q0.5 0.2 0.9 0.3c0.2 0.1 0.2 0.2 0.2 0.3 0 0.1-0.1 0.2-0.2 0.2zm9.1-1q-0.2 0-0.2-0.2c-0.1-0.1-0.1-0.2 0.1-0.3q0.4-0.2 0.8-0.5c0.1-0.1 0.2-0.1 0.3 0 0.1 0.1 0.1 0.3 0 0.4q-0.5 0.3-0.9 0.5-0.1 0.1-0.1 0.1zm-12.2-0.6q-0.1 0-0.2 0-0.4-0.3-0.8-0.7c-0.1 0-0.1-0.2 0-0.3 0.1-0.1 0.2-0.1 0.3 0q0.4 0.3 0.8 0.6c0.1 0.1 0.1 0.2 0.1 0.3q-0.1 0.1-0.2 0.1zm14.8-1.7q0 0-0.1 0c-0.1-0.1-0.1-0.3 0-0.4q0.3-0.3 0.6-0.7c0-0.2 0.2-0.2 0.3-0.1 0.1 0.1 0.1 0.2 0.1 0.4q-0.3 0.4-0.7 0.7 0 0.1-0.2 0.1zm-17.3-0.7q-0.1 0-0.2-0.1-0.3-0.4-0.6-0.9c0-0.1 0-0.2 0.1-0.3 0.1-0.1 0.3-0.1 0.4 0.1q0.2 0.4 0.5 0.8c0.1 0.1 0.1 0.2-0.1 0.3q0 0.1-0.1 0.1zm19.2-2.2q-0.1 0-0.1 0c-0.1-0.1-0.2-0.2-0.1-0.4q0.2-0.4 0.3-0.9c0.1-0.1 0.2-0.2 0.3-0.1 0.2 0 0.2 0.2 0.2 0.3q-0.2 0.5-0.4 0.9 0 0.2-0.2 0.2zm-20.8-0.9q-0.2 0-0.2-0.2-0.2-0.5-0.3-1c0-0.1 0.1-0.2 0.2-0.3 0.1 0 0.3 0.1 0.3 0.2q0.1 0.5 0.2 1c0.1 0.1 0 0.2-0.1 0.3q0 0-0.1 0zm21.6-2.5q0 0 0 0c-0.1 0-0.2-0.1-0.2-0.2q0-0.5 0-1c0-0.2 0.1-0.3 0.3-0.3 0.1 0 0.2 0.1 0.2 0.2v0.1q0 0.5 0 1c0 0.1-0.1 0.2-0.3 0.2zm-22.1-1c-0.2 0-0.3-0.1-0.3-0.2q0-0.5 0.1-1c0-0.2 0.1-0.2 0.2-0.2 0.2 0 0.3 0.1 0.3 0.2q-0.1 0.5-0.1 1c0 0.1-0.1 0.2-0.2 0.2zm21.9-2.5c-0.1 0-0.2-0.1-0.2-0.2q-0.2-0.5-0.3-0.9c0-0.1 0-0.3 0.2-0.3 0.1-0.1 0.2 0 0.3 0.1q0.1 0.5 0.2 1c0.1 0.1 0 0.3-0.1 0.3q-0.1 0-0.1 0zm-21.4-0.9q0 0-0.1 0c-0.1 0-0.2-0.2-0.1-0.3q0.1-0.5 0.3-1c0.1-0.1 0.2-0.1 0.3-0.1 0.2 0.1 0.2 0.2 0.2 0.3q-0.2 0.5-0.4 0.9 0 0.2-0.2 0.2zm20.1-2.3q-0.1 0-0.2-0.1-0.3-0.4-0.6-0.8c0-0.1 0-0.3 0.1-0.4 0.1-0.1 0.3 0 0.3 0.1q0.3 0.4 0.6 0.8c0.1 0.1 0 0.3-0.1 0.4q0 0-0.1 0zm-18.5-0.8q-0.1 0-0.2 0c-0.1-0.1-0.1-0.3 0-0.4q0.3-0.4 0.6-0.8c0.1-0.1 0.3-0.1 0.4 0 0.1 0.1 0.1 0.2 0 0.4q-0.3 0.3-0.6 0.7-0.1 0.1-0.2 0.1zm16.3-1.9q-0.1 0-0.2 0-0.4-0.3-0.8-0.6c-0.1-0.1-0.1-0.3 0-0.4 0.1-0.1 0.2-0.1 0.3 0q0.4 0.3 0.8 0.6c0.1 0.1 0.1 0.2 0 0.3q0 0.1-0.1 0.1zm-13.9-0.5q-0.1 0-0.2-0.1c-0.1-0.2 0-0.3 0.1-0.4q0.4-0.3 0.8-0.6c0.1 0 0.3 0 0.4 0.1 0 0.1 0 0.3-0.1 0.4q-0.4 0.2-0.8 0.5-0.1 0.1-0.2 0.1zm10.9-1.3q0 0-0.1 0-0.4-0.2-0.9-0.4c-0.1 0-0.2-0.1-0.2-0.3 0.1-0.1 0.2-0.2 0.4-0.1q0.4 0.1 0.9 0.3c0.1 0.1 0.2 0.2 0.1 0.3q0 0.2-0.2 0.2zm-7.8-0.3q-0.2 0-0.2-0.2c-0.1-0.1 0-0.3 0.1-0.3q0.5-0.2 1-0.3c0.1 0 0.3 0.1 0.3 0.2 0 0.1 0 0.3-0.2 0.3q-0.5 0.1-0.9 0.3 0 0-0.1 0zm4.4-0.5q0 0 0 0-0.5-0.1-0.9-0.1c-0.2 0-0.3-0.1-0.3-0.2 0-0.2 0.1-0.3 0.2-0.3v0.3l0.1-0.3q0 0 0 0 0.5 0 1 0.1c0.1 0 0.2 0.1 0.2 0.2 0 0.2-0.1 0.3-0.3 0.3z"/><path fill-rule="evenodd" class="j" d="m1058.2 392.5c-7.9 0-14.3-6.4-14.3-14.3 0-7.9 6.4-14.3 14.3-14.3 7.9 0 14.3 6.4 14.3 14.3 0 7.9-6.4 14.3-14.3 14.3zm0-28.1c-7.6 0-13.8 6.2-13.8 13.8 0 7.6 6.2 13.8 13.8 13.8 7.6 0 13.8-6.2 13.8-13.8 0-7.6-6.2-13.8-13.8-13.8z"/><path fill-rule="evenodd" class="t" d="m1051.5 376.6q0-1.1 0.2-1.8 0.2-0.7 0.7-1.1 0.4-0.3 1.1-0.3 0.5 0 0.9 0.2 0.4 0.2 0.6 0.6 0.3 0.3 0.4 0.9 0.2 0.5 0.2 1.5 0 1.1-0.2 1.8-0.3 0.7-0.7 1-0.5 0.4-1.2 0.4-0.9 0-1.4-0.6-0.6-0.8-0.6-2.6zm0.8 0q0 1.5 0.3 2.1 0.4 0.5 0.9 0.5 0.6 0 0.9-0.5 0.4-0.6 0.4-2.1 0-1.6-0.4-2.1-0.3-0.5-0.9-0.5-0.5 0-0.8 0.5-0.4 0.5-0.4 2.1z"/><path fill-rule="evenodd" class="u" d="m1060.1 380.7q0-1.1 0.3-1.8 0.2-0.7 0.7-1.1 0.4-0.4 1.1-0.4 0.5 0 0.9 0.2 0.4 0.3 0.6 0.6 0.3 0.4 0.4 1 0.2 0.5 0.2 1.5 0 1.1-0.3 1.8-0.2 0.7-0.7 1-0.4 0.4-1.1 0.4-0.9 0-1.4-0.6-0.7-0.8-0.7-2.6zm0.8 0q0 1.5 0.4 2.1 0.4 0.5 0.9 0.5 0.5 0 0.9-0.6 0.4-0.5 0.4-2 0-1.6-0.4-2.1-0.4-0.5-0.9-0.5-0.5 0-0.9 0.4-0.4 0.6-0.4 2.2z"/><path class="j" d="m1109.7 285.2h-3.5c-0.1 0-0.2-0.1-0.2-0.2 0-0.1 0.1-0.2 0.2-0.2h3.3c0-0.5 0.3-1.9 1.5-2.4 1.2-0.5 2.2-0.1 2.5 0.2 0.3-0.3 1.3-1.1 2.7-0.6 1.3 0.4 1.4 1.8 1.4 2.3h6.3c0.1 0 0.1 0.1 0.1 0.2 0 0.1 0 0.2-0.1 0.2h-6.5q-0.1 0-0.1-0.1-0.1 0-0.1-0.1c0-0.1 0.2-1.7-1.1-2.2-1.5-0.5-2.4 0.5-2.4 0.6-0.1 0.1-0.2 0.1-0.3 0 0 0-0.9-0.7-2.2-0.2-1.3 0.6-1.4 2.3-1.4 2.3 0 0.1 0 0.2-0.1 0.2z"/><path class="j" d="m957.1 343.5c0 0-0.1-1.7-1.3-2.2-1.3-0.6-2.2 0.1-2.3 0.1-0.1 0.1-0.2 0.1-0.2 0-0.1 0-1-1.1-2.5-0.5-1.2 0.4-1.1 2-1.1 2.1q0 0.1 0 0.1-0.1 0.1-0.2 0.1h-6.4c-0.1 0-0.2-0.1-0.2-0.2 0-0.1 0.1-0.1 0.2-0.1h6.3c0-0.6 0.1-1.9 1.3-2.4 1.4-0.5 2.4 0.3 2.7 0.6 0.4-0.2 1.3-0.7 2.5-0.2 1.2 0.6 1.5 2 1.5 2.5h3.4c0.1 0 0.1 0 0.1 0.1 0 0.1 0 0.2-0.1 0.2h-3.5c-0.1 0-0.2-0.1-0.2-0.2z"/><path class="j" d="m1106.2 296.4c0-0.1-0.1-3.7-2.7-4.8-2.8-1.2-4.7 0.3-4.8 0.4-0.1 0.1-0.3 0.1-0.5-0.1-0.1-0.1-2.1-2.2-5.1-1.1-2.7 0.9-2.3 4.3-2.3 4.5q0 0.1-0.1 0.3-0.1 0.1-0.3 0.1h-13.5c-0.2 0-0.4-0.2-0.4-0.4 0-0.2 0.2-0.4 0.4-0.4h13.1c0-1 0.2-3.9 2.8-4.8 2.9-1.1 5.1 0.5 5.7 1.1 0.7-0.4 2.7-1.4 5.2-0.3 2.6 1.1 3.1 4.1 3.2 5.1h7c0.2 0 0.4 0.2 0.4 0.4 0 0.2-0.2 0.3-0.4 0.3h-7.3c-0.2 0-0.4-0.1-0.4-0.3z"/><path fill-rule="evenodd" class="v" d="m15 373.3c-0.3 0.1-0.5-0.1-0.5-0.3l-14.2-51.3c-0.1-0.2 0-0.4 0.2-0.5l43.4-12c0.2 0 0.4 0.1 0.5 0.3l14.2 51.3c0 0.2-0.1 0.4-0.3 0.5zm0.2-0.9l42.5-11.8-14-50.5-42.5 11.8z"/><path fill-rule="evenodd" class="w" d="m9.2 331.4c-0.1 0-0.2-0.1-0.2-0.1l-1.3-4.8c0 0 0-0.1 0.1-0.1l32.9-9.1c0.1 0 0.2 0 0.2 0l1.3 4.8c0 0.1 0 0.1-0.1 0.1zm0.1-0.2l32.6-9.1-1.2-4.5-32.7 9.1z"/><path class="x" d="m18.6 365.4c-0.1 0-0.2-0.1-0.2-0.1l-5.5-19.9c0-0.1 0.1-0.1 0.1-0.2 0.1 0 0.2 0.1 0.2 0.1l5.5 19.7 32.7-9c0.1-0.1 0.2 0 0.2 0.1 0 0 0 0.1-0.1 0.1z"/><path fill-rule="evenodd" class="y" d="m10.2 335c-0.1 0-0.2 0-0.2-0.1l-0.4-1.4c0-0.1 0.1-0.1 0.1-0.2l33-9.1c0 0 0.1 0 0.1 0.1l0.4 1.4c0 0.1 0 0.1-0.1 0.2zm0.1-0.3l32.6-9-0.3-1.2-32.6 9z"/><path fill-rule="evenodd" class="z" d="m10.9 337.6c0 0.1-0.1 0-0.1 0l-0.4-1.4c0-0.1 0-0.2 0.1-0.2l32.9-9.1c0.1 0 0.2 0 0.2 0.1l0.4 1.4c0 0-0.1 0.1-0.1 0.1zm0-0.2l32.7-9.1-0.3-1.2-32.7 9.1z"/><path fill-rule="evenodd" class="A" d="m11.7 340.3c-0.1 0-0.2 0-0.2-0.1l-0.4-1.4c0 0 0-0.1 0.1-0.1l32.9-9.1c0.1 0 0.2 0 0.2 0l0.4 1.5c0 0 0 0.1-0.1 0.1zm0.1-0.3l32.6-9-0.3-1.2-32.7 9.1z"/><path class="B" d="m25.2 363.3c-0.1 0-0.2-0.1-0.2-0.1l-2.1-7.7-3.7 1 2.1 7.7c0.1 0.1 0 0.1-0.1 0.2 0 0-0.1-0.1-0.1-0.1l-2.2-7.8c0-0.1 0-0.2 0.1-0.2l3.9-1.1c0.1 0 0.2 0 0.2 0.1l2.2 7.8c0 0.1-0.1 0.1-0.1 0.2z"/><path class="C" d="m31.2 361.6c-0.1 0-0.1 0-0.2-0.1l-3.2-11.8-3.7 1 3.3 11.8c0 0.1 0 0.2-0.1 0.2-0.1 0-0.2 0-0.2-0.1l-3.3-11.9c0-0.1 0-0.2 0.1-0.2l3.9-1.1c0.1 0 0.2 0 0.2 0.1l3.3 11.9c0 0.1 0 0.2-0.1 0.2z"/><path class="D" d="m37.3 359.9c-0.1 0-0.2 0-0.2-0.1l-2.1-7.6-3.7 1 2.1 7.6c0 0.1 0 0.2-0.1 0.2-0.1 0-0.1 0-0.2-0.1l-2.1-7.8c0 0 0-0.1 0.1-0.1l3.9-1.1c0.1-0.1 0.2 0 0.2 0.1l2.2 7.7c0 0.1-0.1 0.2-0.1 0.2z"/><path class="E" d="m43.3 358.2c-0.1 0.1-0.2 0-0.2-0.1l-4.8-17.2-3.6 1 4.8 17.3c0 0-0.1 0.1-0.1 0.1-0.1 0.1-0.2 0-0.2-0.1l-4.8-17.4c0 0 0-0.1 0.1-0.1l3.9-1.1c0.1 0 0.2 0 0.2 0.1l4.8 17.4c0 0 0 0.1-0.1 0.1z"/><path class="F" d="m49.3 356.6c0 0-0.1-0.1-0.1-0.1l-5.8-20.7-3.6 1 5.7 20.7c0 0.1 0 0.1-0.1 0.2-0.1 0-0.1-0.1-0.2-0.1l-5.7-20.9c-0.1 0 0-0.1 0.1-0.1l3.9-1.1c0.1-0.1 0.2 0 0.2 0.1l5.7 20.8c0.1 0.1 0 0.1-0.1 0.2z"/></svg>