<svg version="1.2" xmlns="http://www.w3.org/2000/svg" viewBox="0 0 499 285" width="499" height="285"><defs><clipPath clipPathUnits="userSpaceOnUse" id="cp1"><path d="m498.28-136.53v421.53h-597.28v-421.53z"/></clipPath><linearGradient id="P" gradientUnits="userSpaceOnUse"/><linearGradient id="g1" x1="-9.8" y1="244.1" x2="80.6" y2="228.5" href="#P"><stop stop-color="#eb1e27"/><stop offset="1" stop-color="#eb9322"/></linearGradient><linearGradient id="g2" x1="1.9" y1="294.7" x2="85.7" y2="280.2" href="#P"><stop stop-color="#eb1e27"/><stop offset="1" stop-color="#eb9322"/></linearGradient><linearGradient id="g3" x1="16.7" y1="254.2" x2="62.2" y2="246.4" href="#P"><stop stop-color="#eb9322"/><stop offset="1" stop-color="#eb1e27"/></linearGradient><linearGradient id="g4" x1="406.2" y1="195.4" x2="484.3" y2="113.4" href="#P"><stop stop-color="#eb1e27"/><stop offset="1" stop-color="#eb9322"/></linearGradient><linearGradient id="g5" x1="361.2" y1="184.2" x2="470.5" y2="69.3" href="#P"><stop stop-color="#eb1e27"/><stop offset="1" stop-color="#eb9322"/></linearGradient><clipPath clipPathUnits="userSpaceOnUse" id="cp2"><path d="m498.28-136.53v421.53h-597.28v-421.53z"/></clipPath><linearGradient id="g6" x1="454.7" y1=".1" x2="454.7" y2="32.3" href="#P"><stop stop-color="#eb1e27"/><stop offset="1" stop-color="#eb9322"/></linearGradient></defs><style>.a{fill:url(#g1)}.b{fill:url(#g2)}.c{fill:url(#g3)}.d{fill:url(#g4)}.e{fill:url(#g5)}.f{fill:url(#g6)}.g{fill:none}</style><g clip-path="url(#cp1)"><path fill-rule="evenodd" class="a" d="m9.3 302c-0.3 0-0.6-0.2-0.7-0.5l-8.4-48.9c-0.1-0.3 0.1-0.6 0.4-0.7l72.8-12.5c0.3-0.1 0.6 0.1 0.7 0.4l8.4 49c0.1 0.3-0.1 0.6-0.4 0.6zm0.3-1.2l71.7-12.3-8.3-47.9-71.6 12.4z"/><path fill-rule="evenodd" class="b" d="m10.6 309.7q-0.3 0-0.5-0.2l-5-4.7q-0.1-0.1-0.2-0.3l-0.3-2.3c-0.1-0.3 0.1-0.5 0.4-0.6l81-14c0.3 0 0.6 0.2 0.6 0.5l0.4 2.2q0 0.2-0.1 0.4l-3.1 6.1q-0.1 0.3-0.4 0.3zm-4.6-5.6l4.7 4.5 72.2-12.5 2.9-5.7-0.2-1.6-79.9 13.8z"/><path class="c" d="m62.4 252.9l0.8 4.6c0.1 0.1 0 0.2-0.2 0.2-0.1 0.1-0.2 0-0.3-0.2l-0.6-3.9-19.3 27.2c-0.1 0.2-0.2 0.2-0.3 0.1l-8.6-6-10.6 15q-0.1 0.1-0.2 0.1 0 0-0.1 0c-0.2-0.1-0.2-0.3-0.1-0.4l10.8-15.2c0-0.1 0.2-0.2 0.3-0.1l8.5 6 19.1-27-3.9 0.7c-0.2 0-0.3-0.1-0.3-0.3-0.1-0.1 0-0.2 0.2-0.2l4.6-0.8q0 0 0 0 0.1 0 0.2 0.1 0 0 0 0.1z"/><path class="d" d="m449 154.8h28c0.2 0.1 0.3 0.2 0.4 0.5v27.8q-0.1 0.2-0.2 0.4-0.1 0.1-0.4 0.1-0.2 0-0.3-0.1-0.2-0.2-0.2-0.4v-26.5l-30.5 30.5c-0.2 0.2-0.5 0.2-0.7 0q-0.2-0.2-0.2-0.4 0-0.2 0.2-0.4l30.5-30.5h-26.6q-0.2 0-0.3-0.1-0.2-0.2-0.2-0.4 0-0.2 0.2-0.4 0.1-0.1 0.3-0.1z"/><path fill-rule="evenodd" class="e" d="m495.2 138.3c17.8 17.7 17.8 46.6 0 64.4-17.7 17.7-46.6 17.7-64.4 0-17.7-17.8-17.7-46.7 0-64.4 17.8-17.8 46.7-17.8 64.4 0zm-0.6 0.6c-17.4-17.4-45.7-17.4-63.1 0-17.5 17.4-17.5 45.7-0.1 63.1 17.5 17.5 45.8 17.4 63.2 0 17.4-17.4 17.4-45.7 0-63.1z"/></g><g clip-path="url(#cp2)"><path class="f" d="m422.8 32.1c-0.4-0.4-0.4-1 0-1.4l28.6-28.6h-9.6c-0.5 0-0.9-0.5-0.9-1 0-0.6 0.4-1 0.9-1h12q0.2 0 0.3 0.1 0.4 0.1 0.6 0.5 0 0.2 0 0.4v11.9c0 0.5-0.4 1-0.9 1-0.6 0-1-0.5-1-1v-9.6l-28.7 28.7c-0.3 0.3-0.9 0.3-1.3 0z"/><path class="g" d="m499.3-136.5v421.5h-597.3v-421.5z"/></g></svg>