<svg version="1.2" xmlns="http://www.w3.org/2000/svg" viewBox="0 0 371 95" width="371" height="95"><style>.a{opacity:.3;fill:#666d70}.b{fill:none;stroke:#666d70;stroke-linecap:round;stroke-linejoin:round;stroke-width:.5}.c{fill:#666d70}.d{fill:none;stroke:#666d70;stroke-linecap:round;stroke-linejoin:round;stroke-width:.8}</style><path class="a" d="m202.6 27.3c0 0 1.8 1.9 6.6 2.1 9 0.4 13.1-4.4 13.1-4.4l1.3-0.2 0.6-0.1c0 0 0 3.3 0 4.4-0.1 1.1-0.5 4.3-2.4 6.2-2 1.9-4.5 3.7-7.8 4.7-3.4 1.1-6.2 0.8-7.7-0.1-1.5-0.9-3.6-2.6-3.6-5.6 0-2.9-0.1-7-0.1-7z"/><path class="b" d="m121.6 19c0 0 0 6.8 0 7.8 0 1-0.8 1.5-1.6 1.5-1.6 0-1.5-1.6-1.5-1.6"/><path class="b" d="m122.8 31.6c0 0-1.2 0.8-3.2 0.8-1.6 0-2.8-1-2.8-1"/><path class="c" d="m115.3 22.4c0 0.5-0.4 1-1 1-0.5 0-1-0.5-1-1 0-0.5 0.5-1 1-1 0.6 0 1 0.5 1 1z"/><path class="c" d="m126.7 22.4c0 0.5-0.4 1-1 1-0.5 0-1-0.5-1-1 0-0.5 0.5-1 1-1 0.6 0 1 0.5 1 1z"/><path class="b" d="m71.5 20c0 0 0 5.4 0 6.4 0 1-0.8 1.5-1.6 1.5-1.6 0-1.5-1.6-1.5-1.6"/><path class="c" d="m65.8 22.6c0 0.5-0.4 0.9-0.9 0.9-0.4 0-0.8-0.4-0.8-0.9 0-0.5 0.4-0.9 0.8-0.9 0.5 0 0.9 0.4 0.9 0.9z"/><path class="c" d="m75.8 22.6c0 0.5-0.4 0.9-0.8 0.9-0.5 0-0.9-0.4-0.9-0.9 0-0.5 0.4-0.9 0.9-0.9 0.4 0 0.8 0.4 0.8 0.9z"/><path class="d" d="m120 37.5c-6.1 0-11.1-5-11.1-11.2v-13.2c0-2.9 2.4-5.3 5.3-5.3h11.6c3 0 5.3 2.4 5.3 5.3v13.2c0 6.2-4.9 11.2-11.1 11.2z"/><path class="d" d="m131.2 17.4c0 0 0.7 0 1.5 0 0.8 0 1.9 0.7 1.7 2.6-0.2 1.9-0.4 2.6-0.8 4.1-0.3 1.1-0.7 1.7-1.5 2-0.3 0.1-1 0.1-1 0.1"/><path class="d" d="m108.9 26.2c0 0-0.7 0-1-0.1-0.8-0.3-1.2-0.9-1.5-2-0.4-1.5-0.6-2.2-0.8-4.1-0.2-1.9 0.9-2.6 1.7-2.6 0.8 0 1.5 0 1.5 0"/><path class="d" d="m117.7 7.8c0 0-2.4-0.3-3.5-2.3-1.1-2-1-4.6-1-4.6 0 0 8.6 0 13.3 0 4.6 0 6.8 4.4 6.8 6.3 0 1.9 0 10.3 0 10.3"/><path class="d" d="m106.8 17.3c0 0 0-6.4 0-9.8 0-3.5 3.9-5.1 4.9-5.1 1 0 1.5 0 1.5 0"/><path class="d" d="m114.7 36.1c0 0 0 2.2 0 3.1 0 1.4-0.8 2.3-0.8 2.3"/><path class="d" d="m126.2 41.5c0 0-0.8-0.9-0.8-2.3 0-0.9 0-3.1 0-3.1"/><path class="d" d="m61 31.6c0 0-1 0-1.7 0-0.7 0-2-0.3-2.5-1.7-0.5-1.3-1.7-5.4-2.4-8.8-0.7-3.4 0.2-7.6 2.4-10.6 2.6-3.7 7-5.9 9.9-5.9 2.4 0 13.5 0 13.5 0 0 0 0.5 3.1-1.8 6.3-2.3 3.2-6.6 3.4-8 3.4h-6.4c-2.5 0-4.5 2-4.5 4.5v3.5"/><path class="d" d="m76.7 12.5c1.2 0.9 1.9 2.2 1.9 3.7v10c0 5.2-4.2 9.5-9.4 9.5h-0.2c-5.2 0-9.5-4.3-9.5-9.5"/><path class="d" d="m64.1 34.3c0 0 0 2 0 2.8 0 1.2-0.8 2.1-0.8 2.1"/><path class="d" d="m74.2 39.2c0 0-0.7-0.9-0.7-2.1 0-0.8 0-2.3 0-2.3"/><path class="d" d="m96 66.9c0-8.1 0-15.1 0-16.3 0-3.2 3.5-9 9.9-9 6.5 0 24.6 0 27.8 0 3.3 0 9.5 2.6 9.8 10.8 0.3 8 1.2 41.4 1.2 41.4"/><path class="d" d="m95.1 93.8c0 0 0.1-3.4 0.2-8.8"/><path class="b" d="m133.5 93.7v-34.9"/><path class="b" d="m106.2 93.7v-34.9"/><path class="d" d="m43.6 75.9l10.1-13.3 7.5 5.8c0 0-8.8 11.7-11 14.5-2.1 2.8-6.4 3.5-9.5 1.4-3-2-3.2-6.8-2.5-8.6 0.7-1.9 10.9-26.4 12.8-30.8 1.9-4.5 5.4-5.5 7.6-5.5 2.2 0 16.1 0 20.1 0 4.1 0 6.9 3.3 7.7 4.9 0.8 1.5 11.1 26.5 12.6 30 1.4 3.5 1.3 8-2.6 10.3-4 2.3-8.4-0.8-9.7-2.7-1.4-1.8-6.4-10.1-6.4-10.1l7.4-5.8 6.3 9.9"/><path class="d" d="m54.4 62.8c0 0 0.2-1.1 0.9-2.3 0.6-1.3 1.5-1.9 1.5-1.9"/><path class="d" d="m56.4 61.5c0 0 1.5-1.7 1.9-2 0.3-0.4 2.2-0.3 3.1-0.3 0.9 0 9 0 9.8 0 0.8 0 1.1 0.5 1.1 0.9 0.1 0.4-0.3 1-0.3 1"/><path class="d" d="m62.8 61.3c0 0 7.1 0 8.3 0 1.2 0 2.6 0 2.6 1.1-0.1 1.1-1.4 1.1-2.4 1.1-1 0-8.4 0-8.4 0"/><path class="d" d="m72 63.7c0 0 0.4 0.7 0.3 1.2-0.1 0.6-0.5 0.8-1.3 0.8-0.9 0-8.3 0-8.3 0"/><path class="d" d="m69.1 66.1c0 0 0.2 0.3 0.2 0.8 0 0.4-0.5 1-1.2 1-0.8 0-7.3 0-7.3 0"/><path class="d" d="m57.1 60.2v-13.9h20v31h-20.1v-3.2"/><path class="b" d="m59.1 45.2v2.1"/><path class="b" d="m61.8 45.2v2.1"/><path class="b" d="m64.5 45.2v2.1"/><path class="b" d="m67.1 45.2v2.1"/><path class="b" d="m69.8 45.2v2.1"/><path class="b" d="m72.5 45.2v2.1"/><path class="b" d="m75.2 45.2v2.1"/><path class="d" d="m77.5 61.6c0 0 3.9 0 4.8 0 0.9 0 1.6 1.1 2.2 1.8 0.7 0.7 2.5 2.9 2.5 2.9"/><path class="d" d="m77.1 70.3h4.6"/><path class="d" d="m78.6 63.8h-1.2"/><path class="d" d="m78.6 66h-1.2"/><path class="d" d="m78.6 68.2h-1.2"/><path class="d" d="m78.8 61.5l2.8-9.7 1.4 0.3-2.6 9.4"/><path class="d" d="m87.5 83v10.7"/><path class="d" d="m50.1 83v10.7"/><path class="d" d="m79.6 8.9c0 0 2.3 2.5 1.7 6.3-0.5 3.8-2.1 6.9-2.1 6.9"/><path class="d" d="m79 22.4c0 0 2.1 0.2 2.1 2.4 0 1.8-2.1 1.9-2.1 1.9"/><path class="d" d="m60.7 26.7c0 0-2.1-0.3-2.1-2.1 0-2.2 2.1-2.2 2.1-2.2"/><path class="b" d="m67.2 30.7h4.4c0 0-0.6 1.5-2.2 1.5-1.6 0-2.2-1.5-2.2-1.5z"/><path class="b" d="m73.5 18.9c0 0 0.7-0.3 1.7-0.3 0.9 0 1.7 0.4 1.7 0.4"/><path class="b" d="m63 18.9c0 0 0.8-0.3 1.7-0.3 0.9 0 1.7 0.4 1.7 0.4"/><path class="b" d="m112.1 18.1h3.7"/><path class="b" d="m124.2 18.1h3.7"/><path class="d" d="m173.3 28c0 0 0 0.4 0 0.6 0 1.1-1.7 8-9.5 8-6.6 0-8.8-6.7-8.8-8.7 0-1.9 0-9 0-9"/><path class="d" d="m173.4 23.7v-2.1"/><path class="d" d="m174.7 21.2c0 0-1.2 0-2.5 0-1.4 0-3.6-0.1-6.2-2.3-2.6-2.2-3.5-4.5-3.5-4.5"/><path class="d" d="m163.5 11.3c0 0-1 4-3.9 5.7-2.9 1.7-5.5 1.7-5.5 1.7"/><path class="b" d="m161.9 28.9c0 0-0.2 0-0.8 0-0.6 0-1-0.8-0.6-1.8 0.3-1 1.5-4.4 1.5-4.4"/><path class="c" d="m167.5 24.4c0 0.4-0.4 0.8-0.8 0.8-0.5 0-0.8-0.4-0.8-0.8 0-0.5 0.3-0.8 0.8-0.8 0.4 0 0.8 0.3 0.8 0.8z"/><path class="c" d="m159.2 24.4c0 0.4-0.4 0.8-0.8 0.8-0.5 0-0.8-0.4-0.8-0.8 0-0.5 0.3-0.8 0.8-0.8 0.4 0 0.8 0.3 0.8 0.8z"/><path class="b" d="m165.2 31.6c0 0-0.7 0.5-1.9 0.6-1.1 0.1-1.7-0.3-1.7-0.3"/><path class="b" d="m165.2 22.1c0 0 0.6-0.2 1.7-0.2 1 0 1.6 0.3 1.6 0.3"/><path class="b" d="m156.9 22.2c0 0 0.8-0.4 1.6-0.4 1.1 0.1 1.8 0.4 1.8 0.4"/><path class="d" d="m160.3 36v4.1"/><path class="d" d="m169 35.6v4.6"/><path class="d" d="m143.5 52.4c0 0 0-4.5 0-6.4 0-1.9 1.4-5.6 5.2-5.6 3.8 0 27.7 0 29.8 0 2.1 0 6.5 2.2 6.6 6.2 0.2 3.9 1.4 47 1.4 47"/><path class="b" d="m148.6 50.6l-0.8 43"/><path class="b" d="m179.5 50.6l1.8 43"/><path class="d" d="m172.2 23.9q0 0 0.8 0c0.5 0 1.8 0.6 1.8 2.1 0 1.4-1.1 2-1.5 2-0.4 0-1.1 0-1.1 0"/><path class="d" d="m149.9 40.3c0 0 0-16.9 0-19.5 0-2.6 2.7-14.7 14.6-14.7 11.9 0 14.6 10.8 14.6 14.6 0 3.8 0 19.6 0 19.6"/><path class="d" d="m202.8 17v-2.7c0-1.5 1-9.2 9.8-9.2 8.9 0 11.6 5.1 11.6 9.2 0 4.1 0 5.3 0 5.3"/><path class="d" d="m224.2 24.9c0 0 0 2.2 0 3.8 0 1.6-0.6 4.9-3.1 7.3-2.5 2.3-7 4.7-11.3 4.7-4.2 0-7.1-2.9-7.1-6.5 0-3.6 0-10.7 0-10.7"/><path class="b" d="m213.5 30.9c0 0-0.9 0.6-2.3 0.6-1.3 0.1-2-0.3-2-0.3"/><path class="b" d="m210.7 26.5c0 0-0.7 0-1.4 0-0.6 0-1.6-1-1.6-2 0-1 0-7.1 0-7.1"/><path class="d" d="m198.8 17.4h25.1"/><path class="d" d="m207.6 17.5v2c0 2.1-1.7 3.8-3.7 3.8h-0.4c-2.1 0-3.8-1.7-3.8-3.8v-2"/><path class="d" d="m218.3 17.5v2c0 2.1-1.6 3.8-3.7 3.8h-0.4c-2.1 0-3.7-1.7-3.7-3.8v-2"/><path class="b" d="m214.4 21.4c0 0-0.8 0-1.4-0.5-0.7-0.5-0.8-1.4-0.8-1.4"/><path class="b" d="m203.9 21.4c0 0-0.8 0-1.4-0.5-0.7-0.5-0.7-1.4-0.7-1.4"/><path class="d" d="m217.9 38.4c0 0 2.8 0 4.8 0 2.1 0 8.9 1.3 9.9 7.6 1 6.2 2.4 15.2 2.4 15.2"/><path class="d" d="m223.1 64.8c0 0 6.5-3.4 6.9-3.4 0.4 0 6.4 0 7.1 0 0.7 0 1.2 0.5 1.3 1 0.1 0.8-0.4 1.2-0.4 1.2"/><path class="d" d="m234 63.6c0 0 2.5 0 3.3 0 0.8 0 1.6 0.3 1.6 1.1 0 1-0.9 1.2-0.9 1.2"/><path class="d" d="m234 65.9c0 0 2.7 0 3.5 0 0.9 0 1 0.8 1 1.2 0 0.7-0.9 1.2-0.9 1.2"/><path class="d" d="m234 68.1c0 0 0.9 0 2.1 0 1.2 0 1.7 0.3 1.7 1.1 0 0.8-0.7 1.1-1.3 1.1-0.6 0-6 0-6 0l-4 1.5"/><path class="d" d="m213.4 67.5l8.8-3.9 4.4 8.6-1.2 0.4"/><path class="d" d="m236.5 70.3c0 0 0.5 2.6 0.9 4.4 0.5 2.8 0.5 5.4-1.1 7.9-1.7 2.7-5.9 3.1-7.3 2.5-1.4-0.6-29.2-12.9-29.2-12.9l4.3-8.6 24 10.3"/><path class="d" d="m200.8 72.7l-2.4 1.3"/><path class="d" d="m212.9 78.1c0 0-13.1 6.2-15.2 6.8-2.1 0.6-5.1 0.8-7.5-2.2-1.7-2-1.5-6.3-1.2-8.3 0.4-2 1.1-5.8 1.1-5.8"/><path class="d" d="m200.1 71.3l-2.5-1c0 0-5.3 0-6.2 0-0.9 0-1.1-0.6-1.3-1.1-0.2-0.5 0.2-1 0.2-1"/><path class="d" d="m194.2 68c0 0-2.5 0-3.4 0-0.9 0-1.3-0.4-1.3-1 0-0.6 0.5-1.1 0.5-1.1"/><path class="d" d="m194.3 65.9c0 0-3.3 0-4 0-0.7 0-1.2-0.4-1.1-1.2 0-0.7 0.7-1.2 0.7-1.2"/><path class="d" d="m194.2 63.6c0 0-3.3 0-3.8 0-0.5 0-0.9-0.6-0.9-1.3 0.1-0.7 0.9-1 1.4-1 0.6 0 6.5 0 6.9 0 0.5 0 5.9 2.9 5.9 2.9"/><path class="b" d="m200.6 62.5l1.5-8.1"/><path class="b" d="m225.2 54.7l1.5 7.9"/><path class="d" d="m193.6 85.3v8.1"/><path class="d" d="m232.7 85.3v8.1"/><path class="d" d="m242.2 93.6h-209.8"/><path class="d" d="m191.4 61.2c0 0 1.5-9.1 2.4-15.1 0.9-6.1 7.4-7.5 8.6-7.5 1.1 0 2.1 0 2.1 0"/><path class="d" d="m222.3 19.7c0 0 0.5 0 1.2 0 0.7 0 2.2 0.7 2.2 2.6 0 1.9-1.7 2.5-2.2 2.5-0.5 0-1.6 0-1.6 0"/><path class="d" d="m265.5 18.9v11.5c0 1.3-1.1 2.4-2.4 2.4h-7.2l-5.2 5.2v-5.2h-4.9c-1.4 0-2.4-1.1-2.4-2.4v-11.5c0-1.3 1-2.3 2.4-2.3h17.3c1.3 0 2.4 1 2.4 2.3z"/><path class="d" d="m248.8 21.3h11.7"/><path class="d" d="m248.8 25.1h11.7"/><path class="d" d="m248.8 28.9h5.8"/><path class="d" d="m1.3 20.9l3.6-3.7c0.7-0.6 1.7-0.6 2.4 0l20.4 20.4-6 6-20.4-20.4c-0.7-0.6-0.7-1.7 0-2.3z"/><path class="d" d="m27.7 37.6l1.4 7.5-7.4-1.5"/><path class="d" d="m28.2 41.8l-2.2 2.2"/><path class="d" d="m7.7 18.1l-5.4 5.4"/><path class="d" d="m6.2 20.1l19.3 19.2"/><path class="d" d="m4.1 22.2l19.3 19.2"/><path fill-rule="evenodd" class="c" d="m283.9 67.2c-5 0-9-4.1-9-9.1 0-5 4-9 9-9 5 0 9.1 4 9.1 9 0 5-4.1 9.1-9.1 9.1zm0-17.7c-4.7 0-8.6 3.9-8.6 8.6 0 4.7 3.9 8.6 8.6 8.6 4.8 0 8.6-3.9 8.6-8.6 0-4.7-3.8-8.6-8.6-8.6z"/><path class="c" d="m285.4 66.4q-0.1 0-0.1-0.1l-1.5-8.2q0-0.1 0-0.1l6.8-4.9c0-0.1 0.1-0.1 0.2 0 0 0.1 0 0.1 0 0.2l-6.7 4.9 1.4 8c0.1 0.1 0 0.2-0.1 0.2q0 0 0 0z"/><path class="d" d="m313.8 37.2c-0.3 1.4-1.6 2.3-3 2-1.4-0.2-2.3-1.6-2-3 0.2-1.3 1.6-2.2 2.9-2 1.4 0.3 2.3 1.6 2.1 3z"/><path class="d" d="m330.3 21.6c-0.3 1.4-1.6 2.3-3 2-1.4-0.3-2.3-1.6-2-3 0.3-1.4 1.6-2.3 3-2 1.3 0.3 2.2 1.6 2 3z"/><path class="d" d="m350.4 30c-0.3 1.4-1.6 2.3-3 2-1.4-0.3-2.3-1.6-2-3 0.3-1.4 1.6-2.3 3-2 1.4 0.3 2.3 1.6 2 3z"/><path class="d" d="m369.9 13.4c-0.3 1.4-1.6 2.3-3 2-1.4-0.3-2.3-1.6-2-3 0.3-1.4 1.6-2.3 3-2 1.4 0.3 2.3 1.6 2 3z"/><path class="d" d="m313.3 34.2l12.1-12.2"/><path class="d" d="m330.3 21.6l14.2 6.6"/><path class="d" d="m350.5 27.6l14.5-12.4"/></svg>