<svg version="1.2" xmlns="http://www.w3.org/2000/svg" viewBox="0 0 448 123" width="448" height="123"><defs><linearGradient id="P" gradientUnits="userSpaceOnUse"/><linearGradient id="g1" x1="-9.1" y1="-25" x2="92.4" y2="24.8" href="#P"><stop stop-color="#eb9322"/><stop offset="1" stop-color="#eb1e27"/></linearGradient><linearGradient id="g2" x1="-20" y1="-10.2" x2="91.4" y2="44.5" href="#P"><stop stop-color="#eb9322"/><stop offset="1" stop-color="#eb1e27"/></linearGradient><linearGradient id="g3" x1="-22.1" y1="-3.3" x2="91.2" y2="52.3" href="#P"><stop stop-color="#eb9322"/><stop offset="1" stop-color="#eb1e27"/></linearGradient><linearGradient id="g4" x1="-20.6" y1="-15.2" x2="92.7" y2="40.4" href="#P"><stop stop-color="#eb9322"/><stop offset="1" stop-color="#eb1e27"/></linearGradient><linearGradient id="g5" x1="-13.7" y1="-17.8" x2="96.1" y2="36.2" href="#P"><stop stop-color="#eb9322"/><stop offset="1" stop-color="#eb1e27"/></linearGradient></defs><style>.a{fill:none;stroke:#666d70;stroke-linecap:round;stroke-linejoin:round;stroke-width:.8}.b{fill:none;stroke:#666d70;stroke-linecap:round;stroke-linejoin:round;stroke-width:.5}.c{fill:none;stroke:#848c91;stroke-linecap:round;stroke-linejoin:round;stroke-width:.8}.d{fill:#666d70}.e{fill:url(#g1)}.f{fill:url(#g2)}.g{fill:url(#g3)}.h{fill:url(#g4)}.i{fill:url(#g5)}.j{fill:#c44614}</style><path class="a" d="m367.1 41.6c0 0 0-1 0-2.7 0-1.7-3.7-2.1-8.2-2.1-4.4 0-4.2-5.8-4.2-5.8 0 0 5.4 0 7.7 0 2.4 0 5.4 1.3 6.9 3.9 1.4 2.7 1.1 6.1 0.6 8.2-0.4 2.1-1.6 3.7-2.2 4.1-0.7 0.4-1.7 0.2-1.7 0.2"/><path class="a" d="m367 44.3c0 0-0.2 5.3-5.3 5.3-4.9 0-5.9-3.6-5.9-7 0-3.3 0-4.1 0-4.7 0-1 0.7-1.9 0.7-1.9"/><path class="a" d="m366.2 41.8c0 0 1.7-0.2 1.7 1.2 0 1.5-1.8 1.3-1.8 1.3"/><path class="a" d="m355 41.9c0 0-1.1-2.7-1.2-4.8 0-2.1 1.2-3.3 1.2-3.3"/><path class="a" d="m355.8 44.2c0 0-0.6-0.1-0.9-0.1-0.3 0-0.8-0.3-0.7-1.3 0.1-0.8 1.5-0.9 1.5-0.9"/><path class="b" d="m360.1 44.8c0 0-0.9 0.1-1.2-0.2-0.2-0.3 0.2-1 0.3-1.5 0.2-0.5 0.6-2 0.6-2"/><path class="b" d="m361.9 40.5c0 0 0.5-0.4 1-0.4 0.5 0 0.7 0.3 0.7 0.3"/><path class="b" d="m356.9 40.6c0 0 0.4-0.3 0.8-0.3 0.5 0 0.9 0.2 0.9 0.2"/><path class="b" d="m361.9 46.8c0 0-0.4 0.4-1.3 0.3-0.9-0.1-1.1-0.5-1.1-0.5"/><path class="a" d="m359.2 49.3v2.6"/><path class="a" d="m364.5 49v3"/><path class="a" d="m340.8 66.7c0 0 8-10.7 9.3-12.3 1.2-1.6 3.7-2.2 5.1-2.2 1.5 0 13 0 15.2 0 2.3 0 7 1.9 5.9 8.4-1 6.5-2.9 16.5-2.9 16.5"/><path class="a" d="m351.3 58.5v19.1"/><path class="a" d="m369.3 59.1l-3.1 15.9"/><path class="a" d="m355.2 79.5v-4.5h12.1"/><path class="a" d="m353.1 83.2h-27.3c0 0-2.9-11.5-3.1-13.3-0.1-1.8 0.1-3.1 1.6-3.1 1.4 0 17.7 0 19.4 0 1.7 0 2.9 1.2 3.2 2.5 0.3 1.3 2.7 12.2 2.7 12.2h4.1"/><path class="a" d="m346.9 58.3c0 0 0-1 0-3 0-1.9 3-6.4 6.5-6.4 3.5 0 4.9 0 4.9 0"/><path class="a" d="m365 48.8c0 0 17.4 0 21.1 0 3.8 0 9 1.8 8.4 8.9-0.6 7-2.8 20.6-2.8 20.6"/><path class="b" d="m379.9 77.2c0 0 0.1-18.6 0.3-21.9 0.2-3.4 3-6.2 5.9-6.5"/><path class="a" d="m360 77.2c0 0 24.3 0 27.2 0 2.9 0 8.2 1.4 7.8 7.1-0.4 5.8-3.9 7.4-7.3 7.4-3.5 0-24.9 0-24.9 0"/><path class="a" d="m335.1 121.6v-5.3l8.9-24h9.3"/><path class="a" d="m342 83.2c-1.5 0-4.2 1-5.2 3.7-1.1 2.8-9 29-9 29 0 0-9.8 3.5-10.5 3.9-0.7 0.3-0.5 1.7-0.5 1.7"/><path class="a" d="m389.6 91.5v30.2h-84.6c0 0-0.1-1.6 1.2-2.1 1.2-0.5 10-3.8 10-3.8 0 0 8.4-27.6 9.3-29.6 0.9-2.1 4.2-2.9 4.2-2.9"/><path class="a" d="m323.7 117.3l-0.1-1.2 8.7-23.7h2.5"/><path class="b" d="m316.2 115.8l7.4 0.3"/><path class="b" d="m327.8 115.9l7.3 0.4"/><path class="b" d="m353.4 121.6c0 0 0-33.5 0-37.2 0-3.7 2.6-6.6 5.7-7.2 1.6-0.3 8.9-0.5 8.9 7.4 0 5.3-5.3 6.4-5.3 6.4v30.7"/><path class="b" d="m362.2 84.6c0 0.8-0.7 1.5-1.5 1.5-0.8 0-1.5-0.7-1.5-1.5 0-0.8 0.7-1.5 1.5-1.5 0.8 0 1.5 0.7 1.5 1.5z"/><path class="b" d="m322.7 84.6c0 0.8-0.6 1.5-1.5 1.5-0.8 0-1.5-0.7-1.5-1.5 0-0.8 0.7-1.5 1.5-1.5 0.9 0 1.5 0.7 1.5 1.5z"/><path class="a" d="m319.3 105.3v-13.9c0 0-4.2-1.3-4.8-4.9-0.6-3.5 0.2-6.3 3.2-8.2 2.9-1.8 6.7-0.9 6.7-0.9"/><path class="a" d="m326.1 109v7.4"/><path class="a" d="m349.6 80.9c0 0 0.2-1.3 0.9-2.5 0.7-1.1 2.4-1.9 3.5-1.9 1 0 1 0 1 0"/><path class="a" d="m351.3 62.9l-4.4 6.4"/><path class="a" d="m343 66.8c0 0 1.8 0.3 2.4 3.4 0.7 3.1 2.7 12.9 2.7 12.9"/><path class="a" d="m348.9 77.1c0 0 0.5-0.1 0.8 0.2 0.6 0.5 0.8 1.1 0.8 1.1"/><path class="a" d="m363.1 42.3c0 0.2-0.1 0.4-0.3 0.4-0.2 0-0.4-0.2-0.4-0.4 0-0.2 0.2-0.4 0.4-0.4 0.2 0 0.3 0.2 0.3 0.4z"/><path class="a" d="m358.1 42.3c0 0.2-0.2 0.4-0.4 0.4-0.2 0-0.3-0.2-0.3-0.4 0-0.2 0.1-0.4 0.3-0.4 0.2 0 0.4 0.2 0.4 0.4z"/><path class="a" d="m340.6 83.3c0 0-2.4 1.3-3.3 2.5-0.8 1.1-2.5 6.6-2.5 6.6h-2.5c0 0 0.7-1.9 1.4-4.2 0.8-2.4 1.3-4.9 1.3-4.9z"/><path class="a" d="m319.1 99.9h-25.9v-4.5h26.1"/><path class="a" d="m300 100v21.6h-4v-21.6"/><path class="a" d="m296.1 86.1l1.6 9.2"/><path class="a" d="m308.1 86.4l-1.6 8.8"/><path class="a" d="m295.2 84.9h13.8v1.4h-13.8z"/><path class="a" d="m302.2 74.7v10"/><path class="a" d="m307 79.2l-4.8 4.7"/><path class="a" d="m297.3 79.3l4.9 4.6"/><path class="a" d="m305 81.2c0 0-0.6-2.6 1.2-3.8 1.8-1.2 4.1-1.2 4.1-1.2 0 0-0.5 3.6-2 4.7-1.4 1.2-3.3 0.3-3.3 0.3z"/><path class="a" d="m302.2 68c0 0 2.8 4.1 2.3 6.4-0.5 2.3-2.4 3.2-2.4 3.2 0 0-2.9-1.6-2.6-4.1 0.4-2.4 2.7-5.5 2.7-5.5z"/><path class="a" d="m294.2 76c0 0 3.1 0.3 4.5 1.7 1.3 1.5 0.8 3.7 0.8 3.7 0 0-2.1 0.7-3.6-1-1.6-1.7-1.7-4.4-1.7-4.4z"/><path class="a" d="m318.1 77.9h-8"/><path class="a" d="m305.4 77.9h-6.4"/><path class="a" d="m294.5 77.9h-153v-4.1h157.9"/><path class="a" d="m323.4 73.7h-18.7"/><path class="a" d="m265.4 73.7c0 0 0-0.5 0-0.9 0-0.5 0.8-1.9 3.1-1.9 1.9 0 13.1 0 14.7 0 1.7 0 2.8 1.4 2.8 2 0 0.6 0 0.8 0 0.8"/><path class="a" d="m270.4 65.3v5.6"/><path class="a" d="m281.2 65.3v5.6"/><path class="a" d="m292.8 65.2h-31.9c-1 0-1.9-0.9-1.9-2v-19.1c0-1.1 0.9-2 1.9-2h31.9c1.1 0 2 0.9 2 2v19.1c0 1.1-0.9 2-2 2z"/><path class="b" d="m262.9 65.2c-1.1 0-2-0.9-2-2v-19.1c0-1.1 0.9-2 2-2"/><path class="a" d="m231.3 78c0 0 0 4.1 0 6 0 2 2.5 6.9 6.9 6.9 4.4 0 21.7 0 21.7 0 0 0 10.1 22.4 10.1 22.6 0 0.2 0 8.6 0 8.6"/><path class="a" d="m252.4 77.9v5.3c0 0 5.9 0 8.6 0 2.7 0 5.5 1.6 6.1 3.7 0.5 2.1 7.7 26.9 7.7 26.9 0 0 6.6 4.8 8 5.8 1.4 1.1 1.1 2.4 0.7 2.4-0.5 0-2.4 0-4.3 0-1.9 0-7.3-2.7-7.3-2.7v2.7"/><path class="a" d="m231.5 83.1h20.9"/><path class="a" d="m261 83.2c0 0 6.6 0 8.6 0 2 0 5.6 1.5 6.9 6.8 1.3 5.3 6.8 23.9 6.8 23.9 0 0 8.5 5.6 8.9 7 0.3 1.4-0.2 1.3-0.6 1.3-0.4 0-2.5 0-3.2 0-0.7 0-4.6-1.5-4.6-1.5"/><path class="a" d="m267.8 89.6c0 0 10.3 22.7 10.5 23.7 0.3 1.1 0.2 2.9 0.2 2.9"/><path class="b" d="m288.7 117.7c0 0 0.1 0.6-0.2 0.9-0.4 0.2-1.1 0.5-3.3-0.2-2.2-0.7-6.6-3.1-6.6-3.1"/><path class="b" d="m259.9 83.3v7.6"/><path class="b" d="m280.5 117.9c0 0-0.1 0.7-0.6 0.8-0.4 0.1-1.4 0.3-4.4-0.7-2.9-1-5.6-2.9-5.6-2.9"/><path class="a" d="m257.1 96.5h-25.8c-1.1 0-1.9-0.9-1.9-2v-1.6c0-1.1 0.8-2 1.9-2h25.8c1.1 0 2 0.9 2 2v1.6c0 1.1-0.9 2-2 2z"/><path class="a" d="m247.1 96.6v4.8h-5.8v-4.9"/><path class="a" d="m241.3 114.6v-3.4h5.8v3.3"/><path class="a" d="m242.1 101.4v9.7"/><path class="a" d="m246.5 101.4v9.7"/><path class="a" d="m231 117.3c0 0-0.3-2.6 2.2-2.6 2.5 0 21.3 0 22.8 0 1.7 0 1.8 2.5 1.8 2.5z"/><path class="a" d="m235.1 119.8c0 1.2-0.9 2.1-2.1 2.1-1.1 0-2-0.9-2-2.1 0-1.1 0.9-2.1 2-2.1 1.2 0 2.1 1 2.1 2.1z"/><path class="a" d="m246.2 119.8c0 1.2-0.9 2.1-2 2.1-1.2 0-2.1-0.9-2.1-2.1 0-1.1 0.9-2.1 2.1-2.1 1.1 0 2 1 2 2.1z"/><path class="a" d="m257.8 119.8c0 1.2-0.9 2.1-2 2.1-1.2 0-2.1-0.9-2.1-2.1 0-1.1 0.9-2.1 2.1-2.1 1.1 0 2 1 2 2.1z"/><path class="a" d="m185.8 97.9h-25.8c-1 0-1.9-0.8-1.9-1.9v-1.6c0-1.1 0.9-2 1.9-2h25.8c1.1 0 2 0.9 2 2v1.6c0 1.1-0.9 1.9-2 1.9z"/><path class="a" d="m175.8 98.1v3.3h-5.8v-3.4"/><path class="a" d="m170 114.6v-3.4h5.8v3.3"/><path class="a" d="m170.8 101.4v9.7"/><path class="a" d="m175.2 101.4v9.7"/><path class="a" d="m159.7 117.3c0 0-0.3-2.6 2.2-2.6 2.5 0 21.3 0 22.8 0 1.7 0 1.8 2.5 1.8 2.5z"/><path class="a" d="m163.8 119.8c0 1.2-0.9 2.1-2.1 2.1-1.1 0-2-0.9-2-2.1 0-1.1 0.9-2.1 2-2.1 1.2 0 2.1 1 2.1 2.1z"/><path class="a" d="m175 119.8c0 1.2-1 2.1-2.1 2.1-1.2 0-2.1-0.9-2.1-2.1 0-1.1 0.9-2.1 2.1-2.1 1.1 0 2.1 1 2.1 2.1z"/><path class="a" d="m186.5 119.8c0 1.2-0.9 2.1-2 2.1-1.2 0-2.1-0.9-2.1-2.1 0-1.1 0.9-2.1 2.1-2.1 1.1 0 2 1 2 2.1z"/><path class="a" d="m218.7 73.6c0 0-1.3-0.6-1.8-1.5-0.5-0.8-1.1-2.8-0.4-4.1 0.7-1.3 8.3-11.7 11.1-15.5 2.9-3.9 4.6-5.3 6.5-5.3 1.8 0 12.3 0 14.4 0 2.3 0 4 2.4 4 4.4 0 1.9 0 17.5 0 17.5"/><path class="a" d="m222.9 67.4h11.4v6.2"/><path class="a" d="m234.3 69c0 0 1 0 1.6 0 3.1 0 4.4 4.5 4.4 4.5"/><path class="a" d="m239.3 71c0 0 14.3 0 15.7 0 2.7 0 3 2.7 3 2.7"/><path class="a" d="m250.1 70.8c0 0 1.4-2 3-2 1.5 0 2.4 0 2.4 0"/><path class="a" d="m255.5 71v-3.6h5.2"/><path class="a" d="m252.4 58l7 9.4"/><path class="a" d="m248.5 47.2c0 0 3.7-0.5 6.7 3.5 2.9 4.1 3.6 5.5 3.6 5.5"/><path class="a" d="m265.3 65.3c0 0 2.1 2.7 2.3 3.5 0.4 1.2 0.2 2.1 0.2 2.1"/><path class="a" d="m224.7 67.2l9.6-13.3"/><path class="a" d="m231.3 67.3v-9.2"/><path class="a" d="m232.7 47.4c0 0 0-11.6 0-14 0-2.4 3.3-8 9.3-8 6.1 0 9 5.1 9 8.9 0 3.8 0 13.1 0 13.1"/><path class="a" d="m248.8 33.4c0 0-1.5 0.6-3.7-1-2.2-1.6-2.7-4.1-2.7-4.1"/><path class="a" d="m243.3 30.9c0 0-0.6 1.2-2.6 2.9-2 1.7-5.5 1.3-5.5 1.3"/><path class="a" d="m248 33.5c0 0 0 3.4 0 5.2 0 1.8-1.6 5.9-5.3 5.9-5.8 0-6.3-5.1-6.3-5.1"/><path class="a" d="m236.3 35.1v1.5"/><path class="a" d="m237.4 39.3c0 0-2.1 0.7-2.1-1.5 0-1.3 2-1 2-1"/><path class="a" d="m239 47v-3.2"/><path class="a" d="m244.7 47.2v-3"/><path class="a" d="m241.8 35.9c0 0.2-0.1 0.4-0.3 0.4-0.3 0-0.4-0.2-0.4-0.4 0-0.2 0.1-0.4 0.4-0.4 0.2 0 0.3 0.2 0.3 0.4z"/><path class="a" d="m246 35.9c0 0.2-0.1 0.4-0.3 0.4-0.2 0-0.4-0.2-0.4-0.4 0-0.2 0.2-0.4 0.4-0.4 0.2 0 0.3 0.2 0.3 0.4z"/><path class="b" d="m243.6 35.7c0 0 1.3 4 1 4-0.2 0-1.4 0-1.4 0"/><path class="b" d="m244 41.5c0 0-0.5 0.5-1.3 0.5-0.9 0.1-1.4-0.5-1.4-0.5"/><path class="a" d="m175.2 30.9c0 0 1.4 1.6 1.4 3.3 0 1.8 0 12.8 0 12.8"/><path class="a" d="m165 47.1c0 0 0-12.2 0-16.2 0-3.9 3.5-5 4.8-5 1.3 0 7.8 0 7.8 0 0 0 0 0.8 0 1.8 0 1-1.7 3.7-4 3.7-2.3 0-4.9 0-4.9 0l-0.5 7.1"/><path class="a" d="m168.8 41.2c0 0-0.3 0-0.8 0-0.4 0-1.1-0.4-1.1-1.3-0.1-0.9 0.4-1.2 0.8-1.2 0.3 0 1 0 1 0"/><path class="a" d="m165.1 41h2.3"/><path class="a" d="m171.7 35.9c0 0.2-0.1 0.4-0.3 0.4-0.2 0-0.4-0.2-0.4-0.4 0-0.2 0.2-0.3 0.4-0.3 0.2 0 0.3 0.1 0.3 0.3z"/><path class="a" d="m175.9 35.9c0 0.2-0.2 0.4-0.4 0.4-0.2 0-0.3-0.2-0.3-0.4 0-0.2 0.1-0.3 0.3-0.3 0.2 0 0.4 0.1 0.4 0.3z"/><path class="b" d="m173.2 34.8c0 0 0.3 1.3 0.8 2.7 0.3 1 1 3.2 0.8 3.2-0.3 0.1-2.1 0-2.1 0"/><path class="b" d="m174.3 43.1c0 0-0.4 0.2-1.2 0.3-0.8 0-1.7-0.5-1.7-0.5"/><path class="a" d="m147.6 73.8c-3 0-2.4-4.7-1.1-6.6 1-1.7 8.8-13 11.2-16.4 2.4-3.5 4.9-3.8 5.8-3.8 1 0 6.8 0 12.1 0 5.4 0 5.8 3.3 5.8 4.3 0 1 0 3 0 3"/><path class="a" d="m177 47.2c0 0 4.1-0.6 6.4 2.7 2.3 3.3 2.7 4.1 2.7 4.1"/><path class="a" d="m152.2 67.3h11v6.3"/><path class="a" d="m163.2 68.8c0 0 0.5 0 1.2 0 1.1 0 2.4 0.5 3.5 2 1.2 1.6 1.2 2.9 1.2 2.9"/><path class="a" d="m153.7 67.3l9.5-13.3"/><path class="a" d="m160.3 67.3v-9.2"/><path class="a" d="m168.6 71.8c0 0 7.5-0.1 7.5 0-0.1 0 2.8-15 3.5-16.1 0.8-1 1.7-1.6 4.8-1.6 3 0 19.9 0 21.8 0 1.9 0 2.4 1.1 2 3.1-0.4 2.1-3.4 16.6-3.4 16.6"/><path class="a" d="m177.5 73.7c0 0 2.9-15.1 3.7-17 0.6-1.7 2.1-2.6 3.2-2.6"/><path class="a" d="m181.5 77.9v5.2"/><path class="a" d="m160.6 83c0 0 38.5 0 40.3 0 1.8 0 5.6-0.2 7.5 6.3 1.9 6.5 7.9 26.5 7.9 26.5 0 0 9.4 3.3 10.6 4 1.3 0.7 0.8 1.9-0.6 1.9-1.3 0-29 0-29 0l0.2-6.1-8.7-23.4-21.8-0.2c0 0-2.1-0.6-4.2-2.7-2.3-2.3-2.4-4.9-2.4-6.3 0-1.5 0-5.1 0-5.1"/><path class="a" d="m216.1 121.7c0 0 0.3-1.5-1.1-2.1-1.6-0.6-10.2-3.8-10.2-3.8 0 0-7.9-26.1-9-29-1.1-2.9-4.5-3.8-5.5-3.8"/><path class="b" d="m197.5 115.6l7.3 0.2"/><path class="a" d="m197.6 92.2l2.6 0.1 8.9 23.5-0.1 1.6"/><path class="b" d="m216.3 115.8h-7.2"/><path class="a" d="m197.6 83.1l2.6 9.2-2.6-0.1c0 0-1.2-3.6-2-5.8-1-2.4-4-3.2-4-3.2z"/><path class="a" d="m145.1 78v43.8"/><path class="a" d="m150.9 78v43.8"/><path class="a" d="m137.7 121.9h165.2"/><path class="c" d="m85.8 50.1l11.2-4.5 11.3 4.5v2.3h-22.5z"/><path class="c" d="m85.8 67.1v-2.2h22.5v2.2z"/><path class="c" d="m92.4 52.5v1.4l-0.9 1h-2.7l-0.9-1v-1.4"/><path class="c" d="m87.9 64.8v-1.3l0.9-0.9h2.7l0.9 0.9v1.3"/><path class="c" d="m88.8 54.9v7.7"/><path class="c" d="m91.5 54.9v7.7"/><path class="c" d="m99.3 52.5v1.4l-0.9 1h-2.7l-0.9-1v-1.4"/><path class="c" d="m94.8 64.8v-1.3l0.9-0.9h2.7l0.9 0.9v1.3"/><path class="c" d="m95.7 54.9v7.7"/><path class="c" d="m98.4 54.9v7.7"/><path class="c" d="m106.1 52.5v1.4l-0.9 1h-2.7l-1-1v-1.4"/><path class="c" d="m101.5 64.8v-1.3l1-0.9h2.7l0.9 0.9v1.3"/><path class="c" d="m102.5 54.9v7.7"/><path class="c" d="m105.2 54.9v7.7"/><path class="c" d="m117.8 57.2c0 11.5-9.3 20.8-20.8 20.8-11.4 0-20.7-9.3-20.7-20.8 0-11.4 9.3-20.7 20.7-20.7 11.5 0 20.8 9.3 20.8 20.7z"/><path class="d" d="m324.9 24.5l-10.3 3.3c0 0 0.5-0.5 1-1.5 0.6-1 0.7-1.7 0.7-1.7z"/><path class="a" d="m317.2 8v-5.2h18.9l4.9 4.2v3.9"/><path class="a" d="m341.4 20.5c0 0 0 1.4-0.7 3.3-0.5 1.6-1.1 2.5-1.1 2.5"/><path class="a" d="m339 27.1c0 0-0.9 1.4-1.9 2.4-0.9 1-2.3 2.1-2.3 2.1h-23.9c0 0 1.9-1.2 3.7-3.8 0.9-1.3 1.7-3.2 1.7-3.2"/><path class="a" d="m341 7h-4.9v-4.2"/><path class="b" d="m328.2 14h5.9"/><path class="b" d="m327.5 16.8h6.6"/><path class="b" d="m329.1 19.9h-2.7"/><path class="a" d="m346.5 15.7c0 2.7-2.1 4.8-4.8 4.8-2.6 0-4.8-2.1-4.8-4.8 0-2.6 2.2-4.8 4.8-4.8 2.7 0 4.8 2.2 4.8 4.8z"/><path class="a" d="m345.1 19.1l4.6 4.6"/><path class="b" d="m342.9 11.1c0 0 0.4 3 0.2 4.9-0.1 2.7-0.5 4.4-0.5 4.4"/><path class="a" d="m301 24.3v-17.8c0 0 4.3 0 4.8 0 0.5 0 0.8 0.5 1 0.8 0.1 0.3 0.5 0.7 1.1 0.7 0.5 0 17.4 0 17.8 0 0.5 0 0.7 0.4 0.7 0.7 0 0.4 0 1 0 1"/><path class="a" d="m301 24.5l4.7-14.7h23.8l-4.6 14.7z"/><path class="b" d="m313 17.1c0 0.3-0.3 0.6-0.7 0.6-0.3 0-0.6-0.3-0.6-0.6 0-0.4 0.3-0.7 0.6-0.7 0.4 0 0.7 0.3 0.7 0.7z"/><path class="b" d="m316.6 17.1c0 0.3-0.3 0.6-0.7 0.6-0.4 0-0.7-0.3-0.7-0.6 0-0.4 0.3-0.7 0.7-0.7 0.4 0 0.7 0.3 0.7 0.7z"/><path class="b" d="m320.1 17.1c0 0.3-0.3 0.6-0.6 0.6-0.4 0-0.7-0.3-0.7-0.6 0-0.4 0.3-0.7 0.7-0.7 0.3 0 0.6 0.3 0.6 0.7z"/><path fill-rule="evenodd" class="e" d="m50.2 40.4l-41.4 10.8-8.1-38 38-9.9zm-40.1 8.7l37.9-9.9-10.5-33.8-34.7 9.1z"/><path class="f" d="m25.2 27.9l-1.4 0.4c-4.6 1.2-9.2-1.5-10.4-6.1l-1.1-4.1 0.9-0.2 1 4.1c1.1 4.1 5.3 6.5 9.3 5.5l1.5-0.4c4.1-1.1 6.5-5.2 5.5-9.3l-1.1-4.1 0.8-0.3 1.1 4.2c1.2 4.5-1.5 9.2-6.1 10.3z"/><path class="g" d="m13.7 21.3c-1.6 0.4-3.3-0.6-3.7-2.2-0.5-1.6 0.5-3.3 2.2-3.8l0.2 0.9c-1.2 0.3-1.9 1.5-1.6 2.7 0.3 1.2 1.5 1.9 2.7 1.6 0.7-0.2 1.2-0.7 1.5-1.3l0.8 0.3c-0.4 0.9-1.1 1.6-2.1 1.8z"/><path class="h" d="m30.6 16.9c-1.7 0.4-3.4-0.5-3.8-2.2-0.4-1.6 0.6-3.3 2.2-3.7l0.2 0.8c-1.2 0.3-1.9 1.5-1.6 2.7 0.3 1.2 1.6 1.9 2.7 1.6 0.7-0.2 1.3-0.7 1.5-1.3l0.8 0.3c-0.4 0.9-1.1 1.6-2 1.8z"/><path class="i" d="m33.5 6.1l-0.8 0.2-0.9-3.3c-0.3-1.3-1.7-2.1-3-1.8l-20 5.2c-1.3 0.4-2.1 1.7-1.7 3l0.8 3.3-0.8 0.3-0.9-3.3c-0.4-1.8 0.6-3.6 2.4-4.1l20-5.2c1.8-0.5 3.6 0.6 4.1 2.4z"/><path class="j" d="m433.2 17.8l1.4 2.4c0.1 0.2 0.1 0.4-0.1 0.5-0.1 0.1-0.3 0-0.4-0.1l-1.1-1.8-4.8 19.4q-0.1 0.1-0.2 0.2-0.1 0.1-0.2 0c-0.2 0-0.3-0.2-0.2-0.3l4.8-19.5-1.8 1.1c-0.1 0.1-0.3 0-0.4-0.1-0.1-0.2 0-0.4 0.1-0.4l2.4-1.5q0.1 0 0.2 0 0.1-0.1 0.2 0 0 0.1 0.1 0.1z"/><path class="j" d="m437.6 39.9l-0.1 0.1q-0.5 0.3-1 0.6c-0.2 0-0.4 0-0.5-0.2 0-0.1 0-0.3 0.2-0.4q0.5-0.3 1-0.6c0.2-0.1 0.4 0 0.5 0.1 0 0.2 0 0.4-0.1 0.4zm2.4-1.8c-0.1 0-0.3 0-0.4-0.1-0.1-0.1-0.1-0.3 0-0.4q0.5-0.4 0.9-0.9c0.1-0.1 0.3-0.1 0.4 0 0.1 0.1 0.1 0.3 0 0.4q-0.4 0.5-0.8 0.9-0.1 0.1-0.1 0.1zm-6.4 3.5q-0.1 0-0.1 0-0.6 0.1-1.3 0.2c-0.1 0.1-0.3-0.1-0.3-0.2 0-0.2 0.1-0.4 0.3-0.4q0.6-0.1 1.1-0.2c0.2 0 0.4 0.1 0.4 0.2 0 0.2 0 0.3-0.1 0.4zm9-7q-0.1 0.1-0.3 0c-0.2 0-0.2-0.2-0.1-0.4q0.3-0.5 0.5-1.1c0.1-0.1 0.2-0.2 0.4-0.1 0.2 0 0.2 0.2 0.2 0.4q-0.3 0.6-0.6 1.1 0 0.1-0.1 0.1zm-13.3 7.3q-0.1 0-0.2 0-0.6 0-1.3-0.1c-0.1-0.1-0.2-0.2-0.2-0.4 0-0.2 0.2-0.3 0.3-0.3q0.6 0.1 1.2 0.2c0.2 0 0.3 0.2 0.3 0.3q0 0.2-0.1 0.3zm14.7-11.3q-0.1 0-0.2 0c-0.2 0-0.3-0.2-0.3-0.3q0.2-0.6 0.2-1.2c0-0.2 0.2-0.3 0.3-0.3 0.2 0 0.3 0.1 0.3 0.3q0 0.6-0.1 1.3-0.1 0.1-0.2 0.2zm-18.9 10.2q-0.1 0.1-0.3 0.1-0.6-0.3-1.1-0.6c-0.2-0.1-0.2-0.2-0.1-0.4 0-0.1 0.2-0.2 0.4-0.1q0.5 0.3 1.1 0.5c0.1 0.1 0.2 0.2 0.1 0.4q0 0.1-0.1 0.1zm19-14.5q-0.1 0-0.1 0c-0.2 0-0.3-0.1-0.4-0.3q0-0.6-0.2-1.1c0-0.2 0.1-0.4 0.2-0.4 0.2 0 0.4 0.1 0.4 0.2q0.2 0.6 0.2 1.3 0.1 0.2-0.1 0.3zm-22.7 12.3c-0.1 0-0.2 0-0.3-0.1q-0.5-0.4-0.9-0.8c-0.2-0.2-0.1-0.4 0-0.5 0.1-0.1 0.3-0.1 0.4 0q0.4 0.5 0.9 0.9c0.1 0.1 0.1 0.3 0 0.4q0 0-0.1 0.1zm21.4-16.4q0 0 0 0c-0.1 0-0.3 0-0.4-0.2q-0.3-0.5-0.6-1c-0.1-0.2 0-0.4 0.1-0.5 0.2-0.1 0.3-0.1 0.4 0.1h0.1q0.3 0.6 0.6 1.2c0 0.1 0 0.3-0.2 0.4zm-24.1 13.1c-0.2 0-0.4 0-0.5-0.1v-0.1q-0.3-0.5-0.6-1c0-0.2 0-0.4 0.2-0.5 0.1 0 0.3 0 0.4 0.2q0.3 0.5 0.6 1c0.1 0.2 0 0.4-0.1 0.5zm21.6-16.7c-0.1 0-0.2 0-0.3-0.1q-0.5-0.4-0.9-0.8c-0.1-0.1-0.2-0.3 0-0.4 0.1-0.2 0.3-0.2 0.4-0.1q0.5 0.4 0.9 0.9c0.1 0.1 0.1 0.3 0 0.4q0 0.1-0.1 0.1zm-23.3 12.7q0 0 0 0c-0.2 0.1-0.4 0-0.4-0.2q-0.2-0.6-0.2-1.3c-0.1-0.1 0.1-0.3 0.2-0.3 0.2 0 0.3 0.1 0.4 0.3q0.1 0.6 0.2 1.2c0 0.1 0 0.2-0.2 0.3zm19.9-15.3q-0.1 0.1-0.3 0-0.5-0.3-1.1-0.5c-0.1-0.1-0.2-0.3-0.2-0.4 0.1-0.2 0.3-0.2 0.4-0.2q0.6 0.3 1.2 0.6c0.1 0 0.2 0.2 0.1 0.4q0 0-0.1 0.1zm-20.2 11q0 0-0.1 0c-0.2 0-0.3-0.1-0.3-0.3q0-0.6 0.1-1.3c0.1-0.1 0.2-0.2 0.4-0.2 0.2 0 0.3 0.2 0.2 0.4q-0.1 0.5-0.1 1.2 0 0.1-0.2 0.2zm16.1-12.4q-0.1 0.1-0.2 0-0.6-0.1-1.2-0.1c-0.1 0-0.3-0.2-0.3-0.4 0.1-0.1 0.2-0.2 0.4-0.2q0.6 0 1.2 0.1c0.2 0.1 0.3 0.2 0.3 0.4q-0.1 0.1-0.2 0.2zm-15 8.2q-0.2 0.1-0.3 0c-0.2 0-0.2-0.2-0.2-0.4q0.3-0.6 0.6-1.1c0-0.2 0.2-0.2 0.4-0.1 0.1 0 0.2 0.2 0.1 0.4q-0.3 0.5-0.5 1.1 0 0.1-0.1 0.1zm10.7-8.3q0 0.1-0.1 0.1-0.6 0-1.2 0.2c-0.1 0-0.3-0.1-0.3-0.2-0.1-0.2 0-0.4 0.2-0.4q0.6-0.2 1.2-0.2c0.2-0.1 0.4 0 0.4 0.2q0 0.2-0.2 0.3zm-8.5 4.7c-0.1 0-0.2 0-0.3-0.1-0.1-0.1-0.2-0.3-0.1-0.4q0.5-0.5 0.9-0.9c0.1-0.1 0.3-0.1 0.4 0 0.2 0.1 0.2 0.3 0 0.4q-0.4 0.4-0.8 0.9 0 0-0.1 0.1zm4.4-3.4q0 0 0 0-0.5 0.3-1 0.6c-0.2 0-0.4 0-0.5-0.1-0.1-0.2 0-0.4 0.1-0.4l0.2 0.2-0.2-0.3q0 0 0 0 0.6-0.3 1.1-0.6c0.2 0 0.4 0 0.4 0.2 0.1 0.1 0 0.3-0.1 0.4z"/><path fill-rule="evenodd" class="j" d="m439.4 43.1c-8.4 5-19.2 2.3-24.3-6.1-5-8.4-2.3-19.2 6.1-24.3 8.3-5 19.2-2.3 24.3 6.1 5 8.3 2.3 19.2-6.1 24.3zm-17.9-29.8c-8.1 4.8-10.7 15.3-5.8 23.4 4.8 8.1 15.3 10.7 23.4 5.8 8.1-4.8 10.7-15.3 5.8-23.4-4.8-8.1-15.3-10.7-23.4-5.8z"/><path fill-rule="evenodd" class="j" d="m422.1 30.5q-0.7-1.2-0.9-2.1-0.2-0.8 0.1-1.5 0.2-0.7 1-1.2 0.5-0.3 1.1-0.3 0.5 0 1 0.2 0.5 0.3 1 0.8 0.5 0.5 1.1 1.5 0.7 1.1 0.9 2 0.2 0.9 0 1.6-0.3 0.7-1 1.1-1 0.6-1.9 0.2-1.2-0.4-2.4-2.3zm0.9-0.5q1 1.6 1.7 2 0.7 0.3 1.3-0.1 0.6-0.3 0.6-1.1 0.1-0.8-0.9-2.4-1-1.7-1.7-2-0.7-0.3-1.3 0-0.6 0.4-0.6 1.1-0.1 0.8 0.9 2.5z"/><path fill-rule="evenodd" class="j" d="m434 29.3q-0.7-1.2-0.9-2.1-0.2-0.8 0-1.5 0.3-0.7 1-1.2 0.5-0.3 1.1-0.3 0.5 0 1 0.2 0.5 0.3 1.1 0.8 0.5 0.5 1.1 1.5 0.7 1.1 0.9 2 0.2 0.9-0.1 1.6-0.2 0.7-1 1.1-0.9 0.6-1.9 0.2-1.2-0.4-2.3-2.3zm0.8-0.5q1 1.6 1.7 2 0.8 0.3 1.3-0.1 0.6-0.3 0.6-1.1 0.1-0.8-0.9-2.4-1-1.7-1.7-2-0.7-0.3-1.3 0-0.6 0.4-0.6 1.1-0.1 0.8 0.9 2.5z"/></svg>