<svg version="1.2" xmlns="http://www.w3.org/2000/svg" viewBox="0 0 71 373" width="71" height="373"><defs><clipPath clipPathUnits="userSpaceOnUse" id="cp1"><path d="m160.28-48.53v421.53h-597.28v-421.53z"/></clipPath><linearGradient id="P" gradientUnits="userSpaceOnUse"/><linearGradient id="g1" x1="-10.5" y1="288.2" x2="120.8" y2="318.7" href="#P"><stop stop-color="#eb9322"/><stop offset="1" stop-color="#eb1e27"/></linearGradient><linearGradient id="g2" x1="-22.1" y1="304.6" x2="152.7" y2="345.2" href="#P"><stop stop-color="#eb9322"/><stop offset="1" stop-color="#eb1e27"/></linearGradient><linearGradient id="g3" x1="-24.5" y1="316.6" x2="111.9" y2="386.3" href="#P"><stop stop-color="#eb9322"/><stop offset="1" stop-color="#eb1e27"/></linearGradient><linearGradient id="g4" x1="-32.6" y1="309.4" x2="155.5" y2="353.1" href="#P"><stop stop-color="#eb9322"/><stop offset="1" stop-color="#eb1e27"/></linearGradient><linearGradient id="g5" x1="-35.6" y1="311.3" x2="152.5" y2="355" href="#P"><stop stop-color="#eb9322"/><stop offset="1" stop-color="#eb1e27"/></linearGradient><linearGradient id="g6" x1="-38.6" y1="313.1" x2="149.5" y2="356.8" href="#P"><stop stop-color="#eb9322"/><stop offset="1" stop-color="#eb1e27"/></linearGradient><linearGradient id="g7" x1="-31.6" y1="326.9" x2="102.6" y2="395.6" href="#P"><stop stop-color="#eb9322"/><stop offset="1" stop-color="#eb1e27"/></linearGradient><linearGradient id="g8" x1="-25" y1="318.2" x2="105.2" y2="384.7" href="#P"><stop stop-color="#eb9322"/><stop offset="1" stop-color="#eb1e27"/></linearGradient><linearGradient id="g9" x1="-27.9" y1="316.8" x2="106.4" y2="385.5" href="#P"><stop stop-color="#eb9322"/><stop offset="1" stop-color="#eb1e27"/></linearGradient><linearGradient id="g10" x1="-15.6" y1="302.6" x2="111.6" y2="367.6" href="#P"><stop stop-color="#eb9322"/><stop offset="1" stop-color="#eb1e27"/></linearGradient><linearGradient id="g11" x1="-10.5" y1="293.9" x2="115.4" y2="358.3" href="#P"><stop stop-color="#eb9322"/><stop offset="1" stop-color="#eb1e27"/></linearGradient><linearGradient id="g12" x1="7.9" y1="-14.2" x2="73.5" y2="6" href="#P"><stop stop-color="#eb9322"/><stop offset="1" stop-color="#eb1e27"/></linearGradient><linearGradient id="g13" x1="-1" y1="-6.4" x2="69.2" y2="15.1" href="#P"><stop stop-color="#eb9322"/><stop offset="1" stop-color="#eb1e27"/></linearGradient><linearGradient id="g14" x1="4.8" y1="1.8" x2="65.6" y2="20.5" href="#P"><stop stop-color="#eb9322"/><stop offset="1" stop-color="#eb1e27"/></linearGradient><linearGradient id="g15" x1="6.2" y1="-1.7" x2="66.7" y2="16.9" href="#P"><stop stop-color="#eb9322"/><stop offset="1" stop-color="#eb1e27"/></linearGradient><linearGradient id="g16" x1="7.8" y1="-6.3" x2="68.2" y2="12.2" href="#P"><stop stop-color="#eb9322"/><stop offset="1" stop-color="#eb1e27"/></linearGradient></defs><style>tspan{white-space:pre}.a{fill:url(#g1)}.b{fill:url(#g2)}.c{fill:url(#g3)}.d{fill:url(#g4)}.e{fill:url(#g5)}.f{fill:url(#g6)}.g{fill:url(#g7)}.h{fill:url(#g8)}.i{fill:url(#g9)}.j{fill:url(#g10)}.k{fill:url(#g11)}.l{fill:none}.m{fill:url(#g12)}.n{fill:url(#g13)}.o{fill:url(#g14)}.p{fill:url(#g15)}.q{fill:url(#g16)}</style><g clip-path="url(#cp1)"><path fill-rule="evenodd" class="a" d="m24.4 383.2c-0.3 0.1-0.5-0.1-0.6-0.3l-22.9-54.7c-0.1-0.2 0-0.5 0.2-0.6l46.2-19.3c0.2-0.1 0.5 0 0.6 0.2l22.9 54.7c0.1 0.2 0 0.5-0.2 0.6zm0-1l45.4-19-22.6-53.9-45.3 19z"/><path fill-rule="evenodd" class="b" d="m12.1 337.6c-0.1 0-0.2 0-0.2 0l-2.1-5.1c-0.1-0.1 0-0.1 0.1-0.2l35.1-14.7c0.1 0 0.1 0 0.2 0.1l2.1 5c0 0.1 0 0.2-0.1 0.2zm0-0.3l34.8-14.6-2-4.8-34.8 14.6z"/><path class="c" d="m27.3 373.9c-0.1 0-0.2 0-0.2-0.1l-8.9-21.2c0-0.1 0-0.2 0.1-0.2 0.1 0 0.2 0 0.2 0.1l8.8 21 35-14.6c0-0.1 0.1 0 0.2 0 0 0.1 0 0.2-0.1 0.3z"/><path fill-rule="evenodd" class="d" d="m13.7 341.5c-0.1 0-0.2 0-0.2-0.1l-0.6-1.5c0-0.1 0-0.1 0.1-0.2l35.1-14.7c0.1 0 0.2 0 0.2 0.1l0.6 1.5c0 0 0 0.1-0.1 0.2zm0.1-0.3l34.8-14.6-0.6-1.3-34.8 14.6z"/><path fill-rule="evenodd" class="e" d="m14.9 344.3c-0.1 0.1-0.2 0-0.2 0l-0.6-1.5c-0.1-0.1 0-0.2 0.1-0.2l35.1-14.7c0.1-0.1 0.1 0 0.2 0l0.6 1.5c0 0.1 0 0.2-0.1 0.2zm0.1-0.3l34.8-14.6-0.6-1.2-34.8 14.6z"/><path fill-rule="evenodd" class="f" d="m16.1 347.2c-0.1 0-0.2 0-0.2-0.1l-0.6-1.5c-0.1 0 0-0.1 0.1-0.2l35.1-14.7c0.1 0 0.1 0 0.2 0.1l0.6 1.5c0 0 0 0.1-0.1 0.2zm0-0.3l34.8-14.6-0.5-1.3-34.8 14.6z"/><path class="g" d="m34.2 370.6c0 0.1-0.1 0-0.2-0.1l-3.4-8.1-3.9 1.6 3.4 8.2c0.1 0.1 0 0.1-0.1 0.2 0 0-0.1 0-0.2-0.1l-3.4-8.3c-0.1-0.1 0-0.2 0-0.2l4.2-1.8c0.1 0 0.2 0 0.3 0.1l3.4 8.3c0.1 0.1 0 0.2-0.1 0.2z"/><path class="h" d="m40.7 367.9c-0.1 0.1-0.2 0-0.2-0.1l-5.3-12.5-3.9 1.6 5.3 12.6c0 0.1 0 0.2-0.1 0.2-0.1 0-0.2 0-0.2-0.1l-5.3-12.7c-0.1-0.1 0-0.2 0.1-0.2l4.1-1.7c0.1-0.1 0.2 0 0.3 0l5.3 12.7c0 0.1 0 0.2-0.1 0.2z"/><path class="i" d="m47.1 365.2c-0.1 0.1-0.2 0-0.2-0.1l-3.4-8.1-3.9 1.6 3.4 8.2c0.1 0.1 0 0.2-0.1 0.2 0 0-0.1 0-0.2-0.1l-3.4-8.3c-0.1-0.1 0-0.2 0-0.2l4.2-1.8c0.1 0 0.2 0 0.2 0.1l3.5 8.3c0 0.1 0 0.2-0.1 0.2z"/><path class="j" d="m53.6 362.5c-0.1 0.1-0.2 0-0.2-0.1l-7.7-18.3-3.9 1.6 7.7 18.4c0 0.1 0 0.2-0.1 0.2-0.1 0-0.2 0-0.2-0.1l-7.8-18.5c0-0.1 0-0.2 0.1-0.3l4.2-1.7c0.1 0 0.2 0 0.2 0.1l7.8 18.5c0 0.1 0 0.2-0.1 0.2z"/><path class="k" d="m60 359.8c-0.1 0.1-0.2 0-0.2-0.1l-9.2-22-3.9 1.6 9.2 22.1c0 0.1 0 0.2-0.1 0.2-0.1 0-0.2 0-0.2-0.1l-9.3-22.2c0-0.1 0-0.2 0.1-0.2l4.2-1.8c0.1 0 0.2 0 0.2 0.1l9.3 22.2c0 0.1 0 0.2-0.1 0.2z"/><path class="l" d="m161.3-48.5v421.5h-597.3v-421.5z"/></g><path fill-rule="evenodd" class="m" d="m40.9 33.1q-0.1 0-0.1 0-0.2-0.1-0.2-0.3v-7.2h-13.6c-2 0-3.7-1.7-3.7-3.7v-17.6c0-2.1 1.7-3.7 3.7-3.7h27.7c2.1 0 3.7 1.6 3.7 3.7v17.6c0 2-1.6 3.7-3.7 3.7h-6.3l-7.3 7.4q-0.1 0.1-0.2 0.1zm-13.9-32c-1.7 0-3.1 1.4-3.1 3.2v17.6c0 1.7 1.4 3.1 3.1 3.1h13.9c0.1 0 0.2 0.1 0.2 0.3v6.8l6.9-7q0.1-0.1 0.2-0.1h6.5c1.8 0 3.2-1.4 3.2-3.1v-17.6c0-1.8-1.4-3.2-3.2-3.2z"/><path fill-rule="evenodd" class="n" d="m52.1 20.9h-22c-0.1 0-0.2-0.1-0.2-0.2 0-0.1 0.1-0.2 0.2-0.2h21.8v-12.6c0-0.1 0.1-0.2 0.2-0.2 0.2 0 0.3 0.1 0.3 0.2v12.8c0 0.1-0.1 0.2-0.3 0.2zm-22-0.2q0 0 0 0 0 0 0 0h22q0.1 0 0.1 0v-12.8c0 0-0.1 0-0.1 0v12.8z"/><path fill-rule="evenodd" class="o" d="m48.7 19.1h-3.8c-0.1 0-0.2-0.1-0.2-0.3v-3.4c0-0.1 0.1-0.2 0.2-0.2h3.8c0.1 0 0.2 0.1 0.2 0.2v3.4c0 0.2-0.1 0.3-0.2 0.3zm-3.8-3.7q0 0 0 0v3.4q0 0.1 0 0.1h3.8q0 0 0-0.1v-3.4q0 0 0 0zm3.7 3.4h-3.7v-3.3h3.7zm-3.5-0.2h3.3v-3h-3.3z"/><path fill-rule="evenodd" class="p" d="m42.6 19.1h-3.8c-0.1 0-0.2-0.1-0.2-0.3v-7.4c0-0.1 0.1-0.2 0.2-0.2h3.8c0.1 0 0.2 0.1 0.2 0.2v7.4c0 0.2-0.1 0.3-0.2 0.3zm-3.8-7.7q0 0 0 0v7.4q0 0.1 0 0.1h3.8q0 0 0-0.1v-7.4q0 0 0 0zm3.7 7.4h-3.7v-7.4h3.7zm-3.5-0.2h3.3v-7h-3.3z"/><path fill-rule="evenodd" class="q" d="m36.5 19.1h-3.8c-0.1 0-0.2-0.1-0.2-0.3v-11.5c0-0.1 0.1-0.2 0.2-0.2h3.8c0.1 0 0.2 0.1 0.2 0.2v11.5c0 0.2-0.1 0.3-0.2 0.3zm-3.8-11.8q0 0 0 0v11.5q0 0.1 0 0.1h3.8q0 0 0-0.1v-11.5q0 0 0 0zm3.7 11.5h-3.7v-11.5h3.7zm-3.5-0.1h3.3v-11.1h-3.3z"/></svg>