<svg version="1.2" xmlns="http://www.w3.org/2000/svg" viewBox="0 0 70 57" width="70" height="57"><defs><clipPath clipPathUnits="userSpaceOnUse" id="cp1"><path d="m79.28 0.47v421.53h-597.28v-421.53zm-286.01 260.44c0-27.36-22.18-49.54-49.55-49.54-27.36 0-49.55 22.18-49.55 49.54v59.99c0 27.37 22.19 49.55 49.55 49.55 27.37 0 49.55-22.18 49.55-49.55zm-0.46-167.67c0-27.12-21.98-49.09-49.09-49.09-27.11 0-49.09 21.97-49.09 49.09v59.43c0 27.12 21.98 49.09 49.09 49.09 27.11 0 49.09-21.97 49.09-49.09zm108.88 168.01c0-27.07-21.94-49.01-49-49.01h-0.01c-27.06 0-49 21.94-49 49.01v59.33c0 27.06 21.94 49 49 49h0.01c27.06 0 49-21.94 49-49zm0.05-167.98c0-27.09-21.97-49.05-49.05-49.05h-0.01c-27.08 0-49.05 21.96-49.05 49.05v59.39c0 27.09 21.97 49.05 49.05 49.05h0.01c27.08 0 49.05-21.96 49.05-49.05zm109.32 167.73c0-27.29-22.12-49.41-49.41-49.41-27.29 0-49.41 22.12-49.41 49.41v59.82c0 27.29 22.12 49.42 49.41 49.42 27.29 0 49.41-22.13 49.41-49.42zm-0.36-167.73c0-27.09-21.96-49.05-49.05-49.05-27.09 0-49.05 21.96-49.05 49.05v59.39c0 27.09 21.96 49.05 49.05 49.05 27.09 0 49.05-21.96 49.05-49.05z"/></clipPath><linearGradient id="P" gradientUnits="userSpaceOnUse"/><linearGradient id="g1" x1="6" y1="-49.6" x2="132.3" y2="43" href="#P"><stop stop-color="#eb9322"/><stop offset="1" stop-color="#eb1e27"/></linearGradient><linearGradient id="g2" x1="-32.6" y1="10.7" x2="76.1" y2="90.4" href="#P"><stop stop-color="#eb9322"/><stop offset="1" stop-color="#eb1e27"/></linearGradient><linearGradient id="g3" x1="-3.5" y1="-58.3" x2="137.7" y2="45.3" href="#P"><stop stop-color="#eb9322"/><stop offset="1" stop-color="#eb1e27"/></linearGradient></defs><style>.a{fill:url(#g1)}.b{fill:url(#g2)}.c{fill:url(#g3)}</style><g clip-path="url(#cp1)"><path fill-rule="evenodd" class="a" d="m37.5 14.4c-0.1 0.1-0.3 0-0.4-0.1l-12.5-26q0-0.1 0-0.2 0.1-0.2 0.2-0.2c6.9-2.1 14.2-2.1 21.1 0.2 7.3 2.4 13.5 7 17.9 13.3q0.1 0.1 0 0.2 0 0.2-0.1 0.2l-26.1 12.6q-0.1 0-0.1 0zm-12.1-26l12.2 25.3 25.4-12.3c-4.2-6-10.2-10.4-17.3-12.7-6.6-2.2-13.6-2.3-20.3-0.3z"/><path class="b" d="m19.3 52.4q-0.2 0-0.3 0c-2.3-1.2-4.4-2.6-6.4-4.3-0.1-0.1-0.1-0.3 0-0.4 0.1-0.1 0.3-0.2 0.5-0.1 1.9 1.6 4 3 6.2 4.2 0.2 0.1 0.2 0.3 0.1 0.4q0 0.1-0.1 0.2z"/><path fill-rule="evenodd" class="c" d="m68.3 32.1c-3.5 10.9-11.9 18.9-22 22.3-6.9 2.4-14.6 2.6-22.1 0.1-0.1 0-0.2-0.2-0.2-0.4q0.1-0.1 0.2-0.2l9.5-29.1q0 0 0 0l-16.1-33.1c-7.2 4.3-12.6 11-15.2 19-3.7 11.5-1 24.3 7 33.4 0.1 0.1 0.1 0.3 0 0.5-0.1 0.1-0.3 0.1-0.5-0.1-8.2-9.2-10.9-22.3-7.1-34 2.7-8.3 8.3-15.2 15.8-19.5q0.1-0.1 0.3 0 0.1 0 0.2 0.1l16 33.1 33-16q0.1-0.1 0.3-0.1 0.1 0.1 0.1 0.2c3.1 7.6 3.4 16.1 0.8 23.8zm-1.2-23.2l-5.1 2.4 7.1 14.1c0.7-5.6 0-11.3-2-16.5zm-0.8 26.5l-10.6-21-5.6 2.7 12.5 24.7q2.2-2.9 3.7-6.4zm-8.8 11.9l-13.8-27.1-5.5 2.7 14.2 28q2.7-1.6 5.1-3.6zm-5.5 3.8l-14.2-28-3.7 1.8q0 0 0 0l-0.9 2.9 13.2 25.9q2.9-1 5.6-2.6zm-6.1 2.7l-12.9-25.5-2.7 8.4 9.4 18.6q3.2-0.4 6.2-1.5zm-21.3 0.2q3.7 1.1 7.3 1.5l-4.7-9.3zm14.6 1.3l-9.2-18.1-2.7 8.4 5.1 9.9q3.4 0.3 6.8-0.2zm23.1-13.2l-12.6-24.8-5.6 2.7 13.7 27q2.4-2.2 4.5-4.9zm6.7-16l-7.4-14.6-5.6 2.7 10.5 20.7q0.6-1.4 1.2-3 0.9-2.8 1.3-5.8z"/></g></svg>