<svg version="1.2" xmlns="http://www.w3.org/2000/svg" viewBox="0 0 559 261" width="559" height="261"><defs><clipPath clipPathUnits="userSpaceOnUse" id="cp1"><path d="m569.95-160.53v421.53h-597.28v-421.53z"/></clipPath><linearGradient id="P" gradientUnits="userSpaceOnUse"/><linearGradient id="g1" x1="465" y1="125.7" x2="730.3" y2="266.9" href="#P"><stop stop-color="#eb9322"/><stop offset="1" stop-color="#eb1e27"/></linearGradient><linearGradient id="g2" x1="455.4" y1="265.3" x2="577.3" y2="294" href="#P"><stop stop-color="#eb9322"/><stop offset="1" stop-color="#eb1e27"/></linearGradient><linearGradient id="g3" x1="459" y1="256.2" x2="575.7" y2="283.8" href="#P"><stop stop-color="#eb9322"/><stop offset="1" stop-color="#eb1e27"/></linearGradient><linearGradient id="g4" x1="457.4" y1="249.4" x2="574.9" y2="304.6" href="#P"><stop stop-color="#eb9322"/><stop offset="1" stop-color="#eb1e27"/></linearGradient><linearGradient id="g5" x1="480.3" y1="188.2" x2="589.6" y2="239.6" href="#P"><stop stop-color="#eb9322"/><stop offset="1" stop-color="#eb1e27"/></linearGradient><linearGradient id="g6" x1="470.8" y1="215" x2="594.1" y2="244.1" href="#P"><stop stop-color="#eb9322"/><stop offset="1" stop-color="#eb1e27"/></linearGradient><linearGradient id="g7" x1="467.8" y1="241.4" x2="580.5" y2="268" href="#P"><stop stop-color="#eb9322"/><stop offset="1" stop-color="#eb1e27"/></linearGradient><linearGradient id="g8" x1="477" y1="236.2" x2="573.7" y2="259" href="#P"><stop stop-color="#eb9322"/><stop offset="1" stop-color="#eb1e27"/></linearGradient><linearGradient id="g9" x1="467.1" y1="233.5" x2="584.9" y2="261.3" href="#P"><stop stop-color="#eb9322"/><stop offset="1" stop-color="#eb1e27"/></linearGradient><linearGradient id="g10" x1="459.1" y1="251" x2="583.1" y2="280.2" href="#P"><stop stop-color="#eb9322"/><stop offset="1" stop-color="#eb1e27"/></linearGradient><linearGradient id="g11" x1="466.7" y1="217.5" x2="600.4" y2="249" href="#P"><stop stop-color="#eb9322"/><stop offset="1" stop-color="#eb1e27"/></linearGradient><linearGradient id="g12" x1="460" y1="236" x2="593.5" y2="267.5" href="#P"><stop stop-color="#eb9322"/><stop offset="1" stop-color="#eb1e27"/></linearGradient><linearGradient id="g13" x1="453.3" y1="254" x2="586.8" y2="285.6" href="#P"><stop stop-color="#eb9322"/><stop offset="1" stop-color="#eb1e27"/></linearGradient><linearGradient id="g14" x1="473.4" y1="210.5" x2="589.7" y2="237.9" href="#P"><stop stop-color="#eb9322"/><stop offset="1" stop-color="#eb1e27"/></linearGradient><linearGradient id="g15" x1="471.7" y1="212.6" x2="589.8" y2="240.5" href="#P"><stop stop-color="#eb9322"/><stop offset="1" stop-color="#eb1e27"/></linearGradient><linearGradient id="g16" x1="468.4" y1="228.5" x2="584.7" y2="256" href="#P"><stop stop-color="#eb9322"/><stop offset="1" stop-color="#eb1e27"/></linearGradient><linearGradient id="g17" x1="471" y1="223.6" x2="584.1" y2="250.3" href="#P"><stop stop-color="#eb9322"/><stop offset="1" stop-color="#eb1e27"/></linearGradient><linearGradient id="g18" x1="466.6" y1="230.6" x2="584.6" y2="258.5" href="#P"><stop stop-color="#eb9322"/><stop offset="1" stop-color="#eb1e27"/></linearGradient><linearGradient id="g19" x1="461.1" y1="249.7" x2="579.2" y2="277.5" href="#P"><stop stop-color="#eb9322"/><stop offset="1" stop-color="#eb1e27"/></linearGradient><linearGradient id="g20" x1="463" y1="247.4" x2="579.6" y2="274.9" href="#P"><stop stop-color="#eb9322"/><stop offset="1" stop-color="#eb1e27"/></linearGradient><linearGradient id="g21" x1="470.1" y1="244.6" x2="577.5" y2="269.9" href="#P"><stop stop-color="#eb9322"/><stop offset="1" stop-color="#eb1e27"/></linearGradient><linearGradient id="g22" x1="477.1" y1="206.4" x2="587.5" y2="232.4" href="#P"><stop stop-color="#eb9322"/><stop offset="1" stop-color="#eb1e27"/></linearGradient><linearGradient id="g23" x1="0" y1="-15" x2="62.7" y2="17.6" href="#P"><stop stop-color="#eb9322"/><stop offset="1" stop-color="#eb1e27"/></linearGradient><linearGradient id="g24" x1="-8.8" y1="-8.3" x2="64.3" y2="29.7" href="#P"><stop stop-color="#eb9322"/><stop offset="1" stop-color="#eb1e27"/></linearGradient><linearGradient id="g25" x1="-13.4" y1="-9.7" x2="64.9" y2="31" href="#P"><stop stop-color="#eb9322"/><stop offset="1" stop-color="#eb1e27"/></linearGradient></defs><style>tspan{white-space:pre}.a{fill:url(#g1)}.b{fill:url(#g2)}.c{fill:url(#g3)}.d{fill:url(#g4)}.e{fill:url(#g5)}.f{fill:url(#g6)}.g{fill:url(#g7)}.h{fill:url(#g8)}.i{fill:url(#g9)}.j{fill:url(#g10)}.k{fill:url(#g11)}.l{fill:url(#g12)}.m{fill:url(#g13)}.n{fill:url(#g14)}.o{fill:url(#g15)}.p{fill:url(#g16)}.q{fill:url(#g17)}.r{fill:url(#g18)}.s{fill:url(#g19)}.t{fill:url(#g20)}.u{fill:url(#g21)}.v{fill:url(#g22)}.w{fill:none}.x{fill:url(#g23)}.y{fill:url(#g24)}.z{fill:url(#g25)}</style><g clip-path="url(#cp1)"><path fill-rule="evenodd" class="a" d="m520.4 304.6c-4.3 0-8-2.9-9.1-7l-20.5-77.9c-0.6-2.4-0.3-5 1-7.1 1.3-2.2 3.3-3.8 5.7-4.4l35.4-9.3q1.1-0.3 2.4-0.3c4.3 0 8 2.9 9.1 7l20.5 77.9c0.6 2.4 0.3 5-1 7.1-1.3 2.2-3.3 3.8-5.7 4.4l-35.4 9.3q-1.1 0.3-2.4 0.3zm14.9-105.2q-1.1 0-2.2 0.3l-35.3 9.3c-4.6 1.2-7.4 5.9-6.2 10.5l20.5 77.9c1 3.7 4.4 6.4 8.3 6.4q1.1 0 2.2-0.3l35.3-9.3c2.3-0.6 4.1-2 5.3-4 1.2-2 1.5-4.3 0.9-6.5l-20.5-77.9q-0.1-0.4-0.3-0.8v-0.2h-0.2l-45.7 12.1q0 0-0.1 0c-0.2 0-0.3-0.1-0.4-0.3-0.1-0.2 0.1-0.5 0.3-0.5l45.7-12.1-0.1-0.2c-1.5-2.7-4.4-4.4-7.5-4.4z"/><path class="b" d="m512.3 294.3c-0.2 0-0.4-0.2-0.4-0.3q-0.1-0.2 0-0.4 0.1-0.1 0.3-0.1l37.8-10q0 0 0.1 0c0.1 0 0.3 0.1 0.4 0.3q0 0.2-0.1 0.3-0.1 0.2-0.2 0.2l-37.8 10q-0.1 0-0.1 0z"/><path class="c" d="m556 282.5c-0.2 0-0.4-0.1-0.4-0.3-0.1-0.2 0.1-0.4 0.3-0.5l6.2-1.6q0.1 0 0.1 0c0.2 0 0.4 0.1 0.4 0.3 0.1 0.2-0.1 0.4-0.3 0.5l-6.2 1.6q-0.1 0-0.1 0z"/><path fill-rule="evenodd" class="d" d="m538.7 296.4c-1.5 0-2.8-1-3.2-2.5-0.5-1.8 0.6-3.6 2.3-4q0.5-0.1 0.9-0.1c1.5 0 2.8 1 3.2 2.4 0.2 0.9 0.1 1.8-0.4 2.5-0.4 0.8-1.1 1.3-2 1.6q-0.4 0.1-0.8 0.1zm0-6.2q-0.4 0-0.8 0.1c-0.7 0.2-1.3 0.7-1.7 1.3-0.4 0.7-0.5 1.5-0.3 2.2 0.3 1.3 1.5 2.2 2.8 2.2q0 0 0 0 0.4 0 0.7-0.1c0.8-0.2 1.4-0.7 1.8-1.4 0.4-0.6 0.5-1.4 0.3-2.2-0.4-1.2-1.5-2.1-2.8-2.1z"/><path fill-rule="evenodd" class="e" d="m513.4 209.7c-0.5 0-0.9-0.4-1-0.8-0.2-0.6 0.2-1.1 0.7-1.3l7.2-1.9q0.1 0 0.2 0c0.5 0 0.9 0.3 1 0.8q0.1 0.4-0.1 0.8-0.2 0.3-0.6 0.5l-7.1 1.8q-0.2 0.1-0.3 0.1zm7-3.6l-7.2 1.9c-0.3 0.1-0.5 0.4-0.4 0.8 0.1 0.2 0.3 0.4 0.6 0.4h0.1l7.2-1.9q0.2 0 0.4-0.2 0.1-0.3 0-0.5c-0.1-0.3-0.3-0.5-0.6-0.5z"/><path class="f" d="m511.1 238.6c-1.8 0-3.5-0.7-4.7-2q-0.1-0.1-0.1-0.2 0-0.2 0.1-0.2 0.1-0.1 0.2-0.1 0.1 0 0.2 0.1c1.1 1.1 2.7 1.8 4.3 1.8q0.7 0 1.5-0.2c1.5-0.4 2.7-1.4 3.5-2.7 0.8-1.4 1-2.9 0.6-4.5-0.6-2.5-3-4.3-5.6-4.3q-0.8 0-1.5 0.2c-2.3 0.6-4 2.5-4.3 4.9 0 0.1-0.2 0.3-0.3 0.3-0.3-0.1-0.4-0.2-0.4-0.4 0.4-2.6 2.3-4.8 4.8-5.4q0.8-0.3 1.7-0.3c2.9 0 5.5 2 6.3 4.9 0.9 3.4-1.2 7-4.7 7.9q-0.8 0.2-1.6 0.2z"/><path class="g" d="m521.9 256.3q-0.1 0-0.1 0-0.1-0.1-0.2-0.2 0-0.1 0.1-0.3 0.3-0.5 0.4-1.1c0.1-0.1 0.2-0.2 0.3-0.2 0.3 0.1 0.4 0.2 0.3 0.4q-0.2 0.7-0.5 1.3-0.1 0.1-0.2 0.1z"/><path class="h" d="m522.7 253.4c-0.2 0-0.3-0.1-0.3-0.3q0-0.8-0.2-1.6c-0.3-1.2-0.9-2.2-1.9-3-0.1-0.1-0.1-0.3 0-0.5q0.1-0.1 0.2-0.1 0.2 0 0.2 0.1c1.1 0.9 1.8 2 2.1 3.3q0.3 0.9 0.2 1.8c0 0.2-0.1 0.3-0.2 0.3l-0.1 0.1z"/><path class="i" d="m516.6 259.4c-3 0-5.6-1.9-6.3-4.8-0.9-3.5 1.2-7 4.6-7.9q0.8-0.2 1.7-0.2 1.2 0 2.3 0.4 0.1 0.1 0.2 0.2 0 0.1 0 0.2c-0.1 0.1-0.2 0.2-0.3 0.2q-0.1 0-0.1 0-1.1-0.4-2.1-0.4-0.8 0-1.5 0.2c-1.5 0.4-2.8 1.4-3.6 2.7-0.8 1.4-1 2.9-0.6 4.4 0.7 2.6 3 4.4 5.7 4.4q0.7 0 1.4-0.2c1.2-0.3 2.2-0.9 2.9-1.8q0.1-0.1 0.3-0.1 0.1 0 0.2 0.1c0.1 0.1 0.1 0.3 0 0.5-0.8 0.9-1.9 1.6-3.2 1.9q-0.8 0.2-1.6 0.2z"/><path class="j" d="m522 280.3c-2.9 0-5.5-2-6.2-4.9-0.5-1.9-0.1-4 1.1-5.6q0.1-0.1 0.3-0.1 0 0 0.1 0.1c0.2 0.1 0.2 0.3 0.1 0.4-1.1 1.4-1.5 3.3-1 5.1 0.7 2.5 3 4.3 5.6 4.3q0.8 0 1.5-0.2c3.1-0.8 5-4 4.2-7.1-0.6-2.5-2.8-4.2-5.3-4.4-0.2 0-0.3-0.1-0.3-0.3 0-0.2 0.2-0.3 0.3-0.3 2.8 0.2 5.2 2.1 5.9 4.8 0.4 1.7 0.2 3.4-0.7 4.9-0.8 1.5-2.2 2.6-3.9 3q-0.8 0.3-1.7 0.3z"/><path class="k" d="m511.2 233.6q0 0-0.1 0l-2.4-1.4q-0.1-0.1-0.2-0.2 0-0.2 0.1-0.3 0.1-0.1 0.2-0.1 0.1 0 0.2 0l2.1 1.3 2.5-4.2q0.1-0.2 0.2-0.2 0.1 0 0.2 0.1 0.1 0.1 0.1 0.2 0.1 0.1 0 0.2l-2.6 4.5q0 0.1-0.2 0.1z"/><path class="l" d="m516.9 255q-0.1 0-0.2 0l-2.4-1.4q-0.1-0.1-0.1-0.2-0.1-0.1 0-0.3 0.1-0.1 0.3-0.1 0.1 0 0.1 0l2.2 1.3 2.4-4.2q0.1-0.1 0.3-0.2 0.1 0 0.1 0.1c0.2 0.1 0.2 0.3 0.1 0.4l-2.5 4.5q-0.1 0.1-0.2 0.1z"/><path class="m" d="m522.4 276q-0.1 0-0.2-0.1l-2.4-1.4c-0.1-0.1-0.2-0.2-0.1-0.4q0.1-0.1 0.3-0.2 0.1 0 0.2 0.1l2.1 1.2 2.4-4.1q0.1-0.2 0.3-0.2 0.1 0 0.1 0.1 0.2 0 0.2 0.1 0 0.2 0 0.3l-2.6 4.4q-0.1 0.1-0.2 0.2z"/><path class="n" d="m521.9 226.4c-0.2 0-0.3-0.1-0.3-0.2-0.1-0.2 0-0.3 0.2-0.4l9.9-2.6q0.1 0 0.1 0 0.3 0 0.3 0.2c0.1 0.2 0 0.4-0.2 0.4l-9.9 2.6z"/><path class="o" d="m523 230.8c-0.1 0-0.2-0.1-0.3-0.2q0-0.1 0.1-0.3 0-0.1 0.2-0.1l14-3.7q0 0 0 0 0.3 0 0.4 0.2 0 0.2 0 0.3-0.1 0.1-0.2 0.1l-14.1 3.7z"/><path class="p" d="m527.3 247c-0.2 0-0.3-0.1-0.3-0.3-0.1-0.1 0-0.3 0.2-0.4l9.9-2.6q0.1 0 0.1 0 0.3 0 0.3 0.2c0.1 0.2 0 0.4-0.2 0.4l-9.9 2.6z"/><path class="q" d="m541.2 243.3c-0.2 0-0.3-0.1-0.3-0.2q-0.1-0.2 0-0.3 0.1-0.1 0.2-0.1l6.3-1.7q0 0 0 0 0.3 0 0.4 0.2 0 0.2-0.1 0.3 0 0.1-0.1 0.1l-6.3 1.7z"/><path class="r" d="m528.4 251.3c-0.1 0-0.2 0-0.3-0.2 0-0.2 0.1-0.3 0.3-0.4l14-3.7q0 0 0 0 0.3 0 0.4 0.3c0 0.1-0.1 0.3-0.2 0.3l-14.1 3.7z"/><path class="s" d="m534.1 273c-0.1 0-0.2-0.1-0.3-0.2q0-0.1 0.1-0.2 0-0.1 0.2-0.2l14-3.7q0 0 0 0 0.3 0 0.4 0.3c0 0.1-0.1 0.3-0.2 0.3l-14.1 3.7z"/><path class="t" d="m533 268.7c-0.2 0-0.3-0.1-0.3-0.3-0.1-0.1 0-0.3 0.2-0.4l10.5-2.7q0.1 0 0.1 0 0.3 0 0.3 0.2c0.1 0.2 0 0.3-0.2 0.4l-10.5 2.7z"/><path class="u" d="m547.3 264.9c-0.1 0-0.2-0.1-0.3-0.3q0-0.1 0.1-0.2 0-0.1 0.1-0.1l3.6-1q0 0 0 0 0.3 0.1 0.3 0.3c0.1 0.1 0 0.3-0.2 0.3l-3.5 1z"/><path class="v" d="m535.9 222.7c-0.1 0-0.2-0.1-0.3-0.2q0-0.1 0.1-0.2 0-0.2 0.1-0.2l4.7-1.2q0 0 0.1 0 0.3 0 0.3 0.2 0 0.1 0 0.2-0.1 0.2-0.2 0.2l-4.7 1.2z"/><path class="w" d="m568.9-160.5v421.5h-597.2v-421.5z"/></g><path class="x" d="m35 25.5q0 0-0.1 0l-33.8-8q-0.1-0.1-0.2-0.2-0.1-0.1 0-0.2l1-4.6c0.1-0.1 0.2-0.2 0.4-0.2 0.2 0 0.3 0.2 0.3 0.4l-1 4.2 33.2 7.9 3.8-16.3-33.1-7.8-2.2 8.9c0 0.1-0.1 0.2-0.3 0.2-0.2 0-0.4-0.2-0.3-0.4l2.2-9.2c0-0.2 0.1-0.3 0.3-0.3l33.9 8c0.2 0.1 0.3 0.3 0.3 0.4l-4.1 16.9c0 0.2-0.1 0.3-0.3 0.3z"/><path fill-rule="evenodd" class="y" d="m16.9 8.5c0.1-0.2 0.3-0.3 0.5-0.2l2.3 0.5c0.8 0.2 1.4 0.6 1.7 1.1 0.2 0.4 0.3 0.9 0.2 1.4-0.3 1-1.1 1.4-2.1 1.4l1 2.4q0.1 0.1 0.1 0.3c0 0.2-0.3 0.3-0.4 0.3q-0.3-0.1-0.3-0.3l-1.3-2.7-1.8-0.5-0.5 2.2c0 0.2-0.2 0.3-0.4 0.2-0.2 0-0.4-0.2-0.3-0.4zm2 3.5c0.9 0.2 1.7-0.1 1.9-0.9 0.2-0.8-0.3-1.4-1.3-1.7l-2-0.4-0.6 2.5z"/><path fill-rule="evenodd" class="z" d="m22.1 11.5c0-0.2 0.2-0.4 0.4-0.3 0.2 0 0.3 0.2 0.3 0.4l-0.2 0.7c0.5-0.5 1.2-0.9 2.1-0.7 1.1 0.3 2 1.5 1.6 3-0.4 1.5-1.7 2.2-2.8 1.9-0.9-0.2-1.3-0.8-1.6-1.4l-0.4 2c-0.1 0.2-0.3 0.3-0.5 0.3-0.2-0.1-0.3-0.2-0.2-0.4zm3.5 3v-0.1c0.2-1.1-0.3-2-1.2-2.2-0.9-0.2-1.9 0.4-2.1 1.4l-0.1 0.1c-0.2 1 0.4 2 1.3 2.2 0.9 0.2 1.8-0.3 2.1-1.4z"/></svg>